<?xml version="1.0" encoding="UTF-8" standalone="no"?>
<svg
   xmlns:dc="http://purl.org/dc/elements/1.1/"
   xmlns:cc="http://creativecommons.org/ns#"
   xmlns:rdf="http://www.w3.org/1999/02/22-rdf-syntax-ns#"
   xmlns:svg="http://www.w3.org/2000/svg"
   xmlns="http://www.w3.org/2000/svg"
   xmlns:sodipodi="http://sodipodi.sourceforge.net/DTD/sodipodi-0.dtd"
   xmlns:inkscape="http://www.inkscape.org/namespaces/inkscape"
   inkscape:version="1.0.1 (3bc2e813f5, 2020-09-07)"
   id="svg8"
   version="1.1"
   viewBox="0 0 600 300"
   height="300mm"
   sodipodi:docname="case_v2.1.svg"
   width="600mm">
  <defs
     id="defs2">
    <rect
       id="rect5803"
       height="15.908464"
       width="70.193207"
       y="4.844059"
       x="84.196365" />
    <rect
       id="rect1474"
       height="15.908464"
       width="70.193207"
       y="4.844059"
       x="84.196365" />
    <rect
       x="84.196365"
       y="4.844059"
       width="70.193207"
       height="15.908464"
       id="rect5803-1" />
    <rect
       x="84.196365"
       y="4.844059"
       width="70.193207"
       height="15.908464"
       id="rect1726" />
  </defs>
  <sodipodi:namedview
     inkscape:window-maximized="1"
     inkscape:window-y="-8"
     inkscape:window-x="1912"
     inkscape:window-height="1027"
     inkscape:window-width="1920"
     showgrid="false"
     inkscape:document-rotation="0"
     inkscape:current-layer="svg8"
     inkscape:document-units="mm"
     inkscape:cy="453.04897"
     inkscape:cx="965.34282"
     inkscape:zoom="0.5"
     inkscape:pageshadow="2"
     inkscape:pageopacity="0.0"
     borderopacity="1.0"
     bordercolor="#666666"
     pagecolor="#ffffff"
     id="base">
    <inkscape:grid
       type="xygrid"
       id="grid32" />
  </sodipodi:namedview>
  <metadata
     id="metadata5">
    <rdf:RDF>
      <cc:Work
         rdf:about="">
        <dc:format>image/svg+xml</dc:format>
        <dc:type
           rdf:resource="http://purl.org/dc/dcmitype/StillImage" />
        <dc:title>Console</dc:title>
      </cc:Work>
    </rdf:RDF>
  </metadata>
  <g
     id="layer1"
     inkscape:groupmode="layer"
     inkscape:label="Layer 1" />
  <title
     id="title1150">Console</title>
  <metadata
     id="metadata1152">
    <rdf:RDF>
      <cc:Work>
        <dc:title>Box - Console</dc:title>
        <dc:date>2020-10-05 16:33:26</dc:date>
        <dc:source>boxes Console --x=60 --y=120 --h=100 --outside=false --front_height=30 --angle=50 --thickness=3 --tabs=0 --debug=false --reference=100 --burn=0.10000000149011612 --FingerJoint_angle=90 --FingerJoint_style=rectangular --FingerJoint_surroundingspaces=0.5 --FingerJoint_edge_width=1 --FingerJoint_finger=2 --FingerJoint_play=0 --FingerJoint_space=2 --FingerJoint_width=1 --Stackable_angle=60 --Stackable_height=2 --Stackable_holedistance=1 --Stackable_width=4</dc:source>
        <dc:description>Console with slanted panel

Created with Boxes.py (https://festi.info/boxes.py)
Command line: boxes Console --x=60 --y=120 --h=100 --outside=false --front_height=30 --angle=50 --thickness=3 --tabs=0 --debug=false --reference=100 --burn=0.10000000149011612 --FingerJoint_angle=90 --FingerJoint_style=rectangular --FingerJoint_surroundingspaces=0.5 --FingerJoint_edge_width=1 --FingerJoint_finger=2 --FingerJoint_play=0 --FingerJoint_space=2 --FingerJoint_width=1 --Stackable_angle=60 --Stackable_height=2 --Stackable_holedistance=1 --Stackable_width=4
</dc:description>
      </cc:Work>
    </rdf:RDF>
  </metadata>
  <title
     id="title1186">Console</title>
  <metadata
     id="metadata1188">
    <rdf:RDF>
      <cc:Work>
        <dc:title>Box - Console</dc:title>
        <dc:date>2020-10-05 16:36:16</dc:date>
        <dc:source>boxes Console --x=120 --y=100 --h=100 --outside=false --front_height=30 --angle=50 --thickness=3 --tabs=0 --debug=false --reference=100 --burn=0.10000000149011612 --FingerJoint_angle=90 --FingerJoint_style=rectangular --FingerJoint_surroundingspaces=0.5 --FingerJoint_edge_width=1 --FingerJoint_finger=2 --FingerJoint_play=0 --FingerJoint_space=2 --FingerJoint_width=1 --Stackable_angle=60 --Stackable_height=2 --Stackable_holedistance=1 --Stackable_width=4</dc:source>
        <dc:description>Console with slanted panel

Created with Boxes.py (https://festi.info/boxes.py)
Command line: boxes Console --x=120 --y=100 --h=100 --outside=false --front_height=30 --angle=50 --thickness=3 --tabs=0 --debug=false --reference=100 --burn=0.10000000149011612 --FingerJoint_angle=90 --FingerJoint_style=rectangular --FingerJoint_surroundingspaces=0.5 --FingerJoint_edge_width=1 --FingerJoint_finger=2 --FingerJoint_play=0 --FingerJoint_space=2 --FingerJoint_width=1 --Stackable_angle=60 --Stackable_height=2 --Stackable_holedistance=1 --Stackable_width=4
</dc:description>
      </cc:Work>
    </rdf:RDF>
  </metadata>
  <g
     id="p-1"
     style="fill:none;stroke-linecap:round;stroke-linejoin:round;stroke:#ff0000;stroke-opacity:1;stroke-width:0.49992052;stroke-miterlimit:4;stroke-dasharray:none"
     transform="matrix(1,0,0,1.000318,-5.4922061,106.38684)"
     inkscape:export-xdpi="96"
     inkscape:export-ydpi="96">
    <path
       style="stroke:#ff0000;stroke-opacity:1;stroke-width:0.49992052;stroke-miterlimit:4;stroke-dasharray:none"
       d="M 13.1,132.35 H 18 c 0.1,0 0,-0.1 0,0 v 2.9 c 0,0.055 0.045,0.1 0.1,0.1 h 6 c 0.055,0 0.1,-0.045 0.1,-0.1 v -2.9 c 0,-0.1 -0.1,0 0,0 H 30 c 0.1,0 0,-0.1 0,0 v 2.9 c 0,0.055 0.045,0.1 0.1,0.1 h 6 c 0.055,0 0.1,-0.045 0.1,-0.1 v -2.9 c 0,-0.1 -0.1,0 0,0 H 42 c 0.1,0 0,-0.1 0,0 v 2.9 c 0,0.055 0.045,0.1 0.1,0.1 h 6 c 0.055,0 0.1,-0.045 0.1,-0.1 v -2.9 c 0,-0.1 -0.1,0 0,0 H 54 c 0.1,0 0,-0.1 0,0 v 2.9 c 0,0.055 0.045,0.1 0.1,0.1 h 6 c 0.055,0 0.1,-0.045 0.1,-0.1 v -2.9 c 0,-0.1 -0.1,0 0,0 H 66 c 0.1,0 0,-0.1 0,0 v 2.9 c 0,0.055 0.045,0.1 0.1,0.1 h 6 c 0.055,0 0.1,-0.045 0.1,-0.1 v -2.9 c 0,-0.1 -0.1,0 0,0 H 78 c 0.1,0 0,-0.1 0,0 v 2.9 c 0,0.055 0.045,0.1 0.1,0.1 h 6 c 0.055,0 0.1,-0.045 0.1,-0.1 v -2.9 c 0,-0.1 -0.1,0 0,0 H 90 c 0.1,0 0,-0.1 0,0 v 2.9 c 0,0.055 0.045,0.1 0.1,0.1 h 6 c 0.055,0 0.1,-0.045 0.1,-0.1 v -2.9 c 0,-0.1 -0.1,0 0,0 h 5.8 c 0.1,0 0,-0.1 0,0 v 2.9 c 0,0.055 0.045,0.1 0.1,0.1 h 6 c 0.055,0 0.1,-0.045 0.1,-0.1 v -2.9 c 0,-0.1 -0.1,0 0,0 h 4.9 c 0.055,0 0.1,-0.045 0.1,-0.1 v -5.9 c 0,-0.1 -0.1,0 0,0 h 2.9 c 0.055,0 0.1,-0.045 0.1,-0.1 v -6 c 0,-0.055 -0.045,-0.1 -0.1,-0.1 h -2.9 c -0.1,0 0,0.1 0,0 v -5.8 c 0,-0.1 -0.1,0 0,0 h 2.9 c 0.055,0 0.1,-0.045 0.1,-0.1 v -6 c 0,-0.055 -0.045,-0.1 -0.1,-0.1 h -2.9 c -0.1,0 0,0.1 0,0 v -5.9 c 0,-0.024 -0.008,-0.046 -0.023,-0.064 l -4.236,-5.048 c -0.064,-0.077 -0.076,0.064 0,0 l 2.222,-1.864 c 0.042,-0.036 0.047,-0.099 0.012,-0.141 l -3.857,-4.596 c -0.035,-0.042 -0.098,-0.048 -0.141,-0.013 l -2.221,1.865 c -0.077,0.064 0.064,0.076 0,0 l -3.728,-4.443 c -0.065,-0.077 -0.077,0.064 0,0 l 2.221,-1.865 c 0.042,-0.035 0.048,-0.098 0.013,-0.14 l -3.857,-4.597 c -0.036,-0.042 -0.099,-0.048 -0.141,-0.012 l -2.222,1.864 c -0.076,0.064 0.065,0.077 0,0 l -3.728,-4.443 c -0.064,-0.077 -0.076,0.064 0,0 l 2.222,-1.864 c 0.042,-0.036 0.048,-0.099 0.012,-0.141 L 91.891,72.152 C 91.856,72.109 91.793,72.104 91.75,72.139 l -2.221,1.865 c -0.077,0.064 0.064,0.076 0,0 L 85.801,69.56 c -0.065,-0.076 -0.077,0.065 0,0 l 2.221,-1.864 c 0.043,-0.035 0.048,-0.098 0.013,-0.141 l -3.857,-4.596 c -0.036,-0.042 -0.099,-0.048 -0.141,-0.012 l -2.222,1.864 c -0.076,0.064 0.065,0.077 0,0 l -3.728,-4.443 c -0.064,-0.077 -0.076,0.064 0,0 l 2.222,-1.864 c 0.042,-0.036 0.048,-0.099 0.012,-0.141 l -3.857,-4.596 c -0.035,-0.043 -0.098,-0.048 -0.14,-0.013 l -2.222,1.864 c -0.077,0.065 0.064,0.077 0,0 l -3.728,-4.443 c -0.064,-0.076 -0.077,0.065 0,0 l 2.221,-1.864 c 0.043,-0.035 0.048,-0.098 0.013,-0.141 L 68.751,44.574 C 68.715,44.532 68.652,44.526 68.61,44.562 l -2.221,1.864 c -0.077,0.064 0.064,0.077 0,0 L 62.66,41.983 c -0.064,-0.077 -0.076,0.064 0,0 l 2.222,-1.864 c 0.042,-0.036 0.048,-0.099 0.012,-0.141 l -3.856,-4.596 c -0.036,-0.043 -0.099,-0.048 -0.141,-0.013 l -2.222,1.864 c -0.076,0.065 0.064,0.077 0,0 L 54.44,32.186 C 54.421,32.163 54.393,32.15 54.363,32.15 h -5.531 c -0.1,0 0,0.1 0,0 v -2.9 c 0,-0.055 -0.045,-0.1 -0.1,-0.1 h -6 c -0.056,0 -0.1,0.045 -0.1,0.1 v 2.9 c 0,0.1 0.1,0 0,0 h -5.8 c -0.1,0 0,0.1 0,0 v -2.9 c 0,-0.055 -0.045,-0.1 -0.1,-0.1 h -6 c -0.056,0 -0.1,0.045 -0.1,0.1 v 2.9 c 0,0.1 0.1,0 0,0 h -5.8 c -0.1,0 0,0.1 0,0 v -2.9 c 0,-0.055 -0.045,-0.1 -0.1,-0.1 h -6 c -0.056,0 -0.1,0.045 -0.1,0.1 v 2.9 c 0,0.1 0.1,0 0,0 H 13.1 c -0.055,0 -0.1,0.045 -0.1,0.1 v 4.9 c 0,0.1 0.1,0 0,0 h -2.9 c -0.055,0 -0.1,0.045 -0.1,0.1 v 6 c 0,0.055 0.045,0.1 0.1,0.1 H 13 c 0.1,0 0,-0.1 0,0 v 5.8 c 0,0.1 0.1,0 0,0 h -2.9 c -0.055,0 -0.1,0.045 -0.1,0.1 v 6 c 0,0.055 0.045,0.1 0.1,0.1 H 13 c 0.1,0 0,-0.1 0,0 v 5.8 c 0,0.1 0.1,0 0,0 h -2.9 c -0.055,0 -0.1,0.045 -0.1,0.1 v 6 c 0,0.055 0.045,0.1 0.1,0.1 H 13 c 0.1,0 0,-0.1 0,0 v 5.8 c 0,0.1 0.1,0 0,0 h -2.9 c -0.055,0 -0.1,0.045 -0.1,0.1 v 6 c 0,0.055 0.045,0.1 0.1,0.1 H 13 c 0.1,0 0,-0.1 0,0 v 5.8 c 0,0.1 0.1,0 0,0 h -2.9 c -0.055,0 -0.1,0.045 -0.1,0.1 v 6 c 0,0.055 0.045,0.1 0.1,0.1 H 13 c 0.1,0 0,-0.1 0,0 v 5.8 c 0,0.1 0.1,0 0,0 h -2.9 c -0.055,0 -0.1,0.045 -0.1,0.1 v 6 c 0,0.055 0.045,0.1 0.1,0.1 H 13 c 0.1,0 0,-0.1 0,0 v 5.8 c 0,0.1 0.1,0 0,0 h -2.9 c -0.055,0 -0.1,0.045 -0.1,0.1 v 6 c 0,0.055 0.045,0.1 0.1,0.1 H 13 c 0.1,0 0,-0.1 0,0 v 5.8 c 0,0.1 0.1,0 0,0 h -2.9 c -0.055,0 -0.1,0.045 -0.1,0.1 v 6 c 0,0.055 0.045,0.1 0.1,0.1 H 13 c 0.1,0 0,-0.1 0,0 v 4.9 c 0,0.055 0.045,0.1 0.1,0.1 z"
       stroke="#000000"
       stroke-width="0.2"
       id="path1195" />
  </g>
  <g
     id="p-2"
     style="fill:none;stroke-linecap:round;stroke-linejoin:round;stroke:#ff0000;stroke-opacity:1;stroke-width:0.49992052;stroke-miterlimit:4;stroke-dasharray:none"
     transform="matrix(1,0,0,1.000318,-5.4922061,106.38684)"
     inkscape:export-xdpi="96"
     inkscape:export-ydpi="96">
    <path
       style="stroke:#ff0000;stroke-opacity:1;stroke-width:0.49992052;stroke-miterlimit:4;stroke-dasharray:none"
       d="m 120.8,132.35 h 4.9 c 0.1,0 0,-0.1 0,0 v 2.9 c 0,0.055 0.045,0.1 0.1,0.1 h 6 c 0.055,0 0.1,-0.045 0.1,-0.1 v -2.9 c 0,-0.1 -0.1,0 0,0 h 5.8 c 0.1,0 0,-0.1 0,0 v 2.9 c 0,0.055 0.045,0.1 0.1,0.1 h 6 c 0.055,0 0.1,-0.045 0.1,-0.1 v -2.9 c 0,-0.1 -0.1,0 0,0 h 5.8 c 0.1,0 0,-0.1 0,0 v 2.9 c 0,0.055 0.045,0.1 0.1,0.1 h 6 c 0.055,0 0.1,-0.045 0.1,-0.1 v -2.9 c 0,-0.1 -0.1,0 0,0 h 5.8 c 0.1,0 0,-0.1 0,0 v 2.9 c 0,0.055 0.045,0.1 0.1,0.1 h 6 c 0.055,0 0.1,-0.045 0.1,-0.1 v -2.9 c 0,-0.1 -0.1,0 0,0 h 5.8 c 0.1,0 0,-0.1 0,0 v 2.9 c 0,0.055 0.045,0.1 0.1,0.1 h 6 c 0.055,0 0.1,-0.045 0.1,-0.1 v -2.9 c 0,-0.1 -0.1,0 0,0 h 5.8 c 0.1,0 0,-0.1 0,0 v 2.9 c 0,0.055 0.045,0.1 0.1,0.1 h 6 c 0.055,0 0.1,-0.045 0.1,-0.1 v -2.9 c 0,-0.1 -0.1,0 0,0 h 5.8 c 0.1,0 0,-0.1 0,0 v 2.9 c 0,0.055 0.045,0.1 0.1,0.1 h 6 c 0.055,0 0.1,-0.045 0.1,-0.1 v -2.9 c 0,-0.1 -0.1,0 0,0 h 5.8 c 0.1,0 0,-0.1 0,0 v 2.9 c 0,0.055 0.045,0.1 0.1,0.1 h 6 c 0.055,0 0.1,-0.045 0.1,-0.1 v -2.9 c 0,-0.1 -0.1,0 0,0 h 4.9 c 0.055,0 0.1,-0.045 0.1,-0.1 v -5.9 c 0,-0.1 -0.1,0 0,0 h 2.9 c 0.055,0 0.1,-0.045 0.1,-0.1 v -6 c 0,-0.055 -0.045,-0.1 -0.1,-0.1 h -2.9 c -0.1,0 0,0.1 0,0 v -5.8 c 0,-0.1 -0.1,0 0,0 h 2.9 c 0.055,0 0.1,-0.045 0.1,-0.1 v -6 c 0,-0.055 -0.045,-0.1 -0.1,-0.1 h -2.9 c -0.1,0 0,0.1 0,0 v -5.9 c 0,-0.024 -0.008,-0.046 -0.023,-0.064 l -4.236,-5.048 c -0.064,-0.077 -0.076,0.064 0,0 l 2.222,-1.864 c 0.042,-0.036 0.047,-0.099 0.012,-0.141 l -3.857,-4.596 c -0.035,-0.042 -0.098,-0.048 -0.141,-0.013 l -2.221,1.865 c -0.077,0.064 0.064,0.076 0,0 l -3.728,-4.443 c -0.065,-0.077 -0.077,0.064 0,0 l 2.221,-1.865 c 0.042,-0.035 0.048,-0.098 0.013,-0.14 l -3.857,-4.597 c -0.036,-0.042 -0.099,-0.048 -0.141,-0.012 l -2.222,1.864 c -0.076,0.064 0.065,0.077 0,0 l -3.728,-4.443 c -0.064,-0.077 -0.076,0.064 0,0 l 2.222,-1.864 c 0.042,-0.036 0.048,-0.099 0.012,-0.141 l -3.857,-4.596 c -0.035,-0.043 -0.098,-0.048 -0.141,-0.013 l -2.221,1.865 c -0.077,0.064 0.064,0.076 0,0 l -3.728,-4.444 c -0.065,-0.076 -0.077,0.065 0,0 l 2.221,-1.864 c 0.043,-0.035 0.048,-0.098 0.013,-0.141 l -3.857,-4.596 c -0.036,-0.042 -0.099,-0.048 -0.141,-0.012 l -2.222,1.864 c -0.076,0.064 0.065,0.077 0,0 l -3.728,-4.443 c -0.064,-0.077 -0.076,0.064 0,0 l 2.222,-1.864 c 0.042,-0.036 0.048,-0.099 0.012,-0.141 l -3.857,-4.596 c -0.035,-0.043 -0.098,-0.048 -0.14,-0.013 l -2.222,1.864 c -0.077,0.065 0.064,0.077 0,0 l -3.728,-4.443 c -0.064,-0.076 -0.077,0.065 0,0 l 2.221,-1.864 c 0.043,-0.035 0.048,-0.098 0.013,-0.141 l -3.857,-4.596 c -0.036,-0.042 -0.099,-0.048 -0.141,-0.012 l -2.221,1.864 c -0.077,0.064 0.064,0.077 0,0 l -3.729,-4.443 c -0.064,-0.077 -0.076,0.064 0,0 l 2.222,-1.864 c 0.042,-0.036 0.048,-0.099 0.012,-0.141 l -3.856,-4.596 c -0.036,-0.043 -0.099,-0.048 -0.141,-0.013 l -2.222,1.864 c -0.076,0.065 0.064,0.077 0,0 l -4.235,-5.047 c -0.019,-0.023 -0.047,-0.036 -0.077,-0.036 h -5.531 c -0.1,0 0,0.1 0,0 v -2.9 c 0,-0.055 -0.045,-0.1 -0.1,-0.1 h -6 c -0.056,0 -0.1,0.045 -0.1,0.1 v 2.9 c 0,0.1 0.1,0 0,0 h -5.8 c -0.1,0 0,0.1 0,0 v -2.9 c 0,-0.055 -0.045,-0.1 -0.1,-0.1 h -6 c -0.056,0 -0.1,0.045 -0.1,0.1 v 2.9 c 0,0.1 0.1,0 0,0 h -5.8 c -0.1,0 0,0.1 0,0 v -2.9 c 0,-0.055 -0.045,-0.1 -0.1,-0.1 h -6 c -0.056,0 -0.1,0.045 -0.1,0.1 v 2.9 c 0,0.1 0.1,0 0,0 H 120.8 c -0.055,0 -0.1,0.045 -0.1,0.1 v 4.9 c 0,0.1 0.1,0 0,0 h -2.9 c -0.055,0 -0.1,0.045 -0.1,0.1 v 6 c 0,0.055 0.045,0.1 0.1,0.1 h 2.9 c 0.1,0 0,-0.1 0,0 v 5.8 c 0,0.1 0.1,0 0,0 h -2.9 c -0.055,0 -0.1,0.045 -0.1,0.1 v 6 c 0,0.055 0.045,0.1 0.1,0.1 h 2.9 c 0.1,0 0,-0.1 0,0 v 5.8 c 0,0.1 0.1,0 0,0 h -2.9 c -0.055,0 -0.1,0.045 -0.1,0.1 v 6 c 0,0.055 0.045,0.1 0.1,0.1 h 2.9 c 0.1,0 0,-0.1 0,0 v 5.8 c 0,0.1 0.1,0 0,0 h -2.9 c -0.055,0 -0.1,0.045 -0.1,0.1 v 6 c 0,0.055 0.045,0.1 0.1,0.1 h 2.9 c 0.1,0 0,-0.1 0,0 v 5.8 c 0,0.1 0.1,0 0,0 h -2.9 c -0.055,0 -0.1,0.045 -0.1,0.1 v 6 c 0,0.055 0.045,0.1 0.1,0.1 h 2.9 c 0.1,0 0,-0.1 0,0 v 5.8 c 0,0.1 0.1,0 0,0 h -2.9 c -0.055,0 -0.1,0.045 -0.1,0.1 v 6 c 0,0.055 0.045,0.1 0.1,0.1 h 2.9 c 0.1,0 0,-0.1 0,0 v 5.8 c 0,0.1 0.1,0 0,0 h -2.9 c -0.055,0 -0.1,0.045 -0.1,0.1 v 6 c 0,0.055 0.045,0.1 0.1,0.1 h 2.9 c 0.1,0 0,-0.1 0,0 v 5.8 c 0,0.1 0.1,0 0,0 h -2.9 c -0.055,0 -0.1,0.045 -0.1,0.1 v 6 c 0,0.055 0.045,0.1 0.1,0.1 h 2.9 c 0.1,0 0,-0.1 0,0 v 4.9 c 0,0.055 0.045,0.1 0.1,0.1 z"
       stroke="#000000"
       stroke-width="0.2"
       id="path1198" />
  </g>
  <g
     id="p-3"
     style="fill:none;stroke-linecap:round;stroke-linejoin:round;stroke:#ff0000;stroke-opacity:1;stroke-width:0.49992052;stroke-miterlimit:4;stroke-dasharray:none"
     transform="matrix(1,0,0,1.000318,-222.08999,-5.1883742)"
     inkscape:export-xdpi="96"
     inkscape:export-ydpi="96">
    <path
       style="stroke:#ff0000;stroke-opacity:1;stroke-width:0.49992052;stroke-miterlimit:4;stroke-dasharray:none"
       d="m 229.35,136.2 h 5 c 0.055,0 0.1,-0.045 0.1,-0.1 v -2.9 c 0,-0.1 -0.1,0 0,0 h 5.8 c 0.1,0 0,-0.1 0,0 v 2.9 c 0,0.055 0.045,0.1 0.1,0.1 h 6 c 0.055,0 0.1,-0.045 0.1,-0.1 v -2.9 c 0,-0.1 -0.1,0 0,0 h 5.8 c 0.1,0 0,-0.1 0,0 v 2.9 c 0,0.055 0.045,0.1 0.1,0.1 h 6 c 0.055,0 0.1,-0.045 0.1,-0.1 v -2.9 c 0,-0.1 -0.1,0 0,0 h 5.8 c 0.1,0 0,-0.1 0,0 v 2.9 c 0,0.055 0.045,0.1 0.1,0.1 h 6 c 0.055,0 0.1,-0.045 0.1,-0.1 v -2.9 c 0,-0.1 -0.1,0 0,0 h 5.8 c 0.1,0 0,-0.1 0,0 v 2.9 c 0,0.055 0.045,0.1 0.1,0.1 h 6 c 0.055,0 0.1,-0.045 0.1,-0.1 v -2.9 c 0,-0.1 -0.1,0 0,0 h 5.8 c 0.1,0 0,-0.1 0,0 v 2.9 c 0,0.055 0.045,0.1 0.1,0.1 h 6 c 0.055,0 0.1,-0.045 0.1,-0.1 v -2.9 c 0,-0.1 -0.1,0 0,0 h 5.8 c 0.1,0 0,-0.1 0,0 v 2.9 c 0,0.055 0.045,0.1 0.1,0.1 h 6 c 0.055,0 0.1,-0.045 0.1,-0.1 v -2.9 c 0,-0.1 -0.1,0 0,0 h 5.8 c 0.1,0 0,-0.1 0,0 v 2.9 c 0,0.055 0.045,0.1 0.1,0.1 h 6 c 0.055,0 0.1,-0.045 0.1,-0.1 v -2.9 c 0,-0.1 -0.1,0 0,0 h 5.8 c 0.1,0 0,-0.1 0,0 v 2.9 c 0,0.055 0.045,0.1 0.1,0.1 h 5 3 c 0.055,0 0.1,-0.045 0.1,-0.1 v -3 -3 c 0,-0.055 -0.045,-0.1 -0.1,-0.1 h -2.9 c -0.1,0 0,0.1 0,0 v -5.8 c 0,-0.1 -0.1,0 0,0 h 2.9 c 0.055,0 0.1,-0.045 0.1,-0.1 v -6 c 0,-0.055 -0.045,-0.1 -0.1,-0.1 h -2.9 c -0.1,0 0,0.1 0,0 v -5.8 c 0,-0.1 -0.1,0 0,0 h 2.9 c 0.055,0 0.1,-0.045 0.1,-0.1 v -6 c 0,-0.055 -0.045,-0.1 -0.1,-0.1 h -2.9 c -0.1,0 0,0.1 0,0 v -5.8 c 0,-0.1 -0.1,0 0,0 h 2.9 c 0.055,0 0.1,-0.045 0.1,-0.1 v -6 c 0,-0.055 -0.045,-0.1 -0.1,-0.1 h -2.9 c -0.1,0 0,0.1 0,0 v -5.8 c 0,-0.1 -0.1,0 0,0 h 2.9 c 0.055,0 0.1,-0.045 0.1,-0.1 v -6 c 0,-0.055 -0.045,-0.1 -0.1,-0.1 h -2.9 c -0.1,0 0,0.1 0,0 v -5.8 c 0,-0.1 -0.1,0 0,0 h 2.9 c 0.055,0 0.1,-0.045 0.1,-0.1 v -6 c 0,-0.055 -0.045,-0.1 -0.1,-0.1 h -2.9 c -0.1,0 0,0.1 0,0 v -5.8 c 0,-0.1 -0.1,0 0,0 h 2.9 c 0.055,0 0.1,-0.045 0.1,-0.1 v -6 c 0,-0.055 -0.045,-0.1 -0.1,-0.1 h -2.9 c -0.1,0 0,0.1 0,0 v -5.8 c 0,-0.1 -0.1,0 0,0 h 2.9 c 0.055,0 0.1,-0.045 0.1,-0.1 v -6 c 0,-0.055 -0.045,-0.1 -0.1,-0.1 h -2.9 c -0.1,0 0,0.1 0,0 v -5.8 c 0,-0.1 -0.1,0 0,0 h 2.9 c 0.055,0 0.1,-0.045 0.1,-0.1 v -6 c 0,-0.055 -0.045,-0.1 -0.1,-0.1 h -2.9 c -0.1,0 0,0.1 0,0 v -5.8 c 0,-0.1 -0.1,0 0,0 h 2.9 c 0.055,0 0.1,-0.045 0.1,-0.1 v -6 c 0,-0.055 -0.045,-0.1 -0.1,-0.1 h -2.9 c -0.1,0 0,0.1 0,0 v -5.8 c 0,-0.1 -0.1,0 0,0 h 2.9 c 0.055,0 0.1,-0.045 0.1,-0.1 v -3 -3 c 0,-0.055 -0.045,-0.1 -0.1,-0.1 h -3 -5 c -0.055,0 -0.1,0.045 -0.1,0.1 V 13 c 0,0.1 0.1,0 0,0 h -5.8 c -0.1,0 0,0.1 0,0 v -2.9 c 0,-0.055 -0.045,-0.1 -0.1,-0.1 h -6 c -0.055,0 -0.1,0.045 -0.1,0.1 V 13 c 0,0.1 0.1,0 0,0 h -5.8 c -0.1,0 0,0.1 0,0 v -2.9 c 0,-0.055 -0.045,-0.1 -0.1,-0.1 h -6 c -0.055,0 -0.1,0.045 -0.1,0.1 V 13 c 0,0.1 0.1,0 0,0 h -5.8 c -0.1,0 0,0.1 0,0 v -2.9 c 0,-0.055 -0.045,-0.1 -0.1,-0.1 h -6 c -0.055,0 -0.1,0.045 -0.1,0.1 V 13 c 0,0.1 0.1,0 0,0 h -5.8 c -0.1,0 0,0.1 0,0 v -2.9 c 0,-0.055 -0.045,-0.1 -0.1,-0.1 h -6 c -0.055,0 -0.1,0.045 -0.1,0.1 V 13 c 0,0.1 0.1,0 0,0 h -5.8 c -0.1,0 0,0.1 0,0 v -2.9 c 0,-0.055 -0.045,-0.1 -0.1,-0.1 h -6 c -0.055,0 -0.1,0.045 -0.1,0.1 V 13 c 0,0.1 0.1,0 0,0 h -5.8 c -0.1,0 0,0.1 0,0 v -2.9 c 0,-0.055 -0.045,-0.1 -0.1,-0.1 h -6 c -0.055,0 -0.1,0.045 -0.1,0.1 V 13 c 0,0.1 0.1,0 0,0 h -5.8 c -0.1,0 0,0.1 0,0 v -2.9 c 0,-0.055 -0.045,-0.1 -0.1,-0.1 h -6 c -0.055,0 -0.1,0.045 -0.1,0.1 V 13 c 0,0.1 0.1,0 0,0 h -5.8 c -0.1,0 0,0.1 0,0 v -2.9 c 0,-0.055 -0.045,-0.1 -0.1,-0.1 h -5 -3 c -0.055,0 -0.1,0.045 -0.1,0.1 v 3 3 c 0,0.055 0.045,0.1 0.1,0.1 h 2.9 c 0.1,0 0,-0.1 0,0 V 22 c 0,0.1 0.1,0 0,0 h -2.9 c -0.055,0 -0.1,0.045 -0.1,0.1 v 6 c 0,0.055 0.045,0.1 0.1,0.1 h 2.9 c 0.1,0 0,-0.1 0,0 V 34 c 0,0.1 0.1,0 0,0 h -2.9 c -0.055,0 -0.1,0.045 -0.1,0.1 v 6 c 0,0.055 0.045,0.1 0.1,0.1 h 2.9 c 0.1,0 0,-0.1 0,0 V 46 c 0,0.1 0.1,0 0,0 h -2.9 c -0.055,0 -0.1,0.045 -0.1,0.1 v 6 c 0,0.055 0.045,0.1 0.1,0.1 h 2.9 c 0.1,0 0,-0.1 0,0 V 58 c 0,0.1 0.1,0 0,0 h -2.9 c -0.055,0 -0.1,0.045 -0.1,0.1 v 6 c 0,0.055 0.045,0.1 0.1,0.1 h 2.9 c 0.1,0 0,-0.1 0,0 V 70 c 0,0.1 0.1,0 0,0 h -2.9 c -0.055,0 -0.1,0.045 -0.1,0.1 v 6 c 0,0.055 0.045,0.1 0.1,0.1 h 2.9 c 0.1,0 0,-0.1 0,0 V 82 c 0,0.1 0.1,0 0,0 h -2.9 c -0.055,0 -0.1,0.045 -0.1,0.1 v 6 c 0,0.055 0.045,0.1 0.1,0.1 h 2.9 c 0.1,0 0,-0.1 0,0 V 94 c 0,0.1 0.1,0 0,0 h -2.9 c -0.055,0 -0.1,0.045 -0.1,0.1 v 6 c 0,0.055 0.045,0.1 0.1,0.1 h 2.9 c 0.1,0 0,-0.1 0,0 v 5.8 c 0,0.1 0.1,0 0,0 h -2.9 c -0.055,0 -0.1,0.045 -0.1,0.1 v 6 c 0,0.055 0.045,0.1 0.1,0.1 h 2.9 c 0.1,0 0,-0.1 0,0 v 5.8 c 0,0.1 0.1,0 0,0 h -2.9 c -0.055,0 -0.1,0.045 -0.1,0.1 v 6 c 0,0.055 0.045,0.1 0.1,0.1 h 2.9 c 0.1,0 0,-0.1 0,0 v 5.8 c 0,0.1 0.1,0 0,0 h -2.9 c -0.055,0 -0.1,0.045 -0.1,0.1 v 3 3 c 0,0.055 0.045,0.1 0.1,0.1 z m 109.4,0 h 6 c 0.055,0 0.1,-0.045 0.1,-0.1 v -2.9 c 0,-0.1 -0.1,0 0,0 h 5.8 c 0.1,0 0,-0.1 0,0 v 2.9 c 0,0.055 0.045,0.1 0.1,0.1 h 6 c 0.055,0 0.1,-0.045 0.1,-0.1 v -2.9 c 0,-0.1 -0.1,0 0,0 h 5.8 c 0.1,0 0,-0.1 0,0 v 2.9 c 0,0.055 0.045,0.1 0.1,0.1 h 6 -0.836 c 0.055,0 0.1,-0.045 0.1,-0.1 v -3 -2.9 c 0,-0.1 -0.1,0 0,0 h 1.828 c 0.055,0 0.1,-0.045 0.1,-0.1 v -6 c 0,-0.055 -0.045,-0.1 -0.1,-0.1 h -1.828 c -0.1,0 0,0.1 0,0 v -5.8 c 0,-0.1 -0.1,0 0,0 h 1.828 c 0.055,0 0.1,-0.045 0.1,-0.1 v -6 c 0,-0.055 -0.045,-0.1 -0.1,-0.1 h -1.828 c -0.1,0 0,0.1 0,0 v -5.8 c 0,-0.1 -0.1,0 0,0 h 1.828 c 0.055,0 0.1,-0.045 0.1,-0.1 v -6 c 0,-0.055 -0.045,-0.1 -0.1,-0.1 h -1.828 c -0.1,0 0,0.1 0,0 v -5.8 c 0,-0.1 -0.1,0 0,0 h 1.828 c 0.055,0 0.1,-0.045 0.1,-0.1 v -6 c 0,-0.055 -0.045,-0.1 -0.1,-0.1 h -1.828 c -0.1,0 0,0.1 0,0 v -5.8 c 0,-0.1 -0.1,0 0,0 h 1.828 c 0.055,0 0.1,-0.045 0.1,-0.1 v -6 c 0,-0.055 -0.045,-0.1 -0.1,-0.1 h -1.828 c -0.1,0 0,0.1 0,0 v -5.8 c 0,-0.1 -0.1,0 0,0 h 1.828 c 0.055,0 0.1,-0.045 0.1,-0.1 v -6 c 0,-0.055 -0.045,-0.1 -0.1,-0.1 h -1.828 c -0.1,0 0,0.1 0,0 v -5.8 c 0,-0.1 -0.1,0 0,0 h 1.828 c 0.055,0 0.1,-0.045 0.1,-0.1 v -6 c 0,-0.055 -0.045,-0.1 -0.1,-0.1 h -1.828 c -0.1,0 0,0.1 0,0 v -5.8 c 0,-0.1 -0.1,0 0,0 h 1.828 c 0.055,0 0.1,-0.045 0.1,-0.1 v -6 c 0,-0.055 -0.045,-0.1 -0.1,-0.1 h -1.828 c -0.1,0 0,0.1 0,0 v -5.8 c 0,-0.1 -0.1,0 0,0 h 1.828 c 0.055,0 0.1,-0.045 0.1,-0.1 v -6 c 0,-0.055 -0.045,-0.1 -0.1,-0.1 h -1.828 c -0.1,0 0,0.1 0,0 v -5.8 c 0,-0.1 -0.1,0 0,0 h 1.828 c 0.055,0 0.1,-0.045 0.1,-0.1 v -6 c 0,-0.055 -0.045,-0.1 -0.1,-0.1 h -1.828 c -0.1,0 0,0.1 0,0 v -2.9 -3 c 0,-0.055 -0.045,-0.1 -0.1,-0.1 h 0.836 -6 c -0.055,0 -0.1,0.045 -0.1,0.1 V 13 c 0,0.1 0.1,0 0,0 h -5.8 c -0.1,0 0,0.1 0,0 v -2.9 c 0,-0.055 -0.045,-0.1 -0.1,-0.1 h -6 c -0.055,0 -0.1,0.045 -0.1,0.1 V 13 c 0,0.1 0.1,0 0,0 h -5.8 c -0.1,0 0,0.1 0,0 v -2.9 c 0,-0.055 -0.045,-0.1 -0.1,-0.1 h -6 c -0.055,0 -0.1,0.045 -0.1,0.1 v 3 2.9 c 0,0.1 0.1,0 0,0 h -2.9 c -0.055,0 -0.1,0.045 -0.1,0.1 v 6 c 0,0.055 0.045,0.1 0.1,0.1 h 2.9 c 0.1,0 0,-0.1 0,0 V 28 c 0,0.1 0.1,0 0,0 h -2.9 c -0.055,0 -0.1,0.045 -0.1,0.1 v 6 c 0,0.055 0.045,0.1 0.1,0.1 h 2.9 c 0.1,0 0,-0.1 0,0 V 40 c 0,0.1 0.1,0 0,0 h -2.9 c -0.055,0 -0.1,0.045 -0.1,0.1 v 6 c 0,0.055 0.045,0.1 0.1,0.1 h 2.9 c 0.1,0 0,-0.1 0,0 V 52 c 0,0.1 0.1,0 0,0 h -2.9 c -0.055,0 -0.1,0.045 -0.1,0.1 v 6 c 0,0.055 0.045,0.1 0.1,0.1 h 2.9 c 0.1,0 0,-0.1 0,0 V 64 c 0,0.1 0.1,0 0,0 h -2.9 c -0.055,0 -0.1,0.045 -0.1,0.1 v 6 c 0,0.055 0.045,0.1 0.1,0.1 h 2.9 c 0.1,0 0,-0.1 0,0 V 76 c 0,0.1 0.1,0 0,0 h -2.9 c -0.055,0 -0.1,0.045 -0.1,0.1 v 6 c 0,0.055 0.045,0.1 0.1,0.1 h 2.9 c 0.1,0 0,-0.1 0,0 V 88 c 0,0.1 0.1,0 0,0 h -2.9 c -0.055,0 -0.1,0.045 -0.1,0.1 v 6 c 0,0.055 0.045,0.1 0.1,0.1 h 2.9 c 0.1,0 0,-0.1 0,0 v 5.8 c 0,0.1 0.1,0 0,0 h -2.9 c -0.055,0 -0.1,0.045 -0.1,0.1 v 6 c 0,0.055 0.045,0.1 0.1,0.1 h 2.9 c 0.1,0 0,-0.1 0,0 v 5.8 c 0,0.1 0.1,0 0,0 h -2.9 c -0.055,0 -0.1,0.045 -0.1,0.1 v 6 c 0,0.055 0.045,0.1 0.1,0.1 h 2.9 c 0.1,0 0,-0.1 0,0 v 5.8 c 0,0.1 0.1,0 0,0 h -2.9 c -0.055,0 -0.1,0.045 -0.1,0.1 v 6 c 0,0.055 0.045,0.1 0.1,0.1 h 2.9 c 0.1,0 0,-0.1 0,0 v 2.9 3 c 0,0.055 0.045,0.1 0.1,0.1 z m 37.492,0 h 6.689 c 0.055,0 0.1,-0.045 0.1,-0.1 v -2.9 c 0,-0.1 -0.1,0 0,0 h 5.8 c 0.1,0 0,-0.1 0,0 v 2.9 c 0,0.055 0.045,0.1 0.1,0.1 h 6 c 0.055,0 0.1,-0.045 0.1,-0.1 v -2.9 c 0,-0.1 -0.1,0 0,0 h 5.8 c 0.1,0 0,-0.1 0,0 v 2.9 c 0,0.055 0.045,0.1 0.1,0.1 h 6 c 0.055,0 0.1,-0.045 0.1,-0.1 v -2.9 c 0,-0.1 -0.1,0 0,0 h 5.8 c 0.1,0 0,-0.1 0,0 v 2.9 c 0,0.055 0.045,0.1 0.1,0.1 h 6 c 0.055,0 0.1,-0.045 0.1,-0.1 v -2.9 c 0,-0.1 -0.1,0 0,0 h 5.8 c 0.1,0 0,-0.1 0,0 v 2.9 c 0,0.055 0.045,0.1 0.1,0.1 h 6 c 0.055,0 0.1,-0.045 0.1,-0.1 v -2.9 c 0,-0.1 -0.1,0 0,0 h 5.8 c 0.1,0 0,-0.1 0,0 v 2.9 c 0,0.055 0.045,0.1 0.1,0.1 h 6 c 0.055,0 0.1,-0.045 0.1,-0.1 v -2.9 c 0,-0.1 -0.1,0 0,0 h 5.8 c 0.1,0 0,-0.1 0,0 v 2.9 c 0,0.055 0.045,0.1 0.1,0.1 h 6 c 0.055,0 0.1,-0.045 0.1,-0.1 v -2.9 c 0,-0.1 -0.1,0 0,0 h 5.8 c 0.1,0 0,-0.1 0,0 v 2.9 c 0,0.055 0.045,0.1 0.1,0.1 h 6.689 1.399 c 0.056,0 0.1,-0.045 0.1,-0.1 v -3 -3 c 0,-0.055 -0.044,-0.1 -0.1,-0.1 h -2.198 c -0.1,0 0,0.1 0,0 v -5.8 c 0,-0.1 -0.1,0 0,0 h 2.198 c 0.056,0 0.1,-0.045 0.1,-0.1 v -6 c 0,-0.055 -0.044,-0.1 -0.1,-0.1 h -2.198 c -0.1,0 0,0.1 0,0 v -5.8 c 0,-0.1 -0.1,0 0,0 h 2.198 c 0.056,0 0.1,-0.045 0.1,-0.1 v -6 c 0,-0.055 -0.044,-0.1 -0.1,-0.1 h -2.198 c -0.1,0 0,0.1 0,0 v -5.8 c 0,-0.1 -0.1,0 0,0 h 2.198 c 0.056,0 0.1,-0.045 0.1,-0.1 v -6 c 0,-0.055 -0.044,-0.1 -0.1,-0.1 h -2.198 c -0.1,0 0,0.1 0,0 v -5.8 c 0,-0.1 -0.1,0 0,0 h 2.198 c 0.056,0 0.1,-0.045 0.1,-0.1 v -6 c 0,-0.055 -0.044,-0.1 -0.1,-0.1 h -2.198 c -0.1,0 0,0.1 0,0 v -5.8 c 0,-0.1 -0.1,0 0,0 h 2.198 c 0.056,0 0.1,-0.045 0.1,-0.1 v -6 c 0,-0.055 -0.044,-0.1 -0.1,-0.1 h -2.198 c -0.1,0 0,0.1 0,0 v -5.8 c 0,-0.1 -0.1,0 0,0 h 2.198 c 0.056,0 0.1,-0.045 0.1,-0.1 v -6 c 0,-0.055 -0.044,-0.1 -0.1,-0.1 h -2.198 c -0.1,0 0,0.1 0,0 v -5.8 c 0,-0.1 -0.1,0 0,0 h 2.198 c 0.056,0 0.1,-0.045 0.1,-0.1 v -6 c 0,-0.055 -0.044,-0.1 -0.1,-0.1 h -2.198 c -0.1,0 0,0.1 0,0 v -5.8 c 0,-0.1 -0.1,0 0,0 h 2.198 c 0.056,0 0.1,-0.045 0.1,-0.1 v -6 c 0,-0.055 -0.044,-0.1 -0.1,-0.1 h -2.198 c -0.1,0 0,0.1 0,0 v -5.8 c 0,-0.1 -0.1,0 0,0 h 2.198 c 0.056,0 0.1,-0.045 0.1,-0.1 v -6 c 0,-0.055 -0.044,-0.1 -0.1,-0.1 h -2.198 c -0.1,0 0,0.1 0,0 v -5.8 c 0,-0.1 -0.1,0 0,0 h 2.198 c 0.056,0 0.1,-0.045 0.1,-0.1 v -3 -3 c 0,-0.055 -0.044,-0.1 -0.1,-0.1 h -1.399 -6.689 c -0.055,0 -0.1,0.045 -0.1,0.1 V 13 c 0,0.1 0.1,0 0,0 h -5.8 c -0.1,0 0,0.1 0,0 v -2.9 c 0,-0.055 -0.045,-0.1 -0.1,-0.1 h -6 c -0.055,0 -0.1,0.045 -0.1,0.1 V 13 c 0,0.1 0.1,0 0,0 h -5.8 c -0.1,0 0,0.1 0,0 v -2.9 c 0,-0.055 -0.045,-0.1 -0.1,-0.1 h -6 c -0.055,0 -0.1,0.045 -0.1,0.1 V 13 c 0,0.1 0.1,0 0,0 h -5.8 c -0.1,0 0,0.1 0,0 v -2.9 c 0,-0.055 -0.045,-0.1 -0.1,-0.1 h -6 c -0.055,0 -0.1,0.045 -0.1,0.1 V 13 c 0,0.1 0.1,0 0,0 h -5.8 c -0.1,0 0,0.1 0,0 v -2.9 c 0,-0.055 -0.045,-0.1 -0.1,-0.1 h -6 c -0.055,0 -0.1,0.045 -0.1,0.1 V 13 c 0,0.1 0.1,0 0,0 h -5.8 c -0.1,0 0,0.1 0,0 v -2.9 c 0,-0.055 -0.045,-0.1 -0.1,-0.1 h -6 c -0.055,0 -0.1,0.045 -0.1,0.1 V 13 c 0,0.1 0.1,0 0,0 h -5.8 c -0.1,0 0,0.1 0,0 v -2.9 c 0,-0.055 -0.045,-0.1 -0.1,-0.1 h -6 c -0.055,0 -0.1,0.045 -0.1,0.1 V 13 c 0,0.1 0.1,0 0,0 h -5.8 c -0.1,0 0,0.1 0,0 v -2.9 c 0,-0.055 -0.045,-0.1 -0.1,-0.1 h -6.689 -1.092 c -0.055,0 -0.1,0.045 -0.1,0.1 v 3 3 c 0,0.055 0.045,0.1 0.1,0.1 h 1.828 c 0.1,0 0,-0.1 0,0 V 22 c 0,0.1 0.1,0 0,0 h -1.828 c -0.055,0 -0.1,0.045 -0.1,0.1 v 6 c 0,0.055 0.045,0.1 0.1,0.1 h 1.828 c 0.1,0 0,-0.1 0,0 V 34 c 0,0.1 0.1,0 0,0 h -1.828 c -0.055,0 -0.1,0.045 -0.1,0.1 v 6 c 0,0.055 0.045,0.1 0.1,0.1 h 1.828 c 0.1,0 0,-0.1 0,0 V 46 c 0,0.1 0.1,0 0,0 h -1.828 c -0.055,0 -0.1,0.045 -0.1,0.1 v 6 c 0,0.055 0.045,0.1 0.1,0.1 h 1.828 c 0.1,0 0,-0.1 0,0 V 58 c 0,0.1 0.1,0 0,0 h -1.828 c -0.055,0 -0.1,0.045 -0.1,0.1 v 6 c 0,0.055 0.045,0.1 0.1,0.1 h 1.828 c 0.1,0 0,-0.1 0,0 V 70 c 0,0.1 0.1,0 0,0 h -1.828 c -0.055,0 -0.1,0.045 -0.1,0.1 v 6 c 0,0.055 0.045,0.1 0.1,0.1 h 1.828 c 0.1,0 0,-0.1 0,0 V 82 c 0,0.1 0.1,0 0,0 h -1.828 c -0.055,0 -0.1,0.045 -0.1,0.1 v 6 c 0,0.055 0.045,0.1 0.1,0.1 h 1.828 c 0.1,0 0,-0.1 0,0 V 94 c 0,0.1 0.1,0 0,0 h -1.828 c -0.055,0 -0.1,0.045 -0.1,0.1 v 6 c 0,0.055 0.045,0.1 0.1,0.1 h 1.828 c 0.1,0 0,-0.1 0,0 v 5.8 c 0,0.1 0.1,0 0,0 h -1.828 c -0.055,0 -0.1,0.045 -0.1,0.1 v 6 c 0,0.055 0.045,0.1 0.1,0.1 h 1.828 c 0.1,0 0,-0.1 0,0 v 5.8 c 0,0.1 0.1,0 0,0 h -1.828 c -0.055,0 -0.1,0.045 -0.1,0.1 v 6 c 0,0.055 0.045,0.1 0.1,0.1 h 1.828 c 0.1,0 0,-0.1 0,0 v 5.8 c 0,0.1 0.1,0 0,0 h -1.828 c -0.055,0 -0.1,0.045 -0.1,0.1 v 3 3 c 0,0.055 0.045,0.1 0.1,0.1 z m 97.269,0 h 5.632 c 0.055,0 0.1,-0.045 0.1,-0.1 v -2.9 c 0,-0.1 -0.1,0 0,0 h 5.8 c 0.1,0 0,-0.1 0,0 v 2.9 c 0,0.055 0.045,0.1 0.1,0.1 h 6 c 0.055,0 0.1,-0.045 0.1,-0.1 v -2.9 c 0,-0.1 -0.1,0 0,0 h 5.8 c 0.1,0 0,-0.1 0,0 v 2.9 c 0,0.055 0.045,0.1 0.1,0.1 h 6 c 0.055,0 0.1,-0.045 0.1,-0.1 v -2.9 c 0,-0.1 -0.1,0 0,0 h 5.8 c 0.1,0 0,-0.1 0,0 v 2.9 c 0,0.055 0.045,0.1 0.1,0.1 h 5.631 c 0.056,0 0.1,-0.045 0.1,-0.1 v -3 -2.9 c 0,-0.1 -0.1,0 0,0 h 2.9 c 0.056,0 0.1,-0.045 0.1,-0.1 v -6 c 0,-0.055 -0.044,-0.1 -0.1,-0.1 h -2.9 c -0.1,0 0,0.1 0,0 v -5.8 c 0,-0.1 -0.1,0 0,0 h 2.9 c 0.056,0 0.1,-0.045 0.1,-0.1 v -6 c 0,-0.055 -0.044,-0.1 -0.1,-0.1 h -2.9 c -0.1,0 0,0.1 0,0 v -5.8 c 0,-0.1 -0.1,0 0,0 h 2.9 c 0.056,0 0.1,-0.045 0.1,-0.1 v -6 c 0,-0.055 -0.044,-0.1 -0.1,-0.1 h -2.9 c -0.1,0 0,0.1 0,0 v -5.8 c 0,-0.1 -0.1,0 0,0 h 2.9 c 0.056,0 0.1,-0.045 0.1,-0.1 v -6 c 0,-0.055 -0.044,-0.1 -0.1,-0.1 h -2.9 c -0.1,0 0,0.1 0,0 v -5.8 c 0,-0.1 -0.1,0 0,0 h 2.9 c 0.056,0 0.1,-0.045 0.1,-0.1 v -6 c 0,-0.055 -0.044,-0.1 -0.1,-0.1 h -2.9 c -0.1,0 0,0.1 0,0 v -5.8 c 0,-0.1 -0.1,0 0,0 h 2.9 c 0.056,0 0.1,-0.045 0.1,-0.1 v -6 c 0,-0.055 -0.044,-0.1 -0.1,-0.1 h -2.9 c -0.1,0 0,0.1 0,0 v -5.8 c 0,-0.1 -0.1,0 0,0 h 2.9 c 0.056,0 0.1,-0.045 0.1,-0.1 v -6 c 0,-0.055 -0.044,-0.1 -0.1,-0.1 h -2.9 c -0.1,0 0,0.1 0,0 v -5.8 c 0,-0.1 -0.1,0 0,0 h 2.9 c 0.056,0 0.1,-0.045 0.1,-0.1 v -6 c 0,-0.055 -0.044,-0.1 -0.1,-0.1 h -2.9 c -0.1,0 0,0.1 0,0 v -5.8 c 0,-0.1 -0.1,0 0,0 h 2.9 c 0.056,0 0.1,-0.045 0.1,-0.1 v -6 c 0,-0.055 -0.044,-0.1 -0.1,-0.1 h -2.9 c -0.1,0 0,0.1 0,0 v -5.8 c 0,-0.1 -0.1,0 0,0 h 2.9 c 0.056,0 0.1,-0.045 0.1,-0.1 v -6 c 0,-0.055 -0.044,-0.1 -0.1,-0.1 h -2.9 c -0.1,0 0,0.1 0,0 v -2.9 -3 c 0,-0.055 -0.044,-0.1 -0.1,-0.1 h -5.631 c -0.055,0 -0.1,0.045 -0.1,0.1 V 13 c 0,0.1 0.1,0 0,0 h -5.8 c -0.1,0 0,0.1 0,0 v -2.9 c 0,-0.055 -0.045,-0.1 -0.1,-0.1 h -6 c -0.055,0 -0.1,0.045 -0.1,0.1 V 13 c 0,0.1 0.1,0 0,0 h -5.8 c -0.1,0 0,0.1 0,0 v -2.9 c 0,-0.055 -0.045,-0.1 -0.1,-0.1 h -6 c -0.055,0 -0.1,0.045 -0.1,0.1 V 13 c 0,0.1 0.1,0 0,0 h -5.8 c -0.1,0 0,0.1 0,0 v -2.9 c 0,-0.055 -0.045,-0.1 -0.1,-0.1 h -5.632 0.899 c -0.055,0 -0.1,0.045 -0.1,0.1 v 3 2.9 c 0,0.1 0.1,0 0,0 h -2.198 c -0.055,0 -0.1,0.045 -0.1,0.1 v 6 c 0,0.055 0.045,0.1 0.1,0.1 h 2.198 c 0.1,0 0,-0.1 0,0 V 28 c 0,0.1 0.1,0 0,0 h -2.198 c -0.055,0 -0.1,0.045 -0.1,0.1 v 6 c 0,0.055 0.045,0.1 0.1,0.1 h 2.198 c 0.1,0 0,-0.1 0,0 V 40 c 0,0.1 0.1,0 0,0 h -2.198 c -0.055,0 -0.1,0.045 -0.1,0.1 v 6 c 0,0.055 0.045,0.1 0.1,0.1 h 2.198 c 0.1,0 0,-0.1 0,0 V 52 c 0,0.1 0.1,0 0,0 h -2.198 c -0.055,0 -0.1,0.045 -0.1,0.1 v 6 c 0,0.055 0.045,0.1 0.1,0.1 h 2.198 c 0.1,0 0,-0.1 0,0 V 64 c 0,0.1 0.1,0 0,0 h -2.198 c -0.055,0 -0.1,0.045 -0.1,0.1 v 6 c 0,0.055 0.045,0.1 0.1,0.1 h 2.198 c 0.1,0 0,-0.1 0,0 V 76 c 0,0.1 0.1,0 0,0 h -2.198 c -0.055,0 -0.1,0.045 -0.1,0.1 v 6 c 0,0.055 0.045,0.1 0.1,0.1 h 2.198 c 0.1,0 0,-0.1 0,0 V 88 c 0,0.1 0.1,0 0,0 h -2.198 c -0.055,0 -0.1,0.045 -0.1,0.1 v 6 c 0,0.055 0.045,0.1 0.1,0.1 h 2.198 c 0.1,0 0,-0.1 0,0 v 5.8 c 0,0.1 0.1,0 0,0 h -2.198 c -0.055,0 -0.1,0.045 -0.1,0.1 v 6 c 0,0.055 0.045,0.1 0.1,0.1 h 2.198 c 0.1,0 0,-0.1 0,0 v 5.8 c 0,0.1 0.1,0 0,0 h -2.198 c -0.055,0 -0.1,0.045 -0.1,0.1 v 6 c 0,0.055 0.045,0.1 0.1,0.1 h 2.198 c 0.1,0 0,-0.1 0,0 v 5.8 c 0,0.1 0.1,0 0,0 h -2.198 c -0.055,0 -0.1,0.045 -0.1,0.1 v 6 c 0,0.055 0.045,0.1 0.1,0.1 h 2.198 c 0.1,0 0,-0.1 0,0 v 2.9 3 c 0,0.055 0.045,0.1 0.1,0.1 z m 49.062,0 h 5 c 0.055,0 0.1,-0.045 0.1,-0.1 v -2.9 c 0,-0.1 -0.1,0 0,0 h 5.8 c 0.1,0 0,-0.1 0,0 v 2.9 c 0,0.055 0.045,0.1 0.1,0.1 h 6 c 0.055,0 0.1,-0.045 0.1,-0.1 v -2.9 c 0,-0.1 -0.1,0 0,0 h 5.8 c 0.1,0 0,-0.1 0,0 v 2.9 c 0,0.055 0.045,0.1 0.1,0.1 h 6 c 0.055,0 0.1,-0.045 0.1,-0.1 v -2.9 c 0,-0.1 -0.1,0 0,0 h 5.8 c 0.1,0 0,-0.1 0,0 v 2.9 c 0,0.055 0.045,0.1 0.1,0.1 h 6 c 0.055,0 0.1,-0.045 0.1,-0.1 v -2.9 c 0,-0.1 -0.1,0 0,0 h 5.8 c 0.1,0 0,-0.1 0,0 v 2.9 c 0,0.055 0.045,0.1 0.1,0.1 h 6 c 0.055,0 0.1,-0.045 0.1,-0.1 v -2.9 c 0,-0.1 -0.1,0 0,0 h 5.8 c 0.1,0 0,-0.1 0,0 v 2.9 c 0,0.055 0.045,0.1 0.1,0.1 h 6 c 0.055,0 0.1,-0.045 0.1,-0.1 v -2.9 c 0,-0.1 -0.1,0 0,0 h 5.8 c 0.1,0 0,-0.1 0,0 v 2.9 c 0,0.055 0.045,0.1 0.1,0.1 h 6 c 0.055,0 0.1,-0.045 0.1,-0.1 v -2.9 c 0,-0.1 -0.1,0 0,0 h 5.8 c 0.1,0 0,-0.1 0,0 v 2.9 c 0,0.055 0.045,0.1 0.1,0.1 h 6 c 0.055,0 0.1,-0.045 0.1,-0.1 v -2.9 c 0,-0.1 -0.1,0 0,0 h 5.8 c 0.1,0 0,-0.1 0,0 v 2.9 c 0,0.055 0.045,0.1 0.1,0.1 h 5 c 0.055,0 0.1,-0.045 0.1,-0.1 v -3 -2.9 c 0,-0.1 -0.1,0 0,0 h 2.9 c 0.055,0 0.1,-0.045 0.1,-0.1 v -6 c 0,-0.055 -0.045,-0.1 -0.1,-0.1 h -2.9 c -0.1,0 0,0.1 0,0 v -5.8 c 0,-0.1 -0.1,0 0,0 h 2.9 c 0.055,0 0.1,-0.045 0.1,-0.1 v -6 c 0,-0.055 -0.045,-0.1 -0.1,-0.1 h -2.9 c -0.1,0 0,0.1 0,0 v -5.8 c 0,-0.1 -0.1,0 0,0 h 2.9 c 0.055,0 0.1,-0.045 0.1,-0.1 v -6 c 0,-0.055 -0.045,-0.1 -0.1,-0.1 h -2.9 c -0.1,0 0,0.1 0,0 v -5.8 c 0,-0.1 -0.1,0 0,0 h 2.9 c 0.055,0 0.1,-0.045 0.1,-0.1 v -6 c 0,-0.055 -0.045,-0.1 -0.1,-0.1 h -2.9 c -0.1,0 0,0.1 0,0 v -5.8 c 0,-0.1 -0.1,0 0,0 h 2.9 c 0.055,0 0.1,-0.045 0.1,-0.1 v -6 c 0,-0.055 -0.045,-0.1 -0.1,-0.1 h -2.9 c -0.1,0 0,0.1 0,0 v -5.8 c 0,-0.1 -0.1,0 0,0 h 2.9 c 0.055,0 0.1,-0.045 0.1,-0.1 v -6 c 0,-0.055 -0.045,-0.1 -0.1,-0.1 h -2.9 c -0.1,0 0,0.1 0,0 v -5.8 c 0,-0.1 -0.1,0 0,0 h 2.9 c 0.055,0 0.1,-0.045 0.1,-0.1 v -6 c 0,-0.055 -0.045,-0.1 -0.1,-0.1 h -2.9 c -0.1,0 0,0.1 0,0 v -5.8 c 0,-0.1 -0.1,0 0,0 h 2.9 c 0.055,0 0.1,-0.045 0.1,-0.1 v -6 c 0,-0.055 -0.045,-0.1 -0.1,-0.1 h -2.9 c -0.1,0 0,0.1 0,0 v -5.8 c 0,-0.1 -0.1,0 0,0 h 2.9 c 0.055,0 0.1,-0.045 0.1,-0.1 v -6 c 0,-0.055 -0.045,-0.1 -0.1,-0.1 h -2.9 c -0.1,0 0,0.1 0,0 v -5.8 c 0,-0.1 -0.1,0 0,0 h 2.9 c 0.055,0 0.1,-0.045 0.1,-0.1 v -6 c 0,-0.055 -0.045,-0.1 -0.1,-0.1 h -2.9 c -0.1,0 0,0.1 0,0 v -2.9 -3 c 0,-0.055 -0.045,-0.1 -0.1,-0.1 h -5 c -0.055,0 -0.1,0.045 -0.1,0.1 V 13 c 0,0.1 0.1,0 0,0 h -5.8 c -0.1,0 0,0.1 0,0 v -2.9 c 0,-0.055 -0.045,-0.1 -0.1,-0.1 h -6 c -0.055,0 -0.1,0.045 -0.1,0.1 V 13 c 0,0.1 0.1,0 0,0 h -5.8 c -0.1,0 0,0.1 0,0 v -2.9 c 0,-0.055 -0.045,-0.1 -0.1,-0.1 h -6 c -0.055,0 -0.1,0.045 -0.1,0.1 V 13 c 0,0.1 0.1,0 0,0 h -5.8 c -0.1,0 0,0.1 0,0 v -2.9 c 0,-0.055 -0.045,-0.1 -0.1,-0.1 h -6 c -0.055,0 -0.1,0.045 -0.1,0.1 V 13 c 0,0.1 0.1,0 0,0 h -5.8 c -0.1,0 0,0.1 0,0 v -2.9 c 0,-0.055 -0.045,-0.1 -0.1,-0.1 h -6 c -0.055,0 -0.1,0.045 -0.1,0.1 V 13 c 0,0.1 0.1,0 0,0 h -5.8 c -0.1,0 0,0.1 0,0 v -2.9 c 0,-0.055 -0.045,-0.1 -0.1,-0.1 h -6 c -0.055,0 -0.1,0.045 -0.1,0.1 V 13 c 0,0.1 0.1,0 0,0 h -5.8 c -0.1,0 0,0.1 0,0 v -2.9 c 0,-0.055 -0.045,-0.1 -0.1,-0.1 h -6 c -0.055,0 -0.1,0.045 -0.1,0.1 V 13 c 0,0.1 0.1,0 0,0 h -5.8 c -0.1,0 0,0.1 0,0 v -2.9 c 0,-0.055 -0.045,-0.1 -0.1,-0.1 h -6 c -0.055,0 -0.1,0.045 -0.1,0.1 V 13 c 0,0.1 0.1,0 0,0 h -5.8 c -0.1,0 0,0.1 0,0 v -2.9 c 0,-0.055 -0.045,-0.1 -0.1,-0.1 h -5 -3 c -0.055,0 -0.1,0.045 -0.1,0.1 v 3 3 c 0,0.055 0.045,0.1 0.1,0.1 h 2.9 c 0.1,0 0,-0.1 0,0 V 22 c 0,0.1 0.1,0 0,0 h -2.9 c -0.055,0 -0.1,0.045 -0.1,0.1 v 6 c 0,0.055 0.045,0.1 0.1,0.1 h 2.9 c 0.1,0 0,-0.1 0,0 V 34 c 0,0.1 0.1,0 0,0 h -2.9 c -0.055,0 -0.1,0.045 -0.1,0.1 v 6 c 0,0.055 0.045,0.1 0.1,0.1 h 2.9 c 0.1,0 0,-0.1 0,0 V 46 c 0,0.1 0.1,0 0,0 h -2.9 c -0.055,0 -0.1,0.045 -0.1,0.1 v 6 c 0,0.055 0.045,0.1 0.1,0.1 h 2.9 c 0.1,0 0,-0.1 0,0 V 58 c 0,0.1 0.1,0 0,0 h -2.9 c -0.055,0 -0.1,0.045 -0.1,0.1 v 6 c 0,0.055 0.045,0.1 0.1,0.1 h 2.9 c 0.1,0 0,-0.1 0,0 V 70 c 0,0.1 0.1,0 0,0 h -2.9 c -0.055,0 -0.1,0.045 -0.1,0.1 v 6 c 0,0.055 0.045,0.1 0.1,0.1 h 2.9 c 0.1,0 0,-0.1 0,0 V 82 c 0,0.1 0.1,0 0,0 h -2.9 c -0.055,0 -0.1,0.045 -0.1,0.1 v 6 c 0,0.055 0.045,0.1 0.1,0.1 h 2.9 c 0.1,0 0,-0.1 0,0 V 94 c 0,0.1 0.1,0 0,0 h -2.9 c -0.055,0 -0.1,0.045 -0.1,0.1 v 6 c 0,0.055 0.045,0.1 0.1,0.1 h 2.9 c 0.1,0 0,-0.1 0,0 v 5.8 c 0,0.1 0.1,0 0,0 h -2.9 c -0.055,0 -0.1,0.045 -0.1,0.1 v 6 c 0,0.055 0.045,0.1 0.1,0.1 h 2.9 c 0.1,0 0,-0.1 0,0 v 5.8 c 0,0.1 0.1,0 0,0 h -2.9 c -0.055,0 -0.1,0.045 -0.1,0.1 v 6 c 0,0.055 0.045,0.1 0.1,0.1 h 2.9 c 0.1,0 0,-0.1 0,0 v 5.8 c 0,0.1 0.1,0 0,0 h -2.9 c -0.055,0 -0.1,0.045 -0.1,0.1 v 3 3 c 0,0.055 0.045,0.1 0.1,0.1 z"
       stroke="#000000"
       stroke-width="0.2"
       id="path1201" />
  </g>
  <rect
     transform="rotate(-90)"
     y="171.33748"
     x="-102.40174"
     height="24.196115"
     width="71.096077"
     id="rect5001"
     style="fill:none;stroke:#ff0000;stroke-width:0.5;stroke-linecap:round;stroke-linejoin:round;stroke-miterlimit:4;stroke-dasharray:none;stroke-opacity:1"
     inkscape:export-xdpi="96"
     inkscape:export-ydpi="96" />
  <rect
     style="fill:none;stroke:#ff0000;stroke-width:0.5;stroke-linecap:round;stroke-linejoin:round;stroke-miterlimit:4;stroke-dasharray:none;stroke-opacity:1"
     id="rect3703"
     width="12.299999"
     height="15.799998"
     x="216.66838"
     y="85.395584"
     inkscape:export-xdpi="96"
     inkscape:export-ydpi="96" />
  <rect
     y="31.727053"
     x="210.44978"
     height="22.999987"
     width="22.800018"
     id="rect5771"
     style="fill:none;stroke:#ff0000;stroke-width:0.5;stroke-linecap:round;stroke-linejoin:round;stroke-miterlimit:4;stroke-dasharray:none;stroke-opacity:1"
     inkscape:export-xdpi="96"
     inkscape:export-ydpi="96" />
  <circle
     cy="74.466576"
     cx="218.78253"
     id="path71-3"
     style="fill:none;stroke:#ff0000;stroke-width:0.5;stroke-linecap:round;stroke-linejoin:round;stroke-miterlimit:4;stroke-dasharray:none;stroke-opacity:1"
     r="2.4017978"
     inkscape:export-xdpi="96"
     inkscape:export-ydpi="96" />
  <circle
     r="2.4017978"
     style="fill:none;stroke:#ff0000;stroke-width:0.5;stroke-linecap:round;stroke-linejoin:round;stroke-miterlimit:4;stroke-dasharray:none;stroke-opacity:1"
     id="path71-3-6"
     cx="226.56505"
     cy="74.473961"
     inkscape:export-xdpi="96"
     inkscape:export-ydpi="96" />
  <rect
     transform="rotate(90)"
     style="fill:none;stroke:#ff0000;stroke-width:0.5;stroke-linecap:round;stroke-linejoin:round;stroke-miterlimit:4;stroke-dasharray:none;stroke-opacity:1"
     id="rect3703-2"
     width="12.299999"
     height="15.799998"
     x="218.22087"
     y="-157.48193"
     inkscape:export-xdpi="96"
     inkscape:export-ydpi="96" />
  <path
     id="path1366"
     d="m 139.89155,217.189 h -0.31438 v 1.0399 1.03988 l -1.10796,1.04722 c -0.60938,0.57598 -1.44965,1.36947 -1.86726,1.76331 l -0.75931,0.71608 -0.002,1.82265 -0.002,1.82266 0.18903,0.0393 c 0.7533,0.15639 1.41386,0.82331 1.57483,1.58999 0.22259,1.06022 -0.39658,2.11361 -1.43201,2.43626 -0.33974,0.10587 -0.8479,0.10587 -1.18765,0 -0.646,-0.2013 -1.19064,-0.72603 -1.38402,-1.33342 -0.10059,-0.31597 -0.1241,-0.8231 -0.0523,-1.12847 0.0806,-0.34298 0.25045,-0.66319 0.49108,-0.92597 0.27498,-0.30029 0.55796,-0.48024 0.93652,-0.59555 l 0.30564,-0.0931 v -0.79202 -0.79201 l -1.79542,-1.43617 c -0.98748,-0.78989 -1.80486,-1.46075 -1.8164,-1.49081 -0.0115,-0.0301 -0.021,-0.65574 -0.021,-1.39041 v -1.33575 l -0.16837,-0.0761 c -0.26027,-0.11763 -0.44407,-0.29635 -0.57198,-0.55618 -0.0992,-0.20139 -0.11443,-0.26806 -0.11375,-0.4963 0.003,-1.04112 1.2401,-1.56032 1.9754,-0.82909 0.0809,0.0804 0.18787,0.23273 0.2377,0.33839 0.0761,0.16123 0.0904,0.23986 0.0889,0.48903 -0.002,0.26202 -0.0145,0.32179 -0.11068,0.5086 -0.11645,0.22623 -0.32158,0.43601 -0.51789,0.52963 l -0.12072,0.0576 v 1.19576 1.19575 l 1.44915,1.1556 c 0.79704,0.63558 1.45723,1.1556 1.4671,1.1556 0.01,0 0.0179,-1.96485 0.0179,-4.36634 v -4.36634 h -0.64622 c -0.36945,0 -0.64622,-0.0138 -0.64622,-0.0321 0,-0.0582 1.59959,-2.80236 1.61657,-2.77331 0.37474,0.64098 1.57483,2.728 1.58719,2.76021 0.0138,0.036 -0.12166,0.0452 -0.66754,0.0452 h -0.68489 v 3.32203 3.32205 l 0.13099,-0.11393 c 0.072,-0.0627 0.29732,-0.27257 0.5006,-0.46646 0.20328,-0.19388 0.82781,-0.78479 1.38784,-1.31311 l 1.01825,-0.96059 6e-4,-0.86455 6e-4,-0.86453 h -0.34931 -0.3493 v -1.03046 -1.03045 h 1.01299 1.01299 v 1.03045 1.03046 z"
     style="fill:#000000;stroke-width:0.5;stroke-miterlimit:4;stroke-dasharray:none"
     inkscape:export-xdpi="96"
     inkscape:export-ydpi="96" />
  <path
     id="path1382"
     d="m 160.12606,230.52107 c 3.5e-4,-0.0485 0.0476,-0.17161 0.10509,-0.27351 0.0576,-0.10193 0.16484,-0.33117 0.23848,-0.50949 0.0736,-0.17833 0.16179,-0.35712 0.19591,-0.39736 0.0342,-0.0402 0.0621,-0.0976 0.0621,-0.1274 0,-0.0298 0.10416,-0.27311 0.23159,-0.54049 0.12741,-0.2674 0.23159,-0.49483 0.23159,-0.50542 0,-0.0117 0.10111,-0.2347 0.2246,-0.49801 0.12357,-0.2633 0.31312,-0.67674 0.42129,-0.91876 0.10813,-0.242 0.25561,-0.56507 0.32764,-0.71791 0.0721,-0.15277 0.21809,-0.46551 0.3246,-0.69476 0.10649,-0.22928 0.26439,-0.56296 0.35092,-0.7415 0.0865,-0.17854 0.15726,-0.33949 0.15726,-0.35766 0,-0.0181 0.0913,-0.22641 0.20275,-0.46277 0.11153,-0.23635 0.24769,-0.53396 0.30261,-0.66132 0.0549,-0.1274 0.15004,-0.3358 0.21122,-0.46316 0.10275,-0.21357 0.27024,-0.57372 0.53866,-1.15795 0.0585,-0.12741 0.11445,-0.24722 0.1242,-0.26633 0.009,-0.0191 -0.61147,-0.0346 -1.38059,-0.0346 h -1.39841 l 0.0318,-0.12661 c 0.0174,-0.0696 0.11363,-0.31869 0.21346,-0.55344 0.0999,-0.23477 0.18166,-0.45501 0.18166,-0.48943 0,-0.0344 0.0182,-0.0824 0.0406,-0.1065 0.0224,-0.0242 0.15887,-0.34622 0.30345,-0.7156 0.14458,-0.36938 0.3452,-0.86251 0.44579,-1.09585 0.10064,-0.23331 0.18284,-0.44175 0.18277,-0.46317 -4e-5,-0.0213 0.0604,-0.18484 0.13416,-0.36315 0.0738,-0.17834 0.2094,-0.50545 0.30118,-0.72693 0.0918,-0.2215 0.16688,-0.4267 0.16688,-0.45604 0,-0.0294 0.0302,-0.1086 0.0669,-0.17625 0.10064,-0.18477 0.19701,-0.41963 0.28262,-0.68863 0.0422,-0.13271 0.10591,-0.26562 0.14153,-0.29514 0.0356,-0.0295 0.0647,-0.0841 0.0647,-0.12116 0,-0.0791 0.20716,-0.63032 0.3038,-0.80836 0.0367,-0.0675 0.0667,-0.14795 0.0667,-0.1785 0,-0.0304 0.0678,-0.20933 0.15052,-0.39725 l 0.15052,-0.34169 2.32747,-8.7e-4 c 1.28009,-5.2e-4 2.32744,0.009 2.32744,0.0242 0,0.0144 -0.0626,0.15886 -0.13897,0.3223 -0.0764,0.16345 -0.13896,0.31088 -0.13896,0.32761 0,0.0167 -0.073,0.18622 -0.16212,0.37661 -0.0892,0.1904 -0.1621,0.36544 -0.1621,0.38899 0,0.0236 -0.0185,0.079 -0.0411,0.12324 -0.0881,0.17232 -0.28108,0.60859 -0.44536,1.00678 -0.0946,0.22927 -0.23225,0.54718 -0.30592,0.70647 -0.0736,0.15934 -0.13398,0.30696 -0.13398,0.32815 0,0.0212 -0.0724,0.18732 -0.16092,0.36921 -0.0886,0.18185 -0.17358,0.38106 -0.18904,0.44264 -0.016,0.0617 -0.0795,0.21326 -0.14201,0.33703 l -0.11398,0.22501 1.18286,0.023 1.18288,0.0231 -0.27255,0.37054 c -0.14988,0.20379 -0.30123,0.40208 -0.33628,0.44064 -0.035,0.0385 -0.11468,0.14281 -0.17719,0.23158 -0.0624,0.0889 -0.13735,0.18233 -0.16661,0.2078 -0.0292,0.0255 -0.11826,0.1401 -0.19791,0.25475 -0.0796,0.11456 -0.23861,0.32307 -0.3533,0.46317 -0.11469,0.14008 -0.22911,0.30165 -0.25423,0.35896 -0.0252,0.0573 -0.0626,0.10415 -0.0831,0.10415 -0.0205,0 -0.0714,0.0573 -0.11293,0.12741 -0.0414,0.0701 -0.13094,0.1899 -0.19892,0.26633 -0.0679,0.0764 -0.17374,0.2119 -0.23518,0.30106 -0.0614,0.0892 -0.19516,0.26632 -0.29715,0.3937 -0.10193,0.12741 -0.25198,0.32538 -0.33336,0.44001 -0.0813,0.11457 -0.23258,0.31193 -0.33607,0.43845 -0.23379,0.28586 -0.18711,0.22517 -0.66022,0.85844 -0.40069,0.53636 -0.66357,0.87217 -0.81322,1.03882 -0.0446,0.0496 -0.081,0.11586 -0.081,0.14715 0,0.0312 -0.016,0.0639 -0.0346,0.0723 -0.0358,0.016 -0.48391,0.57322 -0.62697,0.77968 -0.0441,0.0637 -0.14778,0.20117 -0.23033,0.3055 -0.0825,0.10427 -0.24221,0.31142 -0.35476,0.46018 -0.22271,0.29435 -0.28883,0.37772 -0.47229,0.59574 -0.0666,0.0791 -0.13575,0.19081 -0.15373,0.24813 -0.0178,0.0572 -0.0501,0.10415 -0.0714,0.10415 -0.0213,0 -0.11246,0.099 -0.20254,0.22001 -0.09,0.12099 -0.24128,0.32422 -0.3361,0.45159 -0.0948,0.12741 -0.18566,0.24201 -0.20186,0.25476 -0.0162,0.0129 -0.0803,0.0958 -0.14233,0.18463 -0.0621,0.0887 -0.14024,0.19305 -0.17344,0.23158 -0.17013,0.19707 -0.68456,0.87662 -0.76311,1.00804 -0.0494,0.0829 -0.1038,0.15052 -0.12083,0.15052 -0.017,0 -0.0823,0.0833 -0.14539,0.18527 -0.063,0.10193 -0.1282,0.18527 -0.14505,0.18527 -0.0169,0 -0.0955,0.10123 -0.17489,0.22488 -0.0795,0.12372 -0.18575,0.26241 -0.23641,0.30824 -0.0889,0.0804 -0.0921,0.0803 -0.0916,-0.005 z"
     style="fill:#000000;stroke-width:0.5;stroke-miterlimit:4;stroke-dasharray:none"
     inkscape:export-xdpi="96"
     inkscape:export-ydpi="96" />
  <title
     id="title2191">FlexBox</title>
  <metadata
     id="metadata2193">
    <rdf:RDF>
      <cc:Work>
        <dc:title>FlexBox - FlexBox</dc:title>
        <dc:date>2020-10-05 17:38:38</dc:date>
        <dc:source>boxes FlexBox --x=80 --y=50 --h=50 --outside=true --radius=15 --latchsize=8 --thickness=3 --tabs=0 --debug=false --reference=100 --burn=0.10000000149011612 --FingerJoint_angle=90 --FingerJoint_style=rectangular --FingerJoint_surroundingspaces=2 --FingerJoint_edge_width=1 --FingerJoint_finger=2 --FingerJoint_play=0 --FingerJoint_space=2 --FingerJoint_width=1 --Flex_stretch=1.0499999523162842 --Flex_connection=1 --Flex_distance=0.5 --Flex_width=5</dc:source>
        <dc:description>Box with living hinge and round corners

Created with Boxes.py (https://festi.info/boxes.py)
Command line: boxes FlexBox --x=80 --y=50 --h=50 --outside=true --radius=15 --latchsize=8 --thickness=3 --tabs=0 --debug=false --reference=100 --burn=0.10000000149011612 --FingerJoint_angle=90 --FingerJoint_style=rectangular --FingerJoint_surroundingspaces=2 --FingerJoint_edge_width=1 --FingerJoint_finger=2 --FingerJoint_play=0 --FingerJoint_space=2 --FingerJoint_width=1 --Flex_stretch=1.0499999523162842 --Flex_connection=1 --Flex_distance=0.5 --Flex_width=5
</dc:description>
      </cc:Work>
    </rdf:RDF>
  </metadata>
  <circle
     r="3.6181378"
     style="fill:none;stroke:#ff0000;stroke-width:0.5;stroke-linecap:round;stroke-linejoin:round;stroke-miterlimit:4;stroke-dasharray:none;stroke-opacity:1"
     id="path71-3-9"
     cx="148.77469"
     cy="205.66138"
     inkscape:export-xdpi="96"
     inkscape:export-ydpi="96" />
</svg>
