<?xml version="1.0" encoding="UTF-8" standalone="no"?>
<svg
   xmlns:dc="http://purl.org/dc/elements/1.1/"
   xmlns:cc="http://creativecommons.org/ns#"
   xmlns:rdf="http://www.w3.org/1999/02/22-rdf-syntax-ns#"
   xmlns:svg="http://www.w3.org/2000/svg"
   xmlns="http://www.w3.org/2000/svg"
   xmlns:sodipodi="http://sodipodi.sourceforge.net/DTD/sodipodi-0.dtd"
   xmlns:inkscape="http://www.inkscape.org/namespaces/inkscape"
   sodipodi:docname="extra.svg"
   inkscape:version="1.0 (4035a4fb49, 2020-05-01)"
   width="300mm"
   height="270mm"
   viewBox="0 0 300 270"
   version="1.1"
   id="svg4658">
  <defs
     id="defs4652">
    <rect
       id="rect1240"
       height="13.121279"
       width="85.172892"
       y="66.53554"
       x="-41.310235" />
    <rect
       id="rect1234"
       height="14.164826"
       width="21.346511"
       y="82.542125"
       x="-21.316683" />
    <rect
       id="rect1063"
       height="13.308462"
       width="31.566392"
       y="-25.153612"
       x="110.70944" />
    <rect
       id="rect5809"
       height="36.724616"
       width="79.292871"
       y="162.70883"
       x="194.60662" />
    <rect
       id="rect5803"
       height="15.908464"
       width="70.193205"
       y="4.8440592"
       x="84.196365" />
    <rect
       x="-41.310234"
       y="66.535538"
       width="43.798107"
       height="13.597659"
       id="rect1240-0" />
    <rect
       x="-41.310234"
       y="66.535538"
       width="43.798107"
       height="13.597659"
       id="rect1268" />
    <rect
       x="-41.310234"
       y="66.535538"
       width="43.798107"
       height="13.597659"
       id="rect1240-3" />
    <rect
       x="-41.310234"
       y="66.535538"
       width="43.798107"
       height="13.597659"
       id="rect1268-7" />
  </defs>
  <sodipodi:namedview
     inkscape:window-maximized="0"
     inkscape:window-y="21"
     inkscape:window-x="1920"
     inkscape:window-height="1059"
     inkscape:window-width="1920"
     showgrid="false"
     inkscape:document-rotation="0"
     inkscape:current-layer="p-0"
     inkscape:document-units="mm"
     inkscape:cy="640.00168"
     inkscape:cx="172.56514"
     inkscape:zoom="1.6950233"
     inkscape:pageshadow="2"
     inkscape:pageopacity="0.0"
     borderopacity="1.0"
     bordercolor="#666666"
     pagecolor="#ffffff"
     id="base" />
  <metadata
     id="metadata4655">
    <rdf:RDF>
      <cc:Work
         rdf:about="">
        <dc:format>image/svg+xml</dc:format>
        <dc:type
           rdf:resource="http://purl.org/dc/dcmitype/StillImage" />
        <dc:title>FlexBox4</dc:title>
      </cc:Work>
    </rdf:RDF>
  </metadata>
  <g
     id="layer1"
     inkscape:groupmode="layer"
     inkscape:label="Layer 1" />
  <title
     id="title4844">FlexBox4</title>
  <metadata
     id="metadata4846">
    <rdf:RDF>
      <cc:Work>
        <dc:title>FlexBox - FlexBox4</dc:title>
        <dc:date>2020-09-30 01:38:05</dc:date>
        <dc:source>boxes FlexBox4 --x=50 --y=150 --h=50 --outside=true --radius=15 --latchsize=8 --thickness=3 --tabs=0 --debug=false --reference=100 --burn=0.0099999997764825821 --FingerJoint_angle=90 --FingerJoint_style=rectangular --FingerJoint_surroundingspaces=2 --FingerJoint_edge_width=1 --FingerJoint_finger=2 --FingerJoint_play=0 --FingerJoint_space=2 --FingerJoint_width=1 --Flex_stretch=1.0499999523162842 --Flex_connection=1 --Flex_distance=0.5 --Flex_width=5</dc:source>
        <dc:description>Box with living hinge and left corners rounded

Created with Boxes.py (https://festi.info/boxes.py)
Command line: boxes FlexBox4 --x=50 --y=150 --h=50 --outside=true --radius=15 --latchsize=8 --thickness=3 --tabs=0 --debug=false --reference=100 --burn=0.0099999997764825821 --FingerJoint_angle=90 --FingerJoint_style=rectangular --FingerJoint_surroundingspaces=2 --FingerJoint_edge_width=1 --FingerJoint_finger=2 --FingerJoint_play=0 --FingerJoint_space=2 --FingerJoint_width=1 --Flex_stretch=1.0499999523162842 --Flex_connection=1 --Flex_distance=0.5 --Flex_width=5
</dc:description>
      </cc:Work>
    </rdf:RDF>
  </metadata>
  <title
     id="title4904">FlexBox4</title>
  <metadata
     id="metadata4906">
    <rdf:RDF>
      <cc:Work>
        <dc:title>FlexBox - FlexBox4</dc:title>
        <dc:date>2020-09-30 01:38:14</dc:date>
        <dc:source>boxes FlexBox4 --x=50 --y=130 --h=50 --outside=true --radius=15 --latchsize=8 --thickness=3 --tabs=0 --debug=false --reference=100 --burn=0.0099999997764825821 --FingerJoint_angle=90 --FingerJoint_style=rectangular --FingerJoint_surroundingspaces=2 --FingerJoint_edge_width=1 --FingerJoint_finger=2 --FingerJoint_play=0 --FingerJoint_space=2 --FingerJoint_width=1 --Flex_stretch=1.0499999523162842 --Flex_connection=1 --Flex_distance=0.5 --Flex_width=5</dc:source>
        <dc:description>Box with living hinge and left corners rounded

Created with Boxes.py (https://festi.info/boxes.py)
Command line: boxes FlexBox4 --x=50 --y=130 --h=50 --outside=true --radius=15 --latchsize=8 --thickness=3 --tabs=0 --debug=false --reference=100 --burn=0.0099999997764825821 --FingerJoint_angle=90 --FingerJoint_style=rectangular --FingerJoint_surroundingspaces=2 --FingerJoint_edge_width=1 --FingerJoint_finger=2 --FingerJoint_play=0 --FingerJoint_space=2 --FingerJoint_width=1 --Flex_stretch=1.0499999523162842 --Flex_connection=1 --Flex_distance=0.5 --Flex_width=5
</dc:description>
      </cc:Work>
    </rdf:RDF>
  </metadata>
  <title
     id="title4958">FlexBox4</title>
  <metadata
     id="metadata4960">
    <rdf:RDF>
      <cc:Work>
        <dc:title>FlexBox - FlexBox4</dc:title>
        <dc:date>2020-09-30 01:38:22</dc:date>
        <dc:source>boxes FlexBox4 --x=50 --y=130 --h=50 --outside=true --radius=15 --latchsize=8 --thickness=3 --tabs=0 --debug=false --reference=100 --burn=0.0099999997764825821 --FingerJoint_angle=90 --FingerJoint_style=rectangular --FingerJoint_surroundingspaces=2 --FingerJoint_edge_width=1 --FingerJoint_finger=2 --FingerJoint_play=0 --FingerJoint_space=2 --FingerJoint_width=1 --Flex_stretch=1.0499999523162842 --Flex_connection=1 --Flex_distance=0.5 --Flex_width=5</dc:source>
        <dc:description>Box with living hinge and left corners rounded

Created with Boxes.py (https://festi.info/boxes.py)
Command line: boxes FlexBox4 --x=50 --y=130 --h=50 --outside=true --radius=15 --latchsize=8 --thickness=3 --tabs=0 --debug=false --reference=100 --burn=0.0099999997764825821 --FingerJoint_angle=90 --FingerJoint_style=rectangular --FingerJoint_surroundingspaces=2 --FingerJoint_edge_width=1 --FingerJoint_finger=2 --FingerJoint_play=0 --FingerJoint_space=2 --FingerJoint_width=1 --Flex_stretch=1.0499999523162842 --Flex_connection=1 --Flex_distance=0.5 --Flex_width=5
</dc:description>
      </cc:Work>
    </rdf:RDF>
  </metadata>
  <g
     id="p-0"
     style="fill:none;stroke-linecap:round;stroke-linejoin:round"
     transform="matrix(1,0,0,1.000284,0.21732827,58.743869)">
    <path
       style="stroke:#ff0000;stroke-width:0.0999858;stroke-miterlimit:4;stroke-dasharray:none;stroke-opacity:1"
       d="M 121.94186,150.80239 V 50.830783 h -10.00284 v 99.971607 z"
       stroke="rgb(0,0,0)"
       stroke-width="0.05"
       id="path4962" />
    <rect
       transform="rotate(-90)"
       y="71.747314"
       x="-141.34238"
       height="24.196115"
       width="71.075897"
       id="rect5001"
       style="fill:none;stroke:#ff0000;stroke-width:0.103886;stroke-miterlimit:4;stroke-dasharray:none;stroke-opacity:1" />
    <rect
       y="-30.589676"
       x="25.811489"
       height="22.993458"
       width="22.800016"
       id="rect5771"
       style="fill:none;stroke:#ff0000;stroke-width:0.0999831;stroke-miterlimit:4;stroke-dasharray:none;stroke-opacity:1" />
    <path
       id="rect6158"
       style="display:inline;fill:none;stroke:#ff0000;stroke-width:0.117477;stroke-linecap:round;stroke-linejoin:miter;stroke-miterlimit:8.99484;stroke-dasharray:none;stroke-opacity:1"
       d="m 286.22901,82.878419 h 4.60673 v 4.605419 c 0,20.747882 -4.7e-4,42.036172 -4.7e-4,59.820142 h -4.60675 v -4.7755 c -17.53622,0.15415 -34.97726,0.002 -50.11552,-4.4e-4 0,-6.54155 0,-13.09465 0,-18.97628 -1.53896,0 -3.58439,0 -5.12334,0 -8.11729,-0.17113 -8.11729,-17.43644 0,-17.43644 1.53895,-2e-5 3.58626,-2e-5 5.12522,-2e-5 0,-6.504304 -0.004,-12.903534 -0.004,-18.461591 16.87475,0 33.24421,-0.0023 50.11895,-0.0023 0,-1.591087 0,-3.182196 0,-4.773306 z"
       inkscape:connector-curvature="0"
       sodipodi:nodetypes="cccccccccsccccc" />
    <path
       style="display:inline;fill:none;stroke:#ff0000;stroke-width:0.117477;stroke-linecap:round;stroke-miterlimit:8.99484;stroke-dasharray:none;stroke-opacity:1"
       d="m 231.13722,-45.296376 v -3.600982 c 2.8072,0 5.61435,0 8.42153,0 v -4.615526 h 8.80619 v 4.615526 c 2.93535,0 5.35783,0 8.29319,0 0,-1.538531 10e-5,-3.077018 0,-4.615526 h 8.80622 c 0,1.538508 0,3.076995 0,4.615526 h 8.2932 v -4.615526 h 8.80619 v 4.615526 h 8.42147 v 0.360089 54.852422 h -8.42147 v 4.615535 h -8.80619 V 6.315153 h -8.2932 c 0,1.538512 0,3.077023 0,4.615535 h -8.80622 c 10e-5,-1.538512 0,-3.077023 0,-4.615535 -2.93536,0 -5.35784,0 -8.29319,0 v 4.615535 h -8.80619 V 6.315153 c -2.80718,0 -5.61433,0 -8.42153,0 v -8.6754589 h 4.61684 l 4e-5,-8.2908861 h -4.61688 c 0,-2.934579 0,-5.869111 0,-8.80369 1.53897,0 3.07793,-4.8e-5 4.61684,0 l 4e-5,-8.290886 c -1.53895,0 -3.07791,0 -4.61688,0 v -8.803773 h 4.61684 l 4e-5,-8.290799 h -4.61688 z"
       id="path9274-7-5-1"
       inkscape:connector-curvature="0"
       sodipodi:nodetypes="ccccccccccccccccccccccccccccccccccccccccccc" />
    <g
       id="g7926"
       transform="matrix(0,0.48244656,-0.4825836,0,661.83586,-58.11594)"
       style="display:inline;stroke:#ff0000;stroke-width:0.243467;stroke-miterlimit:8.99484;stroke-dasharray:none;stroke-opacity:1">
      <path
         sodipodi:nodetypes="cccccccccccccccccccccccccccccccccccccccc"
         inkscape:connector-curvature="0"
         id="line78421-2-5"
         d="m 417.76713,919.1888 h -17.45078 v -9.56693 h -18.24804 v 9.56693 h -17.18503 v -9.56693 h -18.24803 v 9.56693 h -17.18522 v -9.56693 H 311.202 v 9.56693 h -7.88373 v 17.4508 h -9.56687 v 18.24812 l 9.56687,-1.3e-4 v 17.18509 h -9.56687 v 18.24799 h 9.56687 v 17.18533 h -9.56687 v 18.248 h 9.56687 c 5e-5,2.7856 0,5.5133 -4e-5,7.8838 h 17.45082 v 9.5669 h 18.24804 v -9.5669 h 17.18503 v 9.5669 h 18.24803 v -9.5669 h 17.18522 v 9.5669 h 18.24803 v -9.5669 h 7.87789"
         style="fill:none;stroke:#ff0000;stroke-width:0.243467;stroke-linecap:round;stroke-linejoin:round;stroke-miterlimit:8.99484;stroke-dasharray:none;stroke-opacity:1" />
      <path
         sodipodi:nodetypes="cccccccccccccc"
         inkscape:connector-curvature="0"
         id="line78421-2-5-4-9"
         d="m 417.76125,919.19215 c 0,6.08258 0,12.26325 0,17.4508 h 9.56687 c 0,6.08271 0,12.16541 0,18.24812 l -9.56687,-1.3e-4 c 0,5.72845 0,11.45683 0,17.18509 3.18886,0 6.37787,0 9.56687,0 v 18.24799 h -9.56687 v 17.18538 h 9.56687 v 18.248 c -3.189,0 -6.37801,0 -9.56687,0 -5e-5,2.7856 0,5.5133 4e-5,7.8838"
         style="display:inline;fill:none;stroke:#ff0000;stroke-width:0.243467;stroke-linecap:round;stroke-linejoin:round;stroke-miterlimit:8.99484;stroke-dasharray:none;stroke-opacity:1" />
    </g>
    <path
       style="display:inline;fill:none;stroke:#ff0000;stroke-width:0.117477;stroke-linecap:round;stroke-miterlimit:8.99484;stroke-dasharray:none;stroke-opacity:1"
       d="m 158.52784,79.174372 c 2.89266,0 5.78532,0 8.67793,0 v -4.615534 h 8.29324 v 4.615534 c 2.93541,0 5.87078,0 8.80619,0 -5e-5,-1.538511 5e-5,-3.077023 0,-4.615534 h 8.29324 c 0,1.538488 0,3.077023 0,4.615534 h 8.80624 v -4.615534 l 8.29314,-2.3e-5 v 4.615533 h 8.67798 c 0.004,-7.991468 0,-15.982961 0,-23.974417 h -4.61684 V 38.19083 h 4.61684 l 4e-5,-23.462257 h -8.67796 v 4.615523 h -8.29316 v -4.615523 h -8.80628 c 0,1.538511 0,3.077011 0,4.615523 h -8.29324 c 5e-5,-1.538535 0,-3.077035 0,-4.615546 -2.93541,2.3e-5 -5.87078,2.3e-5 -8.80615,2.3e-5 v 4.615523 h -8.29323 v -4.615523 c -2.89266,0 -5.78532,0 -8.67798,0 v 8.675483 h 4.61689 l -4e-5,8.290792 h -4.61685 v 8.803784 c 1.53896,0 3.07793,0 4.61689,0 l -4e-5,8.290885 c -1.53892,-7.1e-5 -3.07789,2.4e-5 -4.61685,0 0,2.934557 0,5.869113 0,8.803656 h 4.61689 l -4e-5,8.290921 h -4.61685 c -0.004,4.430078 0,8.860165 0,13.290278 z"
       id="path8259-0"
       inkscape:connector-curvature="0"
       sodipodi:nodetypes="ccccccccccccccccccccccccccccccccccccccccccccc" />
    <path
       id="path9152"
       style="display:inline;fill:none;stroke:#ff0000;stroke-width:0.117477;stroke-linecap:round;stroke-linejoin:miter;stroke-miterlimit:8.99484;stroke-dasharray:none;stroke-opacity:1"
       d="m 217.97317,-53.663597 c 4.2737,1.288383 6.69349,5.796361 5.4047,10.068843 -0.783,2.595756 -2.81603,4.625906 -5.41338,5.405768 v 0.137592 44.214696 h -8.42147 v 4.615522 h -8.80619 V 6.163302 h -8.29325 c 0,1.538499 0,3.077011 0,4.615522 h -8.80619 c 1.1e-4,-1.538511 0,-3.077023 0,-4.615522 -2.93535,0 -5.35783,0 -8.29319,0 v 4.615522 h -8.80623 V 6.163302 c -2.80714,0 -5.61429,0 -8.42149,0 v -8.6754719 h 4.61684 l 6e-5,-8.2908851 h -4.6169 c 0,-2.934556 0,-5.869124 0,-8.80368 1.53897,2.4e-5 3.07793,-7.1e-5 4.61684,0 l 6e-5,-8.290897 c -1.53897,0 -3.07793,0 -4.6169,0 v -8.803772 h 4.6169 V -44.9922 h -4.61684 v -8.675486 c 2.8926,0 5.78526,0 8.67792,0 v 4.615528 h 8.29325 v -4.615528 c 2.93536,0 5.87077,0 8.80618,0 -5e-5,1.538511 5e-5,3.077019 -5e-5,4.615528 h 8.2933 c 0,-1.538509 0,-3.077017 0,-4.615528 h 8.80622 v 4.615528 h 8.29315 v -4.615504 h 8.67798 l 0.0105,0.0046 m 0.71987,7.731367 c 0,1.648728 -1.35042,2.985302 -3.0163,2.985302 -1.66583,0 -3.01625,-1.336574 -3.01625,-2.985302 0,-1.648745 1.35042,-2.985296 3.01625,-2.985296 1.66588,0 3.0163,1.336551 3.0163,2.985296 z"
       inkscape:connector-curvature="0"
       inkscape:export-filename="I:\~Projects\Laser Cutter\g5862.png"
       inkscape:export-xdpi="299.99835"
       inkscape:export-ydpi="299.99835" />
    <path
       inkscape:connector-curvature="0"
       id="path9152-3"
       style="display:inline;fill:none;stroke:#ff0000;stroke-width:0.117477;stroke-linecap:round;stroke-linejoin:miter;stroke-miterlimit:8.99484;stroke-dasharray:none;stroke-opacity:1"
       d="m 290.65488,79.803369 c 4.27366,-1.288405 6.69343,-5.796357 5.40465,-10.068838 -0.783,-2.595755 -2.81602,-4.62593 -5.41339,-5.405769 V 64.191171 19.976464 l -8.42146,2.3e-5 V 15.36093 h -8.80619 v 4.615534 h -8.29323 c 0,-1.538512 0,-3.077023 0,-4.615534 h -8.80619 c 9e-5,1.538511 0,3.077022 0,4.615534 -2.93541,0 -5.35784,0 -8.2932,0 V 15.36093 h -8.80623 v 4.615534 c -2.80714,0 -5.61428,0 -8.42147,0 v 8.67546 h 4.61682 l 5e-5,8.290885 h -4.61687 c 0,2.934579 0,5.869111 0,8.803691 1.53895,-2.4e-5 3.07791,5.9e-5 4.61682,0 l 5e-5,8.290885 c -1.53896,0 -3.07792,0 -4.61687,0 v 8.803749 h 4.61682 l 5e-5,8.290792 h -4.61687 v 8.675519 c 2.89265,0 5.78531,0 8.67795,0 v -4.615534 h 8.29326 v 4.615534 c 2.93536,0 5.87077,0 8.80613,0 0,-1.538512 10e-5,-3.077023 0,-4.615534 h 8.29325 c 0,1.538511 0,3.077022 0,4.615534 h 8.80628 v -4.615534 h 8.29314 v 4.615511 h 8.67796 l 0.0105,-0.0047 m 0.71981,-7.73167 c 0,-1.648725 -1.35041,-2.9853 -3.01629,-2.9853 -1.66583,0 -3.01624,1.336575 -3.01624,2.9853 0,1.648746 1.35041,2.985298 3.01624,2.985298 1.66588,0 3.01629,-1.336552 3.01629,-2.985298 z" />
    <rect
       transform="rotate(90)"
       y="-198.60866"
       x="25.228788"
       height="25.82473"
       width="44.712009"
       id="rect5793"
       style="fill:none;stroke:#ff0000;stroke-width:0.0752701;stroke-miterlimit:8.99484;stroke-dasharray:none;stroke-opacity:1" />
    <text
       transform="matrix(0,0.77022794,-0.77066549,0,213.65996,-41.461765)"
       style="font-style:normal;font-weight:normal;font-size:10.5818px;line-height:1.25;font-family:sans-serif;white-space:pre;shape-inside:url(#rect5803);fill:#000000;fill-opacity:1;stroke:none;stroke-width:0;stroke-miterlimit:8.99484;stroke-dasharray:none;"
       id="text5801"
       xml:space="preserve"><tspan
         x="84.197266"
         y="13.880608"><tspan
           style="stroke-width:0;stroke-miterlimit:8.99484;stroke-dasharray:none">Thermometer</tspan></tspan></text>
    <text
       transform="matrix(0.52697947,0.52682985,-0.52712914,0.52697947,235.79862,-27.423347)"
       style="font-style:normal;font-weight:normal;font-size:10.5818px;line-height:1.25;font-family:sans-serif;white-space:pre;shape-inside:url(#rect5809);fill:#000000;fill-opacity:1;stroke:none;"
       id="text5807"
       xml:space="preserve"><tspan
         x="194.60742"
         y="171.74584"><tspan>Compact Case</tspan></tspan></text>
    <rect
       style="fill:none;stroke:#ff0000;stroke-width:0.0999858;stroke-miterlimit:4;stroke-dasharray:none;stroke-opacity:1"
       id="rect3703"
       width="12.299999"
       height="15.795513"
       x="21.345314"
       y="120.62041" />
    <ellipse
       ry="10.958933"
       rx="10.962056"
       cy="-12.377026"
       cx="84.132072"
       id="path71"
       style="fill:none;stroke:#ff0000;stroke-width:0.0758886" />
    <rect
       y="-30.397688"
       x="66.45742"
       height="34.908985"
       width="34.918922"
       id="rect73"
       style="fill:none;stroke:#ff0000;stroke-width:0.0810765" />
    <rect
       y="-1.0838513"
       x="69.81823"
       height="2.9868426"
       width="2.9876943"
       id="rect75"
       style="fill:none;stroke:#ff0000;stroke-width:0.0999858;stroke-miterlimit:4;stroke-dasharray:none" />
    <rect
       style="fill:none;stroke:#ff0000;stroke-width:0.0999859;stroke-linecap:round;stroke-linejoin:round;stroke-miterlimit:4;stroke-dasharray:none"
       id="rect75-3"
       width="2.9876943"
       height="2.9868426"
       x="69.81823"
       y="-26.537462" />
    <rect
       style="fill:none;stroke:#ff0000;stroke-width:0.0999859;stroke-linecap:round;stroke-linejoin:round;stroke-miterlimit:4;stroke-dasharray:none"
       id="rect75-6"
       width="2.9876943"
       height="2.9868426"
       x="95.279083"
       y="-26.537462" />
    <rect
       style="fill:none;stroke:#ff0000;stroke-width:0.0999859;stroke-linecap:round;stroke-linejoin:round;stroke-miterlimit:4;stroke-dasharray:none"
       id="rect75-7"
       width="2.9876943"
       height="2.9868426"
       x="95.279083"
       y="-1.0838513" />
    <path
       id="rect942"
       style="fill:none;stroke:#ff0000;stroke-width:0.0999858;stroke-linecap:round;stroke-linejoin:round;stroke-miterlimit:4;stroke-dasharray:none"
       d="m 133.37407,136.76893 h -3.93929 -4.77697 v 14.11555 h 4.77697 v -11.17703 h 3.93929 z" />
    <path
       d="m 130.62469,150.90378 h 3.93929 4.77697 v -14.11555 h -4.77697 v 11.17703 h -3.93929 z"
       style="fill:none;stroke:#ff0000;stroke-width:0.0999858;stroke-linecap:round;stroke-linejoin:round;stroke-miterlimit:4;stroke-dasharray:none"
       id="rect942-2" />
    <path
       d="m 133.44063,121.16003 h -3.93929 -4.77697 v 14.11555 h 4.77697 v -11.17703 h 3.93929 z"
       style="fill:none;stroke:#ff0000;stroke-width:0.0999859;stroke-linecap:round;stroke-linejoin:round;stroke-miterlimit:4;stroke-dasharray:none"
       id="rect942-9" />
    <path
       id="rect942-2-1"
       style="fill:none;stroke:#ff0000;stroke-width:0.0999859;stroke-linecap:round;stroke-linejoin:round;stroke-miterlimit:4;stroke-dasharray:none"
       d="m 130.69125,135.29488 h 3.93929 4.77697 v -14.11555 h -4.77697 v 11.17703 h -3.93929 z" />
    <rect
       style="fill:none;stroke:#ff0000;stroke-width:0.0810764;stroke-linecap:round;stroke-linejoin:round"
       id="rect73-2"
       width="34.918922"
       height="34.908985"
       x="107.8586"
       y="-30.554977" />
    <text
       transform="matrix(0.68191561,-0.73122319,0.73163858,0.68191561,56.023942,90.291103)"
       style="font-size:4.99929px;line-height:1.25;font-family:sans-serif;letter-spacing:0px;white-space:pre;shape-inside:url(#rect1063);fill:#000000;"
       id="text1061"
       xml:space="preserve"><tspan
         x="110.70898"
         y="-20.884903"><tspan
           style="font-size:4.99929px;fill:#000000">Anemometer
</tspan></tspan><tspan
         x="110.70898"
         y="-14.63579"><tspan
           style="font-size:4.99929px;fill:#000000">Mount</tspan></tspan></text>
    <rect
       style="fill:none;stroke:#000000;stroke-width:0.499929;stroke-linecap:round;stroke-linejoin:round;stroke-miterlimit:4;stroke-dasharray:none;stroke-opacity:1"
       id="rect73-0"
       width="34.918922"
       height="34.908985"
       x="190.5034"
       y="164.85718" />
    <rect
       style="fill:none;stroke:#ff0000;stroke-width:0.0999859;stroke-linecap:round;stroke-linejoin:round;stroke-miterlimit:4;stroke-dasharray:none"
       id="rect75-9"
       width="2.9876943"
       height="2.9868426"
       x="193.86421"
       y="194.17102" />
    <rect
       y="168.71741"
       x="193.86421"
       height="2.9868426"
       width="2.9876943"
       id="rect75-3-3"
       style="fill:none;stroke:#ff0000;stroke-width:0.0999859;stroke-linecap:round;stroke-linejoin:round;stroke-miterlimit:4;stroke-dasharray:none" />
    <rect
       y="168.71741"
       x="219.32507"
       height="2.9868426"
       width="2.9876943"
       id="rect75-6-6"
       style="fill:none;stroke:#ff0000;stroke-width:0.0999859;stroke-linecap:round;stroke-linejoin:round;stroke-miterlimit:4;stroke-dasharray:none" />
    <rect
       y="194.17102"
       x="219.32507"
       height="2.9868426"
       width="2.9876943"
       id="rect75-7-0"
       style="fill:none;stroke:#ff0000;stroke-width:0.0999859;stroke-linecap:round;stroke-linejoin:round;stroke-miterlimit:4;stroke-dasharray:none" />
    <path
       id="rect1097"
       style="fill:none;stroke:#ff0000;stroke-width:0.0999859;stroke-linecap:round;stroke-linejoin:round;stroke-miterlimit:4;stroke-dasharray:none;stroke-opacity:1"
       d="m 142.53049,134.59128 v 4.71724 h -1.98696 v 6.89736 h 1.97973 v 4.74358 h 2.97398 v -4.74358 h 2.14198 v -6.89736 h -2.13423 v -4.71724 z" />
    <path
       id="rect1097-8"
       style="fill:none;stroke:#ff0000;stroke-width:0.0999859;stroke-linecap:round;stroke-linejoin:round;stroke-miterlimit:4;stroke-dasharray:none;stroke-opacity:1"
       d="m 151.07748,134.63756 v 4.71723 h -1.98696 v 6.89736 h 1.97973 v 4.74359 h 2.97397 v -4.74359 h 2.14199 v -6.89736 h -2.13423 v -4.71723 z" />
    <path
       d="m 142.53782,117.74648 v 4.71724 h -1.98696 v 6.89736 h 1.97973 v 4.74358 h 2.97398 v -4.74358 h 2.14198 v -6.89736 h -2.13423 v -4.71724 z"
       style="fill:none;stroke:#ff0000;stroke-width:0.0999859;stroke-linecap:round;stroke-linejoin:round;stroke-miterlimit:4;stroke-dasharray:none;stroke-opacity:1"
       id="rect1097-7" />
    <path
       d="m 151.08481,117.79276 v 4.71723 h -1.98696 v 6.89736 h 1.97973 v 4.74359 h 2.97397 v -4.74359 h 2.14199 v -6.89736 h -2.13423 v -4.71723 z"
       style="fill:none;stroke:#ff0000;stroke-width:0.0999859;stroke-linecap:round;stroke-linejoin:round;stroke-miterlimit:4;stroke-dasharray:none;stroke-opacity:1"
       id="rect1097-8-9" />
    <text
       transform="matrix(0,0.75561534,-0.75604459,0,166.69366,105.35036)"
       style="font-size:10.5818px;line-height:1.25;font-family:sans-serif;letter-spacing:0px;white-space:pre;shape-inside:url(#rect1234);fill:#000000;"
       id="text1232"
       xml:space="preserve"><tspan
         x="-21.316406"
         y="91.579826"><tspan
           style="fill:#000000">Info</tspan></tspan></text>
    <text
       transform="matrix(0,0.49609924,-0.49638106,0,83.38727,104.16232)"
       style="font-size:10.5818px;line-height:1.25;font-family:sans-serif;letter-spacing:0px;white-space:pre;shape-inside:url(#rect1240);fill:#000000;"
       id="text1238"
       xml:space="preserve"><tspan
         x="-41.310547"
         y="75.572014"><tspan
           style="fill:#000000">Sensors Mount</tspan></tspan></text>
    <rect
       y="83.662979"
       x="21.585415"
       height="19.870577"
       width="14.976255"
       id="rect3703-2"
       style="fill:none;stroke:#ff0000;stroke-width:0.123745;stroke-linecap:round;stroke-linejoin:round;stroke-miterlimit:4;stroke-dasharray:none;stroke-opacity:1" />
    <text
       xml:space="preserve"
       id="text1238-2"
       style="font-size:10.5818px;line-height:1.25;font-family:sans-serif;letter-spacing:0px;white-space:pre;shape-inside:url(#rect1240-0);fill:#000000;stroke-linecap:round;stroke-linejoin:round;"
       transform="matrix(0,0.49609925,-0.49638106,0,51.799395,103.63997)"><tspan
         x="-41.310547"
         y="75.572014"><tspan>DHT22</tspan></tspan></text>
    <text
       xml:space="preserve"
       id="text1238-5"
       style="font-size:10.5818px;line-height:1.25;font-family:sans-serif;letter-spacing:0px;white-space:pre;shape-inside:url(#rect1240-3);fill:#000000;stroke-linecap:round;stroke-linejoin:round;"
       transform="matrix(0,0.49609925,-0.49638106,0,52.892055,139.21935)"><tspan
         x="-41.310547"
         y="75.572014"><tspan>DHT11</tspan></tspan></text>
  </g>
  <g
     id="p-1"
     style="fill:none;stroke:#ff0000;stroke-width:0.0999858;stroke-linecap:round;stroke-linejoin:round;stroke-miterlimit:4;stroke-dasharray:none;stroke-opacity:1"
     transform="matrix(1,0,0,1.000284,-5.1652968,75.6639)">
    <path
       style="stroke:#ff0000;stroke-width:0.0999858;stroke-miterlimit:4;stroke-dasharray:none;stroke-opacity:1"
       d="m 13.01,189.29 h 9.5 c 0.006,0 0.01,-0.004 0.01,-0.01 v -2.99 c 0,-0.01 -0.01,0 0,0 h 5.98 c 0.01,0 0,-0.01 0,0 v 2.99 c 0,0.006 0.004,0.01 0.01,0.01 h 6 c 0.006,0 0.01,-0.004 0.01,-0.01 v -2.99 c 0,-0.01 -0.01,0 0,0 h 5.98 c 0.01,0 0,-0.01 0,0 v 2.99 c 0,0.006 0.004,0.01 0.01,0.01 h 6 c 0.006,0 0.01,-0.004 0.01,-0.01 v -2.99 c 0,-0.01 -0.01,0 0,0 h 5.98 c 0.01,0 0,-0.01 0,0 v 2.99 c 0,0.006 0.004,0.01 0.01,0.01 h 6 c 0.006,0 0.01,-0.004 0.01,-0.01 v -2.99 c 0,-0.01 -0.01,0 0,0 h 5.98 c 0.01,0 0,-0.01 0,0 v 2.99 c 0,0.006 0.004,0.01 0.01,0.01 h 6 c 0.006,0 0.01,-0.004 0.01,-0.01 v -2.99 c 0,-0.01 -0.01,0 0,0 h 5.98 c 0.01,0 0,-0.01 0,0 v 2.99 c 0,0.006 0.004,0.01 0.01,0.01 h 6 c 0.006,0 0.01,-0.004 0.01,-0.01 v -2.99 c 0,-0.01 -0.01,0 0,0 h 5.98 c 0.01,0 0,-0.01 0,0 v 2.99 c 0,0.006 0.004,0.01 0.01,0.01 h 6 c 0.006,0 0.01,-0.004 0.01,-0.01 v -2.99 c 0,-0.01 -0.01,0 0,0 h 5.98 c 0.01,0 0,-0.01 0,0 v 2.99 c 0,0.006 0.004,0.01 0.01,0.01 h 6 c 0.006,0 0.01,-0.004 0.01,-0.01 v -2.99 c 0,-0.01 -0.01,0 0,0 h 5.98 c 0.01,0 0,-0.01 0,0 v 2.99 c 0,0.006 0.004,0.01 0.01,0.01 h 9.5 23.562 14 23.562 85 c 0.005,0 0.01,-0.004 0.01,-0.01 v -3.29 c 0,-0.01 -0.01,0 0,0 h 14.08 c 0.01,0 0,-0.01 0,0 v 3.29 c 0,0.133 0.035,0.264 0.102,0.38 0.066,0.116 0.162,0.211 0.278,0.278 0.115,0.067 0.246,0.102 0.38,0.102 0.127,0 0.251,-0.033 0.361,-0.097 0.11,-0.063 0.201,-0.154 0.265,-0.264 0.063,-0.11 0.096,-0.235 0.096,-0.362 0,-0.123 0.033,-0.244 0.095,-0.351 0.061,-0.107 0.15,-0.195 0.257,-0.257 0.106,-0.062 0.228,-0.094 0.351,-0.094 0.123,0 0.244,0.032 0.351,0.094 0.107,0.062 0.196,0.15 0.257,0.257 0.062,0.107 0.094,0.228 0.094,0.351 0,0.127 0.034,0.252 0.097,0.362 0.064,0.11 0.155,0.201 0.265,0.264 0.109,0.064 0.234,0.097 0.361,0.097 0.127,0 0.251,-0.033 0.361,-0.097 0.11,-0.063 0.201,-0.154 0.265,-0.264 0.063,-0.11 0.096,-0.235 0.096,-0.362 0,-0.123 0.033,-0.244 0.095,-0.351 0.061,-0.107 0.15,-0.195 0.257,-0.257 0.106,-0.062 0.228,-0.094 0.351,-0.094 0.123,0 0.244,0.032 0.351,0.094 0.107,0.062 0.196,0.15 0.257,0.257 0.062,0.107 0.094,0.228 0.094,0.351 0,0.127 0.034,0.252 0.097,0.362 0.064,0.11 0.155,0.201 0.265,0.264 0.109,0.064 0.234,0.097 0.361,0.097 0.127,0 0.251,-0.033 0.361,-0.097 0.11,-0.063 0.201,-0.154 0.265,-0.264 0.063,-0.11 0.096,-0.235 0.096,-0.362 0,-0.123 0.033,-0.244 0.095,-0.351 0.061,-0.107 0.15,-0.195 0.257,-0.257 0.106,-0.062 0.228,-0.094 0.351,-0.094 0.123,0 0.244,0.032 0.351,0.094 0.107,0.062 0.196,0.15 0.257,0.257 0.062,0.107 0.094,0.228 0.094,0.351 0,0.127 0.034,0.252 0.097,0.362 0.064,0.11 0.155,0.201 0.265,0.264 0.109,0.064 0.234,0.097 0.361,0.097 0.127,0 0.251,-0.033 0.361,-0.097 0.11,-0.063 0.201,-0.154 0.265,-0.264 0.063,-0.11 0.096,-0.235 0.096,-0.362 0,-0.123 0.033,-0.244 0.095,-0.351 0.061,-0.107 0.15,-0.195 0.257,-0.257 0.106,-0.062 0.228,-0.094 0.351,-0.094 0.123,0 0.244,0.032 0.351,0.094 0.107,0.062 0.196,0.15 0.257,0.257 0.062,0.107 0.094,0.228 0.094,0.351 0,0.127 0.034,0.252 0.097,0.362 0.064,0.11 0.155,0.201 0.265,0.264 0.109,0.064 0.234,0.097 0.361,0.097 0.133,0 0.264,-0.035 0.38,-0.102 0.115,-0.067 0.211,-0.162 0.278,-0.278 0.067,-0.116 0.102,-0.247 0.102,-0.38 v -50 c 0,-0.133 -0.035,-0.264 -0.102,-0.38 -0.067,-0.116 -0.163,-0.211 -0.278,-0.278 -0.116,-0.067 -0.247,-0.102 -0.38,-0.102 -0.127,0 -0.252,0.033 -0.361,0.097 -0.11,0.063 -0.201,0.154 -0.265,0.264 -0.063,0.11 -0.097,0.235 -0.097,0.361 0,0.124 -0.032,0.245 -0.094,0.352 -0.061,0.107 -0.15,0.195 -0.257,0.257 -0.107,0.062 -0.228,0.094 -0.351,0.094 -0.123,0 -0.245,-0.032 -0.351,-0.094 -0.107,-0.062 -0.196,-0.15 -0.257,-0.257 -0.062,-0.107 -0.095,-0.228 -0.095,-0.352 0,-0.126 -0.033,-0.251 -0.096,-0.361 -0.064,-0.11 -0.155,-0.201 -0.265,-0.264 -0.11,-0.064 -0.234,-0.097 -0.361,-0.097 -0.127,0 -0.252,0.033 -0.361,0.097 -0.11,0.063 -0.201,0.154 -0.265,0.264 -0.063,0.11 -0.097,0.235 -0.097,0.361 0,0.124 -0.032,0.245 -0.094,0.352 -0.061,0.107 -0.15,0.195 -0.257,0.257 -0.107,0.062 -0.228,0.094 -0.351,0.094 -0.123,0 -0.245,-0.032 -0.351,-0.094 -0.107,-0.062 -0.196,-0.15 -0.257,-0.257 -0.062,-0.107 -0.095,-0.228 -0.095,-0.352 0,-0.126 -0.033,-0.251 -0.096,-0.361 -0.064,-0.11 -0.155,-0.201 -0.265,-0.264 -0.11,-0.064 -0.234,-0.097 -0.361,-0.097 -0.127,0 -0.252,0.033 -0.361,0.097 -0.11,0.063 -0.201,0.154 -0.265,0.264 -0.063,0.11 -0.097,0.235 -0.097,0.361 0,0.124 -0.032,0.245 -0.094,0.352 -0.061,0.107 -0.15,0.195 -0.257,0.257 -0.107,0.062 -0.228,0.094 -0.351,0.094 -0.123,0 -0.245,-0.032 -0.351,-0.094 -0.107,-0.062 -0.196,-0.15 -0.257,-0.257 -0.062,-0.107 -0.095,-0.228 -0.095,-0.352 0,-0.126 -0.033,-0.251 -0.096,-0.361 -0.064,-0.11 -0.155,-0.201 -0.265,-0.264 -0.11,-0.064 -0.234,-0.097 -0.361,-0.097 -0.127,0 -0.252,0.033 -0.361,0.097 -0.11,0.063 -0.201,0.154 -0.265,0.264 -0.063,0.11 -0.097,0.235 -0.097,0.361 0,0.124 -0.032,0.245 -0.094,0.352 -0.061,0.107 -0.15,0.195 -0.257,0.257 -0.107,0.062 -0.228,0.094 -0.351,0.094 -0.123,0 -0.245,-0.032 -0.351,-0.094 -0.107,-0.062 -0.196,-0.15 -0.257,-0.257 -0.062,-0.107 -0.095,-0.228 -0.095,-0.352 0,-0.126 -0.033,-0.251 -0.096,-0.361 -0.064,-0.11 -0.155,-0.201 -0.265,-0.264 -0.11,-0.064 -0.234,-0.097 -0.361,-0.097 -0.134,0 -0.265,0.035 -0.38,0.102 -0.116,0.067 -0.212,0.162 -0.278,0.278 -0.067,0.116 -0.102,0.247 -0.102,0.38 v 3.29 c 0,0.01 0.01,0 0,0 h -14.08 c -0.01,0 0,0.01 0,0 v -3.29 c 0,-0.006 -0.005,-0.01 -0.01,-0.01 h -85 -23.562 -14 -23.562 -9.5 c -0.006,0 -0.01,0.004 -0.01,0.01 v 2.99 c 0,0.01 0.01,0 0,0 h -5.98 c -0.01,0 0,0.01 0,0 v -2.99 c 0,-0.006 -0.004,-0.01 -0.01,-0.01 h -6 c -0.006,0 -0.01,0.004 -0.01,0.01 v 2.99 c 0,0.01 0.01,0 0,0 h -5.98 c -0.01,0 0,0.01 0,0 v -2.99 c 0,-0.006 -0.004,-0.01 -0.01,-0.01 h -6 c -0.006,0 -0.01,0.004 -0.01,0.01 v 2.99 c 0,0.01 0.01,0 0,0 h -5.98 c -0.01,0 0,0.01 0,0 v -2.99 c 0,-0.006 -0.004,-0.01 -0.01,-0.01 h -6 c -0.006,0 -0.01,0.004 -0.01,0.01 v 2.99 c 0,0.01 0.01,0 0,0 h -5.98 c -0.01,0 0,0.01 0,0 v -2.99 c 0,-0.006 -0.004,-0.01 -0.01,-0.01 h -6 c -0.006,0 -0.01,0.004 -0.01,0.01 v 2.99 c 0,0.01 0.01,0 0,0 h -5.98 c -0.01,0 0,0.01 0,0 v -2.99 c 0,-0.006 -0.004,-0.01 -0.01,-0.01 h -6 c -0.006,0 -0.01,0.004 -0.01,0.01 v 2.99 c 0,0.01 0.01,0 0,0 h -5.98 c -0.01,0 0,0.01 0,0 v -2.99 c 0,-0.006 -0.004,-0.01 -0.01,-0.01 h -6 c -0.006,0 -0.01,0.004 -0.01,0.01 v 2.99 c 0,0.01 0.01,0 0,0 h -5.98 c -0.01,0 0,0.01 0,0 v -2.99 c 0,-0.006 -0.004,-0.01 -0.01,-0.01 h -6 c -0.006,0 -0.01,0.004 -0.01,0.01 v 2.99 c 0,0.01 0.01,0 0,0 h -5.98 c -0.01,0 0,0.01 0,0 v -2.99 c 0,-0.006 -0.004,-0.01 -0.01,-0.01 h -9.5 c -0.006,0 -0.01,0.004 -0.01,0.01 v 3 6.99 c 0,0.01 0.01,0 0,0 h -2.99 c -0.006,0 -0.01,0.004 -0.01,0.01 v 6 c 0,0.006 0.004,0.01 0.01,0.01 H 13 c 0.01,0 0,-0.01 0,0 v 5.98 c 0,0.01 0.01,0 0,0 h -2.99 c -0.006,0 -0.01,0.004 -0.01,0.01 v 6 c 0,0.006 0.004,0.01 0.01,0.01 H 13 c 0.01,0 0,-0.01 0,0 v 5.98 c 0,0.01 0.01,0 0,0 h -2.99 c -0.006,0 -0.01,0.004 -0.01,0.01 v 6 c 0,0.006 0.004,0.01 0.01,0.01 H 13 c 0.01,0 0,-0.01 0,0 v 6.99 3 c 0,0.006 0.004,0.01 0.01,0.01 z"
       stroke="rgb(0,0,0)"
       stroke-width="0.05"
       id="path4967" />
    <path
       style="stroke:#ff0000;stroke-width:0.0999858;stroke-miterlimit:4;stroke-dasharray:none;stroke-opacity:1"
       d="m 124.041,189.29 v -15.673 m 0,-3 V 142.27 m 1.5,-3 v 15.673 m 0,3 v 28.347 m 1.5,3 v -15.673 m 0,-3 V 142.27 m 1.5,-3 v 15.673 m 0,3 v 28.347 m 1.5,3 v -15.673 m 0,-3 V 142.27 m 1.5,-3 v 15.673 m 0,3 v 28.347 m 1.5,3 v -15.673 m 0,-3 V 142.27 m 1.5,-3 v 15.673 m 0,3 v 28.347 m 1.5,3 v -15.673 m 0,-3 V 142.27 m 1.5,-3 v 15.673 m 0,3 v 28.347 m 1.5,3 v -15.673 m 0,-3 V 142.27 m 1.5,-3 v 15.673 m 0,3 v 28.347 m 1.5,3 v -15.673 m 0,-3 V 142.27 m 1.5,-3 v 15.673 m 0,3 v 28.347"
       stroke="rgb(0,0,0)"
       stroke-width="0.05"
       id="path4969" />
    <path
       style="stroke:#ff0000;stroke-width:0.0999858;stroke-miterlimit:4;stroke-dasharray:none;stroke-opacity:1"
       d="m 161.603,189.29 v -15.673 m 0,-3 V 142.27 m 1.5,-3 v 15.673 m 0,3 v 28.347 m 1.5,3 v -15.673 m 0,-3 V 142.27 m 1.5,-3 v 15.673 m 0,3 v 28.347 m 1.5,3 v -15.673 m 0,-3 V 142.27 m 1.5,-3 v 15.673 m 0,3 v 28.347 m 1.5,3 v -15.673 m 0,-3 V 142.27 m 1.5,-3 v 15.673 m 0,3 v 28.347 m 1.5,3 v -15.673 m 0,-3 V 142.27 m 1.5,-3 v 15.673 m 0,3 v 28.347 m 1.5,3 v -15.673 m 0,-3 V 142.27 m 1.5,-3 v 15.673 m 0,3 v 28.347 m 1.5,3 v -15.673 m 0,-3 V 142.27 m 1.5,-3 v 15.673 m 0,3 v 28.347"
       stroke="rgb(0,0,0)"
       stroke-width="0.05"
       id="path4971" />
  </g>
  <g
     id="p-2"
     style="fill:none;stroke:#ff0000;stroke-width:0.0999858;stroke-linecap:round;stroke-linejoin:round;stroke-miterlimit:4;stroke-dasharray:none;stroke-opacity:1"
     transform="matrix(1,0,0,1.000284,-3.3644901,73.614943)">
    <path
       style="stroke:#ff0000;stroke-width:0.0999858;stroke-miterlimit:4;stroke-dasharray:none;stroke-opacity:1"
       d="M 13.01,134.02 H 20 c 0.01,0 0,-0.01 0,0 v 2.99 c 0,0.006 0.004,0.01 0.01,0.01 h 6 c 0.006,0 0.01,-0.004 0.01,-0.01 v -2.99 c 0,-0.01 -0.01,0 0,0 H 32 c 0.01,0 0,-0.01 0,0 v 2.99 c 0,0.006 0.004,0.01 0.01,0.01 h 6 c 0.006,0 0.01,-0.004 0.01,-0.01 v -2.99 c 0,-0.01 -0.01,0 0,0 H 44 c 0.01,0 0,-0.01 0,0 v 2.99 c 0,0.006 0.004,0.01 0.01,0.01 h 6 c 0.006,0 0.01,-0.004 0.01,-0.01 v -2.99 c 0,-0.01 -0.01,0 0,0 h 6.99 c 0.006,0 0.01,-0.004 0.01,-0.01 v -9.49 c 0,-0.01 -0.01,0 0,0 h 2.99 c 0.006,0 0.01,-0.004 0.01,-0.01 v -6 c 0,-0.006 -0.004,-0.01 -0.01,-0.01 h -2.99 c -0.01,0 0,0.01 0,0 v -5.98 c 0,-0.01 -0.01,0 0,0 h 2.99 c 0.006,0 0.01,-0.004 0.01,-0.01 v -6 c 0,-0.006 -0.004,-0.01 -0.01,-0.01 h -2.99 c -0.01,0 0,0.01 0,0 v -5.98 c 0,-0.01 -0.01,0 0,0 h 2.99 c 0.006,0 0.01,-0.004 0.01,-0.01 v -6 c 0,-0.006 -0.004,-0.01 -0.01,-0.01 h -2.99 c -0.01,0 0,0.01 0,0 v -5.98 c 0,-0.01 -0.01,0 0,0 h 2.99 c 0.006,0 0.01,-0.004 0.01,-0.01 v -6 c 0,-0.006 -0.004,-0.01 -0.01,-0.01 h -2.99 c -0.01,0 0,0.01 0,0 v -5.98 c 0,-0.01 -0.01,0 0,0 h 2.99 c 0.006,0 0.01,-0.004 0.01,-0.01 v -6 c 0,-0.006 -0.004,-0.01 -0.01,-0.01 h -2.99 c -0.01,0 0,0.01 0,0 v -5.98 c 0,-0.01 -0.01,0 0,0 h 2.99 c 0.006,0 0.01,-0.004 0.01,-0.01 v -6 c 0,-0.006 -0.004,-0.01 -0.01,-0.01 h -2.99 c -0.01,0 0,0.01 0,0 v -5.98 c 0,-0.01 -0.01,0 0,0 h 2.99 c 0.006,0 0.01,-0.004 0.01,-0.01 v -6 c 0,-0.006 -0.004,-0.01 -0.01,-0.01 h -2.99 c -0.01,0 0,0.01 0,0 v -5.98 c 0,-0.01 -0.01,0 0,0 h 2.99 c 0.006,0 0.01,-0.004 0.01,-0.01 v -6 c 0,-0.006 -0.004,-0.01 -0.01,-0.01 h -2.99 c -0.01,0 0,0.01 0,0 v -9.49 c 0,-2.635 -0.694,-5.223 -2.011,-7.505 C 53.692,15.223 51.797,13.328 49.515,12.011 47.233,10.694 44.645,10 42.01,10 h -14 c -2.635,0 -5.223,0.694 -7.505,2.011 -2.282,1.317 -4.177,3.212 -5.494,5.494 C 13.694,19.787 13,22.375 13,25.01 V 110 c 0,0.01 0.01,0 0,0 h -2.99 c -0.006,0 -0.01,0.004 -0.01,0.01 v 12 c 0,0.006 0.004,0.01 0.01,0.01 H 13 c 0.01,0 0,-0.01 0,0 v 11.99 c 0,0.006 0.004,0.01 0.01,0.01 z"
       stroke="rgb(0,0,0)"
       stroke-width="0.05"
       id="path4974" />
  </g>
  <g
     id="p-3"
     style="fill:none;stroke:#ff0000;stroke-width:0.0999858;stroke-linecap:round;stroke-linejoin:round;stroke-miterlimit:4;stroke-dasharray:none;stroke-opacity:1"
     transform="matrix(1,0,0,1.000284,-3.3644901,73.614943)">
    <path
       style="stroke:#ff0000;stroke-width:0.0999858;stroke-miterlimit:4;stroke-dasharray:none;stroke-opacity:1"
       d="m 108.53,134.02 h -6.99 c -0.01,0 0,-0.01 0,0 v 2.99 c 0,0.006 -0.004,0.01 -0.01,0.01 h -6 c -0.006,0 -0.01,-0.004 -0.01,-0.01 v -2.99 c 0,-0.01 0.01,0 0,0 h -5.98 c -0.01,0 0,-0.01 0,0 v 2.99 c 0,0.006 -0.004,0.01 -0.01,0.01 h -6 c -0.006,0 -0.01,-0.004 -0.01,-0.01 v -2.99 c 0,-0.01 0.01,0 0,0 h -5.98 c -0.01,0 0,-0.01 0,0 v 2.99 c 0,0.006 -0.004,0.01 -0.01,0.01 h -6 c -0.006,0 -0.01,-0.004 -0.01,-0.01 v -2.99 c 0,-0.01 0.01,0 0,0 h -6.99 c -0.006,0 -0.01,-0.004 -0.01,-0.01 v -9.49 c 0,-0.01 0.01,0 0,0 h -2.99 c -0.006,0 -0.01,-0.004 -0.01,-0.01 v -6 c 0,-0.006 0.004,-0.01 0.01,-0.01 h 2.99 c 0.01,0 0,0.01 0,0 v -5.98 c 0,-0.01 0.01,0 0,0 h -2.99 c -0.006,0 -0.01,-0.004 -0.01,-0.01 v -6 c 0,-0.006 0.004,-0.01 0.01,-0.01 h 2.99 c 0.01,0 0,0.01 0,0 v -5.98 c 0,-0.01 0.01,0 0,0 h -2.99 c -0.006,0 -0.01,-0.004 -0.01,-0.01 v -6 c 0,-0.006 0.004,-0.01 0.01,-0.01 h 2.99 c 0.01,0 0,0.01 0,0 v -5.98 c 0,-0.01 0.01,0 0,0 h -2.99 c -0.006,0 -0.01,-0.004 -0.01,-0.01 v -6 c 0,-0.006 0.004,-0.01 0.01,-0.01 h 2.99 c 0.01,0 0,0.01 0,0 v -5.98 c 0,-0.01 0.01,0 0,0 h -2.99 c -0.006,0 -0.01,-0.004 -0.01,-0.01 v -6 c 0,-0.006 0.004,-0.01 0.01,-0.01 h 2.99 c 0.01,0 0,0.01 0,0 v -5.98 c 0,-0.01 0.01,0 0,0 h -2.99 c -0.006,0 -0.01,-0.004 -0.01,-0.01 v -6 c 0,-0.006 0.004,-0.01 0.01,-0.01 h 2.99 c 0.01,0 0,0.01 0,0 v -5.98 c 0,-0.01 0.01,0 0,0 h -2.99 c -0.006,0 -0.01,-0.004 -0.01,-0.01 v -6 c 0,-0.006 0.004,-0.01 0.01,-0.01 h 2.99 c 0.01,0 0,0.01 0,0 v -5.98 c 0,-0.01 0.01,0 0,0 h -2.99 c -0.006,0 -0.01,-0.004 -0.01,-0.01 v -6 c 0,-0.006 0.004,-0.01 0.01,-0.01 h 2.99 c 0.01,0 0,0.01 0,0 v -9.49 c 0,-2.635 0.694,-5.223 2.011,-7.505 1.317,-2.282 3.212,-4.177 5.494,-5.494 C 74.307,10.694 76.895,10 79.53,10 h 14 c 2.635,0 5.223,0.694 7.505,2.011 2.282,1.317 4.177,3.212 5.494,5.494 1.317,2.282 2.011,4.87 2.011,7.505 V 110 c 0,0.01 -0.01,0 0,0 h 2.99 c 0.006,0 0.01,0.004 0.01,0.01 v 12 c 0,0.006 -0.004,0.01 -0.01,0.01 h -2.99 c -0.01,0 0,-0.01 0,0 v 11.99 c 0,0.006 -0.004,0.01 -0.01,0.01 z"
       stroke="rgb(0,0,0)"
       stroke-width="0.05"
       id="path4977" />
  </g>
  <g
     id="p-4"
     style="fill:none;stroke:#ff0000;stroke-width:0.0999858;stroke-linecap:round;stroke-linejoin:round;stroke-miterlimit:4;stroke-dasharray:none;stroke-opacity:1"
     transform="matrix(1,0,0,1.000284,-100.40528,-73.487251)">
    <path
       style="stroke:#ff0000;stroke-width:0.0999858;stroke-miterlimit:4;stroke-dasharray:none;stroke-opacity:1"
       d="m 116.05,137.02 h 7 c 0.006,0 0.01,-0.004 0.01,-0.01 v -2.99 c 0,-0.01 -0.01,0 0,0 h 5.98 c 0.01,0 0,-0.01 0,0 v 2.99 c 0,0.006 0.004,0.01 0.01,0.01 h 6 c 0.006,0 0.01,-0.004 0.01,-0.01 v -2.99 c 0,-0.01 -0.01,0 0,0 h 5.98 c 0.01,0 0,-0.01 0,0 v 2.99 c 0,0.006 0.004,0.01 0.01,0.01 h 6 c 0.006,0 0.01,-0.004 0.01,-0.01 v -2.99 c 0,-0.01 -0.01,0 0,0 h 5.98 c 0.01,0 0,-0.01 0,0 v 2.99 c 0,0.006 0.004,0.01 0.01,0.01 h 7 c 0.006,0 0.01,-0.004 0.01,-0.01 v -3 -44 -3 c 0,-0.006 -0.004,-0.01 -0.01,-0.01 h -7 c -0.006,0 -0.01,0.004 -0.01,0.01 V 90 c 0,0.01 0.01,0 0,0 h -5.98 c -0.01,0 0,0.01 0,0 v -2.99 c 0,-0.006 -0.004,-0.01 -0.01,-0.01 h -6 c -0.006,0 -0.01,0.004 -0.01,0.01 V 90 c 0,0.01 0.01,0 0,0 h -5.98 c -0.01,0 0,0.01 0,0 v -2.99 c 0,-0.006 -0.004,-0.01 -0.01,-0.01 h -6 c -0.006,0 -0.01,0.004 -0.01,0.01 V 90 c 0,0.01 0.01,0 0,0 h -5.98 c -0.01,0 0,0.01 0,0 v -2.99 c 0,-0.006 -0.004,-0.01 -0.01,-0.01 h -7 -3 c -0.006,0 -0.01,0.004 -0.01,0.01 v 3 7 c 0,0.006 0.004,0.01 0.01,0.01 h 2.99 c 0.01,0 0,-0.01 0,0 V 103 c 0,0.01 0.01,0 0,0 h -2.99 c -0.006,0 -0.01,0.004 -0.01,0.01 v 6 c 0,0.006 0.004,0.01 0.01,0.01 h 2.99 c 0.01,0 0,-0.01 0,0 V 115 c 0,0.01 0.01,0 0,0 h -2.99 c -0.006,0 -0.01,0.004 -0.01,0.01 v 6 c 0,0.006 0.004,0.01 0.01,0.01 h 2.99 c 0.01,0 0,-0.01 0,0 V 127 c 0,0.01 0.01,0 0,0 h -2.99 c -0.006,0 -0.01,0.004 -0.01,0.01 v 7 3 c 0,0.006 0.004,0.01 0.01,0.01 z"
       stroke="rgb(0,0,0)"
       stroke-width="0.05"
       id="path4980" />
  </g>
</svg>
