<?xml version="1.0" encoding="utf-8"?>
<!-- Generator: Adobe Illustrator 24.3.0, SVG Export Plug-In . SVG Version: 6.00 Build 0)  -->
<svg version="1.1"
	 id="svg1279" inkscape:version="1.0.1 (3bc2e813f5, 2020-09-07)" sodipodi:docname="stadslabtes1t.svg" xmlns:cc="http://creativecommons.org/ns#" xmlns:dc="http://purl.org/dc/elements/1.1/" xmlns:inkscape="http://www.inkscape.org/namespaces/inkscape" xmlns:rdf="http://www.w3.org/1999/02/22-rdf-syntax-ns#" xmlns:sodipodi="http://sodipodi.sourceforge.net/DTD/sodipodi-0.dtd" xmlns:svg="http://www.w3.org/2000/svg"
	 xmlns="http://www.w3.org/2000/svg" xmlns:xlink="http://www.w3.org/1999/xlink" x="0px" y="0px" viewBox="0 0 283.5 283.5"
	 style="enable-background:new 0 0 283.5 283.5;" xml:space="preserve">
<sodipodi:namedview  bordercolor="#666666" borderopacity="1.0" height="100mm" id="base" inkscape:current-layer="layer4" inkscape:cx="171.13907" inkscape:cy="153.86854" inkscape:document-rotation="0" inkscape:document-units="mm" inkscape:pageopacity="0.0" inkscape:pageshadow="2" inkscape:window-height="1027" inkscape:window-maximized="1" inkscape:window-width="1920" inkscape:window-x="1912" inkscape:window-y="22" inkscape:zoom="1.4" pagecolor="#ffffff" showgrid="false">
	</sodipodi:namedview>
<g id="layer4" inkscape:groupmode="layer" inkscape:label="Layer 2">
	<path id="path1897" d="M58.1,72.3c-0.1,0-0.4,0.1-0.8,0.2c-2.2,0.4-4.5,1-8.2,2.1c-1.4,0.4-2.6,0.8-2.6,0.8c-0.1,0-0.4-0.3-0.8-0.6
		c-0.4-0.4-0.9-0.7-1.3-0.9c-0.6-0.3-0.6-0.3-1.6-0.3c-0.9,0-1,0-1.6,0.3c-1.5,0.6-2.8,1.8-3.5,3.4c-0.2,0.4-0.3,0.7-0.4,0.8
		c0,0.1-0.1,0.2-0.2,0.1c-0.1,0-1.5-0.9-3.2-1.9c-3.4-2.1-4.2-2.5-6.1-3.4c-0.7-0.4-1.3-0.7-1.3-0.7c0-0.3,2.8-2.2,5-3.4
		c0.9-0.5,5.1-2.6,5.6-2.8c0.2-0.1,0.3-0.1,0.4-0.1c0,0,0.2,0.3,0.4,0.6c0.5,0.8,1.2,1.8,1.9,2.4c1.1,1,1.9,1.4,3,1.4
		c0.9,0,1.2-0.2,2.1-1.1c0.5-0.5,0.8-0.8,0.9-0.8c0.1,0,0.7,0.2,1.3,0.3c0.6,0.2,1.9,0.5,2.9,0.8c4.6,1.1,7.1,1.8,7.9,2.2
		C58.3,72,58.4,72.3,58.1,72.3L58.1,72.3z M56.7,71.6c-1.3-0.4-2.6-0.8-4.5-1.2c-2.4-0.5-4.6-1.1-5.5-1.4l-0.8-0.3L45,69.5
		c-0.8,0.8-0.9,0.9-1.3,1c-0.6,0.2-1.6,0.1-2.2-0.1c-1.4-0.6-2.8-2-3.8-3.9l-0.2-0.4l-2.7,1.3c-3.5,1.7-5.8,3.1-7.4,4.4l-0.5,0.4
		l1.5,0.8c1.8,0.9,2.5,1.3,6,3.4c1.5,0.9,2.7,1.6,2.8,1.6c0,0,0.1,0,0.1-0.1c0-0.2,0.5-1.1,0.8-1.6c1.2-1.8,3.1-2.9,4.8-2.9
		c1.1,0,1.8,0.3,3,1.3c0.3,0.3,0.6,0.5,0.7,0.5c0,0,0.9-0.2,1.9-0.6c3.7-1.1,6.1-1.8,8.2-2.2c0.6-0.1,1.1-0.2,1.2-0.3
		C58.1,72.1,57.8,71.9,56.7,71.6L56.7,71.6z M55.8,54.6c-0.4-0.1-1.3-0.4-2.9-1c-0.6-0.2-1.2-0.5-1.3-0.5c-0.3,0-0.3,0-0.4,0.5
		c-0.4,1-0.7,3-0.9,5.9l-0.1,0.9l0.3-0.1c0.2,0,0.9-0.2,1.6-0.5c0.9-0.3,1.3-0.4,1.4-0.4c0.1,0.1,0,0.6-0.3,1
		c-0.1,0.2-0.6,0.8-1.1,1.3c-0.6,0.6-1,1.1-1.1,1.3c-0.1,0.2-0.2,0.4-0.3,0.4c0,0-0.4-0.1-0.7-0.3c-1.8-0.8-3.6-0.5-6.8,1.3
		c-1.2,0.6-1.6,0.8-2.3,0.7c-0.5,0-0.6-0.1-0.9-0.3c-0.5-0.4-0.6-0.6-0.6-1.5c0-0.8,0.3-1.6,0.5-1.9c0.1-0.1,0.5-0.2,2.1-0.5
		c1.1-0.2,2.6-0.5,3.3-0.6l1.3-0.3l0.1-0.3c0-0.2,0.1-1.8,0.1-3.5c0-1.8,0.1-3.5,0.2-3.8c0.2-1.5,0.6-2.5,1.3-3.2l0.4-0.4l0.5,0.1
		c0.8,0.1,1.4,0.3,2.1,0.6c1.2,0.6,1.7,1.1,3.7,3.5c0.3,0.4,0.7,0.8,0.9,0.9c0.2,0.2,0.3,0.3,0.3,0.4C56.2,54.6,56.2,54.6,55.8,54.6
		L55.8,54.6z M54.4,52.7c-1.6-1.9-2.4-2.6-3.6-3.1c-0.6-0.2-1.4-0.4-1.8-0.4c-0.4,0-0.8,0.5-1.2,1.3c-0.5,1.1-0.7,2.5-0.7,5
		c0,1.7-0.1,4.4-0.2,4.7c-0.1,0.2,0.2,0.2-3.8,0.9l-3,0.5L40.1,62c-0.4,1-0.4,1.9-0.2,2.4c0.3,0.5,1,0.8,1.6,0.6
		c0.2-0.1,1.1-0.5,2.1-1c1-0.5,2.1-1,2.5-1.1c1.5-0.5,2.7-0.5,4,0l0.7,0.3l0.2-0.4c0.1-0.2,0.6-0.8,1.1-1.3c0.8-0.8,1.1-1.3,1.3-1.7
		l0.1-0.2L52.1,60c-0.7,0.2-1.4,0.4-1.7,0.5L50,60.6v-0.4c0-0.6,0.2-3.3,0.4-4.2c0.2-1.5,0.7-3.2,0.9-3.2c0.3,0,1.1,0.3,2.2,0.7
		c1.2,0.5,1.8,0.7,2.2,0.8l0.2,0.1l-0.2-0.3C55.5,54,55,53.3,54.4,52.7L54.4,52.7z M55.7,89.7c-0.3,0.5-3,3.1-3.7,3.6
		c-0.2,0.2-0.7,0.4-1,0.6c-0.5,0.2-0.6,0.3-1.3,0.3c-0.6,0-0.8,0-1.1-0.2c-0.7-0.3-1.1-1.1-1.4-2.4c-0.1-0.4-0.1-1.5-0.2-3.7
		c0-1.7-0.1-3.4-0.2-3.6c0-0.2-0.1-0.4-0.1-0.5c0-0.3-1.5-0.7-4-1c-2.4-0.4-2.5-0.4-2.7-0.6c-0.3-0.4-0.5-1-0.5-1.7
		c0-0.6,0-0.7,0.2-1.1c0.2-0.5,0.6-0.8,0.9-0.8c0.5,0,3.8,1.4,5.5,2.3c1.1,0.6,1,0.6,2.3,0c0.5-0.2,1.1-0.4,1.2-0.5
		c0.8-0.1,1.6,0.5,2.7,2.1c0.4,0.5,0.8,1.1,0.9,1.2c0.1,0.2,0.2,0.3,0.2,0.4c-0.1,0.2-0.9,0.1-1.8-0.3c-0.4-0.2-0.9-0.3-1.1-0.4
		c-0.3-0.1-0.3,0-0.3,0.2c-0.2,1.1-0.1,1.9,0.3,4.4c0.2,0.9,0.3,1.7,0.4,2c0.1,0.5,0,0.5,1.3,0c2.2-0.8,3.4-1.2,3.5-1.1
		C56.1,88.9,56,89.2,55.7,89.7L55.7,89.7z M55,89.2c-0.3,0.1-1,0.4-1.6,0.6c-0.6,0.2-1.4,0.5-1.7,0.6c-0.8,0.2-0.8,0.2-0.8-0.5
		c0-0.2-0.2-1.2-0.4-2c-0.4-1.8-0.5-3.5-0.3-4.4l0.1-0.5l0.3,0c0.2,0,0.7,0.2,1.2,0.4c0.5,0.2,1,0.3,1.2,0.4l0.4,0L53,83.5
		c-0.2-0.3-0.6-0.8-0.9-1.2c-1-1.3-1.5-1.7-2.2-1.6c-0.2,0-0.7,0.2-1.1,0.4c-0.4,0.2-1,0.4-1.2,0.5l-0.4,0.1l-1.4-0.7
		c-1.5-0.7-2.8-1.3-4.2-1.9c-0.8-0.3-0.8-0.3-1-0.2c-0.4,0.3-0.7,0.9-0.7,1.6c0,0.4,0.2,1.2,0.4,1.5c0.2,0.3,0.3,0.3,2.8,0.7
		c0.9,0.1,1.9,0.3,2.2,0.4c0.8,0.2,1.7,0.5,1.8,0.7c0.2,0.3,0.2,1.5,0.3,4.1c0,2.8,0.1,3.8,0.4,4.6c0.4,1.1,1,1.6,2,1.6
		c1.1,0,1.9-0.5,3.4-1.9c0.5-0.5,1.3-1.2,1.7-1.6c0.7-0.6,1.1-1.2,0.9-1.3C55.6,89.1,55.3,89.2,55,89.2L55,89.2z M41.5,87.3
		c-0.6,1.5-1.1,2.9-1.5,4.3c-0.3,1.1-0.4,1.3-0.6,1.3c-0.3,0-0.9-0.4-1.6-1.3c-1.3-1.4-1.6-1.8-2.9-3.4c-1.2-1.5-3-3.4-3.1-3.4
		c-0.1,0-0.2,0.1-1.7,1.5c-0.5,0.4-1.1,1-1.4,1.2l-0.6,0.5l0.2,0.3c2.2,3.5,4.7,7.3,6.9,10.2c0.5,0.7,1,1.4,1,1.5
		c0,0.2-2.2,3.9-3.3,5.5c-1.1,1.6-2.8,3.6-3,3.5c-0.1,0-0.1-0.2-0.2-0.4c-1.1-3.8-1.5-5.3-3.1-10c-1-3.1-2-6.2-2.3-7.2
		c-0.1-0.3-0.2-0.6-0.3-0.7c-0.1,0-0.8,0.1-1.7,0.4c-0.9,0.2-1.9,0.4-2.2,0.5c-0.3,0-0.6,0.1-0.6,0.1c0,0.1,0.7,2.8,1.4,5.2
		c0.6,2.2,1.1,3.8,3,10.6c1,3.4,1.3,4.6,1.6,5.5l0.2,0.7l-0.5,0.4c-0.3,0.2-0.8,0.7-1.3,0.9c-1.9,1.2-6.8,4.3-7.9,5.1
		c-0.2,0.2-0.5,0.3-0.5,0.3c-0.1-0.1-0.2-1.8-0.3-9c0-6,0-13.4,0.2-17.8c0.1-2,0.1-1.9-0.5-2.2c-0.3-0.1-2.5-0.7-2.9-0.8
		c-0.1,0-0.2,0.1-0.4,2.3c-0.5,5-0.8,9.1-1.7,19.6c-0.4,4.9-0.7,9.2-0.8,9.5l-0.1,0.5l-3.5,0.1c-1.9,0-3.9,0.1-4.3,0.1
		c-0.4,0-0.9,0.1-1,0.1l-0.2,0l0.1-0.4c0.1-0.9,1.3-7.3,2.2-11.8c0.9-4.3,1.8-8.5,4.2-19.6l0.7-3.2l-0.2-0.4
		c-0.1-0.2-0.8-0.9-1.5-1.6c-0.9-0.9-1.4-1.4-1.6-1.8c-0.6-1-0.3-1,0.6,0c2.3,2.4,5.2,3.8,8.9,4.4c1.3,0.2,4.5,0.2,5.8,0
		c5.8-0.9,9.9-4.2,11.7-9.2c0.2-0.6,0.3-0.8,0.4-0.8c0.2,0,0.8,0.2,1.7,0.8c0.4,0.3,0.9,0.6,1.1,0.7c0.4,0.2,0.4,0.5,0,1.1
		c-0.2,0.2-0.3,0.5-0.3,0.6c0,0.3,2.3,1.7,6,3.6c1.7,0.9,2.3,1.2,2.3,1.3C41.9,86.3,41.7,86.8,41.5,87.3L41.5,87.3z M39.5,85.1
		c-2.7-1.4-4.1-2.2-5.2-2.9l-0.9-0.6l0-0.3c0-0.2,0.1-0.4,0.2-0.5c0.3-0.3,0.5-0.7,0.4-0.8c0-0.1-0.1-0.1-0.2-0.1
		c0,0-0.4-0.2-0.9-0.5c-0.8-0.5-1.5-0.9-1.6-0.9c0,0-0.2,0.3-0.3,0.7c-1.3,3.8-4.3,6.8-8.2,8.3c-3.9,1.5-9.1,1.5-13,0.1
		c-1.8-0.7-3.6-1.8-4.9-3L4,83.7l0.4,0.5c0.2,0.3,0.8,0.9,1.3,1.4C6.2,86,6.8,86.6,7,86.9c0.4,0.5,0.4,0.7,0.3,1.3
		c0,0.2-0.4,1.7-0.7,3.3c-0.4,1.6-0.7,3.4-0.8,3.9c-2.5,11.7-3.4,16.1-4.5,21.9c-0.7,3.7-0.9,5.1-0.9,5.2c0,0,0.5,0,1,0
		s2.5-0.1,4.3-0.1l3.3,0l0-0.2c0-0.1,0.1-1.6,0.3-3.3c1.2-14.9,2-24.6,2.4-28c0.1-0.6,0.1-0.6,0.6-0.3c0.2,0.1,0.8,0.2,1.3,0.4
		c1,0.2,1.6,0.5,1.9,0.7l0.2,0.2l-0.1,3.7c-0.1,4.1-0.2,22.8,0,24l0.1,0.7l2.6-1.8c1.5-1,3.5-2.3,4.5-2.9s2.1-1.3,2.3-1.5l0.4-0.3
		l-0.7-2.3c-0.4-1.3-1.1-4.1-1.8-6.2c-2.2-7.9-3.7-13.4-3.6-13.5c0,0,0.4-0.1,0.8-0.1c0.4,0,1.4-0.3,2.3-0.5
		c0.9-0.2,1.6-0.4,1.7-0.4c0.2,0,0.2,0.1,0.5,1.1c0.5,1.6,1.3,4.2,2.4,7.5c1.3,4,2.4,7.7,2.8,9.2l0.1,0.4l0.6-0.6
		c0.7-0.7,1.7-2,2.6-3.4c0.7-1,2.7-4.5,2.8-4.7c0-0.1-0.3-0.6-0.9-1.4c-1.7-2.3-3.5-4.9-5.4-7.8c-1.3-2.1-1.7-2.7-1.7-2.8
		c0,0,0.4-0.3,0.8-0.7c0.4-0.3,1.1-0.9,1.5-1.3c1.3-1.2,1.5-1.4,1.6-1.4c0.2,0,1.9,1.8,2.8,2.9c1.6,1.9,2,2.4,3,3.5
		c1,1.1,1.5,1.6,1.7,1.6c0.1,0,0.2-0.3,0.3-0.7c0.4-1.3,1.1-3.5,1.6-4.6c0.2-0.6,0.4-1.1,0.4-1.1C41.6,86.2,40.7,85.7,39.5,85.1z
		 M41.3,58c-1,0.8-2.5,1.7-5.6,3.2c-2,1-2.2,1.1-2.2,1.3c0,0.2,0.3,0.8,0.5,1.2c0.1,0.2,0.1,0.2-0.1,0.5c-0.1,0.2-0.5,0.4-0.8,0.6
		c-0.6,0.4-1.9,1-2,1c0,0-0.3-0.4-0.5-0.9c-2.2-4.8-6-7.9-10.9-8.9c-1.4-0.3-2.7-0.4-4.2-0.3c-4.7,0.2-8.6,1.9-11.5,5.3
		c-0.4,0.4-0.5,0.4-0.4,0c0.1-0.8,1-1.9,2.8-3.6l0.6-0.5l-0.1-0.3c0-0.2-0.2-1.1-0.4-2.1c-0.4-2.1-0.5-2.4-2.3-10.7
		c-1.5-6.9-2.5-12.1-3.2-15.3C0.5,24.9,0,22,0,21.8v-0.2h4.4c3.5,0,4.4,0,4.4,0.1c0.1,0.2,0.6,4.6,0.8,7.1c0.3,3.1,0.7,7.9,1.1,13.3
		c0.4,5.3,0.8,10.2,0.8,10.9l0.1,0.5l0.3,0c0.4-0.1,3.1-0.8,3.3-0.9c0.1-0.1,0.1-0.1,0.1-0.3c-0.1-0.9-0.2-5.9-0.2-14.8
		c0-5.5,0-10.8-0.1-11.7C15,24,15,23.9,15.2,23.9c0.2,0,1.8,0.9,3.2,1.7c1.3,0.8,3.2,2,5,3.4c0.8,0.6,1.6,1.2,1.8,1.3
		c0.2,0.1,0.3,0.3,0.3,0.3c0,0-0.6,2.3-1.4,5.1c-0.8,2.8-1.7,5.9-2,7c-1.5,5.2-2.6,9.4-2.6,9.5c0,0.1,0.8,0.3,1.8,0.5
		c1.4,0.2,1.7,0.3,2.2,0.5c0.2,0.1,0.4,0.2,0.4,0.2c0.1-0.1,0.9-2.3,1.5-4.1c0.8-2.5,1.9-5.8,3.2-10.3c0.6-2.1,1.2-3.8,1.2-3.9
		c0.1-0.3,0.4-0.2,1.1,0.6c0.8,1,1.4,1.9,3,4.4c0.6,1,1.4,2.1,1.7,2.5c0.3,0.4,0.6,0.8,0.6,0.9c0,0.3-1.9,3.2-4.1,6.4
		c-2,2.9-3.7,5.3-3.7,5.5c-0.1,0.2-0.1,0.2,0.2,0.4c0.5,0.3,0.8,0.8,1.5,1.7c0.7,0.9,1.4,1.7,1.6,1.7c0.2,0,1-0.7,1.6-1.3
		c0.3-0.3,1-1.2,1.7-2c0.7-0.8,1.6-2,2-2.5c0.4-0.5,1.1-1.4,1.5-1.8c0.4-0.5,0.7-0.9,0.8-0.9c0.2,0,0.7,1.2,1.5,3.5
		c0.4,1.1,0.8,2.2,0.9,2.5c0.1,0.3,0.2,0.6,0.2,0.7S41.6,57.8,41.3,58L41.3,58z M41.2,56.8c-0.1-0.3-0.5-1.5-0.9-2.5
		c-0.3-1-0.8-2.2-0.9-2.6L39.1,51l-0.6,0.8c-0.4,0.5-1,1.3-1.4,1.8c-0.4,0.5-1.1,1.3-1.4,1.8c-1.9,2.4-2.9,3.5-3.7,4
		c-0.3,0.2-0.3,0.2-0.5,0.1c-0.4-0.2-1.1-0.9-1.6-1.7c-0.6-0.9-1.3-1.6-1.7-1.9c-0.1-0.1-0.3-0.2-0.3-0.2c0-0.1,1.1-1.7,3.1-4.7
		c2.7-3.9,4.9-7.2,4.9-7.5c0,0-0.1-0.2-0.3-0.4c-0.5-0.6-1.4-1.8-2.3-3.4c-1.2-1.8-1.9-2.9-2.4-3.5c-0.2-0.2-0.5-0.6-0.6-0.7
		c-0.1-0.2-0.2-0.3-0.3-0.3c0,0-0.1,0.2-0.2,0.5c-0.5,1.8-2.2,7.3-2.5,8.4c-1.3,4-3.1,9.4-3.3,9.6c0,0-0.2,0-0.4-0.1
		c-0.5-0.3-0.9-0.4-2.3-0.6c-1.4-0.3-1.9-0.4-2-0.6c-0.1-0.1,0.1-0.6,0.3-1.6c1-3.6,4-14.5,4.5-16c0.1-0.4,0.4-1.4,0.7-2.3l0.5-1.7
		l-0.2-0.1c-1-0.8-5.3-3.8-6.9-4.7c-1-0.6-2.9-1.6-2.9-1.6c-0.1,0.1,0.1,24.8,0.2,25.9c0,0.7,0.1,1.6,0.1,1.9l0,0.6l-0.8,0.2
		c-1.5,0.5-2.6,0.7-2.9,0.7l-0.4,0L11.4,53c-0.1-0.9-0.6-7.3-0.8-10.1C10,34.2,9.3,26.4,8.8,22.7c-0.1-0.5-0.1-0.9-0.1-0.9
		c0,0-1.9-0.1-4.2-0.1c-4.1,0-4.2,0-4.2,0.2c0,0.2,1,5.5,1.6,8.3c0.7,3.5,1.5,7.4,3,14.4c1.7,7.7,2.5,11.8,2.5,12.1
		c0,0.1-0.2,0.4-0.7,0.9c-1.7,1.6-2.2,2.1-2.6,2.9C3.9,60.7,4,60.6,4.6,60c2.3-2.4,5.4-4,9.1-4.5c1.3-0.2,3.9-0.2,5.2,0
		c4.6,0.7,8.3,3,10.7,6.8c0.5,0.7,1.3,2.3,1.5,2.9c0.1,0.2,0.1,0.3,0.1,0.3c0,0,0.4-0.2,0.8-0.4c0.8-0.4,1.5-0.9,1.7-1.2
		c0.1-0.2,0.1-0.2-0.1-0.5c-0.2-0.4-0.4-1.1-0.4-1.3c0-0.1,0.9-0.6,2-1.1c2.4-1.2,4.1-2.1,5.1-2.8c0.5-0.4,1.1-0.8,1.1-0.9
		C41.5,57.4,41.4,57.1,41.2,56.8L41.2,56.8z M23.3,84.6c-0.2,0.1-0.9-0.4-6.8-3.8c-1.2-0.7-2.5-1.5-3-1.7c-0.5-0.3-0.9-0.6-0.9-0.6
		c0-0.1,0-0.2,1.5-1.2c1.5-1,2.9-1.8,5-3c3.1-1.7,3.9-2.1,4-2.1c0.1,0,0.1,0.1,0.2,0.3c0,0.2,0.1,3,0.1,6.2
		C23.4,84,23.4,84.6,23.3,84.6L23.3,84.6z M23.1,73.1L23,72.4L22,73c-0.6,0.3-1.8,1-2.7,1.4c-2.5,1.4-5.3,3.1-6.4,3.9
		c-0.2,0.1-0.2,0.1,0.3,0.4c0.5,0.2,3.7,2.1,5.5,3.2c1.8,1.1,4.3,2.5,4.3,2.5C23.2,84.3,23.2,74.1,23.1,73.1L23.1,73.1z M23.3,71.9
		c-0.1,0-1.9-0.9-4.8-2.6c-2-1.2-4.7-2.7-5.5-3.1c-0.3-0.2-0.5-0.3-0.5-0.4c0-0.3,3.1-2.3,6.9-4.4c1.1-0.6,2.4-1.3,2.8-1.6
		c0.4-0.3,0.8-0.5,0.9-0.5c0.1,0,0.1,0.1,0.2,0.3c0,0.2,0.1,3,0.1,6.3C23.4,71,23.4,71.8,23.3,71.9z M23.1,60.3L23,59.5l-0.3,0.2
		c-0.2,0.1-1.1,0.7-2.2,1.2c-4.3,2.4-5.7,3.2-7.1,4.2c-0.8,0.6-0.9,0.5,0.6,1.3c1.2,0.6,1.7,0.9,4.5,2.6c2.3,1.3,3.7,2.1,4.2,2.4
		l0.3,0.2l0-5.3C23.1,63.4,23.1,60.7,23.1,60.3L23.1,60.3z M12.2,78.1c-0.2,0-1.8-0.8-3.6-1.8c-1.9-1.1-7.1-4.2-7.1-4.4
		c0-0.1,1.2-0.9,3.2-2.2c1.7-1,7.3-4.2,7.4-4.2c0.1,0,0.1,0.2,0.2,0.4c0,0.2,0.1,3,0.1,6.2l0,5.9L12.2,78.1z M12.1,66.7l-0.1-0.8
		l-2.7,1.5c-3,1.7-5.5,3.2-6.8,4l-0.8,0.5l2.8,1.7c3.1,1.8,5.1,3,6.6,3.7l1,0.5l0-5.2C12.2,69.8,12.1,67.1,12.1,66.7L12.1,66.7z"/>
	<path id="path1925" d="M200,28.3c-0.5,1.4-1,3.2-1.2,3.9c-0.2,1-0.5,1.5-1.6,2.2l-1.4,1l0.5,1c0.9,1.7,0.1,5.1-1.5,6.5l-0.7,0.6
		l0.7,0.5c0.7,0.5,0.7,0.6,0.1,3.5c-0.3,1.6-0.7,3.2-1,3.6c-0.3,0.4-0.5,1.5-0.5,2.6c0,2.1-0.5,4-1.1,4c-0.7,0,0.9,1,1.6,1
		c1.4,0,1.8,0.3,1.8,1.8c0,1.8-0.6,2.5-2.7,3.5c-2.4,1.1-4.6,1.3-9.1,0.9c-4.1-0.4-5.9-0.9-6.4-1.9c-0.6-1-0.4-4.3,0.2-5
		c0.5-0.6,0.5-0.6-0.1-0.8c-1.1-0.3-1.5-3.5-0.5-3.8c0.5-0.1,0.5-0.2,0-0.2c-0.3,0-0.6-0.4-0.7-0.8c-0.5-2.7-1.6-12-1.4-12.2
		c0.1-0.1-0.1-0.5-0.4-0.9c-0.4-0.4-0.7-1.3-0.8-2c-0.1-0.7-0.4-1.7-0.6-2.3c-0.7-1.6-0.6-3.3,0.4-4.2c0.9-0.8,0.8-1.2-0.2-1.2
		c-1.1,0-2.4-1.7-2.8-3.6c-0.2-1-0.6-2-0.8-2.3c-0.2-0.3-0.9-1.7-1.5-3.3c-1.7-4.2-1.7-4.3-2.7-2.4c-2.4,4.8-2.5,9.9-0.2,15.3
		c1.1,2.7,0.6,3.6-1,1.9c-1.1-1.2-3.6-5.3-3.4-5.5c0.1-0.1,0-0.5-0.1-0.8c-0.6-1.2-1.1-8.9-0.6-9.3c0.2-0.1,0.2-0.6,0.1-1.1
		c-0.1-0.6,0-1,0.3-1.3c0.3-0.2,0.4-0.7,0.3-1.2c-0.1-0.6,0-1,0.4-1.3c0.3-0.2,0.5-0.6,0.3-0.8c-0.1-0.2,0-0.7,0.4-1
		c0.4-0.4,0.7-0.9,0.7-1.3c0-0.4,0.3-1,0.7-1.5c0.4-0.5,0.7-1,0.7-1.2c0-0.2,0.3-0.7,0.7-1c0.4-0.3,1-1.2,1.4-1.8
		c0.4-0.7,0.9-1.2,1.3-1.2c0.3,0,0.7-0.1,0.8-0.3c0.1-0.2,0.5-0.3,1-0.3c0.5,0,1-0.4,1.5-1c0.6-0.8,0.8-1,1.7-0.8
		c0.8,0.1,1.2,0,1.6-0.5c0.7-0.8,1.2-0.8,2.1-0.3c0.5,0.3,0.8,0.2,1.6-0.2c1.3-0.7,2-0.7,2.2,0c0.1,0.4,0.6,0.5,2,0.4
		c1.7-0.1,1.8,0,1.9,0.6c0.1,0.6,0.3,0.7,1.5,0.8c1.1,0.1,1.4,0.2,1.5,0.8c0.1,0.5,0.4,0.8,1.1,1c0.7,0.2,1.1,0.5,1.2,1
		c0.1,0.4,0.5,0.9,1,1.1c0.4,0.2,0.9,0.7,0.9,1c0.1,0.4,0.4,0.8,0.7,1.1c0.3,0.2,0.6,0.8,0.6,1.2s0.2,0.9,0.5,1.2
		c0.3,0.2,0.5,0.7,0.5,1.1c0,0.4,0.1,0.9,0.3,1c0.2,0.2,0.4,1,0.4,1.8c0.1,0.8,0.2,1.6,0.3,1.8c0.1,0.2,0.1,1.3,0.1,2.6l-0.1,2.4
		l2.2,0.6c1.2,0.4,2.4,0.6,2.6,0.6c0.7,0,1.9,0.9,1.9,1.4C200.9,25.5,200.5,26.9,200,28.3L200,28.3z M198.4,26.6
		c-0.6,0.3-1,0.4-1,0.2c0-0.2,0.5-0.5,1.2-0.8c1.1-0.5,1.1-0.6,0.6-1c-0.9-0.7-1.9-0.6-2.7,0.3c-0.4,0.4-0.9,0.8-1.1,0.8
		c-0.2,0,0.1-0.4,0.5-0.9s0.9-1,0.9-1.1c0-0.1-0.5-0.3-1.2-0.4c-2.1-0.4-2.3-0.7-2.2-3.4c0.1-2.5-0.3-4.9-0.8-6.1
		c-0.2-0.4-0.3-0.9-0.2-1.2c0.1-0.3-0.1-0.6-0.5-0.9c-0.5-0.3-0.6-0.6-0.5-1.1c0.1-0.6-0.1-0.8-0.6-1.1c-0.4-0.2-0.8-0.6-0.8-0.9
		c0-0.3-0.5-0.8-1-1.2c-0.6-0.4-0.9-0.7-0.8-1c0.1-0.3-0.2-0.6-1.1-0.8c-0.9-0.2-1.3-0.5-1.3-1c0-0.7-0.6-1-1.8-1
		c-0.6,0-0.8-0.2-0.8-0.7c0-0.7-0.1-0.7-1.8-0.5c-1.5,0.2-1.8,0.1-2.1-0.3c-0.3-0.5-0.4-0.5-1.8,0c-1.2,0.5-1.6,0.5-2,0.2
		c-0.4-0.3-0.7-0.3-1.5,0.3c-0.7,0.5-1.2,0.7-1.8,0.5c-0.6-0.2-0.9,0-1.5,0.8c-0.6,0.8-0.9,1-1.5,0.8c-0.9-0.2-1,0.3-0.2,1.2
		c0.5,0.5,0.5,0.6,0,0.6c-0.3,0-0.7-0.3-0.9-0.6c-0.7-0.9-1.1-0.8-1.7,0.3c-0.9,1.7-1.4,2.5-1.6,2.8c-0.1,0.1-0.2,0,0-0.2
		c0.1-0.3,0-0.2-0.3,0.1c-0.5,0.6-0.5,0.7,0.1,1c0.3,0.2,0.7,0.4,0.9,0.4c0.2,0,0.5,0.2,0.8,0.5c0.3,0.4,0.2,0.4-0.7,0.1
		c-0.6-0.2-1.2-0.5-1.3-0.7c-0.1-0.2-0.2-0.1-0.2,0.2c0,0.3-0.2,0.6-0.3,0.6c-0.2,0-0.3,0.3-0.3,0.8c0,0.4-0.2,1-0.5,1.2
		c-0.3,0.2-0.5,0.8-0.5,1.2c0,0.4-0.2,0.9-0.4,1c-0.3,0.1-0.4,0.5-0.3,1c0.1,0.4,0,1-0.2,1.2c-0.7,0.8-0.8,6.5-0.2,9.7
		c0.5,2.5,0.8,3.3,2.2,5.3c0.9,1.3,1.6,2.4,1.7,2.4c0.1,0-0.2-0.9-0.7-2c-2.2-5.5-2.2-10,0.2-14.9c0.7-1.5,1.5-2.7,1.7-2.7
		c0.5,0,1.5,2.1,3.5,7.1c0.2,0.6,0.5,1.1,0.6,1.1c0.1,0,0.4,0.9,0.7,2c0.5,2.2,0.9,2.8,2.2,3.1c1,0.2,2.7,1.4,2.7,1.8
		c0,0.1-0.4,0.3-0.9,0.3s-1.1,0.2-1.3,0.4c-0.5,0.5-0.5,2.5,0.1,3.5c0.3,0.4,0.5,1.2,0.5,1.7c0,1,0.6,2.5,1,2.5
		c0.3,0,1.6,1.3,1.6,1.7c0,0.1-0.3,0.3-0.7,0.3c-0.7,0-0.7,0.1,0.2,5.8c0.3,1.5,0.5,3.4,0.5,4.2c0,1.1,0.1,1.5,0.6,1.6
		c2.6,0.8,2.9,1.4,0.9,1.4c-1,0-1.1,0.1-1.1,0.8c0,1.1,0.7,1.8,1.9,1.9c1.6,0.1,1.6,0.7,0,1.2l-1.3,0.4v1.8c0,1,0.1,2,0.2,2.3
		c0.4,1,2.4,1.5,7,1.7c4.2,0.2,4.5,0.2,4.6-0.4c0.1-0.5,0.4-0.6,1.7-0.6h1.6l0.1-1.2c0.1-1.5-0.6-2-1.4-0.9
		c-0.7,0.9-1.2,0.9-1.8-0.2c-0.4-0.8-0.9-1-3.2-1.5c-2-0.4-2.5-0.7-2.1-0.9c0.3-0.1-0.2-0.2-1.1-0.1c-1.5,0.2-1.7,0.1-1.7-0.4
		c0-0.5,0.3-0.5,2.4-0.3c1.3,0.1,2.9,0.3,3.6,0.5c1.4,0.3,1.8,0.2,1.8-0.5c0-0.3,0.1-0.5,0.3-0.5c0.2,0,0.3-0.7,0.3-1.5
		c0-1.4-0.1-1.5-1.2-2.1c-0.7-0.3-1.6-0.7-2.1-0.8c-0.8-0.2-0.9-0.3-0.5-0.7c0.3-0.4,0.2-0.5-0.5-0.7c-2-0.5-2.9-0.7-2.3-0.8
		c0.3,0,2,0.3,3.8,0.7c1.8,0.4,3.3,0.6,3.4,0.6c0.1-0.1,0.2-1,0.3-2c0.1-1,0.2-1.9,0.3-2.1c0.5-0.5,0.2-1-0.8-1.4
		c-0.6-0.2-1.1-0.3-1.1-0.2c-0.1,0.1-0.2,0.8-0.4,1.5c-0.3,1.6-0.7,1.9-2.5,1.1c-1.1-0.5-1.1-0.5-0.8-1.3c0.2-0.5,0.5-0.8,0.7-0.8
		c0.1,0,0.2,0.2,0,0.4c-0.1,0.2,0.2,0,0.7-0.5c0.5-0.5,1.1-0.8,1.2-0.7c0.4,0.4,0.6-0.9,0.2-1.4c-0.3-0.4-0.8-0.5-1.9-0.3
		c-1.1,0.2-1.8,0-2.9-0.5c-1.5-0.7-1.7-1.1-0.9-1.4c0.9-0.3,1.3-0.2,0.7,0.2c-0.5,0.4-0.5,0.5,0.5,0.8c1,0.3,1.1,0.3,1-0.2
		c-0.1-0.3,0.1-1,0.4-1.6c0.3-0.6,0.4-1,0.3-1c-0.1,0,0-0.2,0.2-0.4c0.2-0.2,0.3-0.5,0.1-0.7c-0.4-0.4,1.6,0.2,2.9,0.8
		c1.2,0.6,1.4,1,0.9,1.9c-0.3,0.5-0.8,0.4-2.7-0.4c-1.1-0.5-1.2-0.5-1.4,0c-0.3,0.8,0.3,1.5,1.4,1.9c0.5,0.2,1.2,0.4,1.6,0.6
		c0.7,0.3,1.6,0.4,2.4,0.3c0.7-0.1,1.5-2.3,1-2.8c-0.3-0.3-0.3-0.6,0-0.9c0.5-0.6-0.7-1.8-1.9-2.1c-0.5-0.1-1-0.3-1-0.5
		c0-0.3-4.2-2.4-6-3c-0.6-0.2-0.6-0.2,0-0.8c0.8-0.9,0.5-1.5-0.5-0.7c-1.2,1-1.2,0.8,0-0.6c0.6-0.7,0.9-1.4,0.7-1.5
		c-0.5-0.3-2.3,0.9-2.3,1.6c0,0.4-0.1,0.5-0.2,0.2c-0.1-0.2-0.4-0.4-0.8-0.4s-0.7-0.2-0.8-0.5c-0.1-0.3,0-0.5,0.2-0.5
		c0.2,0,0.8-0.4,1.3-0.8c0.7-0.6,1.1-0.7,1.2-0.5c0.2,0.3,0.3,0.2,0.6-0.1c0.3-0.4,0.3-0.5-0.2-0.4c-0.3,0-0.6-0.1-0.7-0.4
		c-0.2-0.6,0.8-0.5,2,0.2c0.9,0.5,1.2,0.6,1.9,0.3c1.1-0.4,1.7-0.1,1.1,0.6c-0.4,0.4-0.3,0.5,0.1,0.7c0.3,0.1,0.9,0.6,1.5,1.2
		c0.5,0.6,1.7,1.5,2.7,2l1.7,1l0.2-0.8c0.1-0.4,0.1-1.2,0-1.6c-0.1-0.6-0.1-0.9,0.2-1.1c0.2-0.1,0.6-0.9,0.8-1.6
		c0.3-1.1,0.3-1.4-0.1-1.8c-0.9-0.7-3.7-1.7-4.8-1.6c-0.6,0-1.7-0.2-2.5-0.6c-0.8-0.4-1.7-0.7-1.9-0.7s-0.6-0.1-0.7-0.3
		c-0.3-0.4-5.1-2.9-5.7-3c-0.3,0-0.8-0.2-1.1-0.5c-1.1-0.8,0.1-0.5,2.6,0.6c5.5,2.6,7.9,3.6,9.5,3.6c0.9,0,2.4,0.3,3.4,0.6
		c1,0.3,2.1,0.5,2.6,0.4l0.9-0.2l-0.8,0.6c-0.6,0.4-0.7,0.7-0.4,0.9c0.2,0.2,0.3,0.6,0.2,1.1c-0.2,0.7-0.1,0.8,0.3,0.4
		c0.3-0.2,0.5-0.3,0.5-0.1c0,0.4-1,1.2-1,0.9c-0.1-0.6-0.6,1.1-0.6,2l0,0.9l1.1-0.9c0.6-0.5,1.5-1.2,2.1-1.6c0.6-0.4,1.1-0.9,1.1-1
		c0-0.2-0.7,0.3-1.5,0.9c-0.8,0.7-1.6,1.1-1.9,1.1c-0.2-0.1,0.5-0.9,1.6-1.7c1.6-1.3,2.1-1.9,2.5-3.1c0.2-0.8,0.4-1.5,0.3-1.6
		C199.4,26.2,198.9,26.4,198.4,26.6L198.4,26.6z M189.6,22.2c-0.3,0-0.9-0.1-1.4-0.3c-0.6-0.2-0.9-0.1-1.2,0.3
		c-0.3,0.4-0.3,0.4,0-0.4c0.4-0.9,0.4-0.9,1.8-0.4C190.3,22,190.6,22.3,189.6,22.2L189.6,22.2z M188.2,56.3
		c-0.4,0.2-3.6-0.5-4.1-0.9c-0.3-0.3,0.6-0.2,2.9,0.3c0.6,0.1,0.9,0.1,0.7-0.1c-0.1-0.2-0.9-0.4-1.8-0.5c-0.9-0.1-1.6-0.4-1.6-0.6
		c0-0.4,3.2,0,3.8,0.4C188.7,55.3,188.7,56,188.2,56.3L188.2,56.3z M188,62.4c-0.1,0.1-0.7,0.2-1.4,0.2c-0.9,0-1-0.1-0.4-0.2
		c0.8-0.2,0.6-0.8-0.2-1.1c-0.3-0.1,0-0.2,0.5-0.2C187.7,61,188.6,61.8,188,62.4L188,62.4z M184.5,62.3c-0.4,0-0.5-0.1-0.2-0.2
		c0.2-0.1,0.5-0.1,0.6,0C185,62.2,184.8,62.3,184.5,62.3L184.5,62.3z M184.4,51.9c-0.2,0-0.4-0.1-0.5-0.3c-0.1-0.2,0-0.2,0.3-0.1
		C184.7,51.7,184.8,51.9,184.4,51.9L184.4,51.9z M183.6,61.6c-0.8,0.7-1.9,0.9-1.9,0.4c0-0.2-0.2-0.2-0.4-0.1
		c-0.3,0.2-0.3,0.1,0-0.3c0.4-0.5,2.6-1.1,2.9-0.8C184.3,60.8,184,61.2,183.6,61.6L183.6,61.6z M183.4,55c-0.5,0.3-2-0.2-2-0.7
		c0-0.3,0.4-0.5,1.1-0.5C183.6,53.8,184.1,54.5,183.4,55L183.4,55z M180.9,19c-1.4-0.5-2.6-1.1-2.7-1.3c-0.1-0.2-0.3-0.4-0.5-0.4
		c-0.2,0-0.7-0.3-1.2-0.7c-0.6-0.5-0.7-0.6-0.2-0.4c0.4,0.1,1,0.3,1.4,0.3c0.4,0,0.6,0.2,0.5,0.3c-0.1,0.2,0,0.2,0.1,0.1
		s0.7-1.1,1.2-2.2l0.9-2l-0.8-0.7c-0.9-0.7-0.7-0.8,0.5-0.4c0.5,0.2,0.8,0.5,0.7,0.6c-0.1,0.2,0,0.5,0.3,0.7c0.7,0.6,1.8,3.3,2,5.1
		l0.2,1.7L180.9,19z M181.6,15.3c-0.6-1.4-0.7-1.4-1.9,0.9l-0.9,1.5l1.5,0.5c0.8,0.3,1.7,0.5,1.8,0.5
		C182.6,18.7,182.3,16.9,181.6,15.3z M181.4,50.7c-0.4,0.1-1,0.1-1.3-0.1c-0.5-0.3-0.4-0.3,0.1-0.5c0.3-0.1,0.9-0.1,1.3,0.1
		C182.2,50.5,182.2,50.5,181.4,50.7z M181.8,47.3c-0.7,0-1.4-0.4-1.7-1.1c-0.2-0.4-0.2-0.6,0-0.5c0.2,0.1,0.6-0.1,0.9-0.5
		c0.5-0.5,0.7-0.6,0.9-0.2C182.1,45.7,182.1,47.3,181.8,47.3L181.8,47.3z M181.5,45.9c-0.1,0.2-0.5,0.4-0.7,0.5
		c-0.3,0.1-0.2,0.2,0.2,0.2c0.5,0,0.7-0.2,0.7-0.5C181.7,45.8,181.6,45.7,181.5,45.9z M181.5,38.3c-0.4,0.4-1.7,0.2-2.1-0.2
		c-0.2-0.2-0.8-0.4-1.2-0.4c-0.7,0-0.8-0.2-0.9-1.1c-0.1-0.9,0-1.1,0.7-1.1c0.4,0,1.1,0.2,1.4,0.5c0.3,0.3,1,0.5,1.5,0.5
		c0.7,0,0.9,0.2,0.9,0.8C181.7,37.8,181.6,38.2,181.5,38.3L181.5,38.3z M180.6,37.1c-0.3-0.1-0.6,0-0.8,0.3
		c-0.3,0.3-0.2,0.5,0.3,0.6C181.1,38.2,181.5,37.5,180.6,37.1L180.6,37.1z M178.1,36.3c-0.2,0-0.3,0.1-0.3,0.3
		c0,0.2,0.2,0.3,0.5,0.3c0.3,0,0.4-0.1,0.3-0.3C178.5,36.4,178.3,36.3,178.1,36.3z M180.8,43.7c-0.3,0.4-0.7,0.7-0.8,0.6
		c-0.1-0.1,0.2-0.6,0.6-1.1C181.5,42.1,181.7,42.6,180.8,43.7z M181.1,35.9c-0.2-0.1-0.4-0.2-0.4-0.4c0-0.4,0.5-0.3,0.6,0.1
		C181.4,35.8,181.3,36,181.1,35.9L181.1,35.9z M180.4,61.8c-0.2-0.1-0.3-0.3-0.3-0.3c0-0.1,0.1-0.1,0.3-0.1c0.2,0,0.3,0.2,0.3,0.3
		C180.8,61.9,180.6,61.9,180.4,61.8z M180.1,19.5c-0.2,0.1-0.3,0-0.3-0.1c0-0.2,0.1-0.3,0.3-0.3c0.2,0,0.3,0.1,0.3,0.1
		C180.4,19.2,180.3,19.4,180.1,19.5z M179.4,42.1c-0.4,0-0.7-0.1-0.7-0.1s0.3-0.2,0.7-0.3c0.4-0.1,0.7,0,0.7,0.1
		C180.1,42,179.8,42.1,179.4,42.1z M178.9,50c-0.1,0.1-0.5,0.2-0.9,0.2c-0.5,0-0.6-0.1-0.2-0.3c0.4-0.2,0.3-0.3-0.2-0.4
		c-0.6-0.1-0.6-0.2,0-0.2C178.4,49.3,179.2,49.7,178.9,50L178.9,50z M178.1,13c-0.6,0.4-0.7,0-0.1-0.7c0.4-0.6,0.5-0.6,0.5-0.1
		C178.5,12.5,178.3,12.9,178.1,13L178.1,13z M177.6,31.8c-0.5,0.2-0.5,0.1-0.2-0.2c0.2-0.2,0.5-0.3,0.6-0.2
		C178.1,31.5,177.9,31.7,177.6,31.8L177.6,31.8z M176.7,26.6c-0.5-0.1-1.4-0.5-2-0.9l-1-0.7l0.6,0.8c0.3,0.4,0.7,1.1,0.9,1.5
		c0.3,0.8,1,0.9,1.6,0.3c0.3-0.3,0.4-0.3,0.4,0c0,0.2-0.3,0.5-0.6,0.7c-0.4,0.3-0.5,0.4-0.2,0.5c0.2,0.1,0.4,0.3,0.4,0.5
		c0,0.5-1.2-0.6-2.3-2.2c-0.9-1.3-1.2-2.5-0.6-2.5c0.2,0,1.1,0.4,2,1C177.3,26.6,177.5,26.8,176.7,26.6L176.7,26.6z M174.6,11
		c-0.2,0.1-0.2,0-0.1-0.3c0.2-0.6,0.4-0.7,0.4-0.2C174.9,10.7,174.7,10.9,174.6,11L174.6,11z M174.4,18.3c-0.2,0-0.5-0.1-0.8-0.3
		c-0.3-0.2-0.3-0.3,0.1-0.5c0.3-0.1,0.6-0.1,0.7,0c0.1,0.1,0,0.2-0.3,0.2c-0.4,0-0.4,0.1,0,0.3C174.5,18.2,174.6,18.3,174.4,18.3
		L174.4,18.3z M174.1,15.9c-0.2,0.2-0.7,0.3-1,0.1c-0.5-0.2-0.5-0.2,0.3-0.4C174.6,15.4,174.6,15.5,174.1,15.9L174.1,15.9z
		 M173.6,14.8c-0.6,0.8-0.7,0.8-1.2,0.2c-0.6-0.6-0.6-0.6,0-0.4c0.4,0.1,0.7,0,1-0.4c0.2-0.3,0.5-0.5,0.6-0.4
		C174.2,13.9,174,14.4,173.6,14.8L173.6,14.8z M173.4,19.2c-0.2,0-0.4-0.2-0.3-0.4c0.1-0.2,0.2-0.4,0.3-0.4s0.2,0.2,0.3,0.4
		C173.8,19,173.7,19.2,173.4,19.2z M173.1,20.8c-0.2,0-0.6-0.2-0.7-0.3c-0.1-0.2-0.1-0.2,0.1-0.1c0.2,0.1,0.4,0,0.5-0.4
		c0.1-0.5,0.1-0.5,0.3,0.1C173.4,20.7,173.4,20.9,173.1,20.8L173.1,20.8z M172.3,8.8c-0.4-0.1-0.9-0.2-1.1-0.2
		c-0.1,0-0.2-0.2-0.2-0.3c0-0.5,1.2-0.4,1.7,0.2C173.1,9,173,9,172.3,8.8L172.3,8.8z M170,11.6c-0.6,1.2-0.6,1.3-0.1,1.9
		c0.6,0.7,0.2,0.8-0.6,0.2c-0.5-0.4-0.5-0.6,0.4-2.4c0.5-1.1,1-1.7,1-1.5C170.6,10.2,170.3,10.9,170,11.6L170,11.6z M168.2,8.4
		c-0.3,0.3-0.5,0.5-0.5,0.3c0-0.2,0.2-0.5,0.5-0.8C168.8,7.4,168.8,7.6,168.2,8.4L168.2,8.4z M166.5,15.4c-0.1,0-0.7-0.9-1.3-2
		c-0.6-1.1-0.9-2-0.7-2c0.2,0,0.7,0.9,1.3,2C166.3,14.5,166.6,15.4,166.5,15.4z M196.2,33.2c-1,0.8-2,1.4-2.2,1.3
		c-0.2-0.1-0.3-0.1-0.1,0.2c0.1,0.2,0.1,0.4-0.1,0.4s-0.3,0.3-0.3,0.6c0,0.3-0.2,0.8-0.4,1c-0.2,0.2,0,0.2,0.6-0.2l1-0.6l-1.1,1.3
		c-0.6,0.7-1.2,1.3-1.4,1.4c-0.1,0.1,0.1,0.6,0.4,1.2c0.4,0.6,0.6,1.2,0.6,1.4c-0.1,0.7,0.1,0.8,1.1,0.1l1.1-0.7l-0.9,1
		c-0.5,0.6-1.1,1-1.2,0.9c-0.1-0.1-0.3,0.3-0.4,0.9c-0.2,1.2,0,1.6,0.3,0.7c0.1-0.3,0.7-1.1,1.3-1.8s1.2-1.5,1.3-1.9
		c0.2-0.7,0.2-0.8-0.6-0.2c-0.5,0.3-1,0.5-1.2,0.4c-0.2-0.1,0.1-0.4,0.8-0.8c1.1-0.7,1.7-2,0.8-2c-0.2,0-0.2-0.2-0.1-0.4
		c0.2-0.3,0.1-0.3-0.3,0c-0.6,0.5-0.8,0.9-0.2,0.5c0.2-0.1,0.3,0,0.3,0.1c0,0.4-0.6,0.4-0.8,0c-0.1-0.2,0-0.6,0.3-0.9
		c0.3-0.3,0.4-0.9,0.3-1.2c-0.1-0.5,0.1-0.9,1.2-1.6c1.3-0.9,1.9-1.6,2-2.2C198,31.8,197.2,32.4,196.2,33.2L196.2,33.2z M193,39.8
		c-0.1,0-0.2-0.2-0.3-0.5c-0.1-0.3-0.1-0.4,0.1-0.3C193.1,39.2,193.3,39.8,193,39.8L193,39.8z M193.7,61.9c-0.5,0.5,0,0.8,0.6,0.3
		c0.4-0.3,0.4-0.5,0.1-0.6C194.2,61.6,193.9,61.7,193.7,61.9L193.7,61.9z M194.1,45.5c-0.4,0.2-0.7,0.6-0.7,0.8
		c0,0.2-0.1,0.6-0.1,0.8c0,0.2-0.3,0.4-0.5,0.3c-0.3-0.1-0.5,0.2-0.5,0.7V49l0.8-0.7l0.8-0.7l-0.7,1.1c-0.4,0.6-0.9,1-1.1,1
		c-0.2,0-0.4,0.3-0.4,0.8c0,0.5-0.1,0.9-0.2,0.9c-0.1,0-0.1,0.3-0.1,0.8c0.2,0.8-0.5,1.5-0.8,0.9c-0.1-0.2-0.8-0.4-1.5-0.5l-1.3-0.2
		l1.6,0.7c1.5,0.6,1.6,0.6,2.3,0.1c0.4-0.3,0.8-0.6,0.8-0.7c0.1-0.1,0-0.2-0.3-0.4c-0.3-0.2-0.2-0.5,0.5-1.2c0.7-0.7,1-1.4,1.2-2.7
		c0.1-1,0.4-2,0.5-2.3C194.8,45,194.8,45,194.1,45.5L194.1,45.5z M193.9,60.4c-0.1,0.1-0.1,0.4,0,0.6c0.1,0.3,0.2,0.2,0.2-0.2
		C194.1,60.5,194,60.3,193.9,60.4L193.9,60.4z M193.1,44.8c-0.4,0-0.7,0.1-0.8,0.3c-0.1,0.2-0.6,0.3-1.1,0.3l-0.9,0l0.9,0.3
		c0.7,0.2,1.1,0.1,1.7-0.2C193.9,44.9,193.9,44.9,193.1,44.8L193.1,44.8z M192.6,55c-0.1-0.3-0.4-0.4-0.6-0.3
		c-0.2,0.1-0.1-0.1,0.2-0.4c0.8-1,0.7-1.1-0.4-0.5c-0.9,0.5-1,0.7-1,2.1c0,0.9-0.2,1.5-0.3,1.5c-0.2,0-0.3,0.3-0.2,0.6
		c0.1,0.5-0.2,0.6-1.4,0.8c-1.2,0.2-1.3,0.2-0.4,0.2c0.7,0,1.2,0.3,1.5,0.7c0.4,0.7,1.2,0.9,1.2,0.3c0-0.2,0.2-0.3,0.5-0.3
		c0.7,0,0.2-1-0.4-1c-0.3,0-0.4-0.1-0.1-0.2c0.2-0.1,0.3-0.3,0.2-0.6c-0.1-0.2,0.1-0.5,0.4-0.6c0.4-0.2,0.7-0.6,1.1-1.7
		C192.8,55.6,192.7,55.3,192.6,55L192.6,55z M192,36.5c-0.3-0.1-0.6,0.1-0.8,0.5c-0.5,0.9-0.1,1.2,0.7,0.5
		C192.6,36.7,192.6,36.7,192,36.5L192,36.5z M189.6,35c-0.9-0.4-1.7-1.1-1.9-1.5c-0.4-0.9-1.8-1.3-2.5-0.8c-0.7,0.6-1.3,1.8-0.8,1.4
		c0.3-0.2,0.4-0.1,0.2,0.3c-0.1,0.4,0.4,0.8,2.3,1.5c1.5,0.6,2.7,0.9,3,0.8c0.5-0.2,0.7-0.3,1.2-0.4C191.5,36.2,191,35.7,189.6,35
		L189.6,35z M185.7,33.1c-0.5,0.2-0.5,0.1-0.2-0.2c0.2-0.2,0.5-0.3,0.6-0.2C186.2,32.8,186.1,33,185.7,33.1L185.7,33.1z M190,37.2
		c-0.3,0.2-0.4,0.5-0.3,0.6c0.1,0.1,0.3,0,0.5-0.3C190.6,36.9,190.6,36.8,190,37.2L190,37.2z M187.8,40.7c-0.7-0.3-1.2-0.4-1.2-0.3
		c0,0.2,1.9,1.2,2.3,1.2C189.5,41.5,189.2,41.2,187.8,40.7L187.8,40.7z M187.9,46.8c-0.2,0.4-0.6,0.8-0.9,0.9
		c-0.4,0.3-0.4,0.3,0.1,0.5c0.9,0.3,1,0.2,1.1-1C188.2,46.3,188.2,46.3,187.9,46.8L187.9,46.8z M186,58.5c-0.3,0.1-0.1,0.2,0.4,0.2
		c0.5,0,0.8-0.1,0.6-0.1S186.4,58.4,186,58.5L186,58.5z M186,30.9c-0.5,0.6-0.5,0.6,0.2,0.2c0.4-0.2,0.6-0.5,0.6-0.6
		C186.7,30.3,186.3,30.5,186,30.9L186,30.9z M184.3,31.2c-0.4-0.4-0.6-0.4-0.4-0.2c0.2,0.3,0.4,0.7,0.4,1.1c0,0.5,0.1,0.6,0.5,0.2
		c0.3-0.2,0.5-0.4,0.4-0.5C185.2,31.9,184.8,31.6,184.3,31.2L184.3,31.2z M182.3,57.9c-0.3,0.1-0.2,0.2,0.2,0.2
		c0.3,0,0.5-0.1,0.4-0.2C182.8,57.8,182.6,57.8,182.3,57.9L182.3,57.9z M181.3,31.4c-0.1,0-0.4,0.3-0.7,0.7l-0.6,0.7l0.7-0.6
		C181.4,31.6,181.5,31.4,181.3,31.4L181.3,31.4z M200.1,21.4c-0.1,0.1-0.6,0.2-1.1,0.2s-0.9,0.1-0.9,0.3s-0.3,0.3-0.7,0.3
		c-0.6,0-0.7-0.2-0.7-1.7c0-0.9,0.2-1.9,0.4-2.1c0.3-0.3,0.3-0.4,0-0.4c-0.2,0-0.4-0.3-0.3-0.7c0.1-0.6,0.3-0.7,1.7-0.7h1.6v1.6
		c0,1.6,0,1.6-1.1,1.8l-1.1,0.2l1.1,0.1C200,20.5,200.5,20.9,200.1,21.4L200.1,21.4z M198.7,18.1c0-0.3,0.2-0.7,0.4-0.8
		c0.2-0.1-0.1-0.2-0.7-0.2c-0.5,0-0.8,0.1-0.6,0.2c0.5,0.2,0.5,1.7,0,1.7c-0.2,0-0.3,0.1-0.2,0.2c0.1,0.1,0.6,0.1,1.1-0.1
		c0.7-0.2,0.8-0.3,0.4-0.4C198.9,18.7,198.7,18.4,198.7,18.1L198.7,18.1z M197.6,118.8c-3.4,0.8-3.6,1-4.1,3.9
		c-0.2,1.4-0.6,2.6-0.9,2.8c-0.2,0.2-0.4,0.6-0.3,1c0.1,0.4,0,0.7-0.6,1c-0.6,0.3-0.8,0.5-0.5,0.8c0.6,0.7,0.1,1.4-1.2,1.6
		c-0.8,0.2-1.1,0.3-0.8,0.6c0.7,0.7,0.3,1.2-1.1,1.4c-1.3,0.2-1.4,0.3-1.3,1c0.2,0.8,0.1,0.8-1.2,0.7c-1.3-0.2-1.3-0.1-1.3,0.6
		c0,0.8-0.1,0.8-1.2,0.7c-0.7-0.1-1.5-0.3-1.8-0.4c-0.5-0.2-0.6-0.1-0.6,0.8c0,1.2-0.5,1.3-2,0.2l-1.1-0.8l-0.5,0.9
		c-0.3,0.5-0.6,1-0.8,1.1c-0.3,0.2,5.2,1.3,6.5,1.3c0.4,0,0.7,0.2,0.7,0.5c0,0.6-1,0.8-4.3,0.9c-1.3,0.1,0.1,0.1,3,0.2
		c4.3,0.1,5.3,0.1,5.3,0.5c0,0.6-0.4,0.7-4.2,1.3c-3.9,0.6-5.3,0.6-9.7,0c-8.7-1.3-14.7-4.9-17.4-10.4c-0.9-1.9-1.1-2.6-1.1-4.6
		c0-2,0.2-2.6,1.1-4.4c1-2,3-3.9,3.6-3.4c0.1,0.1,0,0.8-0.2,1.6c-0.8,2.7-0.2,4.8,1.6,5.4c1.6,0.5,2.2,0.5,2.2-0.3
		c0-0.4-0.2-0.7-0.7-0.7c-0.6,0-0.7-0.1-0.5-1c0.2-0.8,0.1-1-0.3-1c-0.4,0-0.5-0.2-0.4-1c0.1-0.7,0-1-0.3-1c-0.4,0-0.4-0.3-0.3-1
		c0.1-0.6,0.1-1-0.1-1c-0.2,0-0.3-0.4-0.3-0.9c0-0.9-0.3-4.7-0.5-4.9c0,0-0.9,1.6-1.8,3.6c-1.3,2.7-1.9,3.7-2.4,3.7
		c-0.8,0-0.6-1.5,1.2-7.5c0.1-0.3,0.1-0.4,0-0.2c-0.3,0.5-1.1,0.2-1.1-0.3c0-0.8,2-5.2,3.1-6.9c0.5-0.8,1.2-2,1.6-2.7
		c0.3-0.7,0.8-1.3,1-1.4c0.5-0.2,1.4-2.3,1.4-3.2c0-0.5-0.2-0.6-1-0.6c-2.1,0-0.4-1.6,2.3-2.2c1.1-0.2,1.9,1.1,1.4,2.2
		c-0.2,0.4-0.4,1.5-0.6,2.4c-0.1,0.9-0.3,2.1-0.4,2.8l-0.2,1.1l0.5-0.9c0.5-0.8,1.4-1.6,1.9-1.6c0.4,0,0.1,1.3-0.5,2.1
		c-0.6,0.8-0.5,0.8,1.1-0.3c1-0.7,1.9-1.5,2.1-1.7c0.3-0.4,0.5-0.4,1.1-0.1c1.2,0.7,0.8,1.5-1.5,3.2c-1.2,0.9-2.5,1.9-2.8,2.3
		c-0.6,0.7-0.6,0.7,0.4,1.1l1,0.4l-0.7,0.8c-0.8,1.1-0.8,2,0,3.1c0.4,0.5,0.7,1.1,0.7,1.5c0,0.6,0.8,1.5,1.3,1.5
		c0.4,0,0.6-1.7,0.2-2.2c-0.8-0.9-1.4-2.8-1.3-4.3c0-1.2,0.2-1.6,0.9-2.2c1.3-1.1,1.9-1,1.7,0.3c-0.2,0.8-0.1,1,0.2,0.7
		c0.2-0.2,0.7-0.4,1.1-0.4c0.6,0,0.7-0.1,0.6-0.8c-0.1-0.4,0-1.3,0.2-1.9c0.2-0.6,0.6-2.2,0.9-3.5c0.3-1.3,0.7-2.8,1-3.2
		c0.6-0.9,2.6-2.2,3.9-2.5c0.8-0.2,0.7,0-0.7,0.7c-0.9,0.5-1.9,1.3-2.2,1.6c-0.5,0.6-2.4,6.9-2.5,8.1c0,0.2,0.3,0.4,0.7,0.4
		c0.6,0,0.6-0.1,0.2-0.3c-0.4-0.3-0.3-0.3,0.3-0.1c0.5,0.1,0.7,0.1,0.6-0.1c-0.1-0.2,0-0.3,0.3-0.2c0.3,0.1,1.1,0,1.8-0.3
		c0.7-0.3,1.4-0.5,1.5-0.4c0.1,0.1,0,0.2-0.2,0.2c-0.2,0-0.3,0.1-0.2,0.3c0.1,0.2-0.1,0.2-0.6,0.1c-0.5-0.1-0.6-0.1-0.3,0.2
		c0.4,0.3,0.3,0.4-0.2,0.5c-0.8,0.3-3.6,2.7-3.5,3.1c0,0.2-0.1,0.2-0.4,0.1c-0.3-0.1-0.5-0.5-0.5-0.8c0-0.9-1-0.8-2,0.2
		c-0.9,1-1.8,1.1-1.5,0.2c0.1-0.3,0.3-0.9,0.4-1.2c0.2-0.6,0.1-0.6-0.3-0.2c-1,0.8-1,1.9,0.1,4.2l1,2.1l-0.6,1.4
		c-0.3,0.8-0.6,1.4-0.7,1.4c-0.4,0-2.1-1.8-2.1-2.2c0-0.2-0.4-1.2-0.9-2.1c-0.8-1.6-0.9-1.7-0.3-2.6c0.5-0.9,0.5-1-0.3-1.8l-0.8-0.8
		l1.3-1.1c0.7-0.6,2-1.7,3-2.3s1.6-1.3,1.5-1.5c-0.1-0.2-0.5,0-0.9,0.4c-0.4,0.4-1.3,0.9-1.9,1.2c-0.7,0.3-1.2,0.7-1.2,0.8
		c0,0.1-0.2,0.3-0.5,0.3c-0.4,0-0.5-0.2-0.4-0.9l0.2-0.9l-0.5,0.7c-0.3,0.4-0.7,0.7-1,0.7c-0.4,0-0.4-0.5-0.2-3
		c0.1-1.6,0.4-3.4,0.5-3.9c0.4-1.3,0.1-2-0.7-1.5c-0.5,0.3-0.6,0.4-0.3,0.8c0.6,0.7-0.4,3.8-1.6,4.7c-0.7,0.6-0.8,0.6-0.1,0.3
		c0.7-0.3,0.7-0.3,0.7,0.5c-0.1,1.1-1.2,1.5-1.3,0.5c0-0.5-0.1-0.5-0.2-0.1c-0.1,0.3-0.8,1.6-1.6,2.9c-1.7,2.8-2.3,4.3-1.6,3.7
		c0.9-0.8,0.8,0.3-0.3,3.6c-1.7,5.3-1.7,5.6,0.5,1.3c1.1-2.2,2.2-4,2.4-4c0.3,0,0.4,0.6,0.5,2.2c0.1,2.9,0.2,3.4,0.5,3.9
		c0.1,0.2,0.1,0.6-0.1,0.8c-0.3,0.3-0.2,0.5,0.2,0.7c0.4,0.3,0.4,0.5,0.1,1.1c-0.3,0.6-0.3,0.7,0.3,0.7c0.8,0,0.8,0.1,0.3,1
		c-0.3,0.5-0.2,0.6,0.1,0.6c0.7,0,0.9,0.5,0.5,1.4c-0.3,0.8-0.3,0.8,0.5,0.6c0.9-0.2,1,0,0.6,1.8c-0.2,1.2-0.8,1.4-2.7,0.8
		c-1.9-0.5-2.5-1.2-3-2.9c-0.3-1.2-0.3-1.7,0.1-2.8l0.5-1.3l-0.7,0.6c-1.3,1.1-2.5,4.3-2.5,6.4c0,3.1,1,5.3,3.7,7.9
		c4.1,4.1,9.6,6.1,17.6,6.5c2.3,0.1,4.2,0.1,4.1,0c-0.1-0.1-1.5-0.3-3.1-0.6c-3.8-0.5-4.4-0.7-4.4-1.2c0-0.4,0.7-0.5,3.2-0.5
		c2.9,0,3-0.1,1.7-0.3c-3.1-0.7-4.9-1.3-4.9-1.7c0-0.3-0.8-0.8-1.9-1.3c-1.4-0.7-2-0.8-2.4-0.5c-0.3,0.2-0.8,0.3-1,0.3
		c-0.5,0-4.5-4.3-4.5-4.8c0-0.2,0.6-0.7,1.3-1.1c0.7-0.4,1.2-0.9,1.1-1c-0.1-0.1,0-0.1,0.4,0c0.4,0.2,0.5,0.1,0.4-0.1
		c-0.3-0.5,0.5-1.1,1.8-1.2c0.9-0.1,1.1,0,1.1,0.5c0,0.6,0,0.6-0.5,0.2c-0.5-0.4-0.5-0.4-0.1,0.3c0.2,0.4,0.6,0.6,0.8,0.5
		c0.2-0.1,0.3-0.1,0.1,0.2c-0.4,0.6,1.8,3.1,2.5,2.9c0.5-0.1,0.5-0.1,0.2,0.3c-0.2,0.2-0.6,0.4-0.8,0.3c-0.4-0.1-0.4,0,0.1,0.9
		c0.5,0.9,0.6,1,0.9,0.5c0.6-0.8,1.5-0.4,2.3,0.9c0.6,1,0.6,1,0.9,0.3c0.4-0.9,1-0.9,2.4,0.1l1.1,0.9v-0.9c0-0.9,0.6-1.1,2.5-0.6
		c0.9,0.3,1,0.2,0.9-0.4c-0.2-0.9,0.5-1.2,1.8-0.8c0.9,0.3,0.9,0.2,0.8-0.7c-0.1-0.9-0.1-0.9,1.2-0.9c1.2,0,1.3-0.1,1-0.5
		c-0.6-0.7-0.2-1,1.2-1.3c0.7-0.1,1-0.3,0.8-0.4c-0.6-0.2-0.5-1.3,0.2-1.7c0.4-0.2,0.7-0.6,0.7-0.9c0-0.3,0.2-0.8,0.5-1
		c0.4-0.3,0.9-2.3,1-3.8c0-0.2,0.2-0.5,0.3-0.8c0.3-0.4,0.2-0.4-0.3,0c-0.5,0.4-0.6,0.4-1.1-0.1c-0.3-0.3-0.7-0.4-0.9-0.2
		c-0.2,0.2-0.8,0.4-1.5,0.6c-1.1,0.3-1.2,0.3-1.5-0.5l-0.4-0.8l0.9,0.5c0.9,0.5,1,0.5,1.8,0c0.5-0.3,0.9-0.7,0.9-0.8
		c0-0.5-2.2-3-2.4-2.6c-0.1,0.2-0.3,0-0.4-0.5l-0.2-0.9l-1.9,1c-1.1,0.6-1.9,1.2-1.9,1.5c0,0.3-0.2,0.4-0.5,0.2
		c-0.4-0.1-0.5-0.1-0.3,0.2c0.1,0.2,0.1,0.3-0.2,0.2c-0.3-0.1-1.5,0.4-2.7,1c-2.7,1.5-2.6,1.3-2.1,1.9c0.7,0.8,0.1,1.2-1.1,0.6
		c-0.6-0.3-0.9-0.6-0.6-0.7c0.2-0.1,0.7,0.1,1.1,0.5c0.7,0.6,0.7,0.6,0.1-0.1c-0.5-0.6-0.5-0.7-0.1-1.2c0.3-0.3,0.4-0.6,0.3-0.7
		c-0.1-0.1-0.1-0.2,0.1,0c0.4,0.2,5.6-2.4,7-3.5c0.5-0.4,1.4-1,2.1-1.3c1.1-0.6,1.3-0.6,1.5-0.2c0.3,0.4,0.4,0.4,1,0.1
		c0.4-0.2,0.9-0.4,1.1-0.4c0.3,0,1.2-0.3,2.1-0.7l1.6-0.7l-0.5-1.6c-0.3-0.9-0.6-1.8-0.8-2c-0.2-0.2-0.2-0.6-0.1-1
		c0.1-0.3-0.2-1.3-0.6-2.3c-1-2.1-2.8-3.2-4.7-2.9c-0.6,0.1-1.5,0-2-0.1c-0.4-0.1-0.6-0.3-0.3-0.3c0.3,0,0.1-0.2-0.3-0.3
		c-0.8-0.2-0.7-0.3,0.5-0.7c0.7-0.2,1.4-0.5,1.6-0.7c0.2-0.1,1.2-0.5,2.2-0.8c1.8-0.5,1.9-0.6,1.9-1.7c0-1.4-0.5-1.4-3-0.5
		c-2,0.8-1.9,0.7-1.9,0.4c0-0.2,0.3-0.4,0.7-0.5c0.7-0.2,0.7-0.2,0.1-0.8c-0.6-0.6-0.6-0.7,2.4-1.8c0.8-0.3,1.1-0.6,1.1-1.3v-0.9
		l-2.5,0.6c-1.4,0.3-2.9,0.7-3.4,0.9c-0.5,0.2-0.8,0.2-0.7,0c0.1-0.2-0.1-0.5-0.5-0.8c-0.4-0.3-0.5-0.6-0.4-0.7
		c0.2-0.1,1.9-0.5,3.9-0.9c3.5-0.7,3.6-0.8,3.6-1.6c-0.1-0.7-0.2-0.8-1.1-0.7c-1,0.1-1.1,0.1-1.1-0.9c0-1,0.7-2,1.5-2
		c0.3,0,0.5-0.3,0.5-0.8c0-0.9,0-0.9-1.2-0.4c-0.5,0.2-1.2,0.5-1.6,0.6c-0.4,0.1-1.7,0.6-2.9,1c-1.3,0.4-2.9,1-3.6,1.3
		c-0.7,0.3-1.9,0.8-2.7,1c-1.8,0.5-2,0.8-2.2,3l-0.2,1.8l1-0.2c0.6-0.1,1.2-0.2,1.4-0.3c0.2-0.1,0.6,0,0.8,0.2
		c0.3,0.2,0.2,0.3-0.4,0.3c-1.2,0-2.3,0.4-2.1,0.7c0.3,0.4-0.3,0.3-1-0.1c-0.5-0.4-0.6-0.7-0.4-2.6c0.1-1.2,0.4-2.3,0.6-2.5
		c0.5-0.4,6.7-2.9,8.4-3.3c0.7-0.2,1.3-0.4,1.2-0.5c-0.1-0.1-1,0.1-2.1,0.4c-1.1,0.3-2.1,0.5-2.4,0.6c-0.2,0-0.6,0.3-0.7,0.5
		c-0.2,0.3-0.6,0.3-1.9-0.1c-2-0.7-2.2-1.1-1.8-4.2c0.2-2.1,0.6-2.8,1.6-3.4c0.6-0.3,0.6-0.4,0.1-0.4c-0.9,0-1.3-1.2-1.1-3.6
		c0.1-1.6,0.4-2.3,0.8-2.7c0.6-0.5,0.6-0.5,0-0.7c-0.6-0.2-0.7-0.3-0.5-1.6c0.3-1.6,0.5-1.8,2.3-2.1l1.3-0.2l-1.8-0.2
		c-1.8-0.2-1.8-0.2-1.8-1.3c-0.1-2.1-0.1-2.1,3.8-1.8c5.9,0.4,7.6,0.5,9.4,0.7l1.7,0.2l-0.1,1.5c-0.1,1.2-0.2,1.5-0.7,1.6
		c-0.3,0.1-0.7,0-0.8-0.2c-0.1-0.2-0.6-0.2-1.2-0.1c-0.8,0.2-0.9,0.2-0.3,0.4c0.4,0.1,1.1,0.3,1.7,0.3c0.9,0,1,0.2,1.2,1.1
		c0.2,1.5,0,1.9-1.2,1.9c-0.9,0-0.9,0.1-0.4,0.3c1.1,0.4,1.5,1.2,1.7,3.2c0.1,1.6,0.1,2-0.5,2.7c-0.6,0.8-0.6,0.8,0,1.3
		c0.5,0.4,0.6,1.1,0.8,3.7c0.1,1.8,0.2,3.5,0.3,3.8c0.1,0.3,0,0.8-0.2,1.1c-0.3,0.4-0.3,0.6,0.1,1.1c0.3,0.3,0.5,1.1,0.5,1.9
		c0,0.7,0.2,2.2,0.4,3.2c0.2,1.1,0.5,2.2,0.5,2.4c0,0.3,0.2,1.4,0.5,2.4c0.7,2.7,0.7,2.7-0.8,3.3l-1.3,0.5l2.2,2.2
		c2.1,2,2.3,2.3,2.6,4.1c0.2,1.1,0.8,3.2,1.3,4.7c0.5,1.5,0.9,2.8,0.9,3C200,118.1,198.9,118.5,197.6,118.8L197.6,118.8z
		 M194.4,113.8c-0.6,0-0.8,0.5-0.4,0.7c0.1,0.1,0.1,0.1-0.2,0c-0.6-0.2-2.4,0.6-2.4,1c0,0.2,0.2,0.6,0.4,0.8c0.3,0.3,0.3,0.5,0,0.7
		c-0.3,0.3-0.4,0.2-0.6-0.1c-0.2-0.3-0.1-0.3,0.2-0.1c0.3,0.2,0.3,0.1,0.2-0.1c-0.1-0.2-0.4-0.3-0.5-0.2c-0.2,0.1-0.6,0-0.9-0.2
		c-0.4-0.2-0.7-0.3-0.9-0.2c-0.2,0.2,1.5,2.4,1.8,2.3c0.1,0,0.6,0.3,0.9,0.7l0.7,0.8l1.4-0.8c0.8-0.4,1.4-0.9,1.3-1.1
		c-0.2-0.4,0.3-0.4,0.7,0c0.2,0.2,0.7,0.2,1.5,0l1.2-0.4l-2-1.9C195.9,114.6,194.7,113.8,194.4,113.8L194.4,113.8z M197.4,113.4
		c-0.3-0.8-0.6-1.7-0.8-2.1c-0.2-0.4-0.2-0.5,0.1-0.4c0.9,0.5-0.1-1.7-1.2-2.5c-0.6-0.5-1.1-1.1-1.1-1.3c0-0.2,0.3-0.1,0.7,0.2
		c0.4,0.3,0.7,0.5,0.7,0.4c0-0.1-0.6-0.6-1.3-1.2l-1.3-1l0.3,1.3c0.2,0.7,0.2,1.5,0.1,1.6c-0.1,0.2-0.1,0.3,0.1,0.3
		c0.2,0,0.5,0.9,0.7,2.1c0.4,1.9,0.5,2.2,1.7,3c0.7,0.5,1.5,1.2,1.8,1.6c0.5,0.6,0.5,0.6,0.3,0C198,115.2,197.7,114.2,197.4,113.4
		L197.4,113.4z M195.5,110c-0.3,0-0.6-0.2-0.6-0.4c0-0.2-0.2-0.6-0.4-1c-0.5-1-0.3-0.9,0.7,0.2C196.2,109.8,196.3,110.2,195.5,110
		L195.5,110z M194.4,102.2c-0.2,0.1-0.9-0.3-1.5-0.9c-1-1-1.2-1-2-0.7c-0.7,0.3-0.8,0.5-0.5,0.9c0.3,0.3,0.3,0.5,0.1,0.5
		c-0.2,0-0.4-0.1-0.5-0.3c-0.2-0.3-1.9-0.2-3,0.2c-0.6,0.2-0.4,0.3,1,0.3c1.2,0,2.1,0.2,3,0.7c0.7,0.4,1.3,0.7,1.3,0.7
		c0.2,0,0-0.8-0.2-1.2c-0.1-0.2,0-0.4,0.2-0.5c0.5-0.2,1.3,0.2,1.2,0.5c0,0.1,0,0.2,0.1,0.2c0.1,0,0.4,0,0.7,0
		c0.3,0,0.5-0.2,0.5-0.3C194.8,102.2,194.6,102.1,194.4,102.2L194.4,102.2z M191.1,101.5c-0.3-0.1-0.5-0.3-0.4-0.4
		c0.1-0.1,0.4,0,0.6,0.2C191.6,101.7,191.5,101.7,191.1,101.5L191.1,101.5z M193.9,100.4c-0.3-0.4-0.4-0.7-0.2-0.5
		c0.7,0.4,0.4-0.7-0.5-1.7c-1.1-1.3-1.4-1.3-1.4,0.1c0,0.8,0.3,1.4,1,2.1c0.5,0.5,1,0.9,1,0.8c0-0.1,0.1,0,0.3,0.3
		c0.2,0.3,0.3,0.3,0.3,0.2C194.4,101.4,194.2,100.9,193.9,100.4L193.9,100.4z M193.3,97c-0.3-0.1-0.4-0.1-0.3,0.1
		c0.1,0.2,0.3,0.3,0.5,0.3C193.9,97.5,193.8,97.2,193.3,97z M192,92.8c-0.4-0.2-0.5-0.2-0.4,0c0.1,0.2,0.1,0.4-0.1,0.4
		c-0.2,0-0.3,0.2-0.3,0.5c0,0.3,0.1,0.4,0.3,0.3c0.2-0.1,0.5,0.1,0.8,0.5c0.7,1,0.6,1.5-0.2,0.6c-0.5-0.6-0.6-0.6-0.6-0.3
		c0,0.3,0.4,0.7,0.9,1l0.9,0.5l-0.4-1.6C192.8,93.9,192.4,93,192,92.8L192,92.8z M192.1,93.7c-0.2-0.1-0.3-0.3-0.3-0.3
		s0.1-0.1,0.3-0.1c0.2,0,0.3,0.2,0.3,0.3C192.5,93.8,192.3,93.8,192.1,93.7z M192,90.5c-0.6-0.6-0.8-0.6-0.8-0.2
		c0,0.3,0.3,0.7,0.6,1c0.5,0.4,0.5,0.4,0,0.2c-0.3-0.1-0.6-0.1-0.6,0c0,0.3,1,1.1,1.4,1.1C193.1,92.6,192.7,91.1,192,90.5L192,90.5z
		 M191.5,118.8c-0.6-0.4-0.3,0.4,0.4,1c0.7,0.6,0.7,0.6,0.3-0.1C192,119.3,191.7,118.9,191.5,118.8L191.5,118.8z M190.7,88.2
		c-0.4-0.1-0.8,0-0.8,0.2c0,0.5,1.5,1,2.1,0.8c0.5-0.2,0.5-0.2,0-0.5C191.7,88.4,191.1,88.2,190.7,88.2L190.7,88.2z M191.6,86.2
		c-0.3-0.4-0.4-0.7-0.3-0.7s0-0.3-0.4-0.6c-0.3-0.4-0.7-0.6-0.9-0.5c-0.5,0.3-0.3,0.8,0.2,0.8c0.3,0,0.5,0.3,0.5,1.1
		c0,0.6,0.1,1.1,0.1,1.1c0.1,0,0.4,0.1,0.7,0.2C192.3,87.8,192.3,87.1,191.6,86.2L191.6,86.2z M191.3,81.6c-0.3-0.1-0.4-0.3-0.3-0.5
		c0.1-0.1,0-0.3-0.1-0.4c-0.4-0.3-0.5,2.7,0,3.2c0.7,0.8,1,0.5,1-0.9C191.8,82.3,191.7,81.8,191.3,81.6z M191.2,67.2
		c-0.6,0-1.1,0.8-0.8,1.3c0.1,0.2,0.5,0.3,0.8,0.3c0.5,0,0.6-0.2,0.6-0.8C191.8,67.4,191.6,67.2,191.2,67.2L191.2,67.2z M190.5,96
		c-0.4,0.1-0.6,0.3-0.5,0.4c0.1,0.1,0.5,0.1,0.9-0.1s0.6-0.3,0.5-0.4C191.3,95.9,190.9,95.9,190.5,96z M190.8,75.8
		c-0.6-0.6-0.7-0.6-0.7,0.6c0,0.8,0.2,1.3,0.7,1.5c0.6,0.3,0.7,0.2,0.7-0.6C191.5,76.8,191.2,76.2,190.8,75.8z M191.4,74.4
		c-0.1,0-0.4-0.1-0.7-0.2c-0.7-0.3-0.7,0.6,0.1,1.3c0.6,0.6,0.7,0.6,0.7-0.3C191.5,74.7,191.4,74.4,191.4,74.4L191.4,74.4z
		 M190.8,70.8c-0.8,0-0.7,1.1,0.1,1.2c0.4,0.1,0.6-0.1,0.6-0.6C191.5,71,191.3,70.8,190.8,70.8z M190.8,115.4
		c-0.4,0-0.3,0.5,0.1,0.6c0.2,0.1,0.3,0,0.3-0.3C191,115.5,190.9,115.4,190.8,115.4L190.8,115.4z M189.7,78
		c-0.2,0.3-0.2,0.5,0.3,0.8c0.9,0.6,1.3,0.2,0.6-0.5C190.2,77.8,190,77.7,189.7,78L189.7,78z M189.4,80.2c-0.1-0.2-1.3-0.3-2.5-0.4
		c-1.6,0-2.1-0.1-1.7-0.3l0.7-0.3l-0.7,0c-0.4,0-0.2-0.2,0.7-0.5c0.7-0.3,1.5-0.4,1.8-0.3c1.4,0.4,2.5-2.8,1.4-4.3
		c-0.4-0.6-0.9-0.6-5.2-0.6c-5.4,0-5.6,0.1-5.9,2.5c-0.3,2.1,0,3.1,1,3.4c1.1,0.3,1,1-0.1,1.4c-0.7,0.3-1,0.6-1.3,1.6
		c-0.4,1.4-0.5,3.7-0.1,4.2c0.6,1,2.5,0.8,7.1-0.5c0.5-0.2,1.6-0.4,2.4-0.6c1.5-0.4,2.9-1.5,3.1-2.5
		C190.1,82.3,189.8,80.9,189.4,80.2L189.4,80.2z M187.4,83.4c-0.6,0.2-1.5-0.1-1.5-0.5c0-0.2,0.2-0.2,0.5-0.1c0.3,0.1,0.5,0,0.5-0.1
		s-0.3-0.4-0.6-0.5c-0.5-0.1-0.5-0.1,0-0.4c0.6-0.3,1.5,0.3,1.5,1C187.9,83,187.7,83.3,187.4,83.4L187.4,83.4z M186.8,76.8
		c-0.5,0.1-1.5,0.1-2.2,0c-0.8-0.1-2-0.3-2.7-0.4c-0.9-0.1-1-0.1-0.5,0.1c0.7,0.2,0.8,0.3,0.2,0.5c-0.8,0.3-1.3-0.2-1-0.9
		c0.1-0.4,0.4-0.5,0.8-0.3c0.3,0.1,1.6,0.3,2.8,0.3c2.1,0.1,2.2,0.1,0.5-0.1c-1.8-0.2-1.8-0.2-0.6-0.5c1.7-0.4,3.4-0.1,3.5,0.5
		C187.6,76.4,187.4,76.7,186.8,76.8L186.8,76.8z M185.1,83.9c-1.1,0.2-1.4,0.1-1.4-0.6c0-0.4,0.3-0.5,1-0.4
		C186,83,186.3,83.7,185.1,83.9L185.1,83.9z M182.2,83.3c-0.4-0.1-0.5-0.1-0.3,0.2c0.2,0.3,0.1,0.3-0.3,0.2
		c-0.3-0.1-0.4-0.3-0.2-0.4c0.2-0.1,0.4-0.4,0.5-0.7c0.1-0.4,0.2-0.3,0.5,0.2C182.7,83.4,182.6,83.4,182.2,83.3L182.2,83.3z
		 M180.1,84.5c-0.4,0-0.6-0.5-0.3-0.9c0.2-0.3,0.3-0.2,0.4,0.3C180.3,84.1,180.2,84.5,180.1,84.5L180.1,84.5z M187.6,78.9
		c-2.2,0-1.8,0.2,0.7,0.4c1.1,0.1,1.7,0,1.5-0.1C189.6,79,188.6,78.9,187.6,78.9L187.6,78.9z M189,89c-0.3,0-0.4,0.1-0.3,0.3
		s0.4,0.3,0.7,0.3s0.4-0.1,0.3-0.3C189.6,89.2,189.3,89,189,89z M189.1,70.9c-1.6-0.2-2.1-0.4-2.1-0.8c0-0.5,1-1.2,1.7-1.2
		c0.7,0,1.5-0.9,1.1-1.3c-0.4-0.4-10.4-1.4-11-1.2c-0.3,0.1-0.5,0.6-0.5,1c0,0.8,0.1,0.8,2.2,0.8c1.7,0,2.3,0.1,2.4,0.5
		c0.2,0.5-0.6,0.8-3.3,1.3c-0.6,0.1-1,0.4-1,0.6c0,0.2-0.1,0.7-0.2,1.1c-0.2,0.7-0.2,0.7,3.5,0.7c5.6,0,8.1-0.3,8-0.9
		C189.7,71.2,189.4,70.9,189.1,70.9L189.1,70.9z M188.2,96.8c-0.7,0.3-0.7,0.3-0.1,0.3c0.4,0,0.8-0.1,0.9-0.2
		C189.4,96.5,189,96.5,188.2,96.8L188.2,96.8z M182.1,72.8c-1.2,0.1-0.2,0.1,2.2,0.1c2.4,0,3.4-0.1,2.2-0.1
		C185.3,72.8,183.3,72.8,182.1,72.8z M187.5,69.9c-0.3,0.1-0.2,0.2,0.2,0.2c0.3,0,0.5-0.1,0.4-0.2C188,69.8,187.8,69.8,187.5,69.9
		L187.5,69.9z M184.6,93.6c-1.1,0.6-0.5,0.7,1,0.3c1.3-0.4,1.3-0.4,0.5-0.5C185.7,93.3,185,93.4,184.6,93.6L184.6,93.6z M175.9,106
		c-0.6,0.2-1,0.6-1,0.8c0,0.3,0.3,0.2,1.1-0.3C177.3,105.6,177.3,105.5,175.9,106L175.9,106z M175,134.4c-0.6-1-1-1-1.4-0.2
		c-0.3,0.5-0.2,0.7,0.8,0.9C175.7,135.6,175.7,135.5,175,134.4L175,134.4z M174.3,107.2c-0.1,0.3-0.3,0.3-0.7,0
		c-0.5-0.4-0.5-0.4-0.1,0.1c0.5,0.6,1,0.5,1-0.2C174.5,106.9,174.5,106.9,174.3,107.2L174.3,107.2z M171.6,133c-0.5,0-0.7,0.7-0.3,1
		c0.7,0.4,0.9,0.3,0.7-0.4C172,133.3,171.8,133,171.6,133z M170.6,129.8c-0.7-0.8-1.5-1.5-1.6-1.5c-0.1,0-0.4-0.1-0.5-0.2
		c-0.3-0.3-3,1.4-3.3,2c-0.2,0.5,3,3.9,3.6,3.9c0.6,0,0.9-0.7,0.5-1.1c-0.2-0.2-0.4-0.6-0.4-0.9c0-0.4,0.2-0.3,0.6,0.3
		c0.6,0.7,0.7,0.8,1.2,0.3c0.6-0.5,1.1-1,1.1-1.2C172,131.3,171.4,130.6,170.6,129.8L170.6,129.8z M171.5,131.6
		c-0.1-0.1-0.3-0.4-0.6-0.8c-0.4-0.6-0.4-0.6,0.1-0.2c0.3,0.2,0.6,0.6,0.6,0.8C171.6,131.6,171.6,131.7,171.5,131.6z M166.2,131.3
		c-0.5-0.5-0.9-0.9-0.8-1c0.1-0.1,0.5,0.3,0.9,0.9l0.8,1L166.2,131.3z M168,127.1c-0.8,0.4-0.8,0.5,0.2,0.5c0.5,0,0.7-0.2,0.6-0.4
		C168.7,126.9,168.5,126.9,168,127.1L168,127.1z M190.3,110.8c-0.4,1.4-0.4,1.4-1.2,0.6l-0.8-0.9l-2.7,1.2c-5.2,2.2-5,2.2-4.5,1.6
		c0.3-0.3,1.1-0.7,1.8-0.9c1.8-0.6,4.4-2.3,4.4-2.8c0-0.4-0.5-0.7-2.3-1.2c-0.7-0.2-0.8-0.2-0.4,0.3c0.3,0.3,0.3,0.5,0.1,0.5
		c-0.2,0-0.4-0.1-0.5-0.3c-0.1-0.2-0.5-0.3-0.8-0.3c-0.5,0-0.6,0.2-0.6,0.9c0,0.5,0.3,0.9,0.5,1c0.2,0.1,0.4,0.3,0.4,0.5
		c0,0.2-0.3,0.1-0.8-0.2c-0.4-0.3-0.9-0.4-1-0.3c-0.1,0.1-0.2,0-0.1-0.2c0.1-0.3-0.1-0.5-0.3-0.5c-0.2,0-0.5-0.1-0.7-0.3
		c-0.2-0.2-0.1-0.2,0.1-0.1c0.2,0.1,0.4,0.1,0.4-0.1c0-0.5,3-1.9,3.5-1.7c0.3,0.1,0.4,0,0.2-0.6c-0.2-0.7-0.2-0.7,0.3-0.4
		c0.3,0.2,0.7,0.3,1,0.2c0.6-0.2,1.6,0.8,1.9,1.9c0.1,0.5,0.5,0.8,1,0.8C190.2,109.6,190.5,110,190.3,110.8L190.3,110.8z
		 M189.2,110.2c-0.2,0-0.3,0.1-0.3,0.1c0,0.1,0.1,0.2,0.3,0.3c0.2,0.1,0.3,0,0.3-0.1C189.5,110.3,189.4,110.2,189.2,110.2z
		 M186.9,107.7c-0.2-0.1-0.6-0.1-0.8,0.1c-0.4,0.2-0.4,0.3,0.3,0.7c0.7,0.3,0.8,0.3,0.8-0.1C187.3,108.1,187.1,107.8,186.9,107.7
		L186.9,107.7z M186.2,97.3c-0.3-0.1-0.5-0.3-0.4-0.4c0.1-0.1,0.4,0,0.6,0.2C186.7,97.4,186.7,97.5,186.2,97.3L186.2,97.3z
		 M185.3,122.9c-0.5,0-1.1-0.2-1.4-0.4c-0.6-0.4-0.6-0.4,0-0.7c0.4-0.1,0.7-0.1,0.9,0.2c0.2,0.2,0.6,0.5,0.8,0.6
		C185.9,122.8,185.8,122.8,185.3,122.9L185.3,122.9z M185.4,90.6c-0.8-0.2-0.9-1.2-0.1-1.2c0.5,0,0.7,0.2,0.7,0.7
		C186,90.5,185.8,90.7,185.4,90.6z M181.2,125.3c-0.3,0.1-0.8-0.1-1.4-0.7c-0.7-0.7-0.8-0.9-0.3-1.1c0.6-0.4,2,0.3,2.1,1.1
		C181.7,124.8,181.5,125.2,181.2,125.3z M180.2,123.8c-0.5-0.4-0.5-0.4-0.1,0.1c0.2,0.3,0.5,0.6,0.6,0.6
		C180.9,124.5,180.7,124.2,180.2,123.8z M181.1,94.5c-0.2,0-0.3-0.2-0.3-0.3c0-0.2,0.1-0.3,0.3-0.1c0.2,0.1,0.3,0.3,0.3,0.3
		C181.4,94.5,181.3,94.5,181.1,94.5z M179.8,99.7c-0.4,0-0.6-0.1-0.4-0.2c0.2-0.1,0.6-0.1,0.8,0C180.4,99.6,180.2,99.7,179.8,99.7z
		 M178.8,100.9l-1.1,0.6l0.7-0.7c0.4-0.4,0.9-0.7,1.1-0.6C179.8,100.2,179.5,100.5,178.8,100.9z M178.7,115c-0.2,0.2-1,0.6-1.8,1
		c-0.7,0.4-1.7,1.1-2,1.6c-0.4,0.5-1,1.1-1.4,1.4c-0.7,0.5-0.7,0.5-0.1-0.2c0.7-0.8,0.3-1-0.4-0.3c-0.2,0.2,0-0.1,0.5-0.8
		c0.5-0.7,1.1-1.2,1.2-1.2c0.2,0,0,0.3-0.3,0.7c-0.3,0.4-0.5,0.7-0.4,0.8c0.1,0.1,0.6-0.4,1.1-1.1c0.5-0.7,0.7-1,0.3-0.7
		c-0.6,0.5-0.6,0.4-0.4-0.2c0.1-0.4,0.3-1.3,0.4-2.1c0.2-1.2,0.4-1.7,1.4-2.6c1.6-1.4,1.6-1.1,0.1,0.4c-0.7,0.6-1,1.2-0.8,1.3
		c0.2,0.1,0.2,0.6,0,1.2c-0.2,0.6-0.2,1.1-0.1,1.2c0.1,0.1,0.8-0.1,1.6-0.4C179.2,114.4,179.4,114.4,178.7,115L178.7,115z
		 M178.9,99.4c-0.1,0.3-0.4,0.7-0.7,0.9c-0.5,0.3-0.6,0.3-0.4-0.2c0.2-0.6,1-1.5,1.2-1.3C179,98.9,179,99.2,178.9,99.4L178.9,99.4z
		 M177,129.4c-0.6,0.5-1.5,0.2-1.5-0.5c0-0.4,0.2-0.5,0.6-0.3c0.5,0.2,0.5,0.1,0-0.4c-0.3-0.4-0.7-0.6-0.9-0.5
		c-0.2,0.1-0.2,0-0.1-0.1c0.1-0.2-0.2-0.7-0.7-1.1c-0.5-0.4-0.9-0.9-0.9-1.2c-0.1-1.1-0.1-1.1-0.7-0.7c-0.5,0.4-0.5,0.4-0.2,0
		c0.2-0.3,0.4-0.7,0.4-1c0-0.3,0.1-0.6,0.3-0.6c0.2,0,0.3,0.2,0.3,0.5c0,0.8,1.4,2.8,2.7,4C177.6,128.5,177.7,128.8,177,129.4
		L177,129.4z M176.7,120.7c-0.8,0.3-0.9,0.2-0.5-0.3c0.4-0.5,1-0.6,1-0.2C177.2,120.4,176.9,120.6,176.7,120.7L176.7,120.7z
		 M175.9,125.2c-0.9-0.5-2.2-2-1.9-2.2c0.1-0.1,0.7,0.3,1.4,1C176.7,125.4,176.8,125.6,175.9,125.2z M175.6,63.5
		c-0.2-0.1-0.4,0-0.5,0.2c-0.1,0.3-0.2,0.3-0.2,0c0-0.7-0.5-0.5-1.1,0.6c-0.6,1-0.5,2.6,0.1,1.7c0.2-0.3,0.5,0.3,1,1.9
		c0.8,2.5,0.8,3.1,0.4,2.8c-0.2-0.1-0.3,0-0.3,0.2c0,0.4-1.1-1.6-1.4-2.6c-0.1-0.3-0.1,0.6,0,2c0.1,1.4,0.5,3.8,1,5.3
		c0.4,1.5,0.7,2.9,0.5,3c-0.2,0.1-0.4,1-0.5,2c-0.1,1-0.2,2.1-0.3,2.4c-0.1,0.4,0.1,0.6,0.3,0.6c0.5-0.1,0.6,4.3,0.1,4.6
		c-0.4,0.2-0.9-0.4-1.2-1.6l-0.3-1l-0.2,1c-0.1,0.5-0.2,2.1-0.1,3.4c0.1,1.8,0,2.8-0.4,3.7l-0.5,1.3l0.2-1.6
		c0.1-0.9,0.2-2.8,0.2-4.2c-0.1-1.8,0.1-3.1,0.5-4.1c0.3-0.8,0.8-2.7,1.1-4.2l0.6-2.7l-0.8-3.1c-0.4-1.7-0.9-4.6-1-6.4
		c-0.2-3.1-0.1-3.3,0.7-5c0.9-1.7,1.3-2,1.6-1.3c0.1,0.2,0.1,0,0-0.6c-0.1-0.5-0.3-2.1-0.3-3.4c-0.1-1.3-0.3-2.9-0.4-3.4
		c-0.2-0.6-0.5-2.8-0.6-5c-0.4-5.3-1.6-7.7-3.7-7.2c-0.4,0.1-0.9-0.1-1.4-0.7c-0.4-0.5-1.1-1.1-1.6-1.4c-0.8-0.5-1-0.5-1.9-0.1
		c-0.5,0.3-1.2,0.8-1.6,1.3c-1.1,1.4-1.1,2.7-0.2,6.8c0.5,2.1,0.9,4.2,0.9,4.8c0,0.6,0.1,1.3,0.3,1.6c0.2,0.3,0.3,0.3,0.3,0.1
		c0-0.2,0.2-0.3,0.5-0.2c0.8,0.3,0.7,7.3-0.2,9.9c-0.6,1.7-0.6,2.6-0.5,5c0.1,1.9,0.1,2.7-0.1,2.3c-0.5-1.1-0.4-6.6,0.1-7.6
		c0.6-1.1,0.9-5.7,0.6-7.4c-0.2-0.7-0.3-1-0.3-0.7c0,0.3-0.2,0.5-0.4,0.5c-0.2-0.1-0.5-1-0.6-2.4c-0.1-1.2-0.5-3.5-0.9-5.1
		c-1.3-5.2-0.8-7.9,1.8-9.3c1.3-0.7,2.5-0.4,3.7,0.9c0.5,0.6,1.2,1,1.7,1c1,0,2.4,1.1,3.1,2.4c0.3,0.6,0.7,2.4,0.8,4.1
		c0.4,4.6,0.6,5.9,0.8,6.3c0.1,0.2,0.3,1.8,0.5,3.6c0.1,1.8,0.3,3.7,0.5,4.2C175.9,63.4,175.8,63.6,175.6,63.5L175.6,63.5z
		 M174.4,68.2c-0.2-0.6-0.4-0.9-0.4-0.7c0,0.3,0.2,0.9,0.4,1.5C175,70.2,175,69.7,174.4,68.2L174.4,68.2z M173.9,84.1
		c-0.2-0.3-0.2,0.1-0.1,0.8c0.1,0.7,0.3,1.5,0.5,1.8c0.2,0.3,0.2-0.1,0.1-0.8C174.2,85.2,174,84.4,173.9,84.1z M173.1,66.6
		c-0.1,0.1-0.1,0.4,0,0.6c0.1,0.3,0.2,0.2,0.2-0.2C173.2,66.7,173.2,66.5,173.1,66.6L173.1,66.6z M164.3,55.9
		c-0.1,0.1-0.1,0.4,0,0.6c0.1,0.3,0.2,0.2,0.2-0.2C164.5,56,164.4,55.8,164.3,55.9L164.3,55.9z M174.7,121.7
		c-0.5,0.2-0.5,0.1-0.2-0.2c0.2-0.2,0.5-0.3,0.6-0.2S175,121.6,174.7,121.7L174.7,121.7z M173.3,110.2c-0.2,0-0.5,0-0.6,0
		c-0.1,0-0.5,0.7-0.8,1.7c-0.3,0.9-0.7,1.6-0.8,1.5c-0.1-0.1,0-0.5,0.2-1c0.3-0.6,0.3-1,0-1.5c-0.2-0.4-0.4-0.9-0.4-1.1
		c0-0.7,1.1-1,1.5-0.5c0.2,0.2,0.6,0.5,0.8,0.6C173.6,110.1,173.6,110.1,173.3,110.2L173.3,110.2z M172.5,125.5
		c-0.2,0-0.6,0.2-0.9,0.5c-0.5,0.6-0.9,0.6-0.8,0c0-0.3,0.5-0.6,1.1-0.6c0.6-0.1,1,0,1,0C172.9,125.4,172.7,125.5,172.5,125.5
		L172.5,125.5z M172,45.2c-0.4,0.2-1.4-1.1-1.1-1.5c0.1-0.2,0.5,0,0.8,0.3C172.3,44.6,172.4,44.9,172,45.2L172,45.2z M171.4,44
		c-0.5-0.4-0.5-0.4-0.1,0.1c0.4,0.5,0.7,0.7,0.7,0.4C172,44.5,171.7,44.3,171.4,44z M170,96c-1.8,1.8-2.6,2.1-2.6,1
		c0-0.4-0.3-1.7-0.8-2.8c-1.1-3.1-1.3-4.4-0.7-6.7c0.4-1.6,0.4-2.3,0.2-3.3c-0.4-1.6-0.9-1.7-1.5-0.3c-0.4,1-0.5,1-0.5,0.2
		c0-0.5,0.3-1.1,0.7-1.5c0.7-0.6,0.7-0.6,1.3,0.2c0.7,0.8,0.7,1.7,0.1,6.5c-0.1,1.1,0.1,2.2,0.9,4.7l1.1,3.2l1.3-1.6
		c0.7-0.9,1.5-1.6,1.7-1.6C171.9,93.9,171.7,94.2,170,96L170,96z M168.8,119.6c-0.5,1.1-0.9,2-1,1.9c-0.2-0.2,1.2-3.8,1.6-4.2
		C169.9,116.7,169.7,117.4,168.8,119.6z M168.3,123c-0.8,0.6-2.7,4.5-2.3,5c0.1,0.2,0,0.3-0.3,0.2c-0.5-0.2-0.5-0.3,0.9-3.4
		c0.4-1,1.1-1.9,1.4-2c0.3-0.1,0.5-0.3,0.4-0.5c-0.1-0.2,0-0.3,0.3-0.3C169.3,122,169.1,122.5,168.3,123L168.3,123z M164.9,75.5
		c-0.6,1.6-0.9,3.3-1,5.9c-0.2,3.4-0.2,3.5-0.5,1.8c-0.1-1-0.2-2.6,0-3.6c0.2-2,1.3-5.9,1.8-6.5c0.2-0.2,0.2-0.6,0.1-0.9
		c-0.1-0.3,0-0.5,0.2-0.5C166,71.8,165.8,73,164.9,75.5z M164,63.9c-1.1,1.3-1.4,1.3-1.4-0.3c0-1.2,1.6-4.8,1.6-3.6
		c0,0.4,0,0.4,0.3,0c0.2-0.4,0.3,0,0.3,1.2C164.8,62.6,164.6,63.1,164,63.9L164,63.9z M163.5,62c-0.3,0.6-0.6,1.4-0.6,1.7
		c0,0.5,0.1,0.5,0.6-0.2c0.4-0.4,0.6-1.2,0.6-1.7l0-1L163.5,62z"/>
	<path id="path2054" d="M140,75c-0.8,2.2-1.9,3.3-3.8,4.3c-6.6,3.3-13.6-2.4-11.5-9.5c1.1-3.8,3.7-5.8,7.7-5.8c2.4,0,4,0.6,5.6,2.1
		C140,68,141,72.3,140,75z M138.5,67.6c-1.5-2.1-3.4-3.1-6-3.1c-3.7,0-6.9,2.4-7.5,5.5c-0.5,2.9,2.5,5.6,5,4.4
		c0.6-0.3,1.6-1.3,2.2-2.3c1.4-2.2,2.1-2.7,3.5-2.7c1.8,0,3,0.6,3.5,1.9l0.5,1.2l-0.2-1.7C139.6,69.7,139.2,68.6,138.5,67.6
		L138.5,67.6z M129.3,71.2c-0.7,0.3-1.6-0.1-1.6-0.7c0-0.3,0.2-0.7,0.5-0.9c0.4-0.4,0.6-0.4,1.1,0c0.3,0.2,0.5,0.7,0.5,0.9
		C129.8,70.8,129.6,71.1,129.3,71.2z M136.7,73.3c-0.3-0.7-1.5-0.7-1.8,0c-0.1,0.3,0,0.8,0.3,1.1c0.5,0.5,0.7,0.5,1.1,0.1
		C137,74,137,74.1,136.7,73.3L136.7,73.3z M133,89c-2.3,2.6-5.3,3.3-8.1,1.9c-3-1.5-3.7-5.5-1.4-7.8c1.4-1.4,3.8-1.4,5.4,0
		c1,0.9,1.2,1.3,1.2,2.9c0,1.7,0.1,1.9,0.8,2c0.4,0.1,1.3-0.1,1.9-0.3C134.2,87.1,134.3,87.4,133,89L133,89z M132.6,56.5
		c-2.6-0.6-2.6-0.5-2.9,1.8c-0.2,1.7-0.4,2.3-1.2,2.9c-1.9,1.6-3.8,1.5-5.6-0.3c-1-1-1.1-1.2-0.9-3.4c0.1-1.9,0.3-2.5,1.2-3.4
		c1.3-1.4,3-1.9,5-1.6c1.7,0.3,4.1,1.8,5.1,3.3l0.6,0.8L132.6,56.5z M125.5,98c-2,1.9-5.9,2.5-8.1,1.1c-4.1-2.5-3-9.3,1.5-9.3
		c2.9,0,4.7,2.6,3.8,5.6c-0.4,1.3-0.3,1.4,2.4,1.6l1.2,0.1L125.5,98z M124.5,47.2c-1.8-0.2-2.6,0.3-2.1,1.6c0.8,2.2-0.1,4.4-2.4,5.3
		c-1.6,0.7-3.6,0-4.7-1.6c-0.7-1.1-0.8-1.5-0.7-3.2c0.2-1.7,0.4-2.1,1.6-3.3c2.4-2.2,5.9-2.2,8.8,0.1
		C126.3,47.1,126.1,47.4,124.5,47.2L124.5,47.2z M122,77.5c-1.2,3.6-2.7,5.7-7.5,10.1c-4.6,4.1-6,6-6,8.1c0,0.5-0.1,1-0.3,1
		c-0.6,0-4.1-4.1-4.7-5.5c-1.4-3.2-1.2-7,0.7-11.6c1.2-3,1.1-3.2-1.5-2.3c-3.5,1.2-6.6,4.3-7.2,7.3c-0.2,0.9,0,1.6,0.8,3
		c2,3.6,1.1,7.5-1.5,6.9c-1.4-0.3-4.7-2.5-7-4.6c-2-1.8-5.5-6.7-7.2-10.1c-1.2-2.4-3.4-8.8-3.8-11l-0.2-1.4l1.8,2.5
		c1,1.4,2.7,3.8,3.8,5.4c1.1,1.6,2,2.9,2.1,2.9c0.1,0-0.1-1-0.4-2.2c-0.8-3.2-0.8-13.3,0-17.5c0.7-3.7,2.4-9.3,2.7-9
		c0.1,0.1,0.4,2.5,0.6,5.3c0.3,3.2,0.6,5.5,1,6.2c0.4,0.8,0.6,2,0.6,3.9c0,1.5,0.1,4.1,0.2,5.6l0.2,2.8l0.6-3.2
		c0.9-4.5,3.5-12,5.9-17c1.1-2.3,2.1-4.2,2.2-4.2c0.5,0,0.1,14.1-0.5,16.9c-0.3,1.6-0.6,3-0.6,3.2c0,0.2,1.4-2.4,3-5.7
		c3.3-6.5,4.3-8.1,4.8-7.3c0.5,0.8,1.1,5.7,0.9,6.9c-0.1,0.6-0.6,1.8-1.1,2.7l-0.9,1.5l1.5-1.1c0.8-0.6,1.6-1,1.8-0.9
		c0.3,0.2,0.9,2.9,1.1,5l0.1,1.1l0.6-1.3c0.8-1.7,0.8-5.8,0.1-8.7c-1.3-5.1-4-10.2-7.6-14.6l-1.5-1.8l0.9-0.1
		c3-0.4,17,13.4,20.5,20.3C122.7,68.4,123.1,73.9,122,77.5L122,77.5z"/>
</g>
</svg>
