<?xml version="1.0" encoding="UTF-8" standalone="no"?>
<svg
   xmlns:dc="http://purl.org/dc/elements/1.1/"
   xmlns:cc="http://creativecommons.org/ns#"
   xmlns:rdf="http://www.w3.org/1999/02/22-rdf-syntax-ns#"
   xmlns:svg="http://www.w3.org/2000/svg"
   xmlns="http://www.w3.org/2000/svg"
   xmlns:sodipodi="http://sodipodi.sourceforge.net/DTD/sodipodi-0.dtd"
   xmlns:inkscape="http://www.inkscape.org/namespaces/inkscape"
   sodipodi:docname="case_v2.svg"
   inkscape:version="1.0 (4035a4fb49, 2020-05-01)"
   id="svg8"
   version="1.1"
   viewBox="0 0 600 300"
   height="300mm"
   width="600mm">
  <defs
     id="defs2" />
  <sodipodi:namedview
     id="base"
     pagecolor="#ffffff"
     bordercolor="#666666"
     borderopacity="1.0"
     inkscape:pageopacity="0.0"
     inkscape:pageshadow="2"
     inkscape:zoom="0.49497475"
     inkscape:cx="1013.5228"
     inkscape:cy="649.68235"
     inkscape:document-units="mm"
     inkscape:current-layer="svg8"
     inkscape:document-rotation="0"
     showgrid="false"
     inkscape:window-width="1920"
     inkscape:window-height="1059"
     inkscape:window-x="1920"
     inkscape:window-y="21"
     inkscape:window-maximized="0" />
  <metadata
     id="metadata5">
    <rdf:RDF>
      <cc:Work
         rdf:about="">
        <dc:format>image/svg+xml</dc:format>
        <dc:type
           rdf:resource="http://purl.org/dc/dcmitype/StillImage" />
        <dc:title />
      </cc:Work>
    </rdf:RDF>
  </metadata>
  <g
     inkscape:label="Layer 1"
     inkscape:groupmode="layer"
     id="layer1" />
  <title
     id="title1267">Console</title>
  <metadata
     id="metadata1269">
    <rdf:RDF>
      <cc:Work>
        <dc:title>Box - Console</dc:title>
        <dc:date>2020-09-30 00:01:37</dc:date>
        <dc:source>boxes Console --x=100 --y=100 --h=100 --outside=false --front_height=30 --angle=50 --thickness=3 --tabs=0 --debug=false --reference=100 --burn=0.10000000149011612 --FingerJoint_angle=90 --FingerJoint_style=rectangular --FingerJoint_surroundingspaces=0.5 --FingerJoint_edge_width=1 --FingerJoint_finger=2 --FingerJoint_play=0 --FingerJoint_space=2 --FingerJoint_width=1 --Stackable_angle=60 --Stackable_height=2 --Stackable_holedistance=1 --Stackable_width=4</dc:source>
        <dc:description>Console with slanted panel

Created with Boxes.py (https://festi.info/boxes.py)
Command line: boxes Console --x=100 --y=100 --h=100 --outside=false --front_height=30 --angle=50 --thickness=3 --tabs=0 --debug=false --reference=100 --burn=0.10000000149011612 --FingerJoint_angle=90 --FingerJoint_style=rectangular --FingerJoint_surroundingspaces=0.5 --FingerJoint_edge_width=1 --FingerJoint_finger=2 --FingerJoint_play=0 --FingerJoint_space=2 --FingerJoint_width=1 --Stackable_angle=60 --Stackable_height=2 --Stackable_holedistance=1 --Stackable_width=4
</dc:description>
      </cc:Work>
    </rdf:RDF>
  </metadata>
  <title
     id="title1804">CardBox</title>
  <metadata
     id="metadata1806">
    <rdf:RDF>
      <cc:Work>
        <dc:title>Box - CardBox</dc:title>
        <dc:date>2020-09-30 00:48:30</dc:date>
        <dc:source>boxes CardBox --h=30 --cardwidth=65 --cardheight=90 --num=2 --thickness=3 --tabs=0 --debug=false --reference=100 --burn=0.10000000149011612 --FingerJoint_angle=90 --FingerJoint_style=rectangular --FingerJoint_surroundingspaces=2 --FingerJoint_edge_width=1 --FingerJoint_finger=2 --FingerJoint_play=0 --FingerJoint_space=2 --FingerJoint_width=1</dc:source>
        <dc:description>Box for storage of playing cards


#### Building instructions

Place inner walls on floor first (if any). Then add the outer walls. Glue the two walls without finger joins to the inside of the side walls. Make sure there is no squeeze out on top, as this is going to form the rail for the lid.

Add the top of the rails to the sides and the grip rail to the lid (still missing in the picture above):

![Details](static/samples/CardBox-detail.jpg)


Created with Boxes.py (https://festi.info/boxes.py)
Command line: boxes CardBox --h=30 --cardwidth=65 --cardheight=90 --num=2 --thickness=3 --tabs=0 --debug=false --reference=100 --burn=0.10000000149011612 --FingerJoint_angle=90 --FingerJoint_style=rectangular --FingerJoint_surroundingspaces=2 --FingerJoint_edge_width=1 --FingerJoint_finger=2 --FingerJoint_play=0 --FingerJoint_space=2 --FingerJoint_width=1
</dc:description>
      </cc:Work>
    </rdf:RDF>
  </metadata>
  <title
     id="title1949">ShutterBox</title>
  <metadata
     id="metadata1951">
    <rdf:RDF>
      <cc:Work>
        <dc:title>FlexBox - ShutterBox</dc:title>
        <dc:date>2020-09-30 01:13:11</dc:date>
        <dc:source>boxes ShutterBox --x=150 --y=100 --h=100 --radius=40 --style=single --thickness=3 --tabs=0 --debug=false --reference=100 --burn=0.10000000149011612 --FingerJoint_angle=90 --FingerJoint_style=rectangular --FingerJoint_surroundingspaces=0.5 --FingerJoint_edge_width=1 --FingerJoint_finger=2 --FingerJoint_play=0 --FingerJoint_space=2 --FingerJoint_width=1 --Flex_stretch=1.0499999523162842 --Flex_connection=2 --Flex_distance=0.75 --Flex_width=5</dc:source>
        <dc:description>Box with a rolling shutter made of flex

Beware of the rolling shutter effect! Use wax on sliding surfaces.

Created with Boxes.py (https://festi.info/boxes.py)
Command line: boxes ShutterBox --x=150 --y=100 --h=100 --radius=40 --style=single --thickness=3 --tabs=0 --debug=false --reference=100 --burn=0.10000000149011612 --FingerJoint_angle=90 --FingerJoint_style=rectangular --FingerJoint_surroundingspaces=0.5 --FingerJoint_edge_width=1 --FingerJoint_finger=2 --FingerJoint_play=0 --FingerJoint_space=2 --FingerJoint_width=1 --Flex_stretch=1.0499999523162842 --Flex_connection=2 --Flex_distance=0.75 --Flex_width=5
</dc:description>
      </cc:Work>
    </rdf:RDF>
  </metadata>
  <title
     id="title2695">CardBox</title>
  <metadata
     id="metadata2697">
    <rdf:RDF>
      <cc:Work>
        <dc:title>Box - CardBox</dc:title>
        <dc:date>2020-09-30 01:21:35</dc:date>
        <dc:source>boxes CardBox --h=30 --cardwidth=65 --cardheight=90 --num=4 --thickness=3 --tabs=0 --debug=false --reference=100 --burn=0.0099999997764825821 --FingerJoint_angle=90 --FingerJoint_style=rectangular --FingerJoint_surroundingspaces=2 --FingerJoint_edge_width=1 --FingerJoint_finger=2 --FingerJoint_play=0 --FingerJoint_space=2 --FingerJoint_width=1</dc:source>
        <dc:description>Box for storage of playing cards


#### Building instructions

Place inner walls on floor first (if any). Then add the outer walls. Glue the two walls without finger joins to the inside of the side walls. Make sure there is no squeeze out on top, as this is going to form the rail for the lid.

Add the top of the rails to the sides and the grip rail to the lid (still missing in the picture above):

![Details](static/samples/CardBox-detail.jpg)


Created with Boxes.py (https://festi.info/boxes.py)
Command line: boxes CardBox --h=30 --cardwidth=65 --cardheight=90 --num=4 --thickness=3 --tabs=0 --debug=false --reference=100 --burn=0.0099999997764825821 --FingerJoint_angle=90 --FingerJoint_style=rectangular --FingerJoint_surroundingspaces=2 --FingerJoint_edge_width=1 --FingerJoint_finger=2 --FingerJoint_play=0 --FingerJoint_space=2 --FingerJoint_width=1
</dc:description>
      </cc:Work>
    </rdf:RDF>
  </metadata>
  <g
     id="g2703"
     style="fill:none;stroke:#ff0000;stroke-linecap:round;stroke-linejoin:round;stroke-opacity:1;stroke-width:0.1;stroke-miterlimit:4;stroke-dasharray:none"
     transform="translate(-6.3410922,36.74972)">
    <path
       style="stroke:#ff0000;stroke-opacity:1;stroke-width:0.1;stroke-miterlimit:4;stroke-dasharray:none"
       d="m 10.01,260.1 h 100 v -10 h -100 z"
       stroke="rgb(0,0,0)"
       stroke-width="0.05"
       id="path2699" />
  </g>
  <g
     id="g2707"
     style="fill:none;stroke:#ff0000;stroke-linecap:round;stroke-linejoin:round;stroke-opacity:1;stroke-width:0.1;stroke-miterlimit:4;stroke-dasharray:none"
     transform="translate(-6.3410922,36.74972)">
    <path
       style="stroke:#ff0000;stroke-opacity:1;stroke-width:0.1;stroke-miterlimit:4;stroke-dasharray:none"
       d="m 10.01,248.58 h 8.2 c 0.006,0 0.01,-0.004 0.01,-0.01 v -2.99 c 0,-0.01 -0.01,0 0,0 h 5.98 c 0.01,0 0,-0.01 0,0 v 2.99 c 0,0.006 0.004,0.01 0.01,0.01 h 6 c 0.006,0 0.01,-0.004 0.01,-0.01 v -2.99 c 0,-0.01 -0.01,0 0,0 h 5.98 c 0.01,0 0,-0.01 0,0 v 2.99 c 0,0.006 0.004,0.01 0.01,0.01 h 6 c 0.006,0 0.01,-0.004 0.01,-0.01 v -2.99 c 0,-0.01 -0.01,0 0,0 h 5.98 c 0.01,0 0,-0.01 0,0 v 2.99 c 0,0.006 0.004,0.01 0.01,0.01 h 6 c 0.006,0 0.01,-0.004 0.01,-0.01 v -2.99 c 0,-0.01 -0.01,0 0,0 h 5.98 c 0.01,0 0,-0.01 0,0 v 2.99 c 0,0.006 0.004,0.01 0.01,0.01 h 6 c 0.006,0 0.01,-0.004 0.01,-0.01 v -2.99 c 0,-0.01 -0.01,0 0,0 h 5.98 c 0.01,0 0,-0.01 0,0 v 2.99 c 0,0.006 0.004,0.01 0.01,0.01 h 6 c 0.006,0 0.01,-0.004 0.01,-0.01 v -2.99 c 0,-0.01 -0.01,0 0,0 h 5.98 c 0.01,0 0,-0.01 0,0 v 2.99 c 0,0.006 0.004,0.01 0.01,0.01 h 6 c 0.006,0 0.01,-0.004 0.01,-0.01 v -2.99 c 0,-0.01 -0.01,0 0,0 h 5.98 c 0.01,0 0,-0.01 0,0 v 2.99 c 0,0.006 0.004,0.01 0.01,0.01 h 6 c 0.006,0 0.01,-0.004 0.01,-0.01 v -2.99 c 0,-0.01 -0.01,0 0,0 h 5.98 c 0.01,0 0,-0.01 0,0 v 2.99 c 0,0.006 0.004,0.01 0.01,0.01 h 6 c 0.006,0 0.01,-0.004 0.01,-0.01 v -2.99 c 0,-0.01 -0.01,0 0,0 h 5.98 c 0.01,0 0,-0.01 0,0 v 2.99 c 0,0.006 0.004,0.01 0.01,0.01 h 6 c 0.006,0 0.01,-0.004 0.01,-0.01 v -2.99 c 0,-0.01 -0.01,0 0,0 h 5.98 c 0.01,0 0,-0.01 0,0 v 2.99 c 0,0.006 0.004,0.01 0.01,0.01 h 6 c 0.006,0 0.01,-0.004 0.01,-0.01 v -2.99 c 0,-0.01 -0.01,0 0,0 h 5.98 c 0.01,0 0,-0.01 0,0 v 2.99 c 0,0.006 0.004,0.01 0.01,0.01 h 6 c 0.006,0 0.01,-0.004 0.01,-0.01 v -2.99 c 0,-0.01 -0.01,0 0,0 h 5.98 c 0.01,0 0,-0.01 0,0 v 2.99 c 0,0.006 0.004,0.01 0.01,0.01 h 6 c 0.006,0 0.01,-0.004 0.01,-0.01 v -2.99 c 0,-0.01 -0.01,0 0,0 h 5.98 c 0.01,0 0,-0.01 0,0 v 2.99 c 0,0.006 0.004,0.01 0.01,0.01 h 6 c 0.006,0 0.01,-0.004 0.01,-0.01 v -2.99 c 0,-0.01 -0.01,0 0,0 h 5.98 c 0.01,0 0,-0.01 0,0 v 2.99 c 0,0.006 0.004,0.01 0.01,0.01 h 6 c 0.006,0 0.01,-0.004 0.01,-0.01 v -2.99 c 0,-0.01 -0.01,0 0,0 h 5.98 c 0.01,0 0,-0.01 0,0 v 2.99 c 0,0.006 0.004,0.01 0.01,0.01 h 6 c 0.006,0 0.01,-0.004 0.01,-0.01 v -2.99 c 0,-0.01 -0.01,0 0,0 h 5.98 c 0.01,0 0,-0.01 0,0 v 2.99 c 0,0.006 0.004,0.01 0.01,0.01 h 6 c 0.006,0 0.01,-0.004 0.01,-0.01 v -2.99 c 0,-0.01 -0.01,0 0,0 h 5.98 c 0.01,0 0,-0.01 0,0 v 2.99 c 0,0.006 0.004,0.01 0.01,0.01 h 6 c 0.006,0 0.01,-0.004 0.01,-0.01 v -2.99 c 0,-0.01 -0.01,0 0,0 h 5.98 c 0.01,0 0,-0.01 0,0 v 2.99 c 0,0.006 0.004,0.01 0.01,0.01 h 6 c 0.006,0 0.01,-0.004 0.01,-0.01 v -2.99 c 0,-0.01 -0.01,0 0,0 h 5.98 c 0.01,0 0,-0.01 0,0 v 2.99 c 0,0.006 0.004,0.01 0.01,0.01 h 6 c 0.006,0 0.01,-0.004 0.01,-0.01 v -2.99 c 0,-0.01 -0.01,0 0,0 h 5.98 c 0.01,0 0,-0.01 0,0 v 2.99 c 0,0.006 0.004,0.01 0.01,0.01 h 6 c 0.006,0 0.01,-0.004 0.01,-0.01 v -2.99 c 0,-0.01 -0.01,0 0,0 h 5.98 c 0.01,0 0,-0.01 0,0 v 2.99 c 0,0.006 0.004,0.01 0.01,0.01 h 6 c 0.006,0 0.01,-0.004 0.01,-0.01 v -2.99 c 0,-0.01 -0.01,0 0,0 h 5.98 c 0.01,0 0,-0.01 0,0 v 2.99 c 0,0.006 0.004,0.01 0.01,0.01 h 8.2 c 0.006,0 0.01,-0.004 0.01,-0.01 v -3 -90 c 0,-0.006 -0.004,-0.01 -0.01,-0.01 H 10.01 c -0.006,0 -0.01,0.004 -0.01,0.01 v 90 3 c 0,0.006 0.004,0.01 0.01,0.01 z"
       stroke="rgb(0,0,0)"
       stroke-width="0.05"
       id="path2705" />
  </g>
  <g
     id="g2753"
     style="fill:none;stroke:#ff0000;stroke-linecap:round;stroke-linejoin:round;stroke-opacity:1;stroke-width:0.1;stroke-miterlimit:4;stroke-dasharray:none"
     transform="translate(-6.3410922,36.74972)">
    <path
       style="stroke:#ff0000;stroke-opacity:1;stroke-width:0.1;stroke-miterlimit:4;stroke-dasharray:none"
       d="m 359.92,236.57 v 2.99 c 0,0.01 0.01,0 0,0 h -2.98 c -0.01,0 0,0.01 0,0 v -5.98 c 0,-0.01 -0.01,0 0,0 h 2.98 c 0.01,0 0,-0.01 0,0 z"
       stroke="rgb(0,0,255)"
       stroke-width="0.05"
       id="path2709" />
    <path
       style="stroke:#ff0000;stroke-opacity:1;stroke-width:0.1;stroke-miterlimit:4;stroke-dasharray:none"
       d="m 359.92,224.57 v 2.99 c 0,0.01 0.01,0 0,0 h -2.98 c -0.01,0 0,0.01 0,0 v -5.98 c 0,-0.01 -0.01,0 0,0 h 2.98 c 0.01,0 0,-0.01 0,0 z"
       stroke="rgb(0,0,255)"
       stroke-width="0.05"
       id="path2711" />
    <path
       style="stroke:#ff0000;stroke-opacity:1;stroke-width:0.1;stroke-miterlimit:4;stroke-dasharray:none"
       d="m 359.92,212.57 v 2.99 c 0,0.01 0.01,0 0,0 h -2.98 c -0.01,0 0,0.01 0,0 v -5.98 c 0,-0.01 -0.01,0 0,0 h 2.98 c 0.01,0 0,-0.01 0,0 z"
       stroke="rgb(0,0,255)"
       stroke-width="0.05"
       id="path2713" />
    <path
       style="stroke:#ff0000;stroke-opacity:1;stroke-width:0.1;stroke-miterlimit:4;stroke-dasharray:none"
       d="m 359.92,200.57 v 2.99 c 0,0.01 0.01,0 0,0 h -2.98 c -0.01,0 0,0.01 0,0 v -5.98 c 0,-0.01 -0.01,0 0,0 h 2.98 c 0.01,0 0,-0.01 0,0 z"
       stroke="rgb(0,0,255)"
       stroke-width="0.05"
       id="path2715" />
    <path
       style="stroke:#ff0000;stroke-opacity:1;stroke-width:0.1;stroke-miterlimit:4;stroke-dasharray:none"
       d="m 359.92,188.57 v 2.99 c 0,0.01 0.01,0 0,0 h -2.98 c -0.01,0 0,0.01 0,0 v -5.98 c 0,-0.01 -0.01,0 0,0 h 2.98 c 0.01,0 0,-0.01 0,0 z"
       stroke="rgb(0,0,255)"
       stroke-width="0.05"
       id="path2717" />
    <path
       style="stroke:#ff0000;stroke-opacity:1;stroke-width:0.1;stroke-miterlimit:4;stroke-dasharray:none"
       d="m 359.92,176.57 v 2.99 c 0,0.01 0.01,0 0,0 h -2.98 c -0.01,0 0,0.01 0,0 v -5.98 c 0,-0.01 -0.01,0 0,0 h 2.98 c 0.01,0 0,-0.01 0,0 z"
       stroke="rgb(0,0,255)"
       stroke-width="0.05"
       id="path2719" />
    <path
       style="stroke:#ff0000;stroke-opacity:1;stroke-width:0.1;stroke-miterlimit:4;stroke-dasharray:none"
       d="m 359.92,164.57 v 2.99 c 0,0.01 0.01,0 0,0 h -2.98 c -0.01,0 0,0.01 0,0 v -5.98 c 0,-0.01 -0.01,0 0,0 h 2.98 c 0.01,0 0,-0.01 0,0 z"
       stroke="rgb(0,0,255)"
       stroke-width="0.05"
       id="path2721" />
    <path
       style="stroke:#ff0000;stroke-opacity:1;stroke-width:0.1;stroke-miterlimit:4;stroke-dasharray:none"
       d="m 427.92,236.57 v 2.99 c 0,0.01 0.01,0 0,0 h -2.98 c -0.01,0 0,0.01 0,0 v -5.98 c 0,-0.01 -0.01,0 0,0 h 2.98 c 0.01,0 0,-0.01 0,0 z"
       stroke="rgb(0,0,255)"
       stroke-width="0.05"
       id="path2723" />
    <path
       style="stroke:#ff0000;stroke-opacity:1;stroke-width:0.1;stroke-miterlimit:4;stroke-dasharray:none"
       d="m 427.92,224.57 v 2.99 c 0,0.01 0.01,0 0,0 h -2.98 c -0.01,0 0,0.01 0,0 v -5.98 c 0,-0.01 -0.01,0 0,0 h 2.98 c 0.01,0 0,-0.01 0,0 z"
       stroke="rgb(0,0,255)"
       stroke-width="0.05"
       id="path2725" />
    <path
       style="stroke:#ff0000;stroke-opacity:1;stroke-width:0.1;stroke-miterlimit:4;stroke-dasharray:none"
       d="m 427.92,212.57 v 2.99 c 0,0.01 0.01,0 0,0 h -2.98 c -0.01,0 0,0.01 0,0 v -5.98 c 0,-0.01 -0.01,0 0,0 h 2.98 c 0.01,0 0,-0.01 0,0 z"
       stroke="rgb(0,0,255)"
       stroke-width="0.05"
       id="path2727" />
    <path
       style="stroke:#ff0000;stroke-opacity:1;stroke-width:0.1;stroke-miterlimit:4;stroke-dasharray:none"
       d="m 427.92,200.57 v 2.99 c 0,0.01 0.01,0 0,0 h -2.98 c -0.01,0 0,0.01 0,0 v -5.98 c 0,-0.01 -0.01,0 0,0 h 2.98 c 0.01,0 0,-0.01 0,0 z"
       stroke="rgb(0,0,255)"
       stroke-width="0.05"
       id="path2729" />
    <path
       style="stroke:#ff0000;stroke-opacity:1;stroke-width:0.1;stroke-miterlimit:4;stroke-dasharray:none"
       d="m 427.92,188.57 v 2.99 c 0,0.01 0.01,0 0,0 h -2.98 c -0.01,0 0,0.01 0,0 v -5.98 c 0,-0.01 -0.01,0 0,0 h 2.98 c 0.01,0 0,-0.01 0,0 z"
       stroke="rgb(0,0,255)"
       stroke-width="0.05"
       id="path2731" />
    <path
       style="stroke:#ff0000;stroke-opacity:1;stroke-width:0.1;stroke-miterlimit:4;stroke-dasharray:none"
       d="m 427.92,176.57 v 2.99 c 0,0.01 0.01,0 0,0 h -2.98 c -0.01,0 0,0.01 0,0 v -5.98 c 0,-0.01 -0.01,0 0,0 h 2.98 c 0.01,0 0,-0.01 0,0 z"
       stroke="rgb(0,0,255)"
       stroke-width="0.05"
       id="path2733" />
    <path
       style="stroke:#ff0000;stroke-opacity:1;stroke-width:0.1;stroke-miterlimit:4;stroke-dasharray:none"
       d="m 427.92,164.57 v 2.99 c 0,0.01 0.01,0 0,0 h -2.98 c -0.01,0 0,0.01 0,0 v -5.98 c 0,-0.01 -0.01,0 0,0 h 2.98 c 0.01,0 0,-0.01 0,0 z"
       stroke="rgb(0,0,255)"
       stroke-width="0.05"
       id="path2735" />
    <path
       style="stroke:#ff0000;stroke-opacity:1;stroke-width:0.1;stroke-miterlimit:4;stroke-dasharray:none"
       d="m 495.92,236.57 v 2.99 c 0,0.01 0.01,0 0,0 h -2.98 c -0.01,0 0,0.01 0,0 v -5.98 c 0,-0.01 -0.01,0 0,0 h 2.98 c 0.01,0 0,-0.01 0,0 z"
       stroke="rgb(0,0,255)"
       stroke-width="0.05"
       id="path2737" />
    <path
       style="stroke:#ff0000;stroke-opacity:1;stroke-width:0.1;stroke-miterlimit:4;stroke-dasharray:none"
       d="m 495.92,224.57 v 2.99 c 0,0.01 0.01,0 0,0 h -2.98 c -0.01,0 0,0.01 0,0 v -5.98 c 0,-0.01 -0.01,0 0,0 h 2.98 c 0.01,0 0,-0.01 0,0 z"
       stroke="rgb(0,0,255)"
       stroke-width="0.05"
       id="path2739" />
    <path
       style="stroke:#ff0000;stroke-opacity:1;stroke-width:0.1;stroke-miterlimit:4;stroke-dasharray:none"
       d="m 495.92,212.57 v 2.99 c 0,0.01 0.01,0 0,0 h -2.98 c -0.01,0 0,0.01 0,0 v -5.98 c 0,-0.01 -0.01,0 0,0 h 2.98 c 0.01,0 0,-0.01 0,0 z"
       stroke="rgb(0,0,255)"
       stroke-width="0.05"
       id="path2741" />
    <path
       style="stroke:#ff0000;stroke-opacity:1;stroke-width:0.1;stroke-miterlimit:4;stroke-dasharray:none"
       d="m 495.92,200.57 v 2.99 c 0,0.01 0.01,0 0,0 h -2.98 c -0.01,0 0,0.01 0,0 v -5.98 c 0,-0.01 -0.01,0 0,0 h 2.98 c 0.01,0 0,-0.01 0,0 z"
       stroke="rgb(0,0,255)"
       stroke-width="0.05"
       id="path2743" />
    <path
       style="stroke:#ff0000;stroke-opacity:1;stroke-width:0.1;stroke-miterlimit:4;stroke-dasharray:none"
       d="m 495.92,188.57 v 2.99 c 0,0.01 0.01,0 0,0 h -2.98 c -0.01,0 0,0.01 0,0 v -5.98 c 0,-0.01 -0.01,0 0,0 h 2.98 c 0.01,0 0,-0.01 0,0 z"
       stroke="rgb(0,0,255)"
       stroke-width="0.05"
       id="path2745" />
    <path
       style="stroke:#ff0000;stroke-opacity:1;stroke-width:0.1;stroke-miterlimit:4;stroke-dasharray:none"
       d="m 495.92,176.57 v 2.99 c 0,0.01 0.01,0 0,0 h -2.98 c -0.01,0 0,0.01 0,0 v -5.98 c 0,-0.01 -0.01,0 0,0 h 2.98 c 0.01,0 0,-0.01 0,0 z"
       stroke="rgb(0,0,255)"
       stroke-width="0.05"
       id="path2747" />
    <path
       style="stroke:#ff0000;stroke-opacity:1;stroke-width:0.1;stroke-miterlimit:4;stroke-dasharray:none"
       d="m 495.92,164.57 v 2.99 c 0,0.01 0.01,0 0,0 h -2.98 c -0.01,0 0,0.01 0,0 v -5.98 c 0,-0.01 -0.01,0 0,0 h 2.98 c 0.01,0 0,-0.01 0,0 z"
       stroke="rgb(0,0,255)"
       stroke-width="0.05"
       id="path2749" />
    <path
       style="stroke:#ff0000;stroke-opacity:1;stroke-width:0.1;stroke-miterlimit:4;stroke-dasharray:none"
       d="m 288.93,245.58 h 8.49 c 0.01,0 0,-0.01 0,0 v 2.99 c 0,0.006 0.004,0.01 0.01,0.01 h 6 c 0.006,0 0.01,-0.004 0.01,-0.01 v -2.99 c 0,-0.01 -0.01,0 0,0 h 5.98 c 0.01,0 0,-0.01 0,0 v 2.99 c 0,0.006 0.004,0.01 0.01,0.01 h 6 c 0.006,0 0.01,-0.004 0.01,-0.01 v -2.99 c 0,-0.01 -0.01,0 0,0 h 5.98 c 0.01,0 0,-0.01 0,0 v 2.99 c 0,0.006 0.004,0.01 0.01,0.01 h 6 c 0.006,0 0.01,-0.004 0.01,-0.01 v -2.99 c 0,-0.01 -0.01,0 0,0 h 5.98 c 0.01,0 0,-0.01 0,0 v 2.99 c 0,0.006 0.004,0.01 0.01,0.01 h 6 c 0.006,0 0.01,-0.004 0.01,-0.01 v -2.99 c 0,-0.01 -0.01,0 0,0 h 5.98 c 0.01,0 0,-0.01 0,0 v 2.99 c 0,0.006 0.004,0.01 0.01,0.01 h 6 c 0.006,0 0.01,-0.004 0.01,-0.01 v -2.99 c 0,-0.01 -0.01,0 0,0 h 5.98 c 0.01,0 0,-0.01 0,0 v 2.99 c 0,0.006 0.004,0.01 0.01,0.01 h 6 c 0.006,0 0.01,-0.004 0.01,-0.01 v -2.99 c 0,-0.01 -0.01,0 0,0 h 5.98 c 0.01,0 0,-0.01 0,0 v 2.99 c 0,0.006 0.004,0.01 0.01,0.01 h 6 c 0.006,0 0.01,-0.004 0.01,-0.01 v -2.99 c 0,-0.01 -0.01,0 0,0 h 5.98 c 0.01,0 0,-0.01 0,0 v 2.99 c 0,0.006 0.004,0.01 0.01,0.01 h 6 c 0.006,0 0.01,-0.004 0.01,-0.01 v -2.99 c 0,-0.01 -0.01,0 0,0 h 5.98 c 0.01,0 0,-0.01 0,0 v 2.99 c 0,0.006 0.004,0.01 0.01,0.01 h 6 c 0.006,0 0.01,-0.004 0.01,-0.01 v -2.99 c 0,-0.01 -0.01,0 0,0 h 5.98 c 0.01,0 0,-0.01 0,0 v 2.99 c 0,0.006 0.004,0.01 0.01,0.01 h 6 c 0.006,0 0.01,-0.004 0.01,-0.01 v -2.99 c 0,-0.01 -0.01,0 0,0 h 5.98 c 0.01,0 0,-0.01 0,0 v 2.99 c 0,0.006 0.004,0.01 0.01,0.01 h 6 c 0.006,0 0.01,-0.004 0.01,-0.01 v -2.99 c 0,-0.01 -0.01,0 0,0 h 5.98 c 0.01,0 0,-0.01 0,0 v 2.99 c 0,0.006 0.004,0.01 0.01,0.01 h 6 c 0.006,0 0.01,-0.004 0.01,-0.01 v -2.99 c 0,-0.01 -0.01,0 0,0 h 5.98 c 0.01,0 0,-0.01 0,0 v 2.99 c 0,0.006 0.004,0.01 0.01,0.01 h 6 c 0.006,0 0.01,-0.004 0.01,-0.01 v -2.99 c 0,-0.01 -0.01,0 0,0 h 5.98 c 0.01,0 0,-0.01 0,0 v 2.99 c 0,0.006 0.004,0.01 0.01,0.01 h 6 c 0.006,0 0.01,-0.004 0.01,-0.01 v -2.99 c 0,-0.01 -0.01,0 0,0 h 5.98 c 0.01,0 0,-0.01 0,0 v 2.99 c 0,0.006 0.004,0.01 0.01,0.01 h 6 c 0.006,0 0.01,-0.004 0.01,-0.01 v -2.99 c 0,-0.01 -0.01,0 0,0 h 5.98 c 0.01,0 0,-0.01 0,0 v 2.99 c 0,0.006 0.004,0.01 0.01,0.01 h 6 c 0.006,0 0.01,-0.004 0.01,-0.01 v -2.99 c 0,-0.01 -0.01,0 0,0 h 5.98 c 0.01,0 0,-0.01 0,0 v 2.99 c 0,0.006 0.004,0.01 0.01,0.01 h 6 c 0.006,0 0.01,-0.004 0.01,-0.01 v -2.99 c 0,-0.01 -0.01,0 0,0 h 5.98 c 0.01,0 0,-0.01 0,0 v 2.99 c 0,0.006 0.004,0.01 0.01,0.01 h 6 c 0.006,0 0.01,-0.004 0.01,-0.01 v -2.99 c 0,-0.01 -0.01,0 0,0 h 5.98 c 0.01,0 0,-0.01 0,0 v 2.99 c 0,0.006 0.004,0.01 0.01,0.01 h 6 c 0.006,0 0.01,-0.004 0.01,-0.01 v -2.99 c 0,-0.01 -0.01,0 0,0 h 5.98 c 0.01,0 0,-0.01 0,0 v 2.99 c 0,0.006 0.004,0.01 0.01,0.01 h 6 c 0.006,0 0.01,-0.004 0.01,-0.01 v -2.99 c 0,-0.01 -0.01,0 0,0 h 5.98 c 0.01,0 0,-0.01 0,0 v 2.99 c 0,0.006 0.004,0.01 0.01,0.01 h 6 c 0.006,0 0.01,-0.004 0.01,-0.01 v -2.99 c 0,-0.01 -0.01,0 0,0 h 5.98 c 0.01,0 0,-0.01 0,0 v 2.99 c 0,0.006 0.004,0.01 0.01,0.01 h 6 c 0.006,0 0.01,-0.004 0.01,-0.01 v -2.99 c 0,-0.01 -0.01,0 0,0 h 8.49 c 0.006,0 0.01,-0.004 0.01,-0.01 v -5.99 c 0,-0.01 -0.01,0 0,0 h 2.99 c 0.006,0 0.01,-0.004 0.01,-0.01 v -6 c 0,-0.006 -0.004,-0.01 -0.01,-0.01 h -2.99 c -0.01,0 0,0.01 0,0 v -5.98 c 0,-0.01 -0.01,0 0,0 h 2.99 c 0.006,0 0.01,-0.004 0.01,-0.01 v -6 c 0,-0.006 -0.004,-0.01 -0.01,-0.01 h -2.99 c -0.01,0 0,0.01 0,0 v -5.98 c 0,-0.01 -0.01,0 0,0 h 2.99 c 0.006,0 0.01,-0.004 0.01,-0.01 v -6 c 0,-0.006 -0.004,-0.01 -0.01,-0.01 h -2.99 c -0.01,0 0,0.01 0,0 v -5.98 c 0,-0.01 -0.01,0 0,0 h 2.99 c 0.006,0 0.01,-0.004 0.01,-0.01 v -6 c 0,-0.006 -0.004,-0.01 -0.01,-0.01 h -2.99 c -0.01,0 0,0.01 0,0 v -5.98 c 0,-0.01 -0.01,0 0,0 h 2.99 c 0.006,0 0.01,-0.004 0.01,-0.01 v -6 c 0,-0.006 -0.004,-0.01 -0.01,-0.01 h -2.99 c -0.01,0 0,0.01 0,0 v -5.98 c 0,-0.01 -0.01,0 0,0 h 2.99 c 0.006,0 0.01,-0.004 0.01,-0.01 v -6 c 0,-0.006 -0.004,-0.01 -0.01,-0.01 h -2.99 c -0.01,0 0,0.01 0,0 v -5.98 c 0,-0.01 -0.01,0 0,0 h 2.99 c 0.006,0 0.01,-0.004 0.01,-0.01 v -6 c 0,-0.006 -0.004,-0.01 -0.01,-0.01 h -2.99 c -0.01,0 0,0.01 0,0 v -5.99 c 0,-0.006 -0.004,-0.01 -0.01,-0.01 h -8.49 c -0.01,0 0,0.01 0,0 v -2.99 c 0,-0.006 -0.004,-0.01 -0.01,-0.01 h -6 c -0.006,0 -0.01,0.004 -0.01,0.01 v 2.99 c 0,0.01 0.01,0 0,0 h -5.98 c -0.01,0 0,0.01 0,0 v -2.99 c 0,-0.006 -0.004,-0.01 -0.01,-0.01 h -6 c -0.006,0 -0.01,0.004 -0.01,0.01 v 2.99 c 0,0.01 0.01,0 0,0 h -5.98 c -0.01,0 0,0.01 0,0 v -2.99 c 0,-0.006 -0.004,-0.01 -0.01,-0.01 h -6 c -0.006,0 -0.01,0.004 -0.01,0.01 v 2.99 c 0,0.01 0.01,0 0,0 h -5.98 c -0.01,0 0,0.01 0,0 v -2.99 c 0,-0.006 -0.004,-0.01 -0.01,-0.01 h -6 c -0.006,0 -0.01,0.004 -0.01,0.01 v 2.99 c 0,0.01 0.01,0 0,0 h -5.98 c -0.01,0 0,0.01 0,0 v -2.99 c 0,-0.006 -0.004,-0.01 -0.01,-0.01 h -6 c -0.006,0 -0.01,0.004 -0.01,0.01 v 2.99 c 0,0.01 0.01,0 0,0 h -5.98 c -0.01,0 0,0.01 0,0 v -2.99 c 0,-0.006 -0.004,-0.01 -0.01,-0.01 h -6 c -0.006,0 -0.01,0.004 -0.01,0.01 v 2.99 c 0,0.01 0.01,0 0,0 h -5.98 c -0.01,0 0,0.01 0,0 v -2.99 c 0,-0.006 -0.004,-0.01 -0.01,-0.01 h -6 c -0.006,0 -0.01,0.004 -0.01,0.01 v 2.99 c 0,0.01 0.01,0 0,0 h -5.98 c -0.01,0 0,0.01 0,0 v -2.99 c 0,-0.006 -0.004,-0.01 -0.01,-0.01 h -6 c -0.006,0 -0.01,0.004 -0.01,0.01 v 2.99 c 0,0.01 0.01,0 0,0 h -5.98 c -0.01,0 0,0.01 0,0 v -2.99 c 0,-0.006 -0.004,-0.01 -0.01,-0.01 h -6 c -0.006,0 -0.01,0.004 -0.01,0.01 v 2.99 c 0,0.01 0.01,0 0,0 h -5.98 c -0.01,0 0,0.01 0,0 v -2.99 c 0,-0.006 -0.004,-0.01 -0.01,-0.01 h -6 c -0.006,0 -0.01,0.004 -0.01,0.01 v 2.99 c 0,0.01 0.01,0 0,0 h -5.98 c -0.01,0 0,0.01 0,0 v -2.99 c 0,-0.006 -0.004,-0.01 -0.01,-0.01 h -6 c -0.006,0 -0.01,0.004 -0.01,0.01 v 2.99 c 0,0.01 0.01,0 0,0 h -5.98 c -0.01,0 0,0.01 0,0 v -2.99 c 0,-0.006 -0.004,-0.01 -0.01,-0.01 h -6 c -0.006,0 -0.01,0.004 -0.01,0.01 v 2.99 c 0,0.01 0.01,0 0,0 h -5.98 c -0.01,0 0,0.01 0,0 v -2.99 c 0,-0.006 -0.004,-0.01 -0.01,-0.01 h -6 c -0.006,0 -0.01,0.004 -0.01,0.01 v 2.99 c 0,0.01 0.01,0 0,0 h -5.98 c -0.01,0 0,0.01 0,0 v -2.99 c 0,-0.006 -0.004,-0.01 -0.01,-0.01 h -6 c -0.006,0 -0.01,0.004 -0.01,0.01 v 2.99 c 0,0.01 0.01,0 0,0 h -5.98 c -0.01,0 0,0.01 0,0 v -2.99 c 0,-0.006 -0.004,-0.01 -0.01,-0.01 h -6 c -0.006,0 -0.01,0.004 -0.01,0.01 v 2.99 c 0,0.01 0.01,0 0,0 h -5.98 c -0.01,0 0,0.01 0,0 v -2.99 c 0,-0.006 -0.004,-0.01 -0.01,-0.01 h -6 c -0.006,0 -0.01,0.004 -0.01,0.01 v 2.99 c 0,0.01 0.01,0 0,0 h -5.98 c -0.01,0 0,0.01 0,0 v -2.99 c 0,-0.006 -0.004,-0.01 -0.01,-0.01 h -6 c -0.006,0 -0.01,0.004 -0.01,0.01 v 2.99 c 0,0.01 0.01,0 0,0 h -5.98 c -0.01,0 0,0.01 0,0 v -2.99 c 0,-0.006 -0.004,-0.01 -0.01,-0.01 h -6 c -0.006,0 -0.01,0.004 -0.01,0.01 v 2.99 c 0,0.01 0.01,0 0,0 h -5.98 c -0.01,0 0,0.01 0,0 v -2.99 c 0,-0.006 -0.004,-0.01 -0.01,-0.01 h -6 c -0.006,0 -0.01,0.004 -0.01,0.01 v 2.99 c 0,0.01 0.01,0 0,0 h -5.98 c -0.01,0 0,0.01 0,0 v -2.99 c 0,-0.006 -0.004,-0.01 -0.01,-0.01 h -6 c -0.006,0 -0.01,0.004 -0.01,0.01 v 2.99 c 0,0.01 0.01,0 0,0 h -5.98 c -0.01,0 0,0.01 0,0 v -2.99 c 0,-0.006 -0.004,-0.01 -0.01,-0.01 h -6 c -0.006,0 -0.01,0.004 -0.01,0.01 v 2.99 c 0,0.01 0.01,0 0,0 h -5.98 c -0.01,0 0,0.01 0,0 v -2.99 c 0,-0.006 -0.004,-0.01 -0.01,-0.01 h -6 c -0.006,0 -0.01,0.004 -0.01,0.01 v 2.99 c 0,0.01 0.01,0 0,0 h -8.49 c -0.006,0 -0.01,0.004 -0.01,0.01 v 5.99 c 0,0.01 0.01,0 0,0 h -2.99 c -0.006,0 -0.01,0.004 -0.01,0.01 v 6 c 0,0.006 0.004,0.01 0.01,0.01 h 2.99 c 0.01,0 0,-0.01 0,0 v 5.98 c 0,0.01 0.01,0 0,0 h -2.99 c -0.006,0 -0.01,0.004 -0.01,0.01 v 6 c 0,0.006 0.004,0.01 0.01,0.01 h 2.99 c 0.01,0 0,-0.01 0,0 v 5.98 c 0,0.01 0.01,0 0,0 h -2.99 c -0.006,0 -0.01,0.004 -0.01,0.01 v 6 c 0,0.006 0.004,0.01 0.01,0.01 h 2.99 c 0.01,0 0,-0.01 0,0 v 5.98 c 0,0.01 0.01,0 0,0 h -2.99 c -0.006,0 -0.01,0.004 -0.01,0.01 v 6 c 0,0.006 0.004,0.01 0.01,0.01 h 2.99 c 0.01,0 0,-0.01 0,0 v 5.98 c 0,0.01 0.01,0 0,0 h -2.99 c -0.006,0 -0.01,0.004 -0.01,0.01 v 6 c 0,0.006 0.004,0.01 0.01,0.01 h 2.99 c 0.01,0 0,-0.01 0,0 v 5.98 c 0,0.01 0.01,0 0,0 h -2.99 c -0.006,0 -0.01,0.004 -0.01,0.01 v 6 c 0,0.006 0.004,0.01 0.01,0.01 h 2.99 c 0.01,0 0,-0.01 0,0 v 5.98 c 0,0.01 0.01,0 0,0 h -2.99 c -0.006,0 -0.01,0.004 -0.01,0.01 v 6 c 0,0.006 0.004,0.01 0.01,0.01 h 2.99 c 0.01,0 0,-0.01 0,0 v 5.99 c 0,0.006 0.004,0.01 0.01,0.01 z"
       stroke="rgb(0,0,0)"
       stroke-width="0.05"
       id="path2751" />
  </g>
  <g
     id="g2763"
     style="fill:none;stroke:#ff0000;stroke-linecap:round;stroke-linejoin:round;stroke-opacity:1;stroke-width:0.1;stroke-miterlimit:4;stroke-dasharray:none"
     transform="translate(-6.3410922,36.74972)">
    <path
       style="stroke:#ff0000;stroke-opacity:1;stroke-width:0.1;stroke-miterlimit:4;stroke-dasharray:none"
       d="m 84,134.55 v 2.99 c 0,0.01 0.01,0 0,0 h -2.98 c -0.01,0 0,0.01 0,0 v -5.98 c 0,-0.01 -0.01,0 0,0 H 84 c 0.01,0 0,-0.01 0,0 z"
       stroke="rgb(0,0,255)"
       stroke-width="0.05"
       id="path2755" />
    <path
       style="stroke:#ff0000;stroke-opacity:1;stroke-width:0.1;stroke-miterlimit:4;stroke-dasharray:none"
       d="m 152,134.55 v 2.99 c 0,0.01 0.01,0 0,0 h -2.98 c -0.01,0 0,0.01 0,0 v -5.98 c 0,-0.01 -0.01,0 0,0 H 152 c 0.01,0 0,-0.01 0,0 z"
       stroke="rgb(0,0,255)"
       stroke-width="0.05"
       id="path2757" />
    <path
       style="stroke:#ff0000;stroke-opacity:1;stroke-width:0.1;stroke-miterlimit:4;stroke-dasharray:none"
       d="m 220,134.55 v 2.99 c 0,0.01 0.01,0 0,0 h -2.98 c -0.01,0 0,0.01 0,0 v -5.98 c 0,-0.01 -0.01,0 0,0 H 220 c 0.01,0 0,-0.01 0,0 z"
       stroke="rgb(0,0,255)"
       stroke-width="0.05"
       id="path2759" />
    <path
       style="stroke:#ff0000;stroke-opacity:1;stroke-width:0.1;stroke-miterlimit:4;stroke-dasharray:none"
       d="m 13.01,151.06 h 8.5 c 0.006,0 0.01,-0.004 0.01,-0.01 v -2.99 c 0,-0.01 -0.01,0 0,0 h 5.98 c 0.01,0 0,-0.01 0,0 v 2.99 c 0,0.006 0.004,0.01 0.01,0.01 h 6 c 0.006,0 0.01,-0.004 0.01,-0.01 v -2.99 c 0,-0.01 -0.01,0 0,0 h 5.98 c 0.01,0 0,-0.01 0,0 v 2.99 c 0,0.006 0.004,0.01 0.01,0.01 h 6 c 0.006,0 0.01,-0.004 0.01,-0.01 v -2.99 c 0,-0.01 -0.01,0 0,0 h 5.98 c 0.01,0 0,-0.01 0,0 v 2.99 c 0,0.006 0.004,0.01 0.01,0.01 h 6 c 0.006,0 0.01,-0.004 0.01,-0.01 v -2.99 c 0,-0.01 -0.01,0 0,0 h 5.98 c 0.01,0 0,-0.01 0,0 v 2.99 c 0,0.006 0.004,0.01 0.01,0.01 h 6 c 0.006,0 0.01,-0.004 0.01,-0.01 v -2.99 c 0,-0.01 -0.01,0 0,0 h 5.98 c 0.01,0 0,-0.01 0,0 v 2.99 c 0,0.006 0.004,0.01 0.01,0.01 h 6 c 0.006,0 0.01,-0.004 0.01,-0.01 v -2.99 c 0,-0.01 -0.01,0 0,0 h 5.98 c 0.01,0 0,-0.01 0,0 v 2.99 c 0,0.006 0.004,0.01 0.01,0.01 h 6 c 0.006,0 0.01,-0.004 0.01,-0.01 v -2.99 c 0,-0.01 -0.01,0 0,0 h 5.98 c 0.01,0 0,-0.01 0,0 v 2.99 c 0,0.006 0.004,0.01 0.01,0.01 h 6 c 0.006,0 0.01,-0.004 0.01,-0.01 v -2.99 c 0,-0.01 -0.01,0 0,0 h 5.98 c 0.01,0 0,-0.01 0,0 v 2.99 c 0,0.006 0.004,0.01 0.01,0.01 h 6 c 0.006,0 0.01,-0.004 0.01,-0.01 v -2.99 c 0,-0.01 -0.01,0 0,0 h 5.98 c 0.01,0 0,-0.01 0,0 v 2.99 c 0,0.006 0.004,0.01 0.01,0.01 h 6 c 0.006,0 0.01,-0.004 0.01,-0.01 v -2.99 c 0,-0.01 -0.01,0 0,0 h 5.98 c 0.01,0 0,-0.01 0,0 v 2.99 c 0,0.006 0.004,0.01 0.01,0.01 h 6 c 0.006,0 0.01,-0.004 0.01,-0.01 v -2.99 c 0,-0.01 -0.01,0 0,0 h 5.98 c 0.01,0 0,-0.01 0,0 v 2.99 c 0,0.006 0.004,0.01 0.01,0.01 h 6 c 0.006,0 0.01,-0.004 0.01,-0.01 v -2.99 c 0,-0.01 -0.01,0 0,0 h 5.98 c 0.01,0 0,-0.01 0,0 v 2.99 c 0,0.006 0.004,0.01 0.01,0.01 h 6 c 0.006,0 0.01,-0.004 0.01,-0.01 v -2.99 c 0,-0.01 -0.01,0 0,0 h 5.98 c 0.01,0 0,-0.01 0,0 v 2.99 c 0,0.006 0.004,0.01 0.01,0.01 h 6 c 0.006,0 0.01,-0.004 0.01,-0.01 v -2.99 c 0,-0.01 -0.01,0 0,0 h 5.98 c 0.01,0 0,-0.01 0,0 v 2.99 c 0,0.006 0.004,0.01 0.01,0.01 h 6 c 0.006,0 0.01,-0.004 0.01,-0.01 v -2.99 c 0,-0.01 -0.01,0 0,0 h 5.98 c 0.01,0 0,-0.01 0,0 v 2.99 c 0,0.006 0.004,0.01 0.01,0.01 h 6 c 0.006,0 0.01,-0.004 0.01,-0.01 v -2.99 c 0,-0.01 -0.01,0 0,0 h 5.98 c 0.01,0 0,-0.01 0,0 v 2.99 c 0,0.006 0.004,0.01 0.01,0.01 h 6 c 0.006,0 0.01,-0.004 0.01,-0.01 v -2.99 c 0,-0.01 -0.01,0 0,0 h 5.98 c 0.01,0 0,-0.01 0,0 v 2.99 c 0,0.006 0.004,0.01 0.01,0.01 h 6 c 0.006,0 0.01,-0.004 0.01,-0.01 v -2.99 c 0,-0.01 -0.01,0 0,0 h 5.98 c 0.01,0 0,-0.01 0,0 v 2.99 c 0,0.006 0.004,0.01 0.01,0.01 h 6 c 0.006,0 0.01,-0.004 0.01,-0.01 v -2.99 c 0,-0.01 -0.01,0 0,0 h 5.98 c 0.01,0 0,-0.01 0,0 v 2.99 c 0,0.006 0.004,0.01 0.01,0.01 h 6 c 0.006,0 0.01,-0.004 0.01,-0.01 v -2.99 c 0,-0.01 -0.01,0 0,0 h 5.98 c 0.01,0 0,-0.01 0,0 v 2.99 c 0,0.006 0.004,0.01 0.01,0.01 h 6 c 0.006,0 0.01,-0.004 0.01,-0.01 v -2.99 c 0,-0.01 -0.01,0 0,0 h 5.98 c 0.01,0 0,-0.01 0,0 v 2.99 c 0,0.006 0.004,0.01 0.01,0.01 h 6 c 0.006,0 0.01,-0.004 0.01,-0.01 v -2.99 c 0,-0.01 -0.01,0 0,0 h 5.98 c 0.01,0 0,-0.01 0,0 v 2.99 c 0,0.006 0.004,0.01 0.01,0.01 h 8.5 3 c 0.006,0 0.01,-0.004 0.01,-0.01 v -3 -6 c 0,-0.006 -0.004,-0.01 -0.01,-0.01 h -2.99 c -0.01,0 0,0.01 0,0 v -5.98 c 0,-0.01 -0.01,0 0,0 h 2.99 c 0.006,0 0.01,-0.004 0.01,-0.01 v -6 c 0,-0.006 -0.004,-0.01 -0.01,-0.01 h -2.99 c -0.01,0 0,0.01 0,0 v -5.98 c 0,-0.01 -0.01,0 0,0 h 2.99 c 0.006,0 0.01,-0.004 0.01,-0.01 v -6 -3 c 0,-0.006 -0.004,-0.01 -0.01,-0.01 h -3 -275 -3 c -0.006,0 -0.01,0.004 -0.01,0.01 v 3 6 c 0,0.006 0.004,0.01 0.01,0.01 H 13 c 0.01,0 0,-0.01 0,0 v 5.98 c 0,0.01 0.01,0 0,0 h -2.99 c -0.006,0 -0.01,0.004 -0.01,0.01 v 6 c 0,0.006 0.004,0.01 0.01,0.01 H 13 c 0.01,0 0,-0.01 0,0 v 5.98 c 0,0.01 0.01,0 0,0 h -2.99 c -0.006,0 -0.01,0.004 -0.01,0.01 v 6 3 c 0,0.006 0.004,0.01 0.01,0.01 z"
       stroke="rgb(0,0,0)"
       stroke-width="0.05"
       id="path2761" />
  </g>
  <g
     id="g2773"
     style="fill:none;stroke:#ff0000;stroke-linecap:round;stroke-linejoin:round;stroke-opacity:1;stroke-width:0.1;stroke-miterlimit:4;stroke-dasharray:none"
     transform="translate(-6.3410922,36.74972)">
    <path
       style="stroke:#ff0000;stroke-opacity:1;stroke-width:0.1;stroke-miterlimit:4;stroke-dasharray:none"
       d="m 366.52,134.55 v 2.99 c 0,0.01 0.01,0 0,0 h -2.98 c -0.01,0 0,0.01 0,0 v -5.98 c 0,-0.01 -0.01,0 0,0 h 2.98 c 0.01,0 0,-0.01 0,0 z"
       stroke="rgb(0,0,255)"
       stroke-width="0.05"
       id="path2765" />
    <path
       style="stroke:#ff0000;stroke-opacity:1;stroke-width:0.1;stroke-miterlimit:4;stroke-dasharray:none"
       d="m 434.52,134.55 v 2.99 c 0,0.01 0.01,0 0,0 h -2.98 c -0.01,0 0,0.01 0,0 v -5.98 c 0,-0.01 -0.01,0 0,0 h 2.98 c 0.01,0 0,-0.01 0,0 z"
       stroke="rgb(0,0,255)"
       stroke-width="0.05"
       id="path2767" />
    <path
       style="stroke:#ff0000;stroke-opacity:1;stroke-width:0.1;stroke-miterlimit:4;stroke-dasharray:none"
       d="m 502.52,134.55 v 2.99 c 0,0.01 0.01,0 0,0 h -2.98 c -0.01,0 0,0.01 0,0 v -5.98 c 0,-0.01 -0.01,0 0,0 h 2.98 c 0.01,0 0,-0.01 0,0 z"
       stroke="rgb(0,0,255)"
       stroke-width="0.05"
       id="path2769" />
    <path
       style="stroke:#ff0000;stroke-opacity:1;stroke-width:0.1;stroke-miterlimit:4;stroke-dasharray:none"
       d="m 295.53,151.06 h 8.5 c 0.006,0 0.01,-0.004 0.01,-0.01 v -2.99 c 0,-0.01 -0.01,0 0,0 h 5.98 c 0.01,0 0,-0.01 0,0 v 2.99 c 0,0.006 0.004,0.01 0.01,0.01 h 6 c 0.006,0 0.01,-0.004 0.01,-0.01 v -2.99 c 0,-0.01 -0.01,0 0,0 h 5.98 c 0.01,0 0,-0.01 0,0 v 2.99 c 0,0.006 0.004,0.01 0.01,0.01 h 6 c 0.006,0 0.01,-0.004 0.01,-0.01 v -2.99 c 0,-0.01 -0.01,0 0,0 h 5.98 c 0.01,0 0,-0.01 0,0 v 2.99 c 0,0.006 0.004,0.01 0.01,0.01 h 6 c 0.006,0 0.01,-0.004 0.01,-0.01 v -2.99 c 0,-0.01 -0.01,0 0,0 h 5.98 c 0.01,0 0,-0.01 0,0 v 2.99 c 0,0.006 0.004,0.01 0.01,0.01 h 6 c 0.006,0 0.01,-0.004 0.01,-0.01 v -2.99 c 0,-0.01 -0.01,0 0,0 h 5.98 c 0.01,0 0,-0.01 0,0 v 2.99 c 0,0.006 0.004,0.01 0.01,0.01 h 6 c 0.006,0 0.01,-0.004 0.01,-0.01 v -2.99 c 0,-0.01 -0.01,0 0,0 h 5.98 c 0.01,0 0,-0.01 0,0 v 2.99 c 0,0.006 0.004,0.01 0.01,0.01 h 6 c 0.006,0 0.01,-0.004 0.01,-0.01 v -2.99 c 0,-0.01 -0.01,0 0,0 h 5.98 c 0.01,0 0,-0.01 0,0 v 2.99 c 0,0.006 0.004,0.01 0.01,0.01 h 6 c 0.006,0 0.01,-0.004 0.01,-0.01 v -2.99 c 0,-0.01 -0.01,0 0,0 h 5.98 c 0.01,0 0,-0.01 0,0 v 2.99 c 0,0.006 0.004,0.01 0.01,0.01 h 6 c 0.006,0 0.01,-0.004 0.01,-0.01 v -2.99 c 0,-0.01 -0.01,0 0,0 h 5.98 c 0.01,0 0,-0.01 0,0 v 2.99 c 0,0.006 0.004,0.01 0.01,0.01 h 6 c 0.006,0 0.01,-0.004 0.01,-0.01 v -2.99 c 0,-0.01 -0.01,0 0,0 h 5.98 c 0.01,0 0,-0.01 0,0 v 2.99 c 0,0.006 0.004,0.01 0.01,0.01 h 6 c 0.006,0 0.01,-0.004 0.01,-0.01 v -2.99 c 0,-0.01 -0.01,0 0,0 h 5.98 c 0.01,0 0,-0.01 0,0 v 2.99 c 0,0.006 0.004,0.01 0.01,0.01 h 6 c 0.006,0 0.01,-0.004 0.01,-0.01 v -2.99 c 0,-0.01 -0.01,0 0,0 h 5.98 c 0.01,0 0,-0.01 0,0 v 2.99 c 0,0.006 0.004,0.01 0.01,0.01 h 6 c 0.006,0 0.01,-0.004 0.01,-0.01 v -2.99 c 0,-0.01 -0.01,0 0,0 h 5.98 c 0.01,0 0,-0.01 0,0 v 2.99 c 0,0.006 0.004,0.01 0.01,0.01 h 6 c 0.006,0 0.01,-0.004 0.01,-0.01 v -2.99 c 0,-0.01 -0.01,0 0,0 h 5.98 c 0.01,0 0,-0.01 0,0 v 2.99 c 0,0.006 0.004,0.01 0.01,0.01 h 6 c 0.006,0 0.01,-0.004 0.01,-0.01 v -2.99 c 0,-0.01 -0.01,0 0,0 h 5.98 c 0.01,0 0,-0.01 0,0 v 2.99 c 0,0.006 0.004,0.01 0.01,0.01 h 6 c 0.006,0 0.01,-0.004 0.01,-0.01 v -2.99 c 0,-0.01 -0.01,0 0,0 h 5.98 c 0.01,0 0,-0.01 0,0 v 2.99 c 0,0.006 0.004,0.01 0.01,0.01 h 6 c 0.006,0 0.01,-0.004 0.01,-0.01 v -2.99 c 0,-0.01 -0.01,0 0,0 h 5.98 c 0.01,0 0,-0.01 0,0 v 2.99 c 0,0.006 0.004,0.01 0.01,0.01 h 6 c 0.006,0 0.01,-0.004 0.01,-0.01 v -2.99 c 0,-0.01 -0.01,0 0,0 h 5.98 c 0.01,0 0,-0.01 0,0 v 2.99 c 0,0.006 0.004,0.01 0.01,0.01 h 6 c 0.006,0 0.01,-0.004 0.01,-0.01 v -2.99 c 0,-0.01 -0.01,0 0,0 h 5.98 c 0.01,0 0,-0.01 0,0 v 2.99 c 0,0.006 0.004,0.01 0.01,0.01 h 6 c 0.006,0 0.01,-0.004 0.01,-0.01 v -2.99 c 0,-0.01 -0.01,0 0,0 h 5.98 c 0.01,0 0,-0.01 0,0 v 2.99 c 0,0.006 0.004,0.01 0.01,0.01 h 6 c 0.006,0 0.01,-0.004 0.01,-0.01 v -2.99 c 0,-0.01 -0.01,0 0,0 h 5.98 c 0.01,0 0,-0.01 0,0 v 2.99 c 0,0.006 0.004,0.01 0.01,0.01 h 6 c 0.006,0 0.01,-0.004 0.01,-0.01 v -2.99 c 0,-0.01 -0.01,0 0,0 h 5.98 c 0.01,0 0,-0.01 0,0 v 2.99 c 0,0.006 0.004,0.01 0.01,0.01 h 8.5 3 c 0.006,0 0.01,-0.004 0.01,-0.01 v -3 -6 c 0,-0.006 -0.004,-0.01 -0.01,-0.01 h -2.99 c -0.01,0 0,0.01 0,0 v -5.98 c 0,-0.01 -0.01,0 0,0 h 2.99 c 0.006,0 0.01,-0.004 0.01,-0.01 v -6 c 0,-0.006 -0.004,-0.01 -0.01,-0.01 h -2.99 c -0.01,0 0,0.01 0,0 v -5.98 c 0,-0.01 -0.01,0 0,0 h 2.99 c 0.006,0 0.01,-0.004 0.01,-0.01 v -6 c 0,-0.006 -0.004,-0.01 -0.01,-0.01 h -3 c -0.006,0 -0.01,0.004 -0.01,0.01 v 2.99 c 0,0.01 0.01,0 0,0 H 295.54 c -0.01,0 0,0.01 0,0 v -2.99 c 0,-0.006 -0.004,-0.01 -0.01,-0.01 h -3 c -0.006,0 -0.01,0.004 -0.01,0.01 v 6 c 0,0.006 0.004,0.01 0.01,0.01 h 2.99 c 0.01,0 0,-0.01 0,0 v 5.98 c 0,0.01 0.01,0 0,0 h -2.99 c -0.006,0 -0.01,0.004 -0.01,0.01 v 6 c 0,0.006 0.004,0.01 0.01,0.01 h 2.99 c 0.01,0 0,-0.01 0,0 v 5.98 c 0,0.01 0.01,0 0,0 h -2.99 c -0.006,0 -0.01,0.004 -0.01,0.01 v 6 3 c 0,0.006 0.004,0.01 0.01,0.01 z"
       stroke="rgb(0,0,0)"
       stroke-width="0.05"
       id="path2771" />
  </g>
  <g
     id="g2777"
     style="fill:none;stroke:#ff0000;stroke-linecap:round;stroke-linejoin:round;stroke-opacity:1;stroke-width:0.1;stroke-miterlimit:4;stroke-dasharray:none"
     transform="translate(-6.3410922,36.74972)">
    <path
       style="stroke:#ff0000;stroke-opacity:1;stroke-width:0.1;stroke-miterlimit:4;stroke-dasharray:none"
       d="m 13.01,110.54 h 8.19 c 0.01,0 0,-0.01 0,0 v 2.99 c 0,0.006 0.004,0.01 0.01,0.01 h 6 c 0.006,0 0.01,-0.004 0.01,-0.01 v -2.99 c 0,-0.01 -0.01,0 0,0 h 5.98 c 0.01,0 0,-0.01 0,0 v 2.99 c 0,0.006 0.004,0.01 0.01,0.01 h 6 c 0.006,0 0.01,-0.004 0.01,-0.01 v -2.99 c 0,-0.01 -0.01,0 0,0 h 5.98 c 0.01,0 0,-0.01 0,0 v 2.99 c 0,0.006 0.004,0.01 0.01,0.01 h 6 c 0.006,0 0.01,-0.004 0.01,-0.01 v -2.99 c 0,-0.01 -0.01,0 0,0 h 5.98 c 0.01,0 0,-0.01 0,0 v 2.99 c 0,0.006 0.004,0.01 0.01,0.01 h 6 c 0.006,0 0.01,-0.004 0.01,-0.01 v -2.99 c 0,-0.01 -0.01,0 0,0 h 5.98 c 0.01,0 0,-0.01 0,0 v 2.99 c 0,0.006 0.004,0.01 0.01,0.01 h 6 c 0.006,0 0.01,-0.004 0.01,-0.01 v -2.99 c 0,-0.01 -0.01,0 0,0 h 5.98 c 0.01,0 0,-0.01 0,0 v 2.99 c 0,0.006 0.004,0.01 0.01,0.01 h 6 c 0.006,0 0.01,-0.004 0.01,-0.01 v -2.99 c 0,-0.01 -0.01,0 0,0 h 5.98 c 0.01,0 0,-0.01 0,0 v 2.99 c 0,0.006 0.004,0.01 0.01,0.01 h 6 c 0.006,0 0.01,-0.004 0.01,-0.01 v -2.99 c 0,-0.01 -0.01,0 0,0 h 5.98 c 0.01,0 0,-0.01 0,0 v 2.99 c 0,0.006 0.004,0.01 0.01,0.01 h 6 c 0.006,0 0.01,-0.004 0.01,-0.01 v -2.99 c 0,-0.01 -0.01,0 0,0 h 5.98 c 0.01,0 0,-0.01 0,0 v 2.99 c 0,0.006 0.004,0.01 0.01,0.01 h 6 c 0.006,0 0.01,-0.004 0.01,-0.01 v -2.99 c 0,-0.01 -0.01,0 0,0 h 5.98 c 0.01,0 0,-0.01 0,0 v 2.99 c 0,0.006 0.004,0.01 0.01,0.01 h 6 c 0.006,0 0.01,-0.004 0.01,-0.01 v -2.99 c 0,-0.01 -0.01,0 0,0 h 5.98 c 0.01,0 0,-0.01 0,0 v 2.99 c 0,0.006 0.004,0.01 0.01,0.01 h 6 c 0.006,0 0.01,-0.004 0.01,-0.01 v -2.99 c 0,-0.01 -0.01,0 0,0 h 5.98 c 0.01,0 0,-0.01 0,0 v 2.99 c 0,0.006 0.004,0.01 0.01,0.01 h 6 c 0.006,0 0.01,-0.004 0.01,-0.01 v -2.99 c 0,-0.01 -0.01,0 0,0 h 5.98 c 0.01,0 0,-0.01 0,0 v 2.99 c 0,0.006 0.004,0.01 0.01,0.01 h 6 c 0.006,0 0.01,-0.004 0.01,-0.01 v -2.99 c 0,-0.01 -0.01,0 0,0 h 5.98 c 0.01,0 0,-0.01 0,0 v 2.99 c 0,0.006 0.004,0.01 0.01,0.01 h 6 c 0.006,0 0.01,-0.004 0.01,-0.01 v -2.99 c 0,-0.01 -0.01,0 0,0 h 5.98 c 0.01,0 0,-0.01 0,0 v 2.99 c 0,0.006 0.004,0.01 0.01,0.01 h 6 c 0.006,0 0.01,-0.004 0.01,-0.01 v -2.99 c 0,-0.01 -0.01,0 0,0 h 5.98 c 0.01,0 0,-0.01 0,0 v 2.99 c 0,0.006 0.004,0.01 0.01,0.01 h 6 c 0.006,0 0.01,-0.004 0.01,-0.01 v -2.99 c 0,-0.01 -0.01,0 0,0 h 5.98 c 0.01,0 0,-0.01 0,0 v 2.99 c 0,0.006 0.004,0.01 0.01,0.01 h 6 c 0.006,0 0.01,-0.004 0.01,-0.01 v -2.99 c 0,-0.01 -0.01,0 0,0 h 5.98 c 0.01,0 0,-0.01 0,0 v 2.99 c 0,0.006 0.004,0.01 0.01,0.01 h 6 c 0.006,0 0.01,-0.004 0.01,-0.01 v -2.99 c 0,-0.01 -0.01,0 0,0 h 5.98 c 0.01,0 0,-0.01 0,0 v 2.99 c 0,0.006 0.004,0.01 0.01,0.01 h 6 c 0.006,0 0.01,-0.004 0.01,-0.01 v -2.99 c 0,-0.01 -0.01,0 0,0 h 5.98 c 0.01,0 0,-0.01 0,0 v 2.99 c 0,0.006 0.004,0.01 0.01,0.01 h 6 c 0.006,0 0.01,-0.004 0.01,-0.01 v -2.99 c 0,-0.01 -0.01,0 0,0 h 5.98 c 0.01,0 0,-0.01 0,0 v 2.99 c 0,0.006 0.004,0.01 0.01,0.01 h 6 c 0.006,0 0.01,-0.004 0.01,-0.01 v -2.99 c 0,-0.01 -0.01,0 0,0 h 5.98 c 0.01,0 0,-0.01 0,0 v 2.99 c 0,0.006 0.004,0.01 0.01,0.01 h 6 c 0.006,0 0.01,-0.004 0.01,-0.01 v -2.99 c 0,-0.01 -0.01,0 0,0 h 8.19 3 c 0.006,0 0.01,-0.004 0.01,-0.01 v -3 c 0,-0.006 -0.004,-0.01 -0.01,-0.01 h -3 -274.4 -3 c -0.006,0 -0.01,0.004 -0.01,0.01 v 3 c 0,0.006 0.004,0.01 0.01,0.01 z"
       stroke="rgb(0,0,0)"
       stroke-width="0.05"
       id="path2775" />
  </g>
  <g
     id="g2781"
     style="fill:none;stroke:#ff0000;stroke-linecap:round;stroke-linejoin:round;stroke-opacity:1;stroke-width:0.1;stroke-miterlimit:4;stroke-dasharray:none"
     transform="translate(-6.3410922,36.74972)">
    <path
       style="stroke:#ff0000;stroke-opacity:1;stroke-width:0.1;stroke-miterlimit:4;stroke-dasharray:none"
       d="M 13.01,103.02 H 19 c 0.01,0 0,-0.01 0,0 v 2.99 c 0,0.006 0.004,0.01 0.01,0.01 h 6 c 0.006,0 0.01,-0.004 0.01,-0.01 v -2.99 c 0,-0.01 -0.01,0 0,0 H 31 c 0.01,0 0,-0.01 0,0 v 2.99 c 0,0.006 0.004,0.01 0.01,0.01 h 6 c 0.006,0 0.01,-0.004 0.01,-0.01 v -2.99 c 0,-0.01 -0.01,0 0,0 h 5.99 3 c 0.006,0 0.01,-0.004 0.01,-0.01 v -6 C 46.02,97.004 46.016,97 46.01,97 h -2.99 c -0.01,0 0,0.01 0,0 v -5.98 c 0,-0.01 -0.01,0 0,0 h 2.99 c 0.006,0 0.01,-0.004 0.01,-0.01 v -6 C 46.02,85.004 46.016,85 46.01,85 h -2.99 c -0.01,0 0,0.01 0,0 v -5.98 c 0,-0.01 -0.01,0 0,0 h 2.99 c 0.006,0 0.01,-0.004 0.01,-0.01 v -6 C 46.02,73.004 46.016,73 46.01,73 h -2.99 c -0.01,0 0,0.01 0,0 v -5.98 c 0,-0.01 -0.01,0 0,0 h 2.99 c 0.006,0 0.01,-0.004 0.01,-0.01 v -6 C 46.02,61.004 46.016,61 46.01,61 h -2.99 c -0.01,0 0,0.01 0,0 v -5.98 c 0,-0.01 -0.01,0 0,0 h 2.99 c 0.006,0 0.01,-0.004 0.01,-0.01 v -6 C 46.02,49.004 46.016,49 46.01,49 h -2.99 c -0.01,0 0,0.01 0,0 v -5.98 c 0,-0.01 -0.01,0 0,0 h 2.99 c 0.006,0 0.01,-0.004 0.01,-0.01 v -6 C 46.02,37.004 46.016,37 46.01,37 h -2.99 c -0.01,0 0,0.01 0,0 v -5.98 c 0,-0.01 -0.01,0 0,0 h 2.99 c 0.006,0 0.01,-0.004 0.01,-0.01 v -6 C 46.02,25.004 46.016,25 46.01,25 h -2.99 c -0.01,0 0,0.01 0,0 v -5.98 c 0,-0.01 -0.01,0 0,0 h 2.99 c 0.006,0 0.01,-0.004 0.01,-0.01 v -6 C 46.02,13.004 46.016,13 46.01,13 h -3 -5.99 c -0.01,0 0,0.01 0,0 V 10.01 C 37.02,10.004 37.016,10 37.01,10 h -6 C 31.004,10 31,10.004 31,10.01 V 13 c 0,0.01 0.01,0 0,0 h -5.98 c -0.01,0 0,0.01 0,0 V 10.01 C 25.02,10.004 25.016,10 25.01,10 h -6 C 19.004,10 19,10.004 19,10.01 V 13 c 0,0.01 0.01,0 0,0 h -5.99 -3 C 10.004,13 10,13.004 10,13.01 v 6 c 0,0.006 0.004,0.01 0.01,0.01 H 13 c 0.01,0 0,-0.01 0,0 V 25 c 0,0.01 0.01,0 0,0 H 10.01 C 10.004,25 10,25.004 10,25.01 v 6 c 0,0.006 0.004,0.01 0.01,0.01 H 13 c 0.01,0 0,-0.01 0,0 V 37 c 0,0.01 0.01,0 0,0 H 10.01 C 10.004,37 10,37.004 10,37.01 v 6 c 0,0.006 0.004,0.01 0.01,0.01 H 13 c 0.01,0 0,-0.01 0,0 V 49 c 0,0.01 0.01,0 0,0 H 10.01 C 10.004,49 10,49.004 10,49.01 v 6 c 0,0.006 0.004,0.01 0.01,0.01 H 13 c 0.01,0 0,-0.01 0,0 V 61 c 0,0.01 0.01,0 0,0 H 10.01 C 10.004,61 10,61.004 10,61.01 v 6 c 0,0.006 0.004,0.01 0.01,0.01 H 13 c 0.01,0 0,-0.01 0,0 V 73 c 0,0.01 0.01,0 0,0 H 10.01 C 10.004,73 10,73.004 10,73.01 v 6 c 0,0.006 0.004,0.01 0.01,0.01 H 13 c 0.01,0 0,-0.01 0,0 V 85 c 0,0.01 0.01,0 0,0 H 10.01 C 10.004,85 10,85.004 10,85.01 v 6 c 0,0.006 0.004,0.01 0.01,0.01 H 13 c 0.01,0 0,-0.01 0,0 V 97 c 0,0.01 0.01,0 0,0 H 10.01 C 10.004,97 10,97.004 10,97.01 v 6 c 0,0.006 0.004,0.01 0.01,0.01 z"
       stroke="rgb(0,0,0)"
       stroke-width="0.05"
       id="path2779" />
  </g>
  <g
     id="g2785"
     style="fill:none;stroke:#ff0000;stroke-linecap:round;stroke-linejoin:round;stroke-opacity:1;stroke-width:0.1;stroke-miterlimit:4;stroke-dasharray:none"
     transform="translate(-6.3410922,36.74972)">
    <path
       style="stroke:#ff0000;stroke-opacity:1;stroke-width:0.1;stroke-miterlimit:4;stroke-dasharray:none"
       d="m 50.53,103.02 h 5.99 c 0.01,0 0,-0.01 0,0 v 2.99 c 0,0.006 0.004,0.01 0.01,0.01 h 6 c 0.006,0 0.01,-0.004 0.01,-0.01 v -2.99 c 0,-0.01 -0.01,0 0,0 h 5.98 c 0.01,0 0,-0.01 0,0 v 2.99 c 0,0.006 0.004,0.01 0.01,0.01 h 6 c 0.006,0 0.01,-0.004 0.01,-0.01 v -2.99 c 0,-0.01 -0.01,0 0,0 h 5.99 3 c 0.006,0 0.01,-0.004 0.01,-0.01 v -6 C 83.54,97.004 83.536,97 83.53,97 h -2.99 c -0.01,0 0,0.01 0,0 v -5.98 c 0,-0.01 -0.01,0 0,0 h 2.99 c 0.006,0 0.01,-0.004 0.01,-0.01 v -6 C 83.54,85.004 83.536,85 83.53,85 h -2.99 c -0.01,0 0,0.01 0,0 v -5.98 c 0,-0.01 -0.01,0 0,0 h 2.99 c 0.006,0 0.01,-0.004 0.01,-0.01 v -6 C 83.54,73.004 83.536,73 83.53,73 h -2.99 c -0.01,0 0,0.01 0,0 v -5.98 c 0,-0.01 -0.01,0 0,0 h 2.99 c 0.006,0 0.01,-0.004 0.01,-0.01 v -6 C 83.54,61.004 83.536,61 83.53,61 h -2.99 c -0.01,0 0,0.01 0,0 v -5.98 c 0,-0.01 -0.01,0 0,0 h 2.99 c 0.006,0 0.01,-0.004 0.01,-0.01 v -6 C 83.54,49.004 83.536,49 83.53,49 h -2.99 c -0.01,0 0,0.01 0,0 v -5.98 c 0,-0.01 -0.01,0 0,0 h 2.99 c 0.006,0 0.01,-0.004 0.01,-0.01 v -6 C 83.54,37.004 83.536,37 83.53,37 h -2.99 c -0.01,0 0,0.01 0,0 v -5.98 c 0,-0.01 -0.01,0 0,0 h 2.99 c 0.006,0 0.01,-0.004 0.01,-0.01 v -6 C 83.54,25.004 83.536,25 83.53,25 h -2.99 c -0.01,0 0,0.01 0,0 v -5.98 c 0,-0.01 -0.01,0 0,0 h 2.99 c 0.006,0 0.01,-0.004 0.01,-0.01 v -6 C 83.54,13.004 83.536,13 83.53,13 h -3 -5.99 c -0.01,0 0,0.01 0,0 V 10.01 C 74.54,10.004 74.536,10 74.53,10 h -6 c -0.006,0 -0.01,0.004 -0.01,0.01 V 13 c 0,0.01 0.01,0 0,0 h -5.98 c -0.01,0 0,0.01 0,0 V 10.01 C 62.54,10.004 62.536,10 62.53,10 h -6 c -0.006,0 -0.01,0.004 -0.01,0.01 V 13 c 0,0.01 0.01,0 0,0 h -5.99 -3 c -0.006,0 -0.01,0.004 -0.01,0.01 v 6 c 0,0.006 0.004,0.01 0.01,0.01 h 2.99 c 0.01,0 0,-0.01 0,0 V 25 c 0,0.01 0.01,0 0,0 h -2.99 c -0.006,0 -0.01,0.004 -0.01,0.01 v 6 c 0,0.006 0.004,0.01 0.01,0.01 h 2.99 c 0.01,0 0,-0.01 0,0 V 37 c 0,0.01 0.01,0 0,0 h -2.99 c -0.006,0 -0.01,0.004 -0.01,0.01 v 6 c 0,0.006 0.004,0.01 0.01,0.01 h 2.99 c 0.01,0 0,-0.01 0,0 V 49 c 0,0.01 0.01,0 0,0 h -2.99 c -0.006,0 -0.01,0.004 -0.01,0.01 v 6 c 0,0.006 0.004,0.01 0.01,0.01 h 2.99 c 0.01,0 0,-0.01 0,0 V 61 c 0,0.01 0.01,0 0,0 h -2.99 c -0.006,0 -0.01,0.004 -0.01,0.01 v 6 c 0,0.006 0.004,0.01 0.01,0.01 h 2.99 c 0.01,0 0,-0.01 0,0 V 73 c 0,0.01 0.01,0 0,0 h -2.99 c -0.006,0 -0.01,0.004 -0.01,0.01 v 6 c 0,0.006 0.004,0.01 0.01,0.01 h 2.99 c 0.01,0 0,-0.01 0,0 V 85 c 0,0.01 0.01,0 0,0 h -2.99 c -0.006,0 -0.01,0.004 -0.01,0.01 v 6 c 0,0.006 0.004,0.01 0.01,0.01 h 2.99 c 0.01,0 0,-0.01 0,0 V 97 c 0,0.01 0.01,0 0,0 h -2.99 c -0.006,0 -0.01,0.004 -0.01,0.01 v 6 c 0,0.006 0.004,0.01 0.01,0.01 z"
       stroke="rgb(0,0,0)"
       stroke-width="0.05"
       id="path2783" />
  </g>
  <g
     id="g2789"
     style="fill:none;stroke:#ff0000;stroke-linecap:round;stroke-linejoin:round;stroke-opacity:1;stroke-width:0.1;stroke-miterlimit:4;stroke-dasharray:none"
     transform="translate(-6.3410922,36.74972)">
    <path
       style="stroke:#ff0000;stroke-opacity:1;stroke-width:0.1;stroke-miterlimit:4;stroke-dasharray:none"
       d="m 85.05,106.02 h 27 c 0.006,0 0.01,-0.004 0.01,-0.01 v -35 c 0,-0.006 -0.004,-0.01 -0.01,-0.01 h -14 c -1.754,0 -3.476,-0.462 -4.995,-1.338 -1.519,-0.877 -2.78,-2.138 -3.657,-3.657 -0.876,-1.519 -1.338,-3.241 -1.338,-4.995 0,-1.754 0.462,-3.476 1.338,-4.995 0.877,-1.519 2.138,-2.78 3.657,-3.657 1.519,-0.876 3.241,-1.338 4.995,-1.338 h 14 c 0.006,0 0.01,-0.004 0.01,-0.01 v -35 c 0,-0.006 -0.004,-0.01 -0.01,-0.01 h -27 c -0.006,0 -0.01,0.004 -0.01,0.01 v 90 c 0,0.006 0.004,0.01 0.01,0.01 z"
       stroke="rgb(0,0,0)"
       stroke-width="0.05"
       id="path2787" />
  </g>
  <g
     id="g2793"
     style="fill:none;stroke:#ff0000;stroke-linecap:round;stroke-linejoin:round;stroke-opacity:1;stroke-width:0.1;stroke-miterlimit:4;stroke-dasharray:none"
     transform="translate(-6.3410922,36.74972)">
    <path
       style="stroke:#ff0000;stroke-opacity:1;stroke-width:0.1;stroke-miterlimit:4;stroke-dasharray:none"
       d="m 113.57,106.02 h 27 c 0.006,0 0.01,-0.004 0.01,-0.01 v -35 c 0,-0.006 -0.004,-0.01 -0.01,-0.01 h -14 c -1.754,0 -3.476,-0.462 -4.995,-1.338 -1.519,-0.877 -2.78,-2.138 -3.657,-3.657 -0.876,-1.519 -1.338,-3.241 -1.338,-4.995 0,-1.754 0.462,-3.476 1.338,-4.995 0.877,-1.519 2.138,-2.78 3.657,-3.657 1.519,-0.876 3.241,-1.338 4.995,-1.338 h 14 c 0.006,0 0.01,-0.004 0.01,-0.01 v -35 c 0,-0.006 -0.004,-0.01 -0.01,-0.01 h -27 c -0.006,0 -0.01,0.004 -0.01,0.01 v 90 c 0,0.006 0.004,0.01 0.01,0.01 z"
       stroke="rgb(0,0,0)"
       stroke-width="0.05"
       id="path2791" />
  </g>
  <g
     id="g2797"
     style="fill:none;stroke:#ff0000;stroke-linecap:round;stroke-linejoin:round;stroke-opacity:1;stroke-width:0.1;stroke-miterlimit:4;stroke-dasharray:none"
     transform="translate(-6.3410922,36.74972)">
    <path
       style="stroke:#ff0000;stroke-opacity:1;stroke-width:0.1;stroke-miterlimit:4;stroke-dasharray:none"
       d="m 145.09,106.02 h 3 c 0.006,0 0.01,-0.004 0.01,-0.01 v -90 c 0,-0.006 -0.004,-0.01 -0.01,-0.01 h -3 c -0.006,0 -0.01,0.004 -0.01,0.01 V 22 c 0,0.01 0.01,0 0,0 h -2.99 c -0.006,0 -0.01,0.004 -0.01,0.01 v 6 c 0,0.006 0.004,0.01 0.01,0.01 h 2.99 c 0.01,0 0,-0.01 0,0 V 34 c 0,0.01 0.01,0 0,0 h -2.99 c -0.006,0 -0.01,0.004 -0.01,0.01 v 6 c 0,0.006 0.004,0.01 0.01,0.01 h 2.99 c 0.01,0 0,-0.01 0,0 V 46 c 0,0.01 0.01,0 0,0 h -2.99 c -0.006,0 -0.01,0.004 -0.01,0.01 v 6 c 0,0.006 0.004,0.01 0.01,0.01 h 2.99 c 0.01,0 0,-0.01 0,0 V 58 c 0,0.01 0.01,0 0,0 h -2.99 c -0.006,0 -0.01,0.004 -0.01,0.01 v 6 c 0,0.006 0.004,0.01 0.01,0.01 h 2.99 c 0.01,0 0,-0.01 0,0 V 70 c 0,0.01 0.01,0 0,0 h -2.99 c -0.006,0 -0.01,0.004 -0.01,0.01 v 6 c 0,0.006 0.004,0.01 0.01,0.01 h 2.99 c 0.01,0 0,-0.01 0,0 V 82 c 0,0.01 0.01,0 0,0 h -2.99 c -0.006,0 -0.01,0.004 -0.01,0.01 v 6 c 0,0.006 0.004,0.01 0.01,0.01 h 2.99 c 0.01,0 0,-0.01 0,0 V 94 c 0,0.01 0.01,0 0,0 h -2.99 c -0.006,0 -0.01,0.004 -0.01,0.01 v 6 c 0,0.006 0.004,0.01 0.01,0.01 h 2.99 c 0.01,0 0,-0.01 0,0 v 5.99 c 0,0.006 0.004,0.01 0.01,0.01 z"
       stroke="rgb(0,0,0)"
       stroke-width="0.05"
       id="path2795" />
  </g>
  <g
     id="g2801"
     style="fill:none;stroke:#ff0000;stroke-linecap:round;stroke-linejoin:round;stroke-opacity:1;stroke-width:0.1;stroke-miterlimit:4;stroke-dasharray:none"
     transform="translate(-6.3410922,36.74972)">
    <path
       style="stroke:#ff0000;stroke-opacity:1;stroke-width:0.1;stroke-miterlimit:4;stroke-dasharray:none"
       d="m 149.61,106.02 h 3 c 0.006,0 0.01,-0.004 0.01,-0.01 v -5.99 c 0,-0.01 -0.01,0 0,0 h 2.99 c 0.006,0 0.01,-0.004 0.01,-0.01 v -6 c 0,-0.006 -0.004,-0.01 -0.01,-0.01 h -2.99 c -0.01,0 0,0.01 0,0 v -5.98 c 0,-0.01 -0.01,0 0,0 h 2.99 c 0.006,0 0.01,-0.004 0.01,-0.01 v -6 c 0,-0.006 -0.004,-0.01 -0.01,-0.01 h -2.99 c -0.01,0 0,0.01 0,0 v -5.98 c 0,-0.01 -0.01,0 0,0 h 2.99 c 0.006,0 0.01,-0.004 0.01,-0.01 v -6 c 0,-0.006 -0.004,-0.01 -0.01,-0.01 h -2.99 c -0.01,0 0,0.01 0,0 v -5.98 c 0,-0.01 -0.01,0 0,0 h 2.99 c 0.006,0 0.01,-0.004 0.01,-0.01 v -6 c 0,-0.006 -0.004,-0.01 -0.01,-0.01 h -2.99 c -0.01,0 0,0.01 0,0 v -5.98 c 0,-0.01 -0.01,0 0,0 h 2.99 c 0.006,0 0.01,-0.004 0.01,-0.01 v -6 c 0,-0.006 -0.004,-0.01 -0.01,-0.01 h -2.99 c -0.01,0 0,0.01 0,0 v -5.98 c 0,-0.01 -0.01,0 0,0 h 2.99 c 0.006,0 0.01,-0.004 0.01,-0.01 v -6 c 0,-0.006 -0.004,-0.01 -0.01,-0.01 h -2.99 c -0.01,0 0,0.01 0,0 v -5.98 c 0,-0.01 -0.01,0 0,0 h 2.99 c 0.006,0 0.01,-0.004 0.01,-0.01 v -6 c 0,-0.006 -0.004,-0.01 -0.01,-0.01 h -2.99 c -0.01,0 0,0.01 0,0 v -5.99 c 0,-0.006 -0.004,-0.01 -0.01,-0.01 h -3 c -0.006,0 -0.01,0.004 -0.01,0.01 v 90 c 0,0.006 0.004,0.01 0.01,0.01 z"
       stroke="rgb(0,0,0)"
       stroke-width="0.05"
       id="path2799" />
  </g>
  <g
     id="g2805"
     style="fill:none;stroke:#ff0000;stroke-linecap:round;stroke-linejoin:round;stroke-opacity:1;stroke-width:0.1;stroke-miterlimit:4;stroke-dasharray:none"
     transform="translate(-6.3410922,36.74972)">
    <path
       style="stroke:#ff0000;stroke-opacity:1;stroke-width:0.1;stroke-miterlimit:4;stroke-dasharray:none"
       d="m 160.13,103.02 h 10.49 c 0.01,0 0,-0.01 0,0 v 2.99 c 0,0.006 0.004,0.01 0.01,0.01 h 6 c 0.006,0 0.01,-0.004 0.01,-0.01 v -2.99 c 0,-0.01 -0.01,0 0,0 h 10.49 c 0.006,0 0.01,-0.004 0.01,-0.01 v -35 c 0,-0.006 -0.004,-0.01 -0.01,-0.01 h -14 c -1.754,0 -3.476,-0.462 -4.995,-1.338 -1.519,-0.877 -2.78,-2.138 -3.657,-3.657 -0.876,-1.519 -1.338,-3.241 -1.338,-4.995 0,-1.754 0.462,-3.476 1.338,-4.995 0.877,-1.519 2.138,-2.78 3.657,-3.657 1.519,-0.876 3.241,-1.338 4.995,-1.338 h 14 c 0.006,0 0.01,-0.004 0.01,-0.01 v -35 c 0,-0.006 -0.004,-0.01 -0.01,-0.01 h -10.49 c -0.01,0 0,0.01 0,0 v -2.99 c 0,-0.006 -0.004,-0.01 -0.01,-0.01 h -6 c -0.006,0 -0.01,0.004 -0.01,0.01 V 13 c 0,0.01 0.01,0 0,0 h -10.49 c -0.006,0 -0.01,0.004 -0.01,0.01 V 19 c 0,0.01 0.01,0 0,0 h -2.99 c -0.006,0 -0.01,0.004 -0.01,0.01 v 6 c 0,0.006 0.004,0.01 0.01,0.01 h 2.99 c 0.01,0 0,-0.01 0,0 V 31 c 0,0.01 0.01,0 0,0 h -2.99 c -0.006,0 -0.01,0.004 -0.01,0.01 v 6 c 0,0.006 0.004,0.01 0.01,0.01 h 2.99 c 0.01,0 0,-0.01 0,0 V 43 c 0,0.01 0.01,0 0,0 h -2.99 c -0.006,0 -0.01,0.004 -0.01,0.01 v 6 c 0,0.006 0.004,0.01 0.01,0.01 h 2.99 c 0.01,0 0,-0.01 0,0 V 55 c 0,0.01 0.01,0 0,0 h -2.99 c -0.006,0 -0.01,0.004 -0.01,0.01 v 6 c 0,0.006 0.004,0.01 0.01,0.01 h 2.99 c 0.01,0 0,-0.01 0,0 V 67 c 0,0.01 0.01,0 0,0 h -2.99 c -0.006,0 -0.01,0.004 -0.01,0.01 v 6 c 0,0.006 0.004,0.01 0.01,0.01 h 2.99 c 0.01,0 0,-0.01 0,0 V 79 c 0,0.01 0.01,0 0,0 h -2.99 c -0.006,0 -0.01,0.004 -0.01,0.01 v 6 c 0,0.006 0.004,0.01 0.01,0.01 h 2.99 c 0.01,0 0,-0.01 0,0 V 91 c 0,0.01 0.01,0 0,0 h -2.99 c -0.006,0 -0.01,0.004 -0.01,0.01 v 6 c 0,0.006 0.004,0.01 0.01,0.01 h 2.99 c 0.01,0 0,-0.01 0,0 v 5.99 c 0,0.006 0.004,0.01 0.01,0.01 z"
       stroke="rgb(0,0,0)"
       stroke-width="0.05"
       id="path2803" />
  </g>
  <g
     id="p-13"
     style="fill:none;stroke:#ff0000;stroke-linecap:round;stroke-linejoin:round;stroke-opacity:1;stroke-width:0.1;stroke-miterlimit:4;stroke-dasharray:none"
     transform="translate(-6.3410922,36.74972)">
    <path
       style="stroke:#ff0000;stroke-opacity:1;stroke-width:0.1;stroke-miterlimit:4;stroke-dasharray:none"
       d="m 191.65,103.02 h 10.49 c 0.01,0 0,-0.01 0,0 v 2.99 c 0,0.006 0.004,0.01 0.01,0.01 h 6 c 0.006,0 0.01,-0.004 0.01,-0.01 v -2.99 c 0,-0.01 -0.01,0 0,0 h 10.49 c 0.006,0 0.01,-0.004 0.01,-0.01 v -35 c 0,-0.006 -0.004,-0.01 -0.01,-0.01 h -14 c -1.754,0 -3.476,-0.462 -4.995,-1.338 -1.519,-0.877 -2.78,-2.138 -3.657,-3.657 -0.876,-1.519 -1.338,-3.241 -1.338,-4.995 0,-1.754 0.462,-3.476 1.338,-4.995 0.877,-1.519 2.138,-2.78 3.657,-3.657 1.519,-0.876 3.241,-1.338 4.995,-1.338 h 14 c 0.006,0 0.01,-0.004 0.01,-0.01 v -35 c 0,-0.006 -0.004,-0.01 -0.01,-0.01 h -10.49 c -0.01,0 0,0.01 0,0 v -2.99 c 0,-0.006 -0.004,-0.01 -0.01,-0.01 h -6 c -0.006,0 -0.01,0.004 -0.01,0.01 V 13 c 0,0.01 0.01,0 0,0 h -10.49 c -0.006,0 -0.01,0.004 -0.01,0.01 V 19 c 0,0.01 0.01,0 0,0 h -2.99 c -0.006,0 -0.01,0.004 -0.01,0.01 v 6 c 0,0.006 0.004,0.01 0.01,0.01 h 2.99 c 0.01,0 0,-0.01 0,0 V 31 c 0,0.01 0.01,0 0,0 h -2.99 c -0.006,0 -0.01,0.004 -0.01,0.01 v 6 c 0,0.006 0.004,0.01 0.01,0.01 h 2.99 c 0.01,0 0,-0.01 0,0 V 43 c 0,0.01 0.01,0 0,0 h -2.99 c -0.006,0 -0.01,0.004 -0.01,0.01 v 6 c 0,0.006 0.004,0.01 0.01,0.01 h 2.99 c 0.01,0 0,-0.01 0,0 V 55 c 0,0.01 0.01,0 0,0 h -2.99 c -0.006,0 -0.01,0.004 -0.01,0.01 v 6 c 0,0.006 0.004,0.01 0.01,0.01 h 2.99 c 0.01,0 0,-0.01 0,0 V 67 c 0,0.01 0.01,0 0,0 h -2.99 c -0.006,0 -0.01,0.004 -0.01,0.01 v 6 c 0,0.006 0.004,0.01 0.01,0.01 h 2.99 c 0.01,0 0,-0.01 0,0 V 79 c 0,0.01 0.01,0 0,0 h -2.99 c -0.006,0 -0.01,0.004 -0.01,0.01 v 6 c 0,0.006 0.004,0.01 0.01,0.01 h 2.99 c 0.01,0 0,-0.01 0,0 V 91 c 0,0.01 0.01,0 0,0 h -2.99 c -0.006,0 -0.01,0.004 -0.01,0.01 v 6 c 0,0.006 0.004,0.01 0.01,0.01 h 2.99 c 0.01,0 0,-0.01 0,0 v 5.99 c 0,0.006 0.004,0.01 0.01,0.01 z"
       stroke="rgb(0,0,0)"
       stroke-width="0.05"
       id="path2807" />
  </g>
  <g
     id="p-14"
     style="fill:none;stroke:#ff0000;stroke-linecap:round;stroke-linejoin:round;stroke-opacity:1;stroke-width:0.1;stroke-miterlimit:4;stroke-dasharray:none"
     transform="translate(-6.3410922,36.74972)">
    <path
       style="stroke:#ff0000;stroke-opacity:1;stroke-width:0.1;stroke-miterlimit:4;stroke-dasharray:none"
       d="m 223.17,103.02 h 10.49 c 0.01,0 0,-0.01 0,0 v 2.99 c 0,0.006 0.004,0.01 0.01,0.01 h 6 c 0.006,0 0.01,-0.004 0.01,-0.01 v -2.99 c 0,-0.01 -0.01,0 0,0 h 10.49 c 0.006,0 0.01,-0.004 0.01,-0.01 v -35 c 0,-0.006 -0.004,-0.01 -0.01,-0.01 h -14 c -1.754,0 -3.476,-0.462 -4.995,-1.338 -1.519,-0.877 -2.78,-2.138 -3.657,-3.657 -0.876,-1.519 -1.338,-3.241 -1.338,-4.995 0,-1.754 0.462,-3.476 1.338,-4.995 0.877,-1.519 2.138,-2.78 3.657,-3.657 1.519,-0.876 3.241,-1.338 4.995,-1.338 h 14 c 0.006,0 0.01,-0.004 0.01,-0.01 v -35 c 0,-0.006 -0.004,-0.01 -0.01,-0.01 h -10.49 c -0.01,0 0,0.01 0,0 v -2.99 c 0,-0.006 -0.004,-0.01 -0.01,-0.01 h -6 c -0.006,0 -0.01,0.004 -0.01,0.01 V 13 c 0,0.01 0.01,0 0,0 h -10.49 c -0.006,0 -0.01,0.004 -0.01,0.01 V 19 c 0,0.01 0.01,0 0,0 h -2.99 c -0.006,0 -0.01,0.004 -0.01,0.01 v 6 c 0,0.006 0.004,0.01 0.01,0.01 h 2.99 c 0.01,0 0,-0.01 0,0 V 31 c 0,0.01 0.01,0 0,0 h -2.99 c -0.006,0 -0.01,0.004 -0.01,0.01 v 6 c 0,0.006 0.004,0.01 0.01,0.01 h 2.99 c 0.01,0 0,-0.01 0,0 V 43 c 0,0.01 0.01,0 0,0 h -2.99 c -0.006,0 -0.01,0.004 -0.01,0.01 v 6 c 0,0.006 0.004,0.01 0.01,0.01 h 2.99 c 0.01,0 0,-0.01 0,0 V 55 c 0,0.01 0.01,0 0,0 h -2.99 c -0.006,0 -0.01,0.004 -0.01,0.01 v 6 c 0,0.006 0.004,0.01 0.01,0.01 h 2.99 c 0.01,0 0,-0.01 0,0 V 67 c 0,0.01 0.01,0 0,0 h -2.99 c -0.006,0 -0.01,0.004 -0.01,0.01 v 6 c 0,0.006 0.004,0.01 0.01,0.01 h 2.99 c 0.01,0 0,-0.01 0,0 V 79 c 0,0.01 0.01,0 0,0 h -2.99 c -0.006,0 -0.01,0.004 -0.01,0.01 v 6 c 0,0.006 0.004,0.01 0.01,0.01 h 2.99 c 0.01,0 0,-0.01 0,0 V 91 c 0,0.01 0.01,0 0,0 h -2.99 c -0.006,0 -0.01,0.004 -0.01,0.01 v 6 c 0,0.006 0.004,0.01 0.01,0.01 h 2.99 c 0.01,0 0,-0.01 0,0 v 5.99 c 0,0.006 0.004,0.01 0.01,0.01 z"
       stroke="rgb(0,0,0)"
       stroke-width="0.05"
       id="path2810" />
  </g>
  <title
     id="title4414">HingeBox</title>
  <metadata
     id="metadata4416">
    <rdf:RDF>
      <cc:Work>
        <dc:title>Box - HingeBox</dc:title>
        <dc:date>2020-09-30 01:29:21</dc:date>
        <dc:source>boxes HingeBox --x=50 --y=50 --h=50 --outside=true --lidheight=20 --splitlid=0 --thickness=3 --tabs=0 --debug=false --reference=100 --burn=0.0099999997764825821 --FingerJoint_angle=90 --FingerJoint_style=rectangular --FingerJoint_surroundingspaces=2 --FingerJoint_edge_width=1 --FingerJoint_finger=2 --FingerJoint_play=0 --FingerJoint_space=2 --FingerJoint_width=1 --CabinetHinge_bore=3.2000000476837158 --CabinetHinge_eyes_per_hinge=5 --CabinetHinge_hinges=2 --CabinetHinge_style=inside --CabinetHinge_eye=1.5 --CabinetHinge_play=0.05000000074505806 --CabinetHinge_spacing=2</dc:source>
        <dc:description>Box with lid attached by cabinet hinges

Created with Boxes.py (https://festi.info/boxes.py)
Command line: boxes HingeBox --x=50 --y=50 --h=50 --outside=true --lidheight=20 --splitlid=0 --thickness=3 --tabs=0 --debug=false --reference=100 --burn=0.0099999997764825821 --FingerJoint_angle=90 --FingerJoint_style=rectangular --FingerJoint_surroundingspaces=2 --FingerJoint_edge_width=1 --FingerJoint_finger=2 --FingerJoint_play=0 --FingerJoint_space=2 --FingerJoint_width=1 --CabinetHinge_bore=3.2000000476837158 --CabinetHinge_eyes_per_hinge=5 --CabinetHinge_hinges=2 --CabinetHinge_style=inside --CabinetHinge_eye=1.5 --CabinetHinge_play=0.05000000074505806 --CabinetHinge_spacing=2
</dc:description>
      </cc:Work>
    </rdf:RDF>
  </metadata>
  <g
     id="p-0"
     style="fill:none;stroke-linecap:round;stroke-linejoin:round;stroke-width:0.09999225;stroke-miterlimit:4;stroke-dasharray:none"
     transform="matrix(1.000000,0,0,1.000155, -0.000000, 42.406584)">
    <path
       style="stroke:#ff0000;stroke-opacity:1;stroke-width:0.09999225;stroke-miterlimit:4;stroke-dasharray:none"
       d="M 250.89567,-3.0996448 V 96.884857 h 10.00155 V -3.0996448 Z"
       stroke="#000000"
       stroke-width="0.05"
       id="path4418" />
  </g>
  <g
     id="p-1"
     style="fill:none;stroke-linecap:round;stroke-linejoin:round;stroke:#ff0000;stroke-opacity:1;stroke-width:0.09999225;stroke-miterlimit:4;stroke-dasharray:none"
     transform="matrix(0,1,-1.000155,0,498.57406,29.29646)">
    <path
       style="stroke:#ff0000;stroke-opacity:1;stroke-width:0.09999225;stroke-miterlimit:4;stroke-dasharray:none"
       d="m 13.01,236.12 h 7 c 0.006,0 0.01,-0.004 0.01,-0.01 v -2.99 c 0,-0.01 -0.01,0 0,0 H 26 c 0.01,0 0,-0.01 0,0 v 2.99 c 0,0.006 0.004,0.01 0.01,0.01 h 6 c 0.006,0 0.01,-0.004 0.01,-0.01 v -2.99 c 0,-0.01 -0.01,0 0,0 H 38 c 0.01,0 0,-0.01 0,0 v 2.99 c 0,0.006 0.004,0.01 0.01,0.01 h 6 c 0.006,0 0.01,-0.004 0.01,-0.01 v -2.99 c 0,-0.01 -0.01,0 0,0 H 50 c 0.01,0 0,-0.01 0,0 v 2.99 c 0,0.006 0.004,0.01 0.01,0.01 h 7 3 c 0.006,0 0.01,-0.004 0.01,-0.01 v -3 -7 c 0,-0.006 -0.004,-0.01 -0.01,-0.01 h -2.99 c -0.01,0 0,0.01 0,0 v -5.98 c 0,-0.01 -0.01,0 0,0 h 2.99 c 0.006,0 0.01,-0.004 0.01,-0.01 v -6 c 0,-0.006 -0.004,-0.01 -0.01,-0.01 h -2.99 c -0.01,0 0,0.01 0,0 v -5.98 c 0,-0.01 -0.01,0 0,0 h 2.99 c 0.006,0 0.01,-0.004 0.01,-0.01 v -6 c 0,-0.006 -0.004,-0.01 -0.01,-0.01 h -2.99 c -0.01,0 0,0.01 0,0 v -5.98 c 0,-0.01 -0.01,0 0,0 h 2.99 c 0.006,0 0.01,-0.004 0.01,-0.01 v -7 c 0,-0.006 -0.004,-0.01 -0.01,-0.01 h -3 -44 -3 c -0.006,0 -0.01,0.004 -0.01,0.01 v 7 c 0,0.006 0.004,0.01 0.01,0.01 H 13 c 0.01,0 0,-0.01 0,0 v 5.98 c 0,0.01 0.01,0 0,0 h -2.99 c -0.006,0 -0.01,0.004 -0.01,0.01 v 6 c 0,0.006 0.004,0.01 0.01,0.01 H 13 c 0.01,0 0,-0.01 0,0 v 5.98 c 0,0.01 0.01,0 0,0 h -2.99 c -0.006,0 -0.01,0.004 -0.01,0.01 v 6 c 0,0.006 0.004,0.01 0.01,0.01 H 13 c 0.01,0 0,-0.01 0,0 v 5.98 c 0,0.01 0.01,0 0,0 h -2.99 c -0.006,0 -0.01,0.004 -0.01,0.01 v 7 3 c 0,0.006 0.004,0.01 0.01,0.01 z"
       stroke="#000000"
       stroke-width="0.05"
       id="path4423" />
  </g>
  <g
     id="p-2"
     style="fill:none;stroke-linecap:round;stroke-linejoin:round;stroke:#ff0000;stroke-opacity:1;stroke-width:0.09999225;stroke-miterlimit:4;stroke-dasharray:none"
     transform="matrix(0,1,-1.000155,0,498.57406,29.29646)">
    <path
       style="stroke:#ff0000;stroke-opacity:1;stroke-width:0.09999225;stroke-miterlimit:4;stroke-dasharray:none"
       d="m 64.53,236.12 h 7 c 0.006,0 0.01,-0.004 0.01,-0.01 v -2.99 c 0,-0.01 -0.01,0 0,0 h 5.98 c 0.01,0 0,-0.01 0,0 v 2.99 c 0,0.006 0.004,0.01 0.01,0.01 h 6 c 0.006,0 0.01,-0.004 0.01,-0.01 v -2.99 c 0,-0.01 -0.01,0 0,0 h 5.98 c 0.01,0 0,-0.01 0,0 v 2.99 c 0,0.006 0.004,0.01 0.01,0.01 h 6 c 0.006,0 0.01,-0.004 0.01,-0.01 v -2.99 c 0,-0.01 -0.01,0 0,0 h 5.98 c 0.01,0 0,-0.01 0,0 v 2.99 c 0,0.006 0.004,0.01 0.01,0.01 h 7 c 0.006,0 0.01,-0.004 0.01,-0.01 v -3 -6.99 c 0,-0.01 -0.01,0 0,0 h 2.99 c 0.006,0 0.01,-0.004 0.01,-0.01 v -6 c 0,-0.006 -0.004,-0.01 -0.01,-0.01 h -2.99 c -0.01,0 0,0.01 0,0 v -5.98 c 0,-0.01 -0.01,0 0,0 h 2.99 c 0.006,0 0.01,-0.004 0.01,-0.01 v -6 c 0,-0.006 -0.004,-0.01 -0.01,-0.01 h -2.99 c -0.01,0 0,0.01 0,0 v -5.98 c 0,-0.01 -0.01,0 0,0 h 2.99 c 0.006,0 0.01,-0.004 0.01,-0.01 v -6 c 0,-0.006 -0.004,-0.01 -0.01,-0.01 h -2.99 c -0.01,0 0,0.01 0,0 v -6.99 c 0,-0.006 -0.004,-0.01 -0.01,-0.01 h -44 c -0.006,0 -0.01,0.004 -0.01,0.01 v 6.99 c 0,0.01 0.01,0 0,0 h -2.99 c -0.006,0 -0.01,0.004 -0.01,0.01 v 6 c 0,0.006 0.004,0.01 0.01,0.01 h 2.99 c 0.01,0 0,-0.01 0,0 v 5.98 c 0,0.01 0.01,0 0,0 h -2.99 c -0.006,0 -0.01,0.004 -0.01,0.01 v 6 c 0,0.006 0.004,0.01 0.01,0.01 h 2.99 c 0.01,0 0,-0.01 0,0 v 5.98 c 0,0.01 0.01,0 0,0 h -2.99 c -0.006,0 -0.01,0.004 -0.01,0.01 v 6 c 0,0.006 0.004,0.01 0.01,0.01 h 2.99 c 0.01,0 0,-0.01 0,0 v 6.99 3 c 0,0.006 0.004,0.01 0.01,0.01 z"
       stroke="#000000"
       stroke-width="0.05"
       id="path4426" />
  </g>
  <g
     id="p-3"
     style="fill:none;stroke-linecap:round;stroke-linejoin:round;stroke:#ff0000;stroke-opacity:1;stroke-width:0.09999225;stroke-miterlimit:4;stroke-dasharray:none"
     transform="matrix(0,1,-1.000155,0,498.57406,29.29646)">
    <path
       style="stroke:#ff0000;stroke-opacity:1;stroke-width:0.09999225;stroke-miterlimit:4;stroke-dasharray:none"
       d="m 64.53,187.6 h 7 c 0.006,0 0.01,-0.004 0.01,-0.01 v -2.99 c 0,-0.01 -0.01,0 0,0 h 5.98 c 0.01,0 0,-0.01 0,0 v 2.99 c 0,0.006 0.004,0.01 0.01,0.01 h 6 c 0.006,0 0.01,-0.004 0.01,-0.01 v -2.99 c 0,-0.01 -0.01,0 0,0 h 5.98 c 0.01,0 0,-0.01 0,0 v 2.99 c 0,0.006 0.004,0.01 0.01,0.01 h 6 c 0.006,0 0.01,-0.004 0.01,-0.01 v -2.99 c 0,-0.01 -0.01,0 0,0 h 5.98 c 0.01,0 0,-0.01 0,0 v 2.99 c 0,0.006 0.004,0.01 0.01,0.01 h 7 c 0.006,0 0.01,-0.004 0.01,-0.01 v -3 -6.99 c 0,-0.01 -0.01,0 0,0 h 2.99 c 0.006,0 0.01,-0.004 0.01,-0.01 v -6 c 0,-0.006 -0.004,-0.01 -0.01,-0.01 h -2.99 c -0.01,0 0,0.01 0,0 v -5.98 c 0,-0.01 -0.01,0 0,0 h 2.99 c 0.006,0 0.01,-0.004 0.01,-0.01 v -6 c 0,-0.006 -0.004,-0.01 -0.01,-0.01 h -2.99 c -0.01,0 0,0.01 0,0 v -5.98 c 0,-0.01 -0.01,0 0,0 h 2.99 c 0.006,0 0.01,-0.004 0.01,-0.01 v -6 c 0,-0.006 -0.004,-0.01 -0.01,-0.01 h -2.99 c -0.01,0 0,0.01 0,0 v -6.99 c 0,-0.006 -0.004,-0.01 -0.01,-0.01 h -44 c -0.006,0 -0.01,0.004 -0.01,0.01 v 6.99 c 0,0.01 0.01,0 0,0 h -2.99 c -0.006,0 -0.01,0.004 -0.01,0.01 v 6 c 0,0.006 0.004,0.01 0.01,0.01 h 2.99 c 0.01,0 0,-0.01 0,0 v 5.98 c 0,0.01 0.01,0 0,0 h -2.99 c -0.006,0 -0.01,0.004 -0.01,0.01 v 6 c 0,0.006 0.004,0.01 0.01,0.01 h 2.99 c 0.01,0 0,-0.01 0,0 v 5.98 c 0,0.01 0.01,0 0,0 h -2.99 c -0.006,0 -0.01,0.004 -0.01,0.01 v 6 c 0,0.006 0.004,0.01 0.01,0.01 h 2.99 c 0.01,0 0,-0.01 0,0 v 6.99 3 c 0,0.006 0.004,0.01 0.01,0.01 z"
       stroke="#000000"
       stroke-width="0.05"
       id="path4429" />
  </g>
  <g
     id="p-4"
     style="fill:none;stroke-linecap:round;stroke-linejoin:round;stroke:#ff0000;stroke-opacity:1;stroke-width:0.09999225;stroke-miterlimit:4;stroke-dasharray:none"
     transform="matrix(0,1,-1.000155,0,498.57406,29.29646)">
    <path
       style="stroke:#ff0000;stroke-opacity:1;stroke-width:0.09999225;stroke-miterlimit:4;stroke-dasharray:none"
       d="m 13.01,187.6 h 7 c 0.006,0 0.01,-0.004 0.01,-0.01 v -2.99 c 0,-0.01 -0.01,0 0,0 H 26 c 0.01,0 0,-0.01 0,0 v 2.99 c 0,0.006 0.004,0.01 0.01,0.01 h 6 c 0.006,0 0.01,-0.004 0.01,-0.01 v -2.99 c 0,-0.01 -0.01,0 0,0 H 38 c 0.01,0 0,-0.01 0,0 v 2.99 c 0,0.006 0.004,0.01 0.01,0.01 h 6 c 0.006,0 0.01,-0.004 0.01,-0.01 v -2.99 c 0,-0.01 -0.01,0 0,0 H 50 c 0.01,0 0,-0.01 0,0 v 2.99 c 0,0.006 0.004,0.01 0.01,0.01 h 7 3 c 0.006,0 0.01,-0.004 0.01,-0.01 v -3 -7 c 0,-0.006 -0.004,-0.01 -0.01,-0.01 h -2.99 c -0.01,0 0,0.01 0,0 v -5.98 c 0,-0.01 -0.01,0 0,0 h 2.99 c 0.006,0 0.01,-0.004 0.01,-0.01 v -6 c 0,-0.006 -0.004,-0.01 -0.01,-0.01 h -2.99 c -0.01,0 0,0.01 0,0 v -5.98 c 0,-0.01 -0.01,0 0,0 h 2.99 c 0.006,0 0.01,-0.004 0.01,-0.01 v -6 c 0,-0.006 -0.004,-0.01 -0.01,-0.01 h -2.99 c -0.01,0 0,0.01 0,0 v -5.98 c 0,-0.01 -0.01,0 0,0 h 2.99 c 0.006,0 0.01,-0.004 0.01,-0.01 v -7 c 0,-0.006 -0.004,-0.01 -0.01,-0.01 h -3 -8.05 -6.15 c -0.006,0 -0.01,0.004 -0.01,0.01 v 4.65 2.84 c 0,0.01 0.01,0 0,0 h -2.98 c -0.01,0 0,0.01 0,0 v -2.84 c 0,-0.006 -0.004,-0.01 -0.01,-0.01 h -3.3 c -0.006,0 -0.01,0.004 -0.01,0.01 v 2.84 c 0,0.01 0.01,0 0,0 h -2.98 c -0.01,0 0,0.01 0,0 v -2.84 c 0,-0.006 -0.004,-0.01 -0.01,-0.01 h -3.3 c -0.006,0 -0.01,0.004 -0.01,0.01 v 2.84 c 0,0.01 0.01,0 0,0 h -2.98 c -0.01,0 0,0.01 0,0 v -2.84 -4.65 c 0,-0.006 -0.004,-0.01 -0.01,-0.01 h -6.15 -8.05 -3 c -0.006,0 -0.01,0.004 -0.01,0.01 v 7 c 0,0.006 0.004,0.01 0.01,0.01 H 13 c 0.01,0 0,-0.01 0,0 v 5.98 c 0,0.01 0.01,0 0,0 h -2.99 c -0.006,0 -0.01,0.004 -0.01,0.01 v 6 c 0,0.006 0.004,0.01 0.01,0.01 H 13 c 0.01,0 0,-0.01 0,0 v 5.98 c 0,0.01 0.01,0 0,0 h -2.99 c -0.006,0 -0.01,0.004 -0.01,0.01 v 6 c 0,0.006 0.004,0.01 0.01,0.01 H 13 c 0.01,0 0,-0.01 0,0 v 5.98 c 0,0.01 0.01,0 0,0 h -2.99 c -0.006,0 -0.01,0.004 -0.01,0.01 v 7 3 c 0,0.006 0.004,0.01 0.01,0.01 z"
       stroke="#000000"
       stroke-width="0.05"
       id="path4432" />
    <path
       style="stroke:#ff0000;stroke-opacity:1;stroke-width:0.09999225;stroke-miterlimit:4;stroke-dasharray:none"
       d="m 41.31,151.09 h 1.49 c 0.01,0 0,-0.01 0,0 v 2.98 c 0,0.01 0.01,0 0,0 h -2.98 c -0.01,0 0,0.01 0,0 v -2.98 c 0,-0.01 -0.01,0 0,0 z"
       stroke="#0000ff"
       stroke-width="0.05"
       id="path4434" />
    <path
       style="stroke:#ff0000;stroke-opacity:1;stroke-width:0.09999225;stroke-miterlimit:4;stroke-dasharray:none"
       d="m 35.01,151.09 h 1.49 c 0.01,0 0,-0.01 0,0 v 2.98 c 0,0.01 0.01,0 0,0 h -2.98 c -0.01,0 0,0.01 0,0 v -2.98 c 0,-0.01 -0.01,0 0,0 z"
       stroke="#0000ff"
       stroke-width="0.05"
       id="path4436" />
    <path
       style="stroke:#ff0000;stroke-opacity:1;stroke-width:0.09999225;stroke-miterlimit:4;stroke-dasharray:none"
       d="m 28.71,151.09 h 1.49 c 0.01,0 0,-0.01 0,0 v 2.98 c 0,0.01 0.01,0 0,0 h -2.98 c -0.01,0 0,0.01 0,0 v -2.98 c 0,-0.01 -0.01,0 0,0 z"
       stroke="#0000ff"
       stroke-width="0.05"
       id="path4438" />
  </g>
  <g
     id="p-5"
     style="fill:none;stroke-linecap:round;stroke-linejoin:round;stroke:#ff0000;stroke-opacity:1;stroke-width:0.09999225;stroke-miterlimit:4;stroke-dasharray:none"
     transform="matrix(0,1,-1.000155,0,498.57406,29.29646)">
    <path
       style="stroke:#ff0000;stroke-opacity:1;stroke-width:0.09999225;stroke-miterlimit:4;stroke-dasharray:none"
       d="m 13.01,139.08 h 8.05 6 c 0.006,0 0.01,-0.004 0.01,-0.01 v -4.65 c 0,-0.002 0,-0.003 -0.001,-0.005 -10e-4,-0.002 -0.002,-0.003 -0.004,-0.004 -0.002,-0.001 -0.003,-0.001 -0.005,-0.001 -0.002,0 -0.003,0 -0.005,0.001 -0.002,0.001 -0.003,0.002 -0.004,0.004 -10e-4,0.002 -10e-4,0.003 -10e-4,0.005 0,0.006 0.004,0.01 0.01,0.01 h 3.3 c 0.006,0 0.01,-0.004 0.01,-0.01 v -2.84 c 0,-0.01 -0.01,0 0,0 h 2.98 c 0.01,0 0,-0.01 0,0 v 2.84 c 0,0.006 0.004,0.01 0.01,0.01 h 3.3 c 0.006,0 0.01,-0.004 0.01,-0.01 v -2.84 c 0,-0.01 -0.01,0 0,0 h 2.98 c 0.01,0 0,-0.01 0,0 v 2.84 c 0,0.006 0.004,0.01 0.01,0.01 h 3.3 c 0.006,0 0.01,-0.004 0.01,-0.01 0,-0.002 0,-0.003 -10e-4,-0.005 -10e-4,-0.002 -0.002,-0.003 -0.004,-0.004 -0.002,-0.001 -0.003,-0.001 -0.005,-0.001 -0.002,0 -0.003,0 -0.005,0.001 -0.002,0.001 -0.003,0.002 -0.004,0.004 -10e-4,0.002 -10e-4,0.003 -10e-4,0.005 v 4.65 c 0,0.006 0.004,0.01 0.01,0.01 h 6 8.05 3 c 0.006,0 0.01,-0.004 0.01,-0.01 v -7 c 0,-0.006 -0.004,-0.01 -0.01,-0.01 h -2.99 c -0.01,0 0,0.01 0,0 v -5.98 c 0,-0.01 -0.01,0 0,0 h 2.99 c 0.006,0 0.01,-0.004 0.01,-0.01 v -7 -3 c 0,-0.006 -0.004,-0.01 -0.01,-0.01 h -3 -7 c -0.006,0 -0.01,0.004 -0.01,0.01 v 2.99 c 0,0.01 0.01,0 0,0 h -5.98 c -0.01,0 0,0.01 0,0 v -2.99 c 0,-0.006 -0.004,-0.01 -0.01,-0.01 h -6 c -0.006,0 -0.01,0.004 -0.01,0.01 v 2.99 c 0,0.01 0.01,0 0,0 h -5.98 c -0.01,0 0,0.01 0,0 v -2.99 c 0,-0.006 -0.004,-0.01 -0.01,-0.01 h -6 c -0.006,0 -0.01,0.004 -0.01,0.01 v 2.99 c 0,0.01 0.01,0 0,0 h -5.98 c -0.01,0 0,0.01 0,0 v -2.99 c 0,-0.006 -0.004,-0.01 -0.01,-0.01 h -7 -3 c -0.006,0 -0.01,0.004 -0.01,0.01 v 3 7 c 0,0.006 0.004,0.01 0.01,0.01 H 13 c 0.01,0 0,-0.01 0,0 v 5.98 c 0,0.01 0.01,0 0,0 h -2.99 c -0.006,0 -0.01,0.004 -0.01,0.01 v 7 c 0,0.006 0.004,0.01 0.01,0.01 z"
       stroke="#000000"
       stroke-width="0.05"
       id="path4441" />
    <path
       style="stroke:#ff0000;stroke-opacity:1;stroke-width:0.09999225;stroke-miterlimit:4;stroke-dasharray:none"
       d="m 31.86,128.57 h -1.49 c -0.01,0 0,0.01 0,0 v -2.98 c 0,-0.01 -0.01,0 0,0 h 2.98 c 0.01,0 0,-0.01 0,0 v 2.98 c 0,0.01 0.01,0 0,0 z"
       stroke="#0000ff"
       stroke-width="0.05"
       id="path4443" />
    <path
       style="stroke:#ff0000;stroke-opacity:1;stroke-width:0.09999225;stroke-miterlimit:4;stroke-dasharray:none"
       d="m 38.16,128.57 h -1.49 c -0.01,0 0,0.01 0,0 v -2.98 c 0,-0.01 -0.01,0 0,0 h 2.98 c 0.01,0 0,-0.01 0,0 v 2.98 c 0,0.01 0.01,0 0,0 z"
       stroke="#0000ff"
       stroke-width="0.05"
       id="path4445" />
  </g>
  <g
     id="p-6"
     style="fill:none;stroke-linecap:round;stroke-linejoin:round;stroke:#ff0000;stroke-opacity:1;stroke-width:0.09999225;stroke-miterlimit:4;stroke-dasharray:none"
     transform="matrix(0,1,-1.000155,0,498.57406,29.29646)">
    <path
       style="stroke:#ff0000;stroke-opacity:1;stroke-width:0.09999225;stroke-miterlimit:4;stroke-dasharray:none"
       d="m 64.53,139.08 h 44 c 0.006,0 0.01,-0.004 0.01,-0.01 v -6.99 c 0,-0.01 -0.01,0 0,0 h 2.99 c 0.006,0 0.01,-0.004 0.01,-0.01 v -6 c 0,-0.006 -0.004,-0.01 -0.01,-0.01 h -2.99 c -0.01,0 0,0.01 0,0 v -6.99 -3 c 0,-0.006 -0.004,-0.01 -0.01,-0.01 h -7 c -0.006,0 -0.01,0.004 -0.01,0.01 v 2.99 c 0,0.01 0.01,0 0,0 h -5.98 c -0.01,0 0,0.01 0,0 v -2.99 c 0,-0.006 -0.004,-0.01 -0.01,-0.01 h -6 c -0.006,0 -0.01,0.004 -0.01,0.01 v 2.99 c 0,0.01 0.01,0 0,0 h -5.98 c -0.01,0 0,0.01 0,0 v -2.99 c 0,-0.006 -0.004,-0.01 -0.01,-0.01 h -6 c -0.006,0 -0.01,0.004 -0.01,0.01 v 2.99 c 0,0.01 0.01,0 0,0 h -5.98 c -0.01,0 0,0.01 0,0 v -2.99 c 0,-0.006 -0.004,-0.01 -0.01,-0.01 h -7 c -0.006,0 -0.01,0.004 -0.01,0.01 v 3 6.99 c 0,0.01 0.01,0 0,0 h -2.99 c -0.006,0 -0.01,0.004 -0.01,0.01 v 6 c 0,0.006 0.004,0.01 0.01,0.01 h 2.99 c 0.01,0 0,-0.01 0,0 v 6.99 c 0,0.006 0.004,0.01 0.01,0.01 z"
       stroke="#000000"
       stroke-width="0.05"
       id="path4448" />
  </g>
  <g
     id="p-7"
     style="fill:none;stroke-linecap:round;stroke-linejoin:round;stroke:#ff0000;stroke-opacity:1;stroke-width:0.09999225;stroke-miterlimit:4;stroke-dasharray:none"
     transform="matrix(0,1,-1.000155,0,498.57406,29.29646)">
    <path
       style="stroke:#ff0000;stroke-opacity:1;stroke-width:0.09999225;stroke-miterlimit:4;stroke-dasharray:none"
       d="m 64.53,114.56 h 44 c 0.006,0 0.01,-0.004 0.01,-0.01 v -6.99 c 0,-0.01 -0.01,0 0,0 h 2.99 c 0.006,0 0.01,-0.004 0.01,-0.01 v -6 c 0,-0.006 -0.004,-0.01 -0.01,-0.01 h -2.99 c -0.01,0 0,0.01 0,0 v -6.99 -3 c 0,-0.006 -0.004,-0.01 -0.01,-0.01 h -7 c -0.006,0 -0.01,0.004 -0.01,0.01 v 2.99 c 0,0.01 0.01,0 0,0 h -5.98 c -0.01,0 0,0.01 0,0 v -2.99 c 0,-0.006 -0.004,-0.01 -0.01,-0.01 h -6 c -0.006,0 -0.01,0.004 -0.01,0.01 v 2.99 c 0,0.01 0.01,0 0,0 h -5.98 c -0.01,0 0,0.01 0,0 v -2.99 c 0,-0.006 -0.004,-0.01 -0.01,-0.01 h -6 c -0.006,0 -0.01,0.004 -0.01,0.01 v 2.99 c 0,0.01 0.01,0 0,0 h -5.98 c -0.01,0 0,0.01 0,0 v -2.99 c 0,-0.006 -0.004,-0.01 -0.01,-0.01 h -7 c -0.006,0 -0.01,0.004 -0.01,0.01 v 3 6.99 c 0,0.01 0.01,0 0,0 h -2.99 c -0.006,0 -0.01,0.004 -0.01,0.01 v 6 c 0,0.006 0.004,0.01 0.01,0.01 h 2.99 c 0.01,0 0,-0.01 0,0 v 6.99 c 0,0.006 0.004,0.01 0.01,0.01 z"
       stroke="#000000"
       stroke-width="0.05"
       id="path4451" />
  </g>
  <g
     id="p-8"
     style="fill:none;stroke-linecap:round;stroke-linejoin:round;stroke:#ff0000;stroke-opacity:1;stroke-width:0.09999225;stroke-miterlimit:4;stroke-dasharray:none"
     transform="matrix(0,1,-1.000155,0,498.57406,29.29646)">
    <path
       style="stroke:#ff0000;stroke-opacity:1;stroke-width:0.09999225;stroke-miterlimit:4;stroke-dasharray:none"
       d="m 13.01,114.56 h 44 3 c 0.006,0 0.01,-0.004 0.01,-0.01 v -7 c 0,-0.006 -0.004,-0.01 -0.01,-0.01 h -2.99 c -0.01,0 0,0.01 0,0 v -5.98 c 0,-0.01 -0.01,0 0,0 h 2.99 c 0.006,0 0.01,-0.004 0.01,-0.01 v -7 -3 c 0,-0.006 -0.004,-0.01 -0.01,-0.01 h -3 -7 c -0.006,0 -0.01,0.004 -0.01,0.01 v 2.99 c 0,0.01 0.01,0 0,0 h -5.98 c -0.01,0 0,0.01 0,0 v -2.99 c 0,-0.006 -0.004,-0.01 -0.01,-0.01 h -6 c -0.006,0 -0.01,0.004 -0.01,0.01 v 2.99 c 0,0.01 0.01,0 0,0 h -5.98 c -0.01,0 0,0.01 0,0 v -2.99 c 0,-0.006 -0.004,-0.01 -0.01,-0.01 h -6 c -0.006,0 -0.01,0.004 -0.01,0.01 v 2.99 c 0,0.01 0.01,0 0,0 h -5.98 c -0.01,0 0,0.01 0,0 v -2.99 c 0,-0.006 -0.004,-0.01 -0.01,-0.01 h -7 -3 c -0.006,0 -0.01,0.004 -0.01,0.01 v 3 7 c 0,0.006 0.004,0.01 0.01,0.01 H 13 c 0.01,0 0,-0.01 0,0 v 5.98 c 0,0.01 0.01,0 0,0 h -2.99 c -0.006,0 -0.01,0.004 -0.01,0.01 v 7 c 0,0.006 0.004,0.01 0.01,0.01 z"
       stroke="#000000"
       stroke-width="0.05"
       id="path4454" />
  </g>
  <g
     id="p-9"
     style="fill:none;stroke-linecap:round;stroke-linejoin:round;stroke:#ff0000;stroke-opacity:1;stroke-width:0.09999225;stroke-miterlimit:4;stroke-dasharray:none"
     transform="matrix(0,1,-1.000155,0,498.57406,29.29646)">
    <path
       style="stroke:#ff0000;stroke-opacity:1;stroke-width:0.09999225;stroke-miterlimit:4;stroke-dasharray:none"
       d="m 64.53,87.04 h 6.99 c 0.01,0 0,-0.01 0,0 v 2.99 c 0,0.006 0.004,0.01 0.01,0.01 h 6 c 0.006,0 0.01,-0.004 0.01,-0.01 v -2.99 c 0,-0.01 -0.01,0 0,0 h 5.98 c 0.01,0 0,-0.01 0,0 v 2.99 c 0,0.006 0.004,0.01 0.01,0.01 h 6 c 0.006,0 0.01,-0.004 0.01,-0.01 v -2.99 c 0,-0.01 -0.01,0 0,0 h 5.98 c 0.01,0 0,-0.01 0,0 v 2.99 c 0,0.006 0.004,0.01 0.01,0.01 h 6 c 0.006,0 0.01,-0.004 0.01,-0.01 v -2.99 c 0,-0.01 -0.01,0 0,0 h 6.99 c 0.006,0 0.01,-0.004 0.01,-0.01 v -6.99 c 0,-0.01 -0.01,0 0,0 h 2.99 c 0.006,0 0.01,-0.004 0.01,-0.01 v -6 c 0,-0.006 -0.004,-0.01 -0.01,-0.01 h -2.99 c -0.01,0 0,0.01 0,0 v -5.98 c 0,-0.01 -0.01,0 0,0 h 2.99 c 0.006,0 0.01,-0.004 0.01,-0.01 v -6 c 0,-0.006 -0.004,-0.01 -0.01,-0.01 h -2.99 c -0.01,0 0,0.01 0,0 v -5.98 c 0,-0.01 -0.01,0 0,0 h 2.99 c 0.006,0 0.01,-0.004 0.01,-0.01 v -6 c 0,-0.006 -0.004,-0.01 -0.01,-0.01 h -2.99 c -0.01,0 0,0.01 0,0 v -6.99 c 0,-0.006 -0.004,-0.01 -0.01,-0.01 h -6.99 c -0.01,0 0,0.01 0,0 v -2.99 c 0,-0.006 -0.004,-0.01 -0.01,-0.01 h -6 c -0.006,0 -0.01,0.004 -0.01,0.01 v 2.99 c 0,0.01 0.01,0 0,0 h -5.98 c -0.01,0 0,0.01 0,0 v -2.99 c 0,-0.006 -0.004,-0.01 -0.01,-0.01 h -6 c -0.006,0 -0.01,0.004 -0.01,0.01 v 2.99 c 0,0.01 0.01,0 0,0 h -5.98 c -0.01,0 0,0.01 0,0 v -2.99 c 0,-0.006 -0.004,-0.01 -0.01,-0.01 h -6 c -0.006,0 -0.01,0.004 -0.01,0.01 v 2.99 c 0,0.01 0.01,0 0,0 h -6.99 c -0.006,0 -0.01,0.004 -0.01,0.01 v 6.99 c 0,0.01 0.01,0 0,0 h -2.99 c -0.006,0 -0.01,0.004 -0.01,0.01 v 6 c 0,0.006 0.004,0.01 0.01,0.01 h 2.99 c 0.01,0 0,-0.01 0,0 v 5.98 c 0,0.01 0.01,0 0,0 h -2.99 c -0.006,0 -0.01,0.004 -0.01,0.01 v 6 c 0,0.006 0.004,0.01 0.01,0.01 h 2.99 c 0.01,0 0,-0.01 0,0 v 5.98 c 0,0.01 0.01,0 0,0 h -2.99 c -0.006,0 -0.01,0.004 -0.01,0.01 v 6 c 0,0.006 0.004,0.01 0.01,0.01 h 2.99 c 0.01,0 0,-0.01 0,0 v 6.99 c 0,0.006 0.004,0.01 0.01,0.01 z"
       stroke="#000000"
       stroke-width="0.05"
       id="path4457" />
  </g>
  <g
     id="p-10"
     style="fill:none;stroke-linecap:round;stroke-linejoin:round;stroke:#ff0000;stroke-opacity:1;stroke-width:0.09999225;stroke-miterlimit:4;stroke-dasharray:none"
     transform="matrix(0,1,-1.000155,0,498.57406,29.29646)">
    <path
       style="stroke:#ff0000;stroke-opacity:1;stroke-width:0.09999225;stroke-miterlimit:4;stroke-dasharray:none"
       d="M 13.01,87.04 H 20 c 0.01,0 0,-0.01 0,0 v 2.99 c 0,0.006 0.004,0.01 0.01,0.01 h 6 c 0.006,0 0.01,-0.004 0.01,-0.01 v -2.99 c 0,-0.01 -0.01,0 0,0 H 32 c 0.01,0 0,-0.01 0,0 v 2.99 c 0,0.006 0.004,0.01 0.01,0.01 h 6 c 0.006,0 0.01,-0.004 0.01,-0.01 v -2.99 c 0,-0.01 -0.01,0 0,0 H 44 c 0.01,0 0,-0.01 0,0 v 2.99 c 0,0.006 0.004,0.01 0.01,0.01 h 6 c 0.006,0 0.01,-0.004 0.01,-0.01 v -2.99 c 0,-0.01 -0.01,0 0,0 h 6.99 c 0.006,0 0.01,-0.004 0.01,-0.01 v -6.99 c 0,-0.01 -0.01,0 0,0 h 2.99 c 0.006,0 0.01,-0.004 0.01,-0.01 v -6 c 0,-0.006 -0.004,-0.01 -0.01,-0.01 h -2.99 c -0.01,0 0,0.01 0,0 v -5.98 c 0,-0.01 -0.01,0 0,0 h 2.99 c 0.006,0 0.01,-0.004 0.01,-0.01 v -6 c 0,-0.006 -0.004,-0.01 -0.01,-0.01 h -2.99 c -0.01,0 0,0.01 0,0 v -5.98 c 0,-0.01 -0.01,0 0,0 h 2.99 c 0.006,0 0.01,-0.004 0.01,-0.01 v -6 c 0,-0.006 -0.004,-0.01 -0.01,-0.01 h -2.99 c -0.01,0 0,0.01 0,0 v -6.99 c 0,-0.006 -0.004,-0.01 -0.01,-0.01 h -6.99 c -0.01,0 0,0.01 0,0 v -2.99 c 0,-0.006 -0.004,-0.01 -0.01,-0.01 h -6 c -0.006,0 -0.01,0.004 -0.01,0.01 v 2.99 c 0,0.01 0.01,0 0,0 h -5.98 c -0.01,0 0,0.01 0,0 v -2.99 c 0,-0.006 -0.004,-0.01 -0.01,-0.01 h -6 c -0.006,0 -0.01,0.004 -0.01,0.01 v 2.99 c 0,0.01 0.01,0 0,0 h -5.98 c -0.01,0 0,0.01 0,0 v -2.99 c 0,-0.006 -0.004,-0.01 -0.01,-0.01 h -6 c -0.006,0 -0.01,0.004 -0.01,0.01 v 2.99 c 0,0.01 0.01,0 0,0 h -6.99 c -0.006,0 -0.01,0.004 -0.01,0.01 v 6.99 c 0,0.01 0.01,0 0,0 h -2.99 c -0.006,0 -0.01,0.004 -0.01,0.01 v 6 c 0,0.006 0.004,0.01 0.01,0.01 H 13 c 0.01,0 0,-0.01 0,0 v 5.98 c 0,0.01 0.01,0 0,0 h -2.99 c -0.006,0 -0.01,0.004 -0.01,0.01 v 6 c 0,0.006 0.004,0.01 0.01,0.01 H 13 c 0.01,0 0,-0.01 0,0 v 5.98 c 0,0.01 0.01,0 0,0 h -2.99 c -0.006,0 -0.01,0.004 -0.01,0.01 v 6 c 0,0.006 0.004,0.01 0.01,0.01 H 13 c 0.01,0 0,-0.01 0,0 v 6.99 c 0,0.006 0.004,0.01 0.01,0.01 z"
       stroke="#000000"
       stroke-width="0.05"
       id="path4460" />
  </g>
  <g
     id="p-11"
     style="fill:none;stroke-linecap:round;stroke-linejoin:round;stroke:#ff0000;stroke-opacity:1;stroke-width:0.09999225;stroke-miterlimit:4;stroke-dasharray:none"
     transform="matrix(0,1,-1.000155,0,498.57406,29.29646)">
    <path
       style="stroke:#ff0000;stroke-opacity:1;stroke-width:0.09999225;stroke-miterlimit:4;stroke-dasharray:none"
       d="m 17.6,34.02 c 0,0.305 -0.088,0.603 -0.252,0.86 -0.165,0.256 -0.4,0.46 -0.677,0.586 -0.278,0.127 -0.586,0.171 -0.887,0.128 -0.302,-0.044 -0.585,-0.173 -0.815,-0.372 -0.231,-0.2 -0.399,-0.462 -0.485,-0.754 -0.085,-0.293 -0.085,-0.603 0,-0.896 0.086,-0.292 0.254,-0.554 0.485,-0.754 0.23,-0.199 0.513,-0.328 0.815,-0.372 0.301,-0.043 0.609,0.001 0.887,0.128 0.277,0.126 0.512,0.33 0.677,0.586 0.164,0.257 0.252,0.555 0.252,0.86 z"
       stroke="#0000ff"
       stroke-width="0.05"
       id="path4463" />
    <path
       style="stroke:#ff0000;stroke-opacity:1;stroke-width:0.09999225;stroke-miterlimit:4;stroke-dasharray:none"
       d="m 16.01,38.52 c 0.792,0 1.569,-0.208 2.255,-0.604 0.686,-0.396 1.255,-0.965 1.651,-1.651 0.396,-0.686 0.604,-1.463 0.604,-2.255 0,-0.792 -0.208,-1.569 -0.604,-2.255 C 19.52,31.069 18.951,30.5 18.265,30.104 17.579,29.708 16.802,29.5 16.01,29.5 c 0.006,0 0.01,0.004 0.01,0.01 v -3 c 0,-0.006 -0.004,-0.01 -0.01,-0.01 h -2.99 c -0.01,0 0,0.01 0,0 v -2.98 c 0,-0.01 -0.01,0 0,0 h 2.99 c 0.006,0 0.01,-0.004 0.01,-0.01 v -3 c 0,-0.006 -0.004,-0.01 -0.01,-0.01 h -3 c -0.528,0 -1.047,0.139 -1.505,0.403 -0.458,0.264 -0.838,0.644 -1.102,1.102 C 10.139,22.463 10,22.982 10,23.51 v 9 c 0,1.055 0.278,2.091 0.805,3.005 0.528,0.914 1.286,1.672 2.2,2.2 0.914,0.527 1.95,0.805 3.005,0.805 z"
       stroke="#000000"
       stroke-width="0.05"
       id="path4465" />
    <path
       style="stroke:#ff0000;stroke-opacity:1;stroke-width:0.09999225;stroke-miterlimit:4;stroke-dasharray:none"
       d="m 15.94,14.5 c 0,-0.305 0.088,-0.603 0.252,-0.86 0.165,-0.256 0.4,-0.46 0.677,-0.586 0.278,-0.127 0.586,-0.171 0.887,-0.128 0.302,0.044 0.585,0.173 0.815,0.372 0.231,0.2 0.399,0.462 0.485,0.754 0.085,0.293 0.085,0.603 0,0.896 -0.086,0.292 -0.254,0.554 -0.485,0.754 -0.23,0.199 -0.513,0.328 -0.815,0.372 -0.301,0.043 -0.609,-0.001 -0.887,-0.128 C 16.592,15.82 16.357,15.616 16.192,15.36 16.028,15.103 15.94,14.805 15.94,14.5 Z"
       stroke="#0000ff"
       stroke-width="0.05"
       id="path4467" />
    <path
       style="stroke:#ff0000;stroke-opacity:1;stroke-width:0.09999225;stroke-miterlimit:4;stroke-dasharray:none"
       d="m 17.53,10 c -0.792,0 -1.569,0.208 -2.255,0.604 -0.686,0.396 -1.255,0.965 -1.651,1.651 -0.396,0.686 -0.604,1.463 -0.604,2.255 0,0.792 0.208,1.569 0.604,2.255 0.396,0.686 0.965,1.255 1.651,1.651 0.686,0.396 1.463,0.604 2.255,0.604 -0.006,0 -0.01,-0.004 -0.01,-0.01 v 3 c 0,0.006 0.004,0.01 0.01,0.01 h 2.99 c 0.01,0 0,-0.01 0,0 V 25 c 0,0.01 0.01,0 0,0 h -2.99 c -0.006,0 -0.01,0.004 -0.01,0.01 v 3 c 0,0.006 0.004,0.01 0.01,0.01 h 3 c 0.528,0 1.047,-0.139 1.505,-0.403 0.458,-0.264 0.838,-0.644 1.102,-1.102 0.264,-0.458 0.403,-0.977 0.403,-1.505 v -9 c 0,-1.055 -0.278,-2.091 -0.805,-3.005 -0.528,-0.914 -1.286,-1.672 -2.2,-2.2 C 19.621,10.278 18.585,10 17.53,10 Z"
       stroke="#000000"
       stroke-width="0.05"
       id="path4469" />
    <path
       style="stroke:#ff0000;stroke-opacity:1;stroke-width:0.09999225;stroke-miterlimit:4;stroke-dasharray:none"
       d="m 32.64,34.02 c 0,0.305 -0.088,0.603 -0.252,0.86 -0.165,0.256 -0.4,0.46 -0.677,0.586 -0.278,0.127 -0.586,0.171 -0.887,0.128 -0.302,-0.044 -0.585,-0.173 -0.815,-0.372 -0.231,-0.2 -0.399,-0.462 -0.485,-0.754 -0.085,-0.293 -0.085,-0.603 0,-0.896 0.086,-0.292 0.254,-0.554 0.485,-0.754 0.23,-0.199 0.513,-0.328 0.815,-0.372 0.301,-0.043 0.609,0.001 0.887,0.128 0.277,0.126 0.512,0.33 0.677,0.586 0.164,0.257 0.252,0.555 0.252,0.86 z"
       stroke="#0000ff"
       stroke-width="0.05"
       id="path4471" />
    <path
       style="stroke:#ff0000;stroke-opacity:1;stroke-width:0.09999225;stroke-miterlimit:4;stroke-dasharray:none"
       d="m 31.05,38.52 c 0.792,0 1.569,-0.208 2.255,-0.604 0.686,-0.396 1.255,-0.965 1.651,-1.651 0.396,-0.686 0.604,-1.463 0.604,-2.255 0,-0.792 -0.208,-1.569 -0.604,-2.255 C 34.56,31.069 33.991,30.5 33.305,30.104 32.619,29.708 31.842,29.5 31.05,29.5 c 0.006,0 0.01,0.004 0.01,0.01 v -3 c 0,-0.006 -0.004,-0.01 -0.01,-0.01 h -2.99 c -0.01,0 0,0.01 0,0 v -2.98 c 0,-0.01 -0.01,0 0,0 h 2.99 c 0.006,0 0.01,-0.004 0.01,-0.01 v -3 c 0,-0.006 -0.004,-0.01 -0.01,-0.01 h -3 c -0.528,0 -1.047,0.139 -1.505,0.403 -0.458,0.264 -0.838,0.644 -1.102,1.102 -0.264,0.458 -0.403,0.977 -0.403,1.505 v 9 c 0,1.055 0.278,2.091 0.805,3.005 0.528,0.914 1.286,1.672 2.2,2.2 0.914,0.527 1.95,0.805 3.005,0.805 z"
       stroke="#000000"
       stroke-width="0.05"
       id="path4473" />
    <path
       style="stroke:#ff0000;stroke-opacity:1;stroke-width:0.09999225;stroke-miterlimit:4;stroke-dasharray:none"
       d="m 30.98,14.5 c 0,-0.305 0.088,-0.603 0.252,-0.86 0.165,-0.256 0.4,-0.46 0.677,-0.586 0.278,-0.127 0.586,-0.171 0.887,-0.128 0.302,0.044 0.585,0.173 0.815,0.372 0.231,0.2 0.399,0.462 0.485,0.754 0.085,0.293 0.085,0.603 0,0.896 -0.086,0.292 -0.254,0.554 -0.485,0.754 -0.23,0.199 -0.513,0.328 -0.815,0.372 -0.301,0.043 -0.609,-0.001 -0.887,-0.128 C 31.632,15.82 31.397,15.616 31.232,15.36 31.068,15.103 30.98,14.805 30.98,14.5 Z"
       stroke="#0000ff"
       stroke-width="0.05"
       id="path4475" />
    <path
       style="stroke:#ff0000;stroke-opacity:1;stroke-width:0.09999225;stroke-miterlimit:4;stroke-dasharray:none"
       d="m 32.57,10 c -0.792,0 -1.569,0.208 -2.255,0.604 -0.686,0.396 -1.255,0.965 -1.651,1.651 -0.396,0.686 -0.604,1.463 -0.604,2.255 0,0.792 0.208,1.569 0.604,2.255 0.396,0.686 0.965,1.255 1.651,1.651 0.686,0.396 1.463,0.604 2.255,0.604 -0.006,0 -0.01,-0.004 -0.01,-0.01 v 3 c 0,0.006 0.004,0.01 0.01,0.01 h 2.99 c 0.01,0 0,-0.01 0,0 V 25 c 0,0.01 0.01,0 0,0 h -2.99 c -0.006,0 -0.01,0.004 -0.01,0.01 v 3 c 0,0.006 0.004,0.01 0.01,0.01 h 3 c 0.528,0 1.047,-0.139 1.505,-0.403 0.458,-0.264 0.838,-0.644 1.102,-1.102 0.264,-0.458 0.403,-0.977 0.403,-1.505 v -9 c 0,-1.055 -0.278,-2.091 -0.805,-3.005 -0.528,-0.914 -1.286,-1.672 -2.2,-2.2 C 34.661,10.278 33.625,10 32.57,10 Z"
       stroke="#000000"
       stroke-width="0.05"
       id="path4477" />
    <path
       style="stroke:#ff0000;stroke-opacity:1;stroke-width:0.09999225;stroke-miterlimit:4;stroke-dasharray:none"
       d="m 47.68,34.02 c 0,0.305 -0.088,0.603 -0.252,0.86 -0.165,0.256 -0.4,0.46 -0.677,0.586 -0.278,0.127 -0.586,0.171 -0.887,0.128 -0.302,-0.044 -0.585,-0.173 -0.815,-0.372 -0.231,-0.2 -0.399,-0.462 -0.485,-0.754 -0.085,-0.293 -0.085,-0.603 0,-0.896 0.086,-0.292 0.254,-0.554 0.485,-0.754 0.23,-0.199 0.513,-0.328 0.815,-0.372 0.301,-0.043 0.609,0.001 0.887,0.128 0.277,0.126 0.512,0.33 0.677,0.586 0.164,0.257 0.252,0.555 0.252,0.86 z"
       stroke="#0000ff"
       stroke-width="0.05"
       id="path4479" />
    <path
       style="stroke:#ff0000;stroke-opacity:1;stroke-width:0.09999225;stroke-miterlimit:4;stroke-dasharray:none"
       d="m 46.09,38.52 c 0.792,0 1.569,-0.208 2.255,-0.604 0.686,-0.396 1.255,-0.965 1.651,-1.651 0.396,-0.686 0.604,-1.463 0.604,-2.255 0,-0.792 -0.208,-1.569 -0.604,-2.255 C 49.6,31.069 49.031,30.5 48.345,30.104 47.659,29.708 46.882,29.5 46.09,29.5 c 0.006,0 0.01,0.004 0.01,0.01 v -3 c 0,-0.006 -0.004,-0.01 -0.01,-0.01 H 43.1 c -0.01,0 0,0.01 0,0 v -2.98 c 0,-0.01 -0.01,0 0,0 h 2.99 c 0.006,0 0.01,-0.004 0.01,-0.01 v -3 c 0,-0.006 -0.004,-0.01 -0.01,-0.01 h -3 c -0.528,0 -1.047,0.139 -1.505,0.403 -0.458,0.264 -0.838,0.644 -1.102,1.102 -0.264,0.458 -0.403,0.977 -0.403,1.505 v 9 c 0,1.055 0.278,2.091 0.805,3.005 0.528,0.914 1.286,1.672 2.2,2.2 0.914,0.527 1.95,0.805 3.005,0.805 z"
       stroke="#000000"
       stroke-width="0.05"
       id="path4481" />
    <path
       style="stroke:#ff0000;stroke-opacity:1;stroke-width:0.09999225;stroke-miterlimit:4;stroke-dasharray:none"
       d="m 46.02,14.5 c 0,-0.305 0.088,-0.603 0.252,-0.86 0.165,-0.256 0.4,-0.46 0.677,-0.586 0.278,-0.127 0.586,-0.171 0.887,-0.128 0.302,0.044 0.585,0.173 0.815,0.372 0.231,0.2 0.399,0.462 0.485,0.754 0.085,0.293 0.085,0.603 0,0.896 -0.086,0.292 -0.254,0.554 -0.485,0.754 -0.23,0.199 -0.513,0.328 -0.815,0.372 -0.301,0.043 -0.609,-0.001 -0.887,-0.128 C 46.672,15.82 46.437,15.616 46.272,15.36 46.108,15.103 46.02,14.805 46.02,14.5 Z"
       stroke="#0000ff"
       stroke-width="0.05"
       id="path4483" />
    <path
       style="stroke:#ff0000;stroke-opacity:1;stroke-width:0.09999225;stroke-miterlimit:4;stroke-dasharray:none"
       d="m 47.61,10 c -0.792,0 -1.569,0.208 -2.255,0.604 C 44.669,11 44.1,11.569 43.704,12.255 43.308,12.941 43.1,13.718 43.1,14.51 c 0,0.792 0.208,1.569 0.604,2.255 0.396,0.686 0.965,1.255 1.651,1.651 0.686,0.396 1.463,0.604 2.255,0.604 -0.006,0 -0.01,-0.004 -0.01,-0.01 v 3 c 0,0.006 0.004,0.01 0.01,0.01 h 2.99 c 0.01,0 0,-0.01 0,0 V 25 c 0,0.01 0.01,0 0,0 h -2.99 c -0.006,0 -0.01,0.004 -0.01,0.01 v 3 c 0,0.006 0.004,0.01 0.01,0.01 h 3 c 0.528,0 1.047,-0.139 1.505,-0.403 0.458,-0.264 0.838,-0.644 1.102,-1.102 0.264,-0.458 0.403,-0.977 0.403,-1.505 v -9 c 0,-1.055 -0.278,-2.091 -0.805,-3.005 -0.528,-0.914 -1.286,-1.672 -2.2,-2.2 C 49.701,10.278 48.665,10 47.61,10 Z"
       stroke="#000000"
       stroke-width="0.05"
       id="path4485" />
    <path
       style="stroke:#ff0000;stroke-opacity:1;stroke-width:0.09999225;stroke-miterlimit:4;stroke-dasharray:none"
       d="m 62.72,34.02 c 0,0.305 -0.088,0.603 -0.252,0.86 -0.165,0.256 -0.4,0.46 -0.677,0.586 -0.278,0.127 -0.586,0.171 -0.887,0.128 -0.302,-0.044 -0.585,-0.173 -0.815,-0.372 -0.231,-0.2 -0.399,-0.462 -0.485,-0.754 -0.085,-0.293 -0.085,-0.603 0,-0.896 0.086,-0.292 0.254,-0.554 0.485,-0.754 0.23,-0.199 0.513,-0.328 0.815,-0.372 0.301,-0.043 0.609,0.001 0.887,0.128 0.277,0.126 0.512,0.33 0.677,0.586 0.164,0.257 0.252,0.555 0.252,0.86 z"
       stroke="#0000ff"
       stroke-width="0.05"
       id="path4487" />
    <path
       style="stroke:#ff0000;stroke-opacity:1;stroke-width:0.09999225;stroke-miterlimit:4;stroke-dasharray:none"
       d="m 61.13,38.52 c 0.792,0 1.569,-0.208 2.255,-0.604 0.686,-0.396 1.255,-0.965 1.651,-1.651 0.396,-0.686 0.604,-1.463 0.604,-2.255 0,-0.792 -0.208,-1.569 -0.604,-2.255 C 64.64,31.069 64.071,30.5 63.385,30.104 62.699,29.708 61.922,29.5 61.13,29.5 c 0.006,0 0.01,0.004 0.01,0.01 v -3 c 0,-0.006 -0.004,-0.01 -0.01,-0.01 h -2.99 c -0.01,0 0,0.01 0,0 v -2.98 c 0,-0.01 -0.01,0 0,0 h 2.99 c 0.006,0 0.01,-0.004 0.01,-0.01 v -3 c 0,-0.006 -0.004,-0.01 -0.01,-0.01 h -3 c -0.528,0 -1.047,0.139 -1.505,0.403 -0.458,0.264 -0.838,0.644 -1.102,1.102 -0.264,0.458 -0.403,0.977 -0.403,1.505 v 9 c 0,1.055 0.278,2.091 0.805,3.005 0.528,0.914 1.286,1.672 2.2,2.2 0.914,0.527 1.95,0.805 3.005,0.805 z"
       stroke="#000000"
       stroke-width="0.05"
       id="path4489" />
    <path
       style="stroke:#ff0000;stroke-opacity:1;stroke-width:0.09999225;stroke-miterlimit:4;stroke-dasharray:none"
       d="m 61.06,14.5 c 0,-0.305 0.088,-0.603 0.252,-0.86 0.165,-0.256 0.4,-0.46 0.677,-0.586 0.278,-0.127 0.586,-0.171 0.887,-0.128 0.302,0.044 0.585,0.173 0.815,0.372 0.231,0.2 0.399,0.462 0.485,0.754 0.085,0.293 0.085,0.603 0,0.896 -0.086,0.292 -0.254,0.554 -0.485,0.754 -0.23,0.199 -0.513,0.328 -0.815,0.372 -0.301,0.043 -0.609,-0.001 -0.887,-0.128 C 61.712,15.82 61.477,15.616 61.312,15.36 61.148,15.103 61.06,14.805 61.06,14.5 Z"
       stroke="#0000ff"
       stroke-width="0.05"
       id="path4491" />
    <path
       style="stroke:#ff0000;stroke-opacity:1;stroke-width:0.09999225;stroke-miterlimit:4;stroke-dasharray:none"
       d="m 62.65,10 c -0.792,0 -1.569,0.208 -2.255,0.604 -0.686,0.396 -1.255,0.965 -1.651,1.651 -0.396,0.686 -0.604,1.463 -0.604,2.255 0,0.792 0.208,1.569 0.604,2.255 0.396,0.686 0.965,1.255 1.651,1.651 0.686,0.396 1.463,0.604 2.255,0.604 -0.006,0 -0.01,-0.004 -0.01,-0.01 v 3 c 0,0.006 0.004,0.01 0.01,0.01 h 2.99 c 0.01,0 0,-0.01 0,0 V 25 c 0,0.01 0.01,0 0,0 h -2.99 c -0.006,0 -0.01,0.004 -0.01,0.01 v 3 c 0,0.006 0.004,0.01 0.01,0.01 h 3 c 0.528,0 1.047,-0.139 1.505,-0.403 0.458,-0.264 0.838,-0.644 1.102,-1.102 0.264,-0.458 0.403,-0.977 0.403,-1.505 v -9 c 0,-1.055 -0.278,-2.091 -0.805,-3.005 -0.528,-0.914 -1.286,-1.672 -2.2,-2.2 C 64.741,10.278 63.705,10 62.65,10 Z"
       stroke="#000000"
       stroke-width="0.05"
       id="path4493" />
    <path
       style="stroke:#ff0000;stroke-opacity:1;stroke-width:0.09999225;stroke-miterlimit:4;stroke-dasharray:none"
       d="m 77.76,34.02 c 0,0.305 -0.088,0.603 -0.252,0.86 -0.165,0.256 -0.4,0.46 -0.677,0.586 -0.278,0.127 -0.586,0.171 -0.887,0.128 -0.302,-0.044 -0.585,-0.173 -0.815,-0.372 -0.231,-0.2 -0.399,-0.462 -0.485,-0.754 -0.085,-0.293 -0.085,-0.603 0,-0.896 0.086,-0.292 0.254,-0.554 0.485,-0.754 0.23,-0.199 0.513,-0.328 0.815,-0.372 0.301,-0.043 0.609,0.001 0.887,0.128 0.277,0.126 0.512,0.33 0.677,0.586 0.164,0.257 0.252,0.555 0.252,0.86 z"
       stroke="#0000ff"
       stroke-width="0.05"
       id="path4495" />
    <path
       style="stroke:#ff0000;stroke-opacity:1;stroke-width:0.09999225;stroke-miterlimit:4;stroke-dasharray:none"
       d="m 76.17,38.52 c 0.792,0 1.569,-0.208 2.255,-0.604 0.686,-0.396 1.255,-0.965 1.651,-1.651 0.396,-0.686 0.604,-1.463 0.604,-2.255 0,-0.792 -0.208,-1.569 -0.604,-2.255 C 79.68,31.069 79.111,30.5 78.425,30.104 77.739,29.708 76.962,29.5 76.17,29.5 c 0.006,0 0.01,0.004 0.01,0.01 v -3 c 0,-0.006 -0.004,-0.01 -0.01,-0.01 h -2.99 c -0.01,0 0,0.01 0,0 v -2.98 c 0,-0.01 -0.01,0 0,0 h 2.99 c 0.006,0 0.01,-0.004 0.01,-0.01 v -3 c 0,-0.006 -0.004,-0.01 -0.01,-0.01 h -3 c -0.528,0 -1.047,0.139 -1.505,0.403 -0.458,0.264 -0.838,0.644 -1.102,1.102 -0.264,0.458 -0.403,0.977 -0.403,1.505 v 9 c 0,1.055 0.278,2.091 0.805,3.005 0.528,0.914 1.286,1.672 2.2,2.2 0.914,0.527 1.95,0.805 3.005,0.805 z"
       stroke="#000000"
       stroke-width="0.05"
       id="path4497" />
    <path
       style="stroke:#ff0000;stroke-opacity:1;stroke-width:0.09999225;stroke-miterlimit:4;stroke-dasharray:none"
       d="m 76.1,14.5 c 0,-0.305 0.088,-0.603 0.252,-0.86 0.165,-0.256 0.4,-0.46 0.677,-0.586 0.278,-0.127 0.586,-0.171 0.887,-0.128 0.302,0.044 0.585,0.173 0.815,0.372 0.231,0.2 0.399,0.462 0.485,0.754 0.085,0.293 0.085,0.603 0,0.896 -0.086,0.292 -0.254,0.554 -0.485,0.754 -0.23,0.199 -0.513,0.328 -0.815,0.372 -0.301,0.043 -0.609,-0.001 -0.887,-0.128 C 76.752,15.82 76.517,15.616 76.352,15.36 76.188,15.103 76.1,14.805 76.1,14.5 Z"
       stroke="#0000ff"
       stroke-width="0.05"
       id="path4499" />
    <path
       style="stroke:#ff0000;stroke-opacity:1;stroke-width:0.09999225;stroke-miterlimit:4;stroke-dasharray:none"
       d="m 77.69,10 c -0.792,0 -1.569,0.208 -2.255,0.604 -0.686,0.396 -1.255,0.965 -1.651,1.651 -0.396,0.686 -0.604,1.463 -0.604,2.255 0,0.792 0.208,1.569 0.604,2.255 0.396,0.686 0.965,1.255 1.651,1.651 0.686,0.396 1.463,0.604 2.255,0.604 -0.006,0 -0.01,-0.004 -0.01,-0.01 v 3 c 0,0.006 0.004,0.01 0.01,0.01 h 2.99 c 0.01,0 0,-0.01 0,0 V 25 c 0,0.01 0.01,0 0,0 h -2.99 c -0.006,0 -0.01,0.004 -0.01,0.01 v 3 c 0,0.006 0.004,0.01 0.01,0.01 h 3 c 0.528,0 1.047,-0.139 1.505,-0.403 0.458,-0.264 0.838,-0.644 1.102,-1.102 0.264,-0.458 0.403,-0.977 0.403,-1.505 v -9 c 0,-1.055 -0.278,-2.091 -0.805,-3.005 -0.528,-0.914 -1.286,-1.672 -2.2,-2.2 C 79.781,10.278 78.745,10 77.69,10 Z"
       stroke="#000000"
       stroke-width="0.05"
       id="path4501" />
  </g>
</svg>
