<?xml version="1.0" encoding="UTF-8" standalone="no"?>
<svg
   xmlns:dc="http://purl.org/dc/elements/1.1/"
   xmlns:cc="http://creativecommons.org/ns#"
   xmlns:rdf="http://www.w3.org/1999/02/22-rdf-syntax-ns#"
   xmlns:svg="http://www.w3.org/2000/svg"
   xmlns="http://www.w3.org/2000/svg"
   xmlns:sodipodi="http://sodipodi.sourceforge.net/DTD/sodipodi-0.dtd"
   xmlns:inkscape="http://www.inkscape.org/namespaces/inkscape"
   width="100mm"
   height="100mm"
   viewBox="0 0 100 100"
   version="1.1"
   id="svg940"
   inkscape:version="1.0.1 (3bc2e813f5, 2020-09-07)"
   sodipodi:docname="chest.svg">
  <defs
     id="defs934" />
  <sodipodi:namedview
     id="base"
     pagecolor="#ffffff"
     bordercolor="#666666"
     borderopacity="1.0"
     inkscape:pageopacity="0.0"
     inkscape:pageshadow="2"
     inkscape:zoom="3.959798"
     inkscape:cx="168.90688"
     inkscape:cy="152.83448"
     inkscape:document-units="mm"
     inkscape:current-layer="layer1"
     inkscape:document-rotation="0"
     showgrid="false"
     inkscape:window-width="1920"
     inkscape:window-height="1027"
     inkscape:window-x="1912"
     inkscape:window-y="22"
     inkscape:window-maximized="1" />
  <metadata
     id="metadata937">
    <rdf:RDF>
      <cc:Work
         rdf:about="">
        <dc:format>image/svg+xml</dc:format>
        <dc:type
           rdf:resource="http://purl.org/dc/dcmitype/StillImage" />
        <dc:title></dc:title>
      </cc:Work>
    </rdf:RDF>
  </metadata>
  <g
     inkscape:label="Layer 1"
     inkscape:groupmode="layer"
     id="layer1">
    <path
       id="rect6158"
       style="display:inline;fill:none;stroke:#ff0000;stroke-width:0.01;stroke-linecap:round;stroke-linejoin:miter;stroke-miterlimit:8.99484158;stroke-dasharray:none;stroke-opacity:1"
       d="m 61.649708,5.2382239 v -2.004916 h 2.004904 c 9.032324,0 18.2999,2.11e-4 26.041925,2.11e-4 v 2.004915 h -2.078953 c 0.06708,7.6319981 7.94e-4,15.2225741 -1.9e-4,21.8109471 -2.847782,0 -5.700588,0 -8.261085,0 2e-6,0.669776 4e-6,1.559974 4e-6,2.22975 -0.07448,3.532757 -7.590734,3.532757 -7.590734,0 -10e-7,-0.669776 -10e-7,-1.560794 -4e-6,-2.230569 -2.831565,0 -5.617378,0.0021 -8.037008,0.0021 1e-6,-7.344113 -8.74e-4,-14.468325 -8.74e-4,-21.8124381 -0.692663,0 -1.385332,0 -2.077998,0 z"
       inkscape:connector-curvature="0"
       sodipodi:nodetypes="cccccccccsccccc" />
    <path
       style="display:inline;fill:none;stroke:#ff0000;stroke-width:0.01;stroke-linecap:round;stroke-miterlimit:8.99484158;stroke-dasharray:none;stroke-opacity:1"
       d="M 5.8504727,29.214905 H 4.2828348 c 0,-1.221726 0,-2.443432 0,-3.665158 H 2.2735205 v -3.83257 h 2.0093143 c 0,-1.277508 0,-2.331801 0,-3.60931 -0.6697762,0 -1.3395453,-4.2e-5 -2.0093143,0 v -3.832586 c 0.669773,0 1.3395381,0 2.0093143,0 V 10.665969 H 2.2735205 V 6.8333989 H 4.2828348 V 3.1682629 H 4.4395924 28.31888 v 3.665136 h 2.009313 V 10.665969 H 28.31888 v 3.609312 c 0.669775,0 1.33954,0 2.009313,0 v 3.832586 c -0.669769,-4.2e-5 -1.339538,0 -2.009313,0 0,1.277509 0,2.331802 0,3.60931 h 2.009313 v 3.83257 H 28.31888 c 0,1.221726 0,2.443432 0,3.665158 h -3.776743 v -2.009306 l -3.609332,-2.1e-5 v 2.009327 c -1.277531,0 -2.555039,0 -3.83257,0 0,-0.669776 -2.1e-5,-1.339551 0,-2.009306 l -3.609332,-2.1e-5 c 0,0.669776 0,1.339551 0,2.009327 H 9.6582891 v -2.009306 l -3.6092904,-2.1e-5 v 2.009327 z"
       id="path9274-7-5-1"
       inkscape:connector-curvature="0"
       sodipodi:nodetypes="ccccccccccccccccccccccccccccccccccccccccccc" />
    <g
       id="g7926"
       transform="matrix(0.21002684,0,0,0.21002684,0.26964854,-158.23091)"
       style="display:inline;stroke:#ff0000;stroke-opacity:1;stroke-width:0.04761297;stroke-miterlimit:8.99484158;stroke-dasharray:none">
      <path
         inkscape:connector-curvature="0"
         id="line78421-2-5"
         d="m 417.76713,919.1888 c -5.81691,0 -11.63387,0 -17.45078,0 v -9.56693 c -6.08267,0 -12.16538,0 -18.24804,0 v 9.56693 c -5.72836,0 -11.45672,0 -17.18503,0 0,-3.18895 0,-6.37797 0,-9.56693 h -18.24803 v 9.56693 h -17.18522 v -9.56693 H 311.202 c 0,3.18896 0,6.37798 0,9.56693 -2.62791,0 -5.25582,0 -7.88373,0 0,6.08258 0,12.26325 0,17.4508 h -9.56687 c 0,6.08271 0,12.16541 0,18.24812 l 9.56687,-1.3e-4 c 0,5.72845 0,11.45683 0,17.18509 -3.18886,0 -6.37787,0 -9.56687,0 v 18.24799 h 9.56687 v 17.18533 h -9.56687 v 18.248 c 3.189,0 6.37801,0 9.56687,0 5e-5,2.7856 0,5.5133 -4e-5,7.8838 5.81695,0 11.63387,0 17.45082,0 v 9.5669 c 6.08267,0 12.16538,0 18.24804,0 v -9.5669 c 5.72836,0 11.45672,0 17.18503,0 0,3.1889 0,6.3779 0,9.5669 h 18.24803 v -9.5669 h 17.18522 v 9.5669 h 18.24803 c 0,-3.189 0,-6.378 0,-9.5669 2.76257,0 5.52746,0 7.88373,0"
         style="fill:none;stroke:#ff0000;stroke-width:0.04761297;stroke-linecap:round;stroke-linejoin:round;stroke-miterlimit:8.99484158;stroke-dasharray:none;stroke-opacity:1" />
      <path
         sodipodi:nodetypes="cccccccccccccc"
         inkscape:connector-curvature="0"
         id="line78421-2-5-4-9"
         d="m 417.76125,919.19215 c 0,6.08258 0,12.26325 0,17.4508 h 9.56687 c 0,6.08271 0,12.16541 0,18.24812 l -9.56687,-1.3e-4 c 0,5.72845 0,11.45683 0,17.18509 3.18886,0 6.37787,0 9.56687,0 v 18.24799 h -9.56687 v 17.18538 h 9.56687 v 18.248 c -3.189,0 -6.37801,0 -9.56687,0 -5e-5,2.7856 0,5.5133 4e-5,7.8838"
         style="display:inline;fill:none;stroke:#ff0000;stroke-width:0.04761297;stroke-linecap:round;stroke-linejoin:round;stroke-miterlimit:8.99484158;stroke-dasharray:none;stroke-opacity:1" />
    </g>
    <path
       style="display:inline;fill:none;stroke:#ff0000;stroke-width:0.01;stroke-linecap:round;stroke-miterlimit:8.99484158;stroke-dasharray:none;stroke-opacity:1"
       d="m 60.037189,60.81548 c 0,-1.258922 0,-2.517844 0,-3.776744 h -2.009305 l -6e-6,-3.609333 h 2.009311 c 0,-1.27753 3e-6,-2.555039 7e-6,-3.83257 -0.669772,2.1e-5 -1.339543,-2.1e-5 -2.009312,0 l -6e-6,-3.609332 c 0.669771,0 1.339542,0 2.009311,0 v -3.83259 h -2.009308 l -6e-6,-3.609291 h 2.009312 v -3.776765 c -3.478985,-0.0021 -6.95797,0 -10.436956,0 v 2.009305 h -7.404687 v -2.009305 l -10.21399,-2.2e-5 v 3.776766 h 2.009312 l -6e-6,3.60929 h -2.009308 v 3.832612 c 0.669769,0 1.339541,0 2.009312,0 l -6e-6,3.609332 c -0.669769,-2.1e-5 -1.339541,0 -2.009312,0 4e-6,1.277531 6e-6,2.55504 6e-6,3.832549 h 2.009312 l -6e-6,3.609332 h -2.009306 c 0,1.258922 0,2.517844 0,3.776766 h 3.776764 v -2.009327 l 3.609288,2.1e-5 v 2.009306 h 3.832607 c 0,-0.669775 0,-1.339551 0,-2.009327 l 3.609333,2.1e-5 c -3.2e-5,0.669755 6e-6,1.339531 -3e-6,2.009306 1.277523,0 2.555044,0 3.832566,0 v -2.009327 l 3.609333,2.1e-5 v 2.009306 c 1.928583,0.0021 3.857166,0 5.785749,0 z"
       id="path8259-0"
       inkscape:connector-curvature="0"
       sodipodi:nodetypes="ccccccccccccccccccccccccccccccccccccccccccccc" />
    <path
       id="path9152"
       style="display:inline;fill:none;stroke:#ff0000;stroke-width:0.01;stroke-linecap:round;stroke-linejoin:miter;stroke-miterlimit:8.99484158;stroke-dasharray:none;stroke-opacity:1"
       d="m 2.2079103,34.94408 c 0.5608848,-1.859977 2.5233735,-2.913094 4.3833418,-2.352195 1.130033,0.340768 2.013836,1.225569 2.353332,2.355975 h 0.05994 19.2482909 l -2e-6,3.665137 h 2.009312 v 3.83257 h -2.009312 v 3.609332 c 0.669767,0 1.339539,0 2.009312,0 v 3.832569 c -0.669769,-4.2e-5 -1.339541,0 -2.009312,0 2e-6,1.27751 -2e-6,2.331802 0,3.609312 h 2.009312 v 3.832591 h -2.009312 c 0,1.221705 0,2.44341 0,3.665136 h -3.776751 v -2.009306 l -3.609332,-2.1e-5 v 2.009327 c -1.277521,0 -2.555044,0 -3.832567,0 8e-6,-0.669775 -2.7e-5,-1.339552 2e-6,-2.009306 l -3.60933,-2.1e-5 c 0,0.669775 0,1.339552 0,2.009327 H 9.5922271 V 58.98518 H 5.9829385 v 2.009306 H 2.2061751 c 0,-1.258901 0,-2.517823 0,-3.776745 h 2.0093063 l 4e-6,-3.609332 H 2.2061751 c 0,-1.27751 -1.6e-6,-2.55504 -5.6e-6,-3.83257 0.6697707,2.1e-5 1.3395421,-2.1e-5 2.0093119,2.1e-5 l 4e-6,-3.609353 c -0.6697698,0 -1.3395405,0 -2.0093103,0 v -3.832591 h 2.0093063 l 5.6e-6,-3.60929 H 2.2061799 V 34.94786 l 0.00167,-0.0044 M 5.573604,34.630173 c 0.7177544,0 1.2996111,0.587719 1.2996111,1.312732 0,0.724991 -0.5818567,1.312709 -1.2996111,1.312709 -0.717756,0 -1.2996122,-0.587718 -1.2996122,-1.312709 0,-0.725013 0.5818562,-1.312732 1.2996122,-1.312732 z"
       inkscape:connector-curvature="0"
       inkscape:export-filename="I:\~Projects\Laser Cutter\g5862.png"
       inkscape:export-xdpi="299.99835"
       inkscape:export-ydpi="299.99835" />
    <path
       inkscape:connector-curvature="0"
       id="path9152-3"
       style="display:inline;fill:none;stroke:#ff0000;stroke-width:0.01;stroke-linecap:round;stroke-linejoin:miter;stroke-miterlimit:8.99484158;stroke-dasharray:none;stroke-opacity:1"
       d="M 60.311023,3.3120269 C 59.750137,1.4520708 57.787651,0.39895386 55.927682,0.95985183 54.79765,1.3006198 53.913847,2.1854208 53.574349,3.3158279 h -0.05993 -19.248294 l 3e-6,3.665137 h -2.009316 v 3.8325691 h 2.009312 v 3.609328 c -0.669767,0 -1.339539,0 -2.009312,0 v 3.83257 c 0.66977,-4.2e-5 1.339541,0 2.009312,0 -2e-6,1.27753 2e-6,2.331802 0,3.60931 h -2.009312 v 3.832592 h 2.009312 c 0,1.221704 0,2.443409 0,3.665135 h 3.776746 v -2.009305 l 3.609334,-2.1e-5 v 2.009326 c 1.277523,0 2.555044,0 3.832566,0 -8e-6,-0.669775 2.9e-5,-1.339551 -2e-6,-2.009305 l 3.609332,-2.1e-5 c 0,0.669775 0,1.339551 0,2.009326 h 3.832608 v -2.009305 l 3.609288,-2.1e-5 v 2.009326 h 3.776763 c 0,-1.258922 0,-2.517844 0,-3.776765 h -2.009305 l -5e-6,-3.609333 h 2.00931 c 0,-1.277508 2e-6,-2.555038 7e-6,-3.832548 -0.669772,0 -1.339543,-4.2e-5 -2.009312,0 l -5e-6,-3.609332 c 0.66977,0 1.339541,0 2.00931,0 v -3.832607 h -2.009305 l -6e-6,-3.6092901 h 2.009307 v -3.776766 l -0.0017,-0.0044 m -3.365769,-0.313274 c -0.717754,0 -1.29961,0.587719 -1.29961,1.312731 0,0.724992 0.581856,1.31271 1.29961,1.31271 0.717756,0 1.29961,-0.587718 1.29961,-1.31271 0,-0.725012 -0.581854,-1.312731 -1.29961,-1.312731 z" />
  </g>
</svg>
