<?xml version="1.0" encoding="UTF-8" standalone="no"?>
<svg
   xmlns:dc="http://purl.org/dc/elements/1.1/"
   xmlns:cc="http://creativecommons.org/ns#"
   xmlns:rdf="http://www.w3.org/1999/02/22-rdf-syntax-ns#"
   xmlns:svg="http://www.w3.org/2000/svg"
   xmlns="http://www.w3.org/2000/svg"
   xmlns:xlink="http://www.w3.org/1999/xlink"
   xmlns:sodipodi="http://sodipodi.sourceforge.net/DTD/sodipodi-0.dtd"
   xmlns:inkscape="http://www.inkscape.org/namespaces/inkscape"
   width="100mm"
   height="100mm"
   viewBox="0 0 100 100"
   version="1.1"
   id="svg8"
   inkscape:version="1.0.1 (3bc2e813f5, 2020-09-07)"
   sodipodi:docname="stadslabtest.svg">
  <defs
     id="defs2">
    <linearGradient
       inkscape:collect="always"
       id="linearGradient962">
      <stop
         style="stop-color:#adacbe;stop-opacity:1;"
         offset="0"
         id="stop958" />
      <stop
         style="stop-color:#adacbe;stop-opacity:0;"
         offset="1"
         id="stop960" />
    </linearGradient>
    <rect
       x="29.266013"
       y="21.381562"
       width="70.960059"
       height="13.764381"
       id="rect70" />
    <rect
       x="3.3408691"
       y="7.6171815"
       width="90.60437"
       height="46.103994"
       id="rect56" />
    <linearGradient
       inkscape:collect="always"
       xlink:href="#linearGradient962"
       id="linearGradient964"
       x1="22.196315"
       y1="128.40771"
       x2="355.54666"
       y2="128.40771"
       gradientUnits="userSpaceOnUse"
       gradientTransform="matrix(0.26458333,0,0,0.26458333,0,50.380306)" />
  </defs>
  <sodipodi:namedview
     id="base"
     pagecolor="#ffffff"
     bordercolor="#666666"
     borderopacity="1.0"
     inkscape:pageopacity="0.0"
     inkscape:pageshadow="2"
     inkscape:zoom="3.959798"
     inkscape:cx="146.24585"
     inkscape:cy="110.46772"
     inkscape:document-units="mm"
     inkscape:current-layer="layer3"
     inkscape:document-rotation="0"
     showgrid="false"
     showguides="false"
     inkscape:window-width="1920"
     inkscape:window-height="1027"
     inkscape:window-x="1912"
     inkscape:window-y="22"
     inkscape:window-maximized="1" />
  <metadata
     id="metadata5">
    <rdf:RDF>
      <cc:Work
         rdf:about="">
        <dc:format>image/svg+xml</dc:format>
        <dc:type
           rdf:resource="http://purl.org/dc/dcmitype/StillImage" />
        <dc:title></dc:title>
      </cc:Work>
    </rdf:RDF>
  </metadata>
  <g
     inkscape:label="Layer 1"
     inkscape:groupmode="layer"
     id="layer1"
     sodipodi:insensitive="true">
    <text
       xml:space="preserve"
       id="text54"
       style="font-style:normal;font-weight:normal;font-size:10.5833px;line-height:1.25;font-family:sans-serif;letter-spacing:0px;word-spacing:0px;white-space:pre;shape-inside:url(#rect56);fill:#000000;fill-opacity:1;stroke:none;" />
    <rect
       style="fill:#ffffff;stroke:#ff0000;stroke-width:0.01;stroke-miterlimit:4;stroke-dasharray:none;stroke-opacity:1"
       id="rect64"
       width="88.466217"
       height="47.707607"
       x="5.7462945"
       y="10.156241" />
    <circle
       style="fill:#ffffff;stroke:#ff0000;stroke-width:0.01;stroke-miterlimit:4;stroke-dasharray:none;stroke-opacity:1"
       id="path66"
       cx="15.635267"
       cy="20.579754"
       r="5.6126599" />
  </g>
  <g
     inkscape:groupmode="layer"
     id="layer3"
     inkscape:label="Layer 3">
    <path
       id="path1024"
       style="fill:#000000;fill-opacity:1;stroke:#ff0000;stroke-width:0.0377953;stroke-miterlimit:4;stroke-dasharray:none;stroke-opacity:1"
       d="M 184.35352 46.212891 A 5.8083772 4.9244935 0 0 0 178.94336 49.345703 A 7.5761439 5.555839 0 0 0 172.98828 47.224609 A 7.5761439 5.555839 0 0 0 166.47852 49.939453 A 8.207489 6.1871841 0 0 0 160.48828 47.982422 A 8.207489 6.1871841 0 0 0 153.61523 50.787109 A 6.8185296 5.3033008 0 0 0 152.08398 51.048828 A 5.6821077 4.2931483 0 0 0 148.36523 50.001953 A 5.6821077 4.2931483 0 0 0 143.1875 52.527344 A 11.743023 8.0812203 0 0 0 143.0625 52.527344 A 11.743023 8.0812203 0 0 0 131.79297 58.335938 A 6.4429085 3.3214713 0 0 0 131.70117 58.335938 A 6.4429085 3.3214713 0 0 0 125.25781 61.65625 A 6.4429085 3.3214713 0 0 0 126.36914 63.521484 A 8.463213 8.0164018 0 0 0 121.81445 67.941406 A 5.4295695 6.1871841 0 0 0 116.67188 74.119141 A 5.4295695 6.1871841 0 0 0 116.68945 74.605469 A 10.606602 10.227795 0 0 0 112.88477 82.453125 A 10.606602 10.227795 0 0 0 113.75 86.5 A 10.480332 9.7227182 0 0 0 113.13672 89.777344 A 10.480332 9.7227182 0 0 0 113.17188 90.566406 A 6.6922605 8.7125654 0 0 0 111.11719 96.847656 A 6.6922605 8.7125654 0 0 0 111.30469 98.894531 A 11.111678 10.101525 0 0 0 107.07617 106.82227 A 11.111678 10.101525 0 0 0 112.43945 115.4668 A 9.091372 10.606602 0 0 0 112.37891 116.67188 A 9.091372 10.606602 0 0 0 120.0293 127.14453 A 11.995562 8.0812203 0 0 0 119.95508 128.03516 A 11.995562 8.0812203 0 0 0 131.95117 136.11719 A 11.995562 8.0812203 0 0 0 135.5957 135.73633 A 28.214284 30.357142 0 0 0 135.59766 135.73633 A 28.214284 30.357142 0 0 0 138.14453 136.75781 L 138.14453 152.12109 L 208.50195 152.12109 L 208.50195 139.21484 A 22.678571 31.607144 0 0 0 228.66406 118.07227 A 44.446707 10.101525 0 0 1 221.98047 118.1875 A 44.446707 10.101525 0 0 1 210.66406 117.85547 A 34.782704 10.422917 0 0 0 177.5332 108.09766 A 44.446707 10.101525 0 0 1 177.5332 108.08594 A 44.446707 10.101525 0 0 1 221.98047 97.984375 A 44.446707 10.101525 0 0 1 228.87109 98.105469 A 22.678571 31.607144 0 0 0 211.27344 76.550781 A 5.555839 6.8185296 0 0 0 213.64648 70.962891 A 5.555839 6.8185296 0 0 0 212.29883 66.511719 A 7.9549512 6.6922605 0 0 0 213.14258 63.511719 A 7.9549512 6.6922605 0 0 0 208.44727 57.410156 A 6.8976291 6.7307357 0 0 0 201.60352 51.517578 A 6.8976291 6.7307357 0 0 0 198.18359 52.404297 A 5.0507626 5.0507626 0 0 0 194.45508 50.759766 A 5.0507626 5.0507626 0 0 0 192.83203 51.027344 A 3.7880719 2.6516504 0 0 0 190.16016 50.253906 A 3.7880719 2.6516504 0 0 0 190.06641 50.255859 A 5.8083772 4.9244935 0 0 0 184.35352 46.212891 z M 185.10938 79.800781 A 8.5862963 8.5862963 0 0 1 193.69727 88.386719 A 8.5862963 8.5862963 0 0 1 185.10938 96.974609 A 8.5862963 8.5862963 0 0 1 176.52344 88.386719 A 8.5862963 8.5862963 0 0 1 185.10938 79.800781 z M 190.03516 84.853516 A 3.1567266 4.1668789 0 0 0 186.87891 89.019531 A 3.1567266 4.1668789 0 0 0 190.03516 93.1875 A 3.1567266 4.1668789 0 0 0 193.19141 89.019531 A 3.1567266 4.1668789 0 0 0 190.03516 84.853516 z "
       transform="scale(0.26458333)" />
    <path
       style="fill:#000000;stroke-width:0.0267128"
       d="m 70.262532,38.682066 c -0.202137,-0.06689 -0.233705,-0.08491 -0.221017,-0.126148 0.0082,-0.02647 0.463962,-1.439789 1.012936,-3.140723 l 0.998132,-3.092608 -0.361386,0.0166 c -0.198761,0.0091 -1.730393,0.08818 -3.403629,0.175676 -1.673235,0.08749 -3.046533,0.1591 -3.051771,0.159123 -0.01339,8.3e-5 -0.05306,-0.375448 -0.0425,-0.402607 0.03254,-0.08369 2.414641,-0.450765 5.423623,-0.835771 0.662037,-0.08471 1.284814,-0.18015 1.383951,-0.212092 0.406871,-0.13109 0.722583,-0.365527 0.965107,-0.716647 0.05645,-0.08173 0.276928,-0.496399 0.489943,-0.921476 0.616214,-1.229668 1.084818,-2.063181 1.714571,-3.049728 1.252923,-1.962782 2.596438,-3.562337 4.274819,-5.089484 0.463557,-0.421783 1.734043,-1.389972 2.177811,-1.659604 1.339327,-0.813802 2.442407,-1.273614 3.784547,-1.577565 0.92475,-0.209426 2.176232,-0.302588 2.832051,-0.210819 0.314308,0.04398 0.486682,0.09709 0.730232,0.224979 0.157558,0.08274 0.191091,0.112542 0.320279,0.284711 0.112088,0.149172 0.154061,0.2279 0.187954,0.351287 0.136393,0.496736 0.02347,1.194514 -0.370245,2.287793 -1.291867,3.587313 -3.913044,6.286834 -7.974832,8.213185 -1.055583,0.500624 -1.983279,0.839013 -4.605734,1.68001 -1.038967,0.333185 -1.933631,0.641577 -2.261465,0.779529 -0.288444,0.121372 -0.626333,0.341171 -0.849423,0.552548 -0.260736,0.247033 -0.345042,0.363569 -0.52363,0.723743 -0.293632,0.592197 -0.907025,1.995276 -1.222423,2.796178 -0.04138,0.105079 -0.305703,0.752664 -0.587385,1.439073 -0.281677,0.686406 -0.528463,1.288707 -0.548412,1.338446 l -0.03627,0.09044 z M 84.437347,26.066714 c 2.265287,-1.94061 3.630195,-4.187191 3.998726,-6.581735 l 0.07027,-0.456607 -0.414009,-0.02115 c -3.620764,-0.184973 -7.154724,1.739426 -10.256789,5.585283 -1.256506,1.557783 -2.341501,3.286322 -3.380549,5.385661 l -0.331394,0.669565 0.408267,-0.07981 c 3.049555,-0.596157 6.054978,-1.792923 8.337222,-3.319899 0.465075,-0.311163 1.189599,-0.856926 1.568223,-1.181343 z"
       id="path1096" />
  </g>
  <g
     inkscape:groupmode="layer"
     id="layer2"
     inkscape:label="Layer 2"
     sodipodi:insensitive="true">
    <text
       xml:space="preserve"
       id="text68"
       style="font-style:normal;font-weight:normal;font-size:10.5833px;line-height:1.25;font-family:sans-serif;letter-spacing:0px;word-spacing:0px;white-space:pre;shape-inside:url(#rect70);fill:#000000;fill-opacity:1;stroke:none;"
       transform="translate(-2.271791,19.91158)"><tspan
         x="29.265625"
         y="31.036324"><tspan>Paul Wondel</tspan></tspan></text>
  </g>
</svg>
