#define dragon_quest_logo1_width 128
#define dragon_quest_logo1_height 63
static unsigned char dragon_quest_logo1_bits[] = {
   0x00, 0x00, 0x00, 0x00, 0x00, 0x00, 0x00, 0x00, 0x00, 0x00, 0x00, 0x00,
   0x00, 0x00, 0x00, 0x00, 0x00, 0xe0, 0x00, 0x00, 0x00, 0x00, 0x00, 0x00,
   0x00, 0x00, 0x00, 0x00, 0x00, 0x00, 0x00, 0x00, 0x00, 0xf8, 0x63, 0x00,
   0x00, 0x00, 0x00, 0x00, 0x00, 0x00, 0x00, 0x00, 0x00, 0x00, 0x00, 0x00,
   0x00, 0xfc, 0xc7, 0x11, 0x00, 0x00, 0x00, 0x00, 0x00, 0x00, 0x00, 0x00,
   0x00, 0x00, 0x00, 0x00, 0x00, 0xff, 0x0f, 0x6f, 0x00, 0x00, 0x00, 0x00,
   0x00, 0x00, 0x00, 0x00, 0x00, 0x00, 0x00, 0x00, 0x00, 0xff, 0x09, 0xde,
   0x00, 0x00, 0x00, 0x00, 0x00, 0x00, 0x00, 0x00, 0x00, 0x00, 0x00, 0x00,
   0x80, 0xff, 0x00, 0xf8, 0x01, 0x00, 0x00, 0x00, 0x00, 0x00, 0x00, 0x00,
   0x00, 0x00, 0x00, 0x00, 0xc0, 0x7f, 0x00, 0xf0, 0x03, 0x00, 0x00, 0x00,
   0x00, 0x00, 0x00, 0x00, 0x00, 0x00, 0x00, 0x00, 0xc0, 0x7f, 0x00, 0xe9,
   0x07, 0x00, 0x00, 0x00, 0x00, 0x00, 0x00, 0x00, 0x80, 0xff, 0x05, 0x00,
   0xe0, 0x3f, 0xd0, 0xff, 0x07, 0x00, 0x00, 0x00, 0x00, 0x00, 0x00, 0x00,
   0xe0, 0xff, 0x07, 0x00, 0xe0, 0x3f, 0xf4, 0xff, 0x17, 0x00, 0x00, 0x00,
   0x00, 0x00, 0x00, 0x00, 0xf0, 0xff, 0x0f, 0x00, 0xf0, 0x3f, 0xfe, 0xff,
   0x3f, 0x02, 0x00, 0x00, 0x00, 0x00, 0x00, 0x00, 0x18, 0xe0, 0x7f, 0x00,
   0xf0, 0x3f, 0xfe, 0xff, 0xff, 0x03, 0x00, 0x00, 0x00, 0x00, 0x00, 0x00,
   0x0c, 0x80, 0x7f, 0x00, 0xf0, 0xff, 0xff, 0xff, 0xc3, 0x03, 0x00, 0x00,
   0x00, 0x00, 0x00, 0x00, 0x02, 0x00, 0x3f, 0x00, 0xf8, 0xe3, 0xff, 0x7f,
   0x03, 0x00, 0x00, 0x00, 0x00, 0x00, 0x00, 0x00, 0x00, 0x00, 0x5e, 0x00,
   0xf8, 0x81, 0xff, 0x67, 0x0b, 0x00, 0x00, 0x00, 0x00, 0x00, 0x00, 0x00,
   0x00, 0x00, 0x04, 0x00, 0xf8, 0x00, 0xfe, 0x07, 0x06, 0x00, 0x00, 0x00,
   0x00, 0x00, 0x00, 0x00, 0x00, 0x00, 0x00, 0x00, 0xfc, 0x00, 0xfe, 0x01,
   0x06, 0x00, 0x00, 0x00, 0x00, 0x00, 0x00, 0x00, 0x00, 0x00, 0x00, 0x00,
   0x7c, 0x20, 0xf0, 0x00, 0x04, 0x00, 0x00, 0x00, 0x00, 0x00, 0x00, 0x00,
   0x00, 0x00, 0x00, 0x08, 0x7c, 0x00, 0x40, 0x70, 0x00, 0x00, 0x00, 0x00,
   0x00, 0x00, 0x00, 0x00, 0x00, 0x00, 0x00, 0x0e, 0x7c, 0x00, 0x00, 0xd8,
   0x08, 0x00, 0x00, 0x00, 0x00, 0x00, 0x00, 0x00, 0x00, 0x00, 0x00, 0x0c,
   0x7c, 0x00, 0x00, 0x3c, 0x18, 0x00, 0x00, 0x00, 0x00, 0x00, 0x00, 0x00,
   0x00, 0x00, 0x00, 0x1c, 0x7e, 0x04, 0x00, 0x78, 0x00, 0x00, 0x00, 0x00,
   0x00, 0x00, 0x00, 0x00, 0x00, 0x04, 0x00, 0x3e, 0x3e, 0x02, 0x00, 0x40,
   0x00, 0x00, 0x00, 0x00, 0x00, 0x00, 0x00, 0x00, 0x00, 0x00, 0x00, 0x3e,
   0xbe, 0x81, 0x00, 0x60, 0x00, 0x00, 0x00, 0x00, 0x00, 0x00, 0x00, 0x00,
   0x40, 0x40, 0x80, 0x3e, 0x3e, 0x0b, 0x21, 0x00, 0x00, 0x00, 0x00, 0x00,
   0x00, 0x00, 0x00, 0x00, 0x00, 0x00, 0x84, 0x3f, 0x3e, 0x8f, 0x41, 0x00,
   0x01, 0x00, 0x00, 0x00, 0x00, 0x00, 0x00, 0x00, 0x00, 0x02, 0x81, 0x7f,
   0x3a, 0xcf, 0x05, 0x00, 0x00, 0x00, 0x00, 0x00, 0x00, 0x00, 0x00, 0x00,
   0x00, 0x01, 0x00, 0x7f, 0xba, 0xe7, 0x80, 0x01, 0x00, 0x00, 0x00, 0x00,
   0x00, 0x00, 0x00, 0x00, 0x90, 0x01, 0x80, 0x7f, 0xca, 0x6f, 0x00, 0x07,
   0x00, 0x00, 0x00, 0x00, 0x00, 0x00, 0x00, 0x00, 0xc0, 0x01, 0xe0, 0x3f,
   0x8a, 0x7f, 0x00, 0x0f, 0x01, 0x00, 0x00, 0x00, 0x00, 0x00, 0x00, 0x80,
   0x00, 0x00, 0xe0, 0x7f, 0x8a, 0x3f, 0x00, 0x1b, 0x20, 0x00, 0x00, 0x00,
   0x00, 0x00, 0x00, 0x80, 0x00, 0x00, 0xe0, 0x7f, 0x8a, 0x7f, 0x00, 0x0e,
   0x60, 0x00, 0x00, 0x00, 0x00, 0x00, 0x00, 0x80, 0x00, 0x00, 0xc0, 0x7f,
   0xca, 0x7f, 0x10, 0x00, 0x42, 0x08, 0x00, 0x00, 0x00, 0x00, 0x01, 0x84,
   0x90, 0x00, 0xc0, 0x7f, 0xca, 0xff, 0x00, 0x20, 0x00, 0x00, 0x30, 0x01,
   0x00, 0x02, 0x80, 0x05, 0x27, 0x00, 0xc0, 0x3f, 0x8a, 0x7f, 0x20, 0x00,
   0x00, 0x00, 0x30, 0x09, 0x00, 0x82, 0x80, 0x27, 0x46, 0x00, 0xf0, 0x7f,
   0x8a, 0xff, 0x01, 0x00, 0x04, 0x48, 0x01, 0x08, 0x40, 0x03, 0x04, 0x47,
   0x6f, 0x00, 0xf0, 0x7f, 0x8a, 0xff, 0xc1, 0xc3, 0xff, 0xfb, 0xcd, 0xbe,
   0xdb, 0x6f, 0xff, 0xff, 0xcf, 0x03, 0xf8, 0x7f, 0x82, 0xff, 0xc1, 0x87,
   0xff, 0xf3, 0xfd, 0xf6, 0xdb, 0x7f, 0xfb, 0xfd, 0xfb, 0x83, 0xff, 0x7f,
   0x82, 0xff, 0xc3, 0x87, 0xf7, 0xf7, 0xfd, 0xf6, 0xcf, 0x7f, 0xfb, 0xf9,
   0xed, 0xc1, 0xff, 0x1f, 0x02, 0xff, 0x83, 0x87, 0xf7, 0xf7, 0xff, 0xf7,
   0xcf, 0xbe, 0xfb, 0xf9, 0xe1, 0xc1, 0xff, 0x1f, 0x02, 0xff, 0x8f, 0x0f,
   0xff, 0x77, 0xdb, 0xf7, 0xcf, 0xbf, 0xff, 0xff, 0xe0, 0xc1, 0xff, 0x1f,
   0x02, 0xff, 0x1f, 0x0f, 0xff, 0xee, 0xfb, 0xf7, 0xcf, 0xbe, 0xdd, 0xff,
   0xf0, 0xe1, 0xff, 0x0f, 0x00, 0xfc, 0x1f, 0x0f, 0xef, 0xef, 0xdb, 0xf7,
   0xcf, 0xbe, 0xdd, 0xe7, 0xf0, 0xe1, 0xff, 0x0f, 0x00, 0xfc, 0x0f, 0x9f,
   0xef, 0xee, 0xff, 0xff, 0xcf, 0xb6, 0xdd, 0xf7, 0xf8, 0xe0, 0xff, 0x0f,
   0x00, 0xfc, 0x8f, 0xff, 0xef, 0xec, 0xff, 0xbf, 0xcd, 0xf7, 0x9f, 0x77,
   0xfc, 0xe1, 0xff, 0x03, 0x00, 0xf8, 0x07, 0xff, 0xef, 0xef, 0xf6, 0xbd,
   0xcd, 0xf7, 0xff, 0x77, 0xfc, 0xe2, 0xff, 0x03, 0x00, 0xf0, 0x0f, 0xff,
   0xef, 0xfd, 0xf6, 0xbc, 0xcd, 0xf7, 0x7e, 0x7f, 0xfe, 0xe7, 0xff, 0x03,
   0x00, 0xe0, 0x0f, 0xff, 0xc7, 0x7d, 0x7e, 0x8e, 0x80, 0xe7, 0x7e, 0xbf,
   0xfe, 0xfc, 0xff, 0x00, 0x00, 0xc0, 0x8f, 0xfe, 0xc7, 0x31, 0x76, 0x8e,
   0x8d, 0xcf, 0x7c, 0x3f, 0xff, 0xf8, 0xff, 0x00, 0x00, 0x80, 0x07, 0xfe,
   0xc3, 0x28, 0x76, 0x00, 0x84, 0x8f, 0x6d, 0x3f, 0xff, 0xfc, 0x3f, 0x00,
   0x00, 0x00, 0x06, 0xfe, 0xcb, 0x2c, 0x00, 0x00, 0x80, 0x83, 0x2d, 0x7e,
   0xff, 0xf8, 0x0f, 0x00, 0x00, 0x00, 0x18, 0xfe, 0xe0, 0x06, 0x00, 0x00,
   0x80, 0x07, 0x58, 0xf6, 0x7f, 0xf0, 0x0b, 0x00, 0x00, 0x00, 0x00, 0x9c,
   0x30, 0x00, 0x00, 0x00, 0x00, 0x03, 0x40, 0xf4, 0x7b, 0x0c, 0x00, 0x00,
   0x00, 0x00, 0x20, 0x5c, 0x00, 0x00, 0x00, 0x00, 0x00, 0x06, 0x00, 0xe8,
   0x1b, 0x0c, 0x00, 0x00, 0x00, 0x00, 0x20, 0x7e, 0x00, 0x00, 0x00, 0x00,
   0x00, 0x00, 0x00, 0x68, 0xf6, 0x00, 0x00, 0x00, 0x00, 0x00, 0x00, 0x37,
   0x00, 0x00, 0x00, 0x00, 0x00, 0x00, 0x00, 0x00, 0xf4, 0x03, 0x00, 0x00,
   0x00, 0x00, 0x00, 0x1f, 0x00, 0x00, 0x00, 0x00, 0x00, 0x00, 0x00, 0x00,
   0xec, 0x07, 0x00, 0x00, 0x00, 0x00, 0x80, 0x03, 0x00, 0x00, 0x00, 0x00,
   0x00, 0x00, 0x00, 0x00, 0xe8, 0x07, 0x00, 0x00, 0x00, 0x00, 0x80, 0x00,
   0x00, 0x00, 0x00, 0x00, 0x00, 0x00, 0x00, 0x00, 0xe0, 0x03, 0x00, 0x00,
   0x00, 0x00, 0x00, 0x00, 0x00, 0x00, 0x00, 0x00, 0x00, 0x00, 0x00, 0x00,
   0x80, 0x03, 0x00, 0x00, 0x00, 0x00, 0x00, 0x00, 0x00, 0x00, 0x00, 0x00,
   0x00, 0x00, 0x00, 0x00, 0x00, 0x02, 0x00, 0x00, 0x00, 0x00, 0x00, 0x00,
   0x00, 0x00, 0x00, 0x00, 0x00, 0x00, 0x00, 0x00, 0x00, 0x00, 0x00, 0x00 };
